<?xml version="1.0" standalone="no"?>
<!DOCTYPE svg PUBLIC "-//W3C//DTD SVG 1.1//EN" "http://www.w3.org/Graphics/SVG/1.1/DTD/svg11.dtd" >
<svg>
<metadata>
Created by FontForge 20090622 at Tue Jan 10 05:14:01 2017
 By deploy user
Copyright (c) 2010 by Stereotypes.de. All rights reserved.
</metadata>
<defs>
<font id="StRyde-Bold" horiz-adv-x="600" >
  <font-face 
    font-family="St Ryde Bold"
    font-weight="700"
    font-stretch="normal"
    units-per-em="1000"
    panose-1="2 0 5 3 2 0 0 2 0 3"
    ascent="800"
    descent="-200"
    x-height="500"
    cap-height="700"
    bbox="-81.9192 -322 1242 944"
    underline-thickness="80"
    underline-position="-80"
    unicode-range="U+000D-U+FB02"
  />
<missing-glyph horiz-adv-x="0" 
d="M80 0v700h626v-700h-626zM116 666v-632h557v632h-557zM228 322q0 67 47.5 114.5t114.5 47.5t114.5 -47.5t47.5 -114.5t-47.5 -114.5t-114.5 -47.5t-114.5 47.5t-47.5 114.5z" />
    <glyph glyph-name="fi" unicode="fi" horiz-adv-x="633" 
d="M388 383h-165v-337q0 -29 -21.5 -38t-62.5 -9q-43 0 -62 16v368h-44q-13 23 -13 51q0 66 57 66v54q0 160 149 160q72 0 97 -18.5t25 -54.5q0 -41 -15 -63h-64q-46 0 -46 -44v-34h226q49 0 77.5 -24.5t28.5 -92.5v-247q0 -30 22 -30h33q8 -18 8 -43q0 -63 -105 -63
q-52 0 -76.5 24.5t-24.5 87.5v240q0 31 -24 31zM389 629q0 80 80 80t80 -80t-80 -80t-80 80z" />
    <glyph glyph-name="fl" unicode="fl" horiz-adv-x="657" 
d="M223 534v-34h96q15 -14 15 -45q0 -27 -12.5 -49.5t-43.5 -22.5h-55v-337q0 -29 -21.5 -38t-62.5 -9q-43 0 -62 16v368h-44q-13 23 -13 51q0 66 57 66v54q0 160 149 160q72 0 97 -18.5t25 -54.5q0 -41 -15 -63h-64q-46 0 -46 -44zM534 638v-470q0 -28 11.5 -40t34.5 -12
h66q6 -18 6 -40q0 -32 -32.5 -54t-103.5 -22q-122 0 -122 137v543q27 23 69 22q71 -3 71 -64z" />
    <glyph glyph-name=".notdef" horiz-adv-x="0" 
d="M80 0v700h626v-700h-626zM116 666v-632h557v632h-557zM228 322q0 67 47.5 114.5t114.5 47.5t114.5 -47.5t47.5 -114.5t-47.5 -114.5t-114.5 -47.5t-114.5 47.5t-47.5 114.5z" />
    <glyph glyph-name=".null" horiz-adv-x="0" 
 />
    <glyph glyph-name=".null" horiz-adv-x="0" 
 />
    <glyph glyph-name="nonmarkingreturn" horiz-adv-x="333" 
 />
    <glyph glyph-name="CR" unicode="&#xd;" horiz-adv-x="0" 
 />
    <glyph glyph-name="space" unicode=" " horiz-adv-x="180" 
 />
    <glyph glyph-name="exclam" unicode="!" horiz-adv-x="248" 
d="M119 701q32 0 55.5 -12t23.5 -39v-437q-18 -18 -75 -18q-73 0 -73 80v413q21 13 69 13zM53 72q0 72 72 72t72 -72t-72 -72t-72 72z" />
    <glyph glyph-name="quotedbl" unicode="&#x22;" horiz-adv-x="396" 
d="M220 463v195q0 24 14 33.5t44 9.5q36 0 52 -15.5t16 -53.5q0 -187 -68 -187q-35 0 -58 18zM50 463v195q0 24 14 33.5t44 9.5q36 0 52 -15.5t16 -53.5q0 -187 -68 -187q-35 0 -58 18z" />
    <glyph glyph-name="numbersign" unicode="#" horiz-adv-x="777" 
d="M690 385h-77l-23 -129h117q14 -20 14 -52t-16 -59t-56 -27h-83l-25 -142q-20 -16 -70 -16q-32 0 -54 14.5t-15 53.5l16 90h-132l-25 -142q-20 -16 -70 -16q-32 0 -54 14.5t-15 53.5l16 90h-107q-16 34 -16 63q0 38 14 56.5t60 18.5h73l22 129h-112q-16 34 -16 63
q0 38 14 56.5t60 18.5h79l31 177q24 13 67 13q33 0 56 -12t19 -39l-25 -139h132l31 177q24 13 67 13q33 0 56 -12t19 -39l-25 -139h111q14 -20 14 -52t-16 -59t-56 -27zM333 385l-23 -129h132l22 129h-131z" />
    <glyph glyph-name="dollar" unicode="$" horiz-adv-x="571" 
d="M301 823q22 0 32.5 -9t9.5 -30l-2 -77q90 -8 137 -54q26 -26 26 -65q0 -30 -27 -70q-59 30 -138 36l-3 -148q105 -25 150 -68t47 -133q2 -88 -49 -145.5t-155 -67.5l-1 -114q-15 -9 -49 -9q-26 0 -38.5 12.5t-11.5 46.5v64q-108 7 -159 47q-36 27 -36 74q0 40 19 72
q72 -38 179 -47l2 142q-103 23 -148 72t-45 145q0 88 52.5 144t148.5 66l2 103q21 13 57 13zM384 197q0 41 -50 59l-2 -115q52 14 52 56zM189 495q0 -38 48 -61l2 116q-50 -12 -50 -55z" />
    <glyph glyph-name="percent" unicode="%" horiz-adv-x="902" 
d="M579 700q33 0 46 -14.5t3 -41.5l-244 -635q-22 -11 -49 -11q-71 0 -43 74l233 621q22 7 54 7zM538 203q0 107 47.5 159t121.5 52q78 0 126 -51.5t48 -159.5q0 -106 -47.5 -156.5t-123.5 -50.5q-77 0 -124.5 51t-47.5 156zM639 200q0 -63 22 -93.5t49 -30.5q68 0 68 124
q0 68 -20.5 99t-50.5 31q-27 0 -47.5 -31.5t-20.5 -98.5zM28 490q0 107 47.5 159t121.5 52q78 0 126 -51.5t48 -159.5q0 -106 -47.5 -156.5t-123.5 -50.5q-77 0 -124.5 51t-47.5 156zM129 487q0 -63 22 -93.5t49 -30.5q68 0 68 124q0 68 -20.5 99t-50.5 31
q-27 0 -47.5 -31.5t-20.5 -98.5z" />
    <glyph glyph-name="ampersand" unicode="&#x26;" horiz-adv-x="789" 
d="M686 321h-68q-20 -94 -59 -162q34 -8 67 -8h106q15 -24 15 -69q0 -82 -108 -82q-93 0 -179 44q-76 -54 -176 -54q-106 0 -168.5 66.5t-62.5 163.5q0 154 137 211q-2 12 -2 38q0 118 56.5 173.5t169.5 55.5q164 0 164 -80q0 -47 -14 -70h-133q-48 0 -69.5 -20.5
t-21.5 -71.5q0 -74 30.5 -139.5t85.5 -107.5q40 49 60 112h-92q-13 27 -13 60q0 71 63 71h241q16 -23 16 -64q0 -67 -45 -67zM344 128q-85 82 -127 192q-32 -29 -32 -94q0 -43 29 -74.5t79 -31.5q30 0 51 8z" />
    <glyph glyph-name="quotesingle" unicode="'" horiz-adv-x="226" 
d="M50 463v195q0 24 14 33.5t44 9.5q36 0 52 -15.5t16 -53.5q0 -187 -68 -187q-35 0 -58 18z" />
    <glyph glyph-name="parenleft" unicode="(" horiz-adv-x="312" 
d="M29 313q0 191 57 295t133 104q31 0 53.5 -16.5t28.5 -46.5q-26 -23 -44 -44.5t-39 -60.5t-32 -97t-11 -133q0 -139 35 -217.5t98 -133.5q-17 -63 -83 -63q-79 0 -137.5 112t-58.5 301z" />
    <glyph glyph-name="parenright" unicode=")" horiz-adv-x="312" 
d="M308 299q0 -191 -57 -295t-133 -104q-31 0 -53.5 16.5t-28.5 46.5q26 23 44 44.5t39 60.5t32 97t11 133q0 139 -35 217.5t-98 133.5q17 63 83 63q79 0 137.5 -112t58.5 -301z" />
    <glyph glyph-name="asterisk" unicode="*" horiz-adv-x="499" 
d="M382 431l-35 8l54 -63q-16 -31 -46 -51q-13 -9 -31.5 -13.5t-39.5 4t-28 35.5l-11 41l-34 -85q-37 4 -59 16q-16 9 -26.5 18t-18.5 21t-4 27t21 32l23 23l-83 -13q-19 31 -19 63q0 41 15 63t59 12l31 -7l-57 65q22 31 49 47q81 48 102 -26l10 -37l29 85q27 5 67 -18
q13 -7 24.5 -20.5t17.5 -35.5t-16 -42l-24 -25l84 14q18 -26 18 -66q0 -17 -5 -34t-22.5 -30.5t-44.5 -7.5z" />
    <glyph glyph-name="plus" unicode="+" horiz-adv-x="499" 
d="M320 413v-80h120q14 -20 14 -69q0 -69 -56 -69h-78v-123q-27 -13 -70 -13q-35 0 -51.5 15.5t-16.5 58.5v62h-124q-13 27 -13 71q0 26 11.5 46.5t34.5 20.5h91v121q20 14 72 14q66 0 66 -55z" />
    <glyph glyph-name="comma" unicode="," horiz-adv-x="229" 
d="M108 0q-36 0 -52 17.5t-16 54.5q0 72 72 72q77 0 77 -102q0 -81 -22 -121.5t-55 -40.5q-39 0 -43 28q17 9 28 41t11 51z" />
    <glyph glyph-name="hyphen" unicode="-" horiz-adv-x="420" 
d="M302 195h-240q-16 34 -16 68q0 70 67 70h246q14 -21 14 -65q0 -73 -71 -73z" />
    <glyph glyph-name="period" unicode="." horiz-adv-x="224" 
d="M40 72q0 72 72 72t72 -72t-72 -72t-72 72z" />
    <glyph glyph-name="slash" unicode="/" horiz-adv-x="307" 
d="M209 713q33 0 56 -12t19 -39l-121 -686q-20 -16 -70 -16q-32 0 -54 14.5t-15 53.5l118 672q24 13 67 13z" />
    <glyph glyph-name="zero" unicode="0" horiz-adv-x="603" 
d="M40 274q0 146 72.5 215.5t186.5 69.5q119 0 191.5 -69t72.5 -216q0 -144 -72 -212.5t-188 -68.5q-117 0 -190 69.5t-73 211.5zM187 268q0 -78 35 -115.5t81 -37.5q111 0 111 153q0 88 -32.5 125.5t-82.5 37.5q-47 0 -79.5 -38t-32.5 -125z" />
    <glyph glyph-name="one" unicode="1" horiz-adv-x="532" 
d="M226 537q24 19 67 19q31 0 54 -12t23 -39l-1 -370h137q16 -23 16 -56q0 -35 -12 -57t-33 -22h-384q-16 34 -16 63q0 37 14 54.5t60 17.5h74v219q-65 -31 -112 -31q-25 0 -44 14.5t-19 46.5q0 28 19 62q5 2 30 10t37.5 13t32.5 15t34 23t23 30z" />
    <glyph glyph-name="two" unicode="2" horiz-adv-x="513" 
d="M36 458q0 42 54 70.5t151 28.5q114 0 169.5 -46.5t55.5 -121.5q0 -42 -20 -80.5t-58.5 -72.5t-78 -60t-94.5 -57h257q11 -17 11 -53q0 -66 -44 -66h-396q-13 32 -13 74q0 67 45 103l59 37.5l65.5 41.5l55.5 38t43.5 37.5t15.5 31.5q0 25 -19.5 36t-63.5 11
q-89 0 -153 -39q-42 35 -42 87z" />
    <glyph glyph-name="three" unicode="3" horiz-adv-x="523" 
d="M316 337q0 68 -86 68q-92 0 -158 -49q-39 31 -39 82q0 48 54.5 84t151.5 36q115 0 170 -53t55 -137q0 -54 -29 -97.5t-73 -53.5v-3q48 -6 82.5 -47.5t34.5 -107.5q0 -38 -13.5 -72.5t-40.5 -64t-74 -46.5t-108 -17q-112 0 -165.5 38t-53.5 87q0 60 46 87q66 -74 166 -74
q45 0 72 21t27 54q0 38 -20.5 56t-68.5 18h-37q-15 0 -24 16.5t-9 42.5q0 36 11 55q53 1 91 21t38 56z" />
    <glyph glyph-name="four" unicode="4" horiz-adv-x="578" 
d="M391 371q65 0 65 -51l1 -197h92q14 -20 14 -64q0 -59 -45 -59h-61l1 -118q-22 -11 -76 -11q-60 0 -60 51l-1 78h-294q-11 15 -11 46q0 22 13 67l131 434q28 14 82 14q27 0 40 -15.5t6 -38.5l-110 -384h143l-1 229q30 19 71 19z" />
    <glyph glyph-name="five" unicode="5" horiz-adv-x="537" 
d="M443 415h-251l-8 -127q43 12 93 12q97 0 161 -51.5t64 -164.5q0 -96 -66 -160t-181 -64q-116 0 -173 37.5t-57 86.5t53 82q68 -80 172 -80q51 0 81 26t30 77q0 92 -138 92q-22 0 -63 -3.5t-69 -3.5q-20 0 -31 17t-10 46l14 299q28 17 86 17h322q16 -23 16 -59
q0 -35 -12 -57t-33 -22z" />
    <glyph glyph-name="six" unicode="6" horiz-adv-x="556" 
d="M40 360q0 160 75.5 247t204.5 87q77 0 127 -20.5t50 -64.5q0 -25 -10.5 -49t-26.5 -31q-62 27 -136 27q-70 0 -102 -37.5t-38 -122.5q64 28 125 28q222 0 222 -202q0 -36 -7.5 -68.5t-25.5 -63t-44.5 -52.5t-67 -35t-91.5 -13q-255 0 -255 370zM292 313q-58 0 -108 -25
q5 -91 30 -129.5t78 -38.5q46 0 72 25.5t26 71.5q0 53 -24 74.5t-74 21.5z" />
    <glyph glyph-name="seven" unicode="7" horiz-adv-x="500" 
d="M200 -137q-33 0 -47 15t-6 38l165 495h-296q-16 23 -16 71q0 27 12.5 49t32.5 22h425q10 -17 10 -52q0 -36 -14 -77l-191 -549q-24 -12 -75 -12z" />
    <glyph glyph-name="eight" unicode="8" horiz-adv-x="555" 
d="M35 203q0 105 92 160q-66 54 -66 143q0 90 53.5 137.5t157.5 47.5q218 0 218 -185q0 -81 -68 -132q98 -46 98 -174q0 -87 -60 -148.5t-176 -61.5q-124 0 -186.5 58t-62.5 155zM382 203q0 18 -7.5 32t-17 23.5t-31 19t-36.5 14.5t-45 14q-69 -26 -69 -101q0 -39 29 -63
t77 -24t74 22.5t26 62.5zM190 506q0 -45 30 -66.5t81 -31.5q63 32 63 95q0 37 -24 56.5t-61 19.5q-39 0 -64 -19.5t-25 -53.5z" />
    <glyph glyph-name="nine" unicode="9" horiz-adv-x="552" 
d="M512 196q0 -172 -70.5 -257.5t-187.5 -85.5q-96 0 -153 29t-57 73q0 46 31 73q85 -37 149 -37q72 0 104.5 36t38.5 121q-60 -34 -128 -34q-88 0 -151 49t-63 150q0 110 57 177t175 67q58 0 102 -16t80 -55t54.5 -112t18.5 -178zM255 235q70 0 112 25q-10 167 -99 167
q-50 0 -78 -25t-28 -75q0 -47 25.5 -69.5t67.5 -22.5z" />
    <glyph glyph-name="colon" unicode=":" horiz-adv-x="224" 
d="M40 72q0 72 72 72t72 -72t-72 -72t-72 72zM40 427q0 72 72 72t72 -72t-72 -72t-72 72z" />
    <glyph glyph-name="semicolon" unicode=";" horiz-adv-x="229" 
d="M108 0q-36 0 -52 17.5t-16 54.5q0 72 72 72q77 0 77 -102q0 -81 -22 -121.5t-55 -40.5q-39 0 -43 28q17 9 28 41t11 51zM40 427q0 72 72 72t72 -72t-72 -72t-72 72z" />
    <glyph glyph-name="less" unicode="&#x3c;" horiz-adv-x="346" 
d="M66 334l176 159q15 6 34 6q20 0 35 -17t15 -39q0 -25 -26 -51l-151 -142l160 -153q9 -21 9 -37q0 -26 -19 -42t-39 -16q-26 0 -53 27l-163 155q-1 2 -7 12t-8.5 15t-5.5 16t-3 23q0 28 9.5 44.5t36.5 39.5z" />
    <glyph glyph-name="equal" unicode="=" horiz-adv-x="499" 
d="M388 71h-327q-16 34 -16 73q0 28 14 46.5t43 18.5h338q14 -26 14 -68q0 -70 -66 -70zM388 287h-327q-16 34 -16 73q0 28 14 46.5t43 18.5h338q14 -26 14 -68q0 -70 -66 -70z" />
    <glyph glyph-name="greater" unicode="&#x3e;" horiz-adv-x="346" 
d="M280 167l-176 -159q-15 -6 -34 -6q-20 0 -35 17t-15 39q0 25 26 51l151 142l-160 153q-9 21 -9 37q0 26 19 42t39 16q26 0 53 -27l163 -155q1 -2 7 -12t8.5 -15t5.5 -16t3 -23q0 -28 -9.5 -44.5t-36.5 -39.5z" />
    <glyph glyph-name="question" unicode="?" horiz-adv-x="498" 
d="M316 460q0 41 -21 60.5t-66 19.5q-84 0 -154 -59q-42 33 -42 88q0 48 54.5 84t151.5 36q115 0 170 -53t55 -137q0 -80 -45 -133.5t-145 -66.5l9 -98q-15 -19 -67 -19q-27 0 -43.5 14.5t-18.5 37.5l-6 96q-2 34 14 54q22 1 46.5 5.5t49.5 12.5t41.5 23.5t16.5 34.5z
M154 72q0 72 72 72t72 -72t-72 -72t-72 72z" />
    <glyph glyph-name="at" unicode="@" horiz-adv-x="848" 
d="M626 -29q28 -18 28 -50q0 -37 -40 -58q-63 -33 -180 -33q-188 0 -298.5 108t-110.5 294q0 171 112 281.5t287 110.5q178 0 288.5 -106.5t110.5 -276.5q0 -121 -59.5 -181t-160.5 -60q-87 0 -108 62q-76 -60 -145 -60q-52 0 -83 39t-31 105q0 115 145 121l107 5
q-10 52 -64 52q-85 0 -133 -16q-13 16 -13 54q0 30 30 50.5t63 27t62 5.5q163 -3 163 -156v-170q0 -26 34 -26q74 0 74 151q0 114 -77.5 187.5t-202.5 73.5q-120 0 -200 -79t-80 -195q0 -136 77.5 -210t213.5 -74q121 0 191 24zM387 111q47 0 103 31v46l-101 -12
q-38 -5 -38 -32q0 -33 36 -33z" />
    <glyph glyph-name="A" unicode="A" horiz-adv-x="660" 
d="M87 0q-52 0 -72 20l233 657q40 23 87 23q58 0 77 -49l233 -620q-18 -31 -75 -31q-66 0 -86 61l-27 73h-258l-28 -85q-9 -27 -28 -38t-56 -11zM322 496l-81 -239h170z" />
    <glyph glyph-name="B" unicode="B" horiz-adv-x="662" 
d="M154 700h210q42 0 78.5 -10.5t68 -33.5t50 -65t18.5 -100q0 -67 -46 -116q89 -56 89 -179q0 -97 -64 -146.5t-155 -49.5h-250q-34 0 -53.5 13.5t-19.5 53.5v622q18 11 74 11zM360 297h-132v-178h131q58 0 86.5 19t28.5 66t-31 70t-83 23zM344 579h-116v-166h112
q99 3 99 85q0 40 -27 60.5t-68 20.5z" />
    <glyph glyph-name="C" unicode="C" horiz-adv-x="609" 
d="M532 184q21 0 39 -15.5t18 -45.5q0 -47 -51 -82q-75 -51 -192 -51q-137 0 -221.5 89t-84.5 270q0 184 82 272.5t217 88.5q55 0 93.5 -7t56.5 -16t44 -26q43 -29 43 -76q0 -51 -41 -76q-79 61 -189 61q-70 0 -115 -52.5t-45 -172.5q0 -118 46.5 -169.5t121.5 -51.5
q105 0 178 60z" />
    <glyph glyph-name="D" unicode="D" horiz-adv-x="676" 
d="M154 700h141q341 0 341 -365q0 -175 -87 -255t-241 -80h-155q-34 0 -53.5 13.5t-19.5 53.5v621q22 12 74 12zM294 564h-66v-437h75q185 0 185 205q0 232 -194 232z" />
    <glyph glyph-name="E" unicode="E" horiz-adv-x="603" 
d="M473 286h-245v-148h319q16 -23 16 -59q0 -35 -12 -57t-33 -22h-375q-29 0 -46 13.5t-17 53.5v620q21 13 69 13h398q16 -23 16 -59q0 -35 -12 -57t-33 -22h-290v-139h270q16 -23 16 -66q0 -33 -11 -52t-30 -19z" />
    <glyph glyph-name="F" unicode="F" horiz-adv-x="586" 
d="M473 276h-245v-261q-15 -15 -85 -15q-29 0 -46 13.5t-17 53.5v620q21 13 69 13h386q16 -23 16 -59q0 -35 -12 -57t-33 -22h-278v-148h274q16 -23 16 -59q0 -35 -12 -57t-33 -22z" />
    <glyph glyph-name="G" unicode="G" horiz-adv-x="663" 
d="M492 274h-160q-15 32 -15 59q0 17 4 28t21 19.5t49 8.5h133q54 0 71.5 -23t17.5 -85v-268q-21 -13 -66 -13q-27 0 -41 11.5t-14 43.5v14q-65 -79 -165 -79q-124 0 -205.5 90t-81.5 269q0 185 86 273t235 88q106 0 160.5 -39t54.5 -83q0 -26 -16.5 -43t-39.5 -23
q-32 30 -67.5 43t-90.5 13q-81 0 -133 -56t-52 -177q0 -117 49.5 -175.5t116.5 -58.5q96 0 149 91v72z" />
    <glyph glyph-name="H" unicode="H" horiz-adv-x="711" 
d="M562 700q69 0 69 -51v-636q-19 -13 -70 -13q-37 0 -58 14t-21 54v227h-254v-279q-16 -16 -85 -16q-28 0 -45.5 14t-17.5 54v619q26 13 81 13q67 0 67 -51v-219h254v257q26 13 80 13z" />
    <glyph glyph-name="I" unicode="I" horiz-adv-x="308" 
d="M162 700q66 0 66 -51v-633q-30 -16 -81 -16q-67 0 -67 68v619q28 13 82 13z" />
    <glyph glyph-name="J" unicode="J" horiz-adv-x="416" 
d="M272 700q64 0 64 -55v-481q0 -81 -40.5 -122.5t-115.5 -41.5q-160 0 -160 83q0 32 10 50h104q65 0 65 54v500q25 13 73 13z" />
    <glyph glyph-name="K" unicode="K" horiz-adv-x="630" 
d="M157 700q67 0 67 -50v-238q70 58 127.5 138t74.5 139q21 11 64 11q22 0 38 -15t16 -37q0 -31 -13 -57q-67 -129 -166 -214q26 -24 60 -89t65 -113t60 -48h38q12 -14 12 -48q0 -37 -24 -58t-73 -21q-43 0 -78 32.5t-54.5 74l-49 102t-55.5 96.5l-42 -24v-266
q-26 -15 -81 -15q-31 0 -47 14.5t-16 52.5v619q31 14 77 14z" />
    <glyph glyph-name="L" unicode="L" horiz-adv-x="539" 
d="M153 700q30 0 52.5 -11.5t22.5 -38.5v-512h280q16 -23 16 -59q0 -79 -76 -79h-305q-63 0 -63 64v624q28 12 73 12z" />
    <glyph glyph-name="M" unicode="M" horiz-adv-x="880" 
d="M435 29q-34 0 -56 16.5t-37 62.5l-104 316l-24 -369q-4 -55 -78 -55q-47 0 -71 11l48 588q4 47 30 74t73 27q38 0 69 -11l150 -455l102 385q12 44 34.5 62.5t59.5 18.5q53 0 90 -15l94 -665q-28 -20 -79 -20q-73 0 -79 55l-36 369l-87 -315q-10 -37 -26.5 -55.5
t-31 -21.5t-41.5 -3z" />
    <glyph glyph-name="N" unicode="N" horiz-adv-x="715" 
d="M493 38l-272 392l7 -415q-16 -16 -85 -16q-28 0 -45.5 14t-17.5 54v620q31 13 80 13q44 0 69 -38l266 -394l-4 414q24 19 72 19q31 0 54 -12t23 -39v-638q-21 -12 -76 -12q-45 0 -71 38z" />
    <glyph glyph-name="O" unicode="O" horiz-adv-x="682" 
d="M40 349q0 183 83.5 272t216.5 89q137 0 219.5 -88.5t82.5 -272.5t-83 -271.5t-218 -87.5t-218 89t-83 270zM186 345q0 -118 45 -174.5t110 -56.5q153 0 153 231q0 122 -42.5 179t-111.5 57q-66 0 -110 -57.5t-44 -178.5z" />
    <glyph glyph-name="P" unicode="P" horiz-adv-x="629" 
d="M154 700h210q90 0 152.5 -51.5t62.5 -162.5q0 -57 -15 -100.5t-37.5 -68.5t-54 -40.5t-60 -20.5t-60.5 -5h-124v-238q-23 -13 -82 -13q-66 0 -66 67v622q26 11 74 11zM344 581h-116v-205h102q109 0 109 98q0 54 -27 80.5t-68 26.5z" />
    <glyph glyph-name="Q" unicode="Q" horiz-adv-x="682" 
d="M40 349q0 183 83.5 272t216.5 89q137 0 219.5 -88.5t82.5 -272.5q0 -220 -124 -308q42 -61 94 -61h50q12 -18 12 -56q0 -42 -27 -68t-77 -26q-108 0 -178 164q-34 -4 -51 -4q-135 0 -218 89t-83 270zM186 345q0 -118 45 -174.5t110 -56.5q153 0 153 231q0 122 -42.5 179
t-111.5 57q-66 0 -110 -57.5t-44 -178.5z" />
    <glyph glyph-name="R" unicode="R" horiz-adv-x="672" 
d="M154 700h210q90 0 152.5 -50t62.5 -155q0 -72 -39.5 -122.5t-100.5 -74.5q12 -17 43 -70t53.5 -77t46.5 -24h38q12 -14 12 -48q0 -37 -24 -58t-73 -21q-55 0 -90 41.5t-71 122t-64 118.5h-82v-268q-19 -14 -75 -14q-34 0 -53.5 13.5t-19.5 53.5v622q21 11 74 11zM344 584
h-116v-189h102q51 0 80 26t29 72q0 41 -28 66t-67 25z" />
    <glyph glyph-name="S" unicode="S" horiz-adv-x="580" 
d="M291 710q134 0 193 -57q26 -26 26 -65q0 -30 -27 -70q-72 38 -191 38q-97 0 -97 -61q0 -27 25.5 -47t92.5 -35q122 -26 173 -69t53 -139q2 -97 -59.5 -156t-187.5 -59q-151 0 -216 49q-36 27 -36 74q0 40 19 72q96 -49 228 -49q56 0 79.5 18t23.5 43q0 30 -24 47t-97 30
q-120 21 -171 71.5t-51 151.5q0 98 64 155.5t180 57.5z" />
    <glyph glyph-name="T" unicode="T" horiz-adv-x="573" 
d="M518 562h-159v-550q-23 -12 -82 -12q-62 0 -62 67v495h-189q-16 34 -16 70q0 68 66 68h471q16 -23 16 -59q0 -35 -12 -57t-33 -22z" />
    <glyph glyph-name="U" unicode="U" horiz-adv-x="674" 
d="M460 271v416q21 13 75 13q73 0 73 -51l1 -394q0 -134 -70.5 -199.5t-202.5 -65.5q-265 0 -265 265l-1 433q19 12 77 12q71 0 71 -50v-379q0 -149 118 -149q67 0 95.5 37t28.5 112z" />
    <glyph glyph-name="V" unicode="V" horiz-adv-x="644" 
d="M103 700q60 0 76 -48l162 -448q62 106 104.5 250.5t48.5 229.5q32 16 81 16q22 0 38 -10.5t16 -27.5q0 -28 -11 -85q-14 -75 -77.5 -239.5t-158.5 -327.5q-29 -10 -60 -10q-50 0 -71 57l-236 627q30 16 88 16z" />
    <glyph glyph-name="W" unicode="W" horiz-adv-x="972" 
d="M471 700q60 0 76 -48l152 -448q100 169 123 480q32 16 81 16q22 0 38 -10.5t16 -27.5q0 -28 -11 -85q-61 -319 -206 -567q-29 -10 -60 -10q-50 0 -71 57l-94 261q-73 -185 -143 -306q-29 -10 -60 -10q-50 0 -71 57l-226 625q30 16 88 16q60 0 76 -48l152 -446
q59 100 115 302l-63 176q30 16 88 16z" />
    <glyph glyph-name="X" unicode="X" horiz-adv-x="670" 
d="M114 700q42 0 67 -16t52 -54l104 -149l112 167q33 52 103 52q62 0 81 -29l-211 -312l233 -334q-19 -14 -39 -19.5t-60 -5.5q-33 0 -66.5 17t-55.5 48l-118 169l-124 -190q-27 -44 -101 -44q-53 0 -76 28l212 332l-211 303q28 37 98 37z" />
    <glyph glyph-name="Y" unicode="Y" horiz-adv-x="589" 
d="M379 246v-230q-24 -16 -82 -16q-65 0 -65 46v192q-179 296 -217 444q34 18 81 18q31 0 47 -10t24 -38q31 -111 142 -302q49 85 89.5 182.5t55.5 160.5q21 7 70 7q23 0 36.5 -14t13.5 -37q0 -50 -64.5 -177.5t-130.5 -225.5z" />
    <glyph glyph-name="Z" unicode="Z" horiz-adv-x="613" 
d="M550 574l-326 -451h357q12 -24 12 -60q0 -63 -56 -63h-505q-12 23 -12 52q0 39 22 68l326 446h-305q-16 34 -16 66q0 27 12.5 47.5t35.5 20.5h473q10 -14 10 -49q0 -39 -28 -77z" />
    <glyph glyph-name="bracketleft" unicode="[" horiz-adv-x="388" 
d="M57 -30v722q29 20 88 20h188q16 -23 16 -60q0 -35 -12 -57.5t-33 -22.5h-105v-533h134q16 -23 16 -59t-12 -58t-33 -22h-231q-16 34 -16 70z" />
    <glyph glyph-name="backslash" unicode="\" horiz-adv-x="307" 
d="M94 713q43 0 67 -13l118 -672q7 -39 -15 -53.5t-54 -14.5q-50 0 -70 16l-121 686q-4 27 19 39t56 12z" />
    <glyph glyph-name="bracketright" unicode="]" horiz-adv-x="388" 
d="M349 641v-722q-29 -20 -88 -20h-188q-16 23 -16 60q0 35 12 57.5t33 22.5h105v533h-134q-16 23 -16 59t12 58t33 22h231q16 -34 16 -70z" />
    <glyph glyph-name="asciicircum" unicode="^" horiz-adv-x="481" 
d="M404 584q-5 -29 -29 -40q-10 -5 -26 -5t-39.5 12.5t-38.5 23.5t-44 35q-88 -71 -122 -71q-16 0 -26 5q-24 11 -29 40q9 3 41.5 36t70 63.5t62.5 30.5q26 0 64 -30t71.5 -63t44.5 -37z" />
    <glyph glyph-name="underscore" unicode="_" horiz-adv-x="593" 
d="M521 -210h-485q-16 34 -16 70q0 27 14.5 47.5t44.5 20.5h480q14 -20 14 -65q0 -29 -12 -51t-40 -22z" />
    <glyph glyph-name="grave" unicode="`" horiz-adv-x="530" 
d="M357 579q-4 -21 -19 -33t-36 -12q-23 0 -56 21.5t-71.5 54.5t-55.5 43q4 56 63 56q25 0 62.5 -30t71 -63.5t41.5 -36.5z" />
    <glyph glyph-name="a" unicode="a" horiz-adv-x="495" 
d="M79 359q-17 39 -17 59q0 27 17 46t45 28.5t55 13.5t55 4q95 0 144.5 -45.5t49.5 -132.5v-211q0 -26 16 -26h28q8 -10 8 -43q0 -52 -98 -52q-24 0 -44.5 14.5t-29.5 36.5q-75 -61 -146 -61q-68 0 -105 43.5t-37 119.5q0 71 42 112.5t122 42.5l117 1q-9 70 -79 70
q-88 0 -143 -20zM189 112q55 0 114 35v65l-109 -12q-47 -6 -47 -46q0 -17 11.5 -29.5t30.5 -12.5z" />
    <glyph glyph-name="b" unicode="b" horiz-adv-x="511" 
d="M181 645v-182q55 47 112 47q87 0 135 -63t48 -182q0 -135 -65 -205t-169 -70q-103 0 -171 52q-26 20 -26 49v592q29 17 69 17q67 0 67 -55zM255 363q-40 0 -74 -20v-199q29 -21 69 -21q43 0 66 34.5t23 87.5q0 56 -21.5 87t-62.5 31z" />
    <glyph glyph-name="c" unicode="c" horiz-adv-x="448" 
d="M419 420q0 -36 -32 -73q-77 20 -116 20q-42 0 -71 -29.5t-29 -94.5q0 -59 29.5 -90.5t75.5 -31.5q70 0 130 32q17 -21 17 -60q0 -49 -39 -74q-45 -29 -120 -29q-107 0 -168 69.5t-61 184.5q0 72 21 126t56 83t74 43t81 14q74 0 123 -33q29 -19 29 -57z" />
    <glyph glyph-name="d" unicode="d" horiz-adv-x="548" 
d="M444 0q-53 0 -85 40q-56 -50 -138 -50q-77 0 -131.5 63t-54.5 187q0 130 57.5 200t140.5 70q56 0 98 -29v170q0 49 57 49q53 0 78 -19v-544q0 -33 26 -33h32q9 -25 9 -44q0 -26 -21.5 -43t-67.5 -17zM256 123q46 0 75 14v204q-27 19 -74 19q-36 0 -59 -29t-23 -84
q0 -124 81 -124z" />
    <glyph glyph-name="e" unicode="e" horiz-adv-x="499" 
d="M454 208h-277q17 -88 100 -88q46 0 91 9.5t67 24.5q24 -22 24 -57q0 -42 -32 -63q-33 -23 -67.5 -33.5t-96.5 -10.5q-107 0 -167.5 73.5t-60.5 192.5q0 117 69 185.5t166 68.5q92 0 143 -61t51 -164q0 -47 -10 -77zM269 382q-28 0 -54 -21t-37 -60h160q0 81 -69 81z" />
    <glyph glyph-name="f" unicode="f" horiz-adv-x="348" 
d="M223 534v-34h96q15 -14 15 -45q0 -27 -12.5 -49.5t-43.5 -22.5h-55v-337q0 -29 -21.5 -38t-62.5 -9q-43 0 -62 16v368h-44q-13 23 -13 51q0 66 57 66v54q0 160 149 160q72 0 97 -18.5t25 -54.5q0 -41 -15 -63h-64q-46 0 -46 -44z" />
    <glyph glyph-name="g" unicode="g" horiz-adv-x="511" 
d="M447 397h-31q13 -39 13 -82q0 -99 -55 -146t-143 -47q-41 0 -72 10q-4 -11 -4 -24q0 -40 54 -40h134q131 0 131 -120q0 -90 -69 -142t-178 -52q-82 0 -139.5 31t-57.5 79q0 38 37 73q63 -61 158 -61q58 0 90.5 16t32.5 37t-34 21h-125q-155 0 -155 110q0 58 48 116
q-48 50 -48 139q0 98 55 146.5t142 48.5q75 0 126 -35q16 25 48 25h74q12 -15 12 -46q0 -57 -44 -57zM177 311q0 -81 55 -81q52 0 52 81q0 84 -52 84q-55 0 -55 -84z" />
    <glyph glyph-name="h" unicode="h" horiz-adv-x="529" 
d="M115 700q66 0 66 -52v-201q61 63 138 63q144 0 144 -174v-216q0 -24 17 -24h27q7 -11 7 -34q0 -27 -28.5 -44.5t-83.5 -17.5q-82 0 -82 97v200q0 66 -57 66q-38 0 -82 -32v-318q-21 -13 -75 -13q-66 0 -66 68v616q27 16 75 16z" />
    <glyph glyph-name="i" unicode="i" horiz-adv-x="302" 
d="M118 500q49 0 77.5 -24.5t28.5 -92.5v-247q0 -30 22 -30h33q8 -18 8 -43q0 -63 -105 -63q-52 0 -76.5 24.5t-24.5 87.5v231q0 31 -24 31h-29q-8 16 -8 51q0 75 98 75zM58 629q0 80 80 80t80 -80t-80 -80t-80 80z" />
    <glyph glyph-name="j" unicode="j" horiz-adv-x="281" 
d="M124 500q50 0 72 -24.5t22 -83.5v-407q0 -165 -134 -165q-129 0 -129 69q0 36 10 58h74q46 0 46 66v330q0 31 -24 31h-35q-8 30 -8 58q0 32 27 50t79 18zM61 629q0 80 80 80t80 -80t-80 -80t-80 80z" />
    <glyph glyph-name="k" unicode="k" horiz-adv-x="506" 
d="M112 701q31 0 54 -12t23 -39v-335q87 69 103 171q26 14 61 14q73 0 73 -63q0 -38 -38.5 -87t-87.5 -71q17 -13 42.5 -50.5t50 -63.5t51.5 -26h46q11 -14 11 -54q0 -37 -25.5 -61t-66.5 -24q-40 0 -73.5 26.5t-53 59.5l-46 75.5t-47.5 62.5v-209q-23 -15 -81 -15
q-29 0 -46 13.5t-17 53.5v615q24 19 67 19z" />
    <glyph glyph-name="l" unicode="l" horiz-adv-x="308" 
d="M185 638v-470q0 -28 11.5 -40t34.5 -12h66q6 -18 6 -40q0 -32 -32.5 -54t-103.5 -22q-122 0 -122 137v543q27 23 69 22q71 -3 71 -64z" />
    <glyph glyph-name="m" unicode="m" horiz-adv-x="886" 
d="M134 500q37 0 66 -21.5t39 -59.5q69 91 160 91q86 0 113 -86q76 86 162 86q59 0 97.5 -38.5t38.5 -119.5v-231q0 -26 21 -26h33q7 -12 7 -33q0 -29 -30 -45.5t-85 -16.5q-48 0 -70 22.5t-22 74.5v215q0 46 -43 46q-55 0 -99 -32v-205q0 -26 19 -26h33q5 -12 5 -34
q0 -61 -118 -61q-45 0 -66.5 22.5t-21.5 74.5v215q0 46 -43 46t-86 -30v-314q-22 -14 -83 -14q-69 0 -69 74v269q0 31 -28 31h-31q-13 28 -13 56q0 70 114 70z" />
    <glyph glyph-name="n" unicode="n" horiz-adv-x="607" 
d="M130 500q35 0 64 -19t42 -52q72 81 159 81q61 0 98.5 -38.5t37.5 -119.5v-231q0 -26 21 -26h34q6 -11 6 -33q0 -29 -29.5 -45.5t-84.5 -16.5q-49 0 -70.5 22t-21.5 75v215q0 22 -13 35.5t-36 13.5q-48 0 -93 -34v-313q-22 -14 -83 -14q-69 0 -69 74v269q0 31 -28 31h-31
q-13 28 -13 56q0 70 110 70z" />
    <glyph glyph-name="o" unicode="o" horiz-adv-x="553" 
d="M35 248q0 132 66.5 197t174.5 65q110 0 176 -64.5t66 -197.5q0 -132 -66 -195t-176 -63q-109 0 -175 64t-66 194zM187 246q0 -67 25 -97.5t64 -30.5q88 0 88 128q0 133 -88 133q-39 0 -64 -32.5t-25 -100.5z" />
    <glyph glyph-name="p" unicode="p" horiz-adv-x="567" 
d="M128 500q33 0 57.5 -17.5t35.5 -47.5q65 75 138 75q171 0 172 -252q1 -123 -55.5 -195.5t-136.5 -72.5q-60 0 -108 37v-183q-22 -14 -77 -14q-70 0 -70 74v439q0 31 -27 31h-29q-13 28 -13 56q0 70 113 70zM310 358q-38 0 -79 -27v-172q32 -32 72 -32q41 0 63 31.5
t22 83.5q0 62 -19.5 89t-58.5 27z" />
    <glyph glyph-name="q" unicode="q" horiz-adv-x="563" 
d="M342 -117v147q-56 -40 -122 -40q-86 0 -135.5 66t-49.5 190q0 128 57.5 196t153.5 68q70 0 121 -60q37 50 102 50q79 0 79 -63q0 -42 -9 -63h-32q-31 0 -31 -34v-495q-26 -15 -70 -15q-64 0 -64 53zM254 124q48 0 88 22v183q-34 34 -89 34q-33 0 -56.5 -28.5t-23.5 -88.5
q0 -122 81 -122z" />
    <glyph glyph-name="r" unicode="r" horiz-adv-x="455" 
d="M115 500q87 0 107 -60q66 70 133 70q50 0 72.5 -27.5t22.5 -83.5q0 -117 -91 -117q-30 0 -51 17q0 47 -29 47q-32 0 -49 -12v-320q-16 -14 -80 -14q-31 0 -49 13.5t-18 53.5v276q0 31 -24 31h-34q-10 29 -10 60q0 27 28 46.5t72 19.5z" />
    <glyph glyph-name="s" unicode="s" horiz-adv-x="446" 
d="M226 510q87 0 129 -28t42 -65q0 -57 -17 -78q-21 12 -68.5 20t-87.5 8q-60 0 -60 -25q0 -24 74 -33q94 -12 136 -49.5t42 -108.5q0 -76 -47.5 -118.5t-140.5 -42.5q-97 0 -147.5 25t-50.5 68q0 48 21 75q30 -15 79 -26t89 -11q66 0 66 27t-81 36q-94 12 -129.5 50
t-35.5 112q0 77 48 120.5t139 43.5z" />
    <glyph glyph-name="t" unicode="t" horiz-adv-x="386" 
d="M304 383h-75v-210q0 -29 10 -40.5t32 -11.5h86q9 -22 9 -42q0 -37 -31 -58t-115 -21q-128 0 -128 145v238h-59q-13 23 -13 51q0 33 11 49.5t38 16.5h23v106q28 15 75 15q62 0 62 -57v-64h116q15 -14 15 -45q0 -27 -12.5 -49.5t-43.5 -22.5z" />
    <glyph glyph-name="u" unicode="u" horiz-adv-x="611" 
d="M480 0q-73 0 -96 59q-66 -69 -154 -69q-57 0 -98 39t-41 119v198q0 28 -23 28h-45q-8 26 -7 57q1 33 35 51t82 18q57 0 83.5 -21t26.5 -72v-219q0 -21 12.5 -35t30.5 -14q57 0 89 38v307q30 16 83 16q71 0 71 -55l1 -298q0 -31 26 -31h36q4 -16 4 -45q0 -71 -116 -71z
" />
    <glyph glyph-name="v" unicode="v" horiz-adv-x="521" 
d="M92 500q79 0 100 -60l86 -254q31 40 52.5 91t21.5 81t-26 30h-29q-8 20 -8 55q0 26 24.5 41.5t67.5 15.5q59 0 84.5 -26t25.5 -80q0 -58 -42.5 -157.5t-104.5 -186.5q-20 -28 -38.5 -39t-49.5 -11q-33 0 -54 12l-127 347q-11 29 -33 29h-16q-11 26 -11 56q0 23 21 39.5
t56 16.5z" />
    <glyph glyph-name="w" unicode="w" horiz-adv-x="795" 
d="M502 12l-71 209q-29 -84 -68 -147q-27 -42 -47 -58t-50 -16q-33 0 -54 12l-125 357q-6 19 -25 19h-39q-8 24 -8 50q0 62 112 62q40 0 60 -15t30 -44l78 -232q28 37 47 80t19 72q0 27 -20 27h-27q-9 22 -9 47q0 28 28.5 46.5t77.5 18.5q59 0 74 -50l77 -243q62 79 62 156
q0 11 -7.5 18t-15.5 7h-26q-8 22 -8 48q0 28 28.5 46t73.5 18q96 0 96 -103q0 -58 -36 -156t-80 -169q-22 -36 -44 -54t-52 -18q-31 0 -51 12z" />
    <glyph glyph-name="x" unicode="x" horiz-adv-x="533" 
d="M134 500q40 0 64 -16t46 -54l33 -57l38 68q14 25 39 42t46 17q52 0 74 -26.5t18 -62.5l-145 -159l51 -87q30 -52 64 -52h43q8 -14 8 -44q0 -69 -113 -69q-69 0 -108 64l-41 68l-55 -79q-36 -53 -94 -53q-36 0 -57.5 25.5t-24.5 64.5l160 160l-74 122q-11 16 -34 16h-40
q-6 19 -6 41q0 33 31.5 52t76.5 19z" />
    <glyph glyph-name="y" unicode="y" horiz-adv-x="560" 
d="M217 419l77 -241q6 -20 19 -28q73 150 73 209q0 29 -24 29h-31q-9 20 -9 50q0 28 28 45t68 17q112 0 112 -101q0 -65 -47 -180t-112 -231q-49 -88 -111 -123t-145 -35q-84 0 -84 64q0 24 11 50h94q34 0 61 19.5t54 66.5q-51 13 -68 71l-95 261q-8 26 -29 26h-35
q-9 19 -9 50q0 28 27 45t76 17q41 0 64 -19.5t35 -61.5z" />
    <glyph glyph-name="z" unicode="z" horiz-adv-x="494" 
d="M30 55q0 35 17 56l221 272h-205q-13 23 -13 51q0 32 10.5 49t44.5 17h333q9 -20 9 -49q0 -30 -23 -60l-210 -269h239q11 -20 11 -60q0 -62 -54 -62h-366q-14 24 -14 55z" />
    <glyph glyph-name="braceleft" unicode="{" horiz-adv-x="391" 
d="M238 712q123 0 123 -83q0 -25 -7 -46h-87q-52 0 -52 -57v-133q0 -48 -17.5 -68.5t-35.5 -22.5v-7q9 -1 20 -8.5t22 -30t11 -54.5v-113q0 -65 51 -65h87q8 -14 8 -42q0 -41 -30.5 -61.5t-101.5 -20.5q-55 0 -98 31.5t-43 96.5v157q0 32 -10.5 43.5t-29.5 14.5
q-28 3 -28 58q0 37 8 48q60 2 60 54v155q0 83 42.5 118.5t107.5 35.5z" />
    <glyph glyph-name="bar" unicode="|" horiz-adv-x="288" 
d="M147 713q71 0 71 -51v-746q-30 -16 -85 -16q-63 0 -63 59v741q23 13 77 13z" />
    <glyph glyph-name="braceright" unicode="}" horiz-adv-x="391" 
d="M143 -100q-123 0 -123 83q0 25 7 46h87q52 0 52 57v133q0 48 17.5 68.5t35.5 22.5v7q-9 1 -20 8.5t-22 30t-11 54.5v113q0 65 -51 65h-87q-8 14 -8 42q0 41 30.5 61.5t101.5 20.5q55 0 98 -31.5t43 -96.5v-157q0 -32 10.5 -43.5t29.5 -14.5q28 -3 28 -58q0 -37 -8 -48
q-60 -2 -60 -54v-155q0 -83 -42.5 -118.5t-107.5 -35.5z" />
    <glyph glyph-name="asciitilde" unicode="~" horiz-adv-x="484" 
d="M142 681q35 0 83 -14t73 -14q26 0 42 8t18 15q11 -4 20.5 -21t9.5 -36q0 -28 -19 -45t-54 -17q-27 0 -89 13.5t-90 13.5q-39 0 -44 -24q-28 8 -28 51q0 26 19.5 48t58.5 22z" />
    <glyph glyph-name="uni00A0" unicode="&#xa0;" horiz-adv-x="180" 
 />
    <glyph glyph-name="exclamdown" unicode="&#xa1;" horiz-adv-x="248" 
d="M129 -201q-32 0 -55.5 12t-23.5 39v437q18 18 75 18q73 0 73 -80v-413q-21 -13 -69 -13zM195 428q0 -72 -72 -72t-72 72t72 72t72 -72z" />
    <glyph glyph-name="cent" unicode="&#xa2;" horiz-adv-x="476" 
d="M424 420q0 -36 -32 -73q-55 13 -68 15l-6 -238q57 10 93 29q17 -21 17 -60q0 -49 -39 -74q-28 -17 -74 -25l-3 -93q-11 -11 -54 -11q-20 1 -30.5 9.5t-9.5 32.5l2 62q-85 16 -132.5 82.5t-47.5 167.5q0 122 55.5 186t137.5 77l3 89q17 10 46 9q23 -1 36 -10t12 -31
l-3 -59q32 -5 68 -28q29 -19 29 -57zM164 243q0 -84 59 -113l6 231q-65 -22 -65 -118z" />
    <glyph glyph-name="sterling" unicode="&#xa3;" horiz-adv-x="592" 
d="M532 0h-500q-13 37 -13 69q0 61 40 69q25 5 38.5 29t20.5 95h-66q-16 34 -16 63q0 38 13 56.5t54 18.5h21v8q0 127 64 206.5t167 79.5q98 0 145 -18.5t47 -63.5q0 -25 -10.5 -49t-26.5 -31q-55 24 -144 24q-57 0 -78 -39t-21 -107v-10h164q14 -20 14 -52t-16 -59t-56 -27
h-115q-8 -88 -36 -124h339q16 -23 16 -59q0 -35 -12 -57t-33 -22z" />
    <glyph glyph-name="currency" unicode="&#xa4;" horiz-adv-x="515" 
d="M68 252q0 34 12 66l-7 5q-24 16 -38.5 42.5t-12.5 47.5q4 52 32 71.5t64 12.5l67 -74q34 13 67 13q30 0 55 -9l8 14q14 25 39 42t46 17q52 0 74 -26.5t18 -62.5l-74 -81q18 -36 18 -78q0 -31 -11 -61l24 -20q50 -41 45 -99q-4 -36 -31 -55t-66 -19l-72 85
q-35 -15 -73 -15q-20 0 -42 5l-14 -20q-36 -53 -94 -53q-36 0 -57.5 25.5t-24.5 64.5l71 72q-23 41 -23 90zM172 252q0 -33 23.5 -56.5t56.5 -23.5t56.5 23.5t23.5 56.5t-23.5 56.5t-56.5 23.5t-56.5 -23.5t-23.5 -56.5z" />
    <glyph glyph-name="yen" unicode="&#xa5;" 
d="M374 246v-36h152q14 -16 14 -41q0 -26 -16 -47.5t-56 -21.5h-94v-84q-24 -16 -82 -16q-65 0 -65 46v54h-146q-16 27 -16 50q0 30 12 45t50 15h100v28l-9 14h-137q-16 27 -16 56q0 27 12 41.5t48 12.5l32 -2q-97 184 -132 322q34 18 73 18q31 0 47 -10t24 -38
q43 -152 134 -316q49 85 89 186t57 171q21 7 62 7q23 0 36.5 -14t13.5 -37q0 -75 -119 -290l84 3q14 -16 14 -41q0 -24 -21.5 -46.5t-62.5 -22.5h-78q-2 -2 -4 -6z" />
    <glyph glyph-name="brokenbar" unicode="&#xa6;" horiz-adv-x="288" 
d="M139 713q32 0 55.5 -12t23.5 -39v-305q-16 -16 -85 -16q-28 0 -45.5 14t-17.5 54v291q21 13 69 13zM139 272q32 0 55.5 -12t23.5 -39v-305q-16 -16 -85 -16q-28 0 -45.5 14t-17.5 54v291q21 13 69 13z" />
    <glyph glyph-name="section" unicode="&#xa7;" horiz-adv-x="586" 
d="M304 719q84 0 135 -26t51 -63q0 -49 -40 -83q-25 13 -69.5 24t-85.5 11q-97 0 -97 -33q0 -17 28 -30t98 -26q214 -39 214 -162q0 -59 -57 -137q31 -32 32 -71q1 -80 -60.5 -123.5t-166.5 -43.5q-98 0 -157.5 31t-59.5 62q0 23 3.5 37t8 19.5t16.5 17.5q28 -15 81 -25.5
t100 -10.5q102 0 102 28q0 17 -33 30t-108 29q-101 22 -152 59.5t-51 102.5q0 58 66 117q-34 35 -34 97q0 76 58 122.5t178 46.5zM251 385q-39 10 -64 19q-28 -34 -28 -59q0 -20 37.5 -39.5t102.5 -32.5q45 -9 87 -23q25 37 25 58q0 22 -38 39t-122 38z" />
    <glyph glyph-name="dieresis" unicode="&#xa8;" horiz-adv-x="488" 
d="M52 631q0 72 72 72t72 -72t-72 -72t-72 72zM256 631q0 72 72 72t72 -72t-72 -72t-72 72z" />
    <glyph glyph-name="copyright" unicode="&#xa9;" horiz-adv-x="770" 
d="M25 350q0 164 97.5 262t262.5 98q164 0 262 -98t98 -262t-98 -262t-262 -98q-165 0 -262.5 97.5t-97.5 262.5zM146 351q0 -110 65 -175t174 -65t174 65t65 175q0 109 -65 174t-174 65t-174 -65t-65 -174zM497 474q0 -10 -9 -29t-20 -30q-53 14 -77 14q-28 0 -47 -20
t-19 -64q0 -39 19.5 -60t50.5 -21q42 0 86 21q19 -19 19 -48q0 -36 -28 -53q-29 -22 -88 -22q-77 0 -121 50.5t-44 133.5q0 100 50.5 146.5t117.5 46.5q55 0 89 -24q21 -13 21 -41z" />
    <glyph glyph-name="ordfeminine" unicode="&#xaa;" horiz-adv-x="257" 
d="M50 514q-14 14 -14 42q0 23 30.5 34t58.5 10q99 -3 99 -92v-90q0 -14 6 -14q3 0 11 2q8 -4 8 -21q0 -36 -45 -36q-40 0 -47 27q-35 -28 -70 -28q-36 0 -56 22t-20 61q0 67 89 70l52 2q-7 21 -33 21q-29 0 -69 -10zM104 416q21 0 51 15v20l-49 -6q-20 -3 -20 -15
q0 -14 18 -14z" />
    <glyph glyph-name="guillemotleft" unicode="&#xab;" horiz-adv-x="509" 
d="M47 317l119 138q15 6 29 6q28 0 46 -19.5t18 -42.5q0 -27 -18 -48l-89 -108l100 -129q5 -12 5 -28q0 -25 -21 -40.5t-44 -15.5q-31 0 -53 27l-99 127q-15 27 -15 66q0 40 22 67zM272 317l119 138q15 6 29 6q28 0 46 -19.5t18 -42.5q0 -27 -18 -48l-89 -108l100 -129
q5 -12 5 -28q0 -25 -21 -40.5t-44 -15.5q-31 0 -53 27l-99 127q-15 27 -15 66q0 40 22 67z" />
    <glyph glyph-name="logicalnot" unicode="&#xac;" horiz-adv-x="514" 
d="M369 117q-28 0 -45.5 14t-17.5 54v108h-245q-16 34 -16 73q0 28 14 46.5t43 18.5h338q14 -26 14 -68v-230q-16 -16 -85 -16z" />
    <glyph glyph-name="uni00AD" unicode="&#xad;" horiz-adv-x="420" 
d="M302 195h-240q-16 34 -16 68q0 70 67 70h246q14 -21 14 -65q0 -73 -71 -73z" />
    <glyph glyph-name="registered" unicode="&#xae;" horiz-adv-x="572" 
d="M25 443q0 119 70.5 190t190.5 71q119 0 190 -71t71 -190t-71 -190t-190 -71q-120 0 -190.5 71t-70.5 190zM105 444q0 -83 49 -132.5t132 -49.5t132 49.5t49 132.5t-49 132t-132 49t-132 -49t-49 -132zM216 570h80q34 0 60.5 -19.5t26.5 -59.5q0 -48 -48 -72
q3 -5 10.5 -15.5t11.5 -15.5t10.5 -10t12.5 -5h17q6 -6 6 -23q0 -39 -47 -39q-24 0 -37 12.5t-26 42t-23 43.5h-16v-91q-8 -7 -39 -7q-37 0 -37 33v221q10 5 38 5zM286 513h-32v-49h27q31 0 31 26q0 8 -9 15.5t-17 7.5z" />
    <glyph glyph-name="macron" unicode="&#xaf;" horiz-adv-x="464" 
d="M341 558h-262q-16 25 -16 47q0 29 14 43t60 14h262q14 -16 14 -39q0 -25 -16 -45t-56 -20z" />
    <glyph glyph-name="degree" unicode="&#xb0;" horiz-adv-x="349" 
d="M20 545q0 64 45 109.5t109 45.5t109.5 -45.5t45.5 -109.5t-45.5 -109t-109.5 -45t-109 45t-45 109zM105 546q0 -29 20.5 -49.5t49.5 -20.5t49.5 20.5t20.5 49.5t-20.5 49.5t-49.5 20.5t-49.5 -20.5t-20.5 -49.5z" />
    <glyph glyph-name="plusminus" unicode="&#xb1;" horiz-adv-x="499" 
d="M320 468v-80h120q14 -20 14 -69q0 -69 -56 -69h-78v-123q-27 -13 -70 -13q-35 0 -51.5 15.5t-16.5 58.5v62h-124q-13 27 -13 71q0 26 11.5 46.5t34.5 20.5h91v121q20 14 72 14q66 0 66 -55zM388 -19h-327q-16 27 -16 58q0 23 14 37.5t43 14.5h338q14 -20 14 -54
q0 -56 -66 -56z" />
    <glyph glyph-name="twosuperior" unicode="&#xb2;" horiz-adv-x="359" 
d="M27 626q0 30 38 51t104 21q79 0 117 -33.5t38 -89.5q0 -53 -49.5 -106.5t-123.5 -96.5v-4l178 4q7 -12 7 -45q0 -22 -6.5 -32t-24.5 -10h-273q-9 20 -9 49q0 43 31 67q124 94 152 130q13 17 13 28q0 43 -58 43q-60 0 -105 -33q-29 22 -29 57z" />
    <glyph glyph-name="threesuperior" unicode="&#xb3;" horiz-adv-x="347" 
d="M203 563q0 37 -51 37q-56 0 -102 -27q-26 21 -26 53q0 29 35.5 50.5t98.5 21.5q76 0 111.5 -31.5t35.5 -82.5q0 -32 -18.5 -58.5t-46.5 -32.5v-1q31 -4 53 -29t22 -64q0 -49 -38.5 -84.5t-115.5 -35.5q-72 0 -107.5 22t-35.5 52q0 37 31 56q46 -42 107 -42q27 0 43 11.5
t16 29.5q0 21 -12 30.5t-42 9.5h-24q-22 0 -22 38q0 22 7 35q33 1 57 11.5t24 30.5z" />
    <glyph glyph-name="acute" unicode="&#xb4;" horiz-adv-x="517" 
d="M119 582q8 3 41.5 36.5t71 63.5t62.5 30q59 0 63 -56q-17 -10 -55.5 -43t-71.5 -54.5t-56 -21.5q-21 0 -36 12t-19 33z" />
    <glyph glyph-name="mu" unicode="&#xb5;" horiz-adv-x="578" 
d="M477 0q-73 0 -96 59q-53 -55 -118 -66q-18 -3 -36 -3v-145q-17 -15 -72 -15q-67 0 -67 68v448q0 28 -23 28h-45q-8 26 -7 57q1 33 35 51t82 18q57 0 83.5 -21.5t26.5 -71.5v-146q0 -7 -0.5 -23t-0.5 -24.5t1 -22t4 -21t7.5 -16t12.5 -12t19 -3.5q57 0 89 38v307
q30 16 83 16q71 0 71 -55q0 -49 0.5 -149t0.5 -149q0 -31 26 -31h36q4 -16 4 -45q0 -33 -27 -51q-29 -20 -89 -20z" />
    <glyph glyph-name="paragraph" unicode="&#xb6;" horiz-adv-x="793" 
d="M718 562h-60v-719q-19 -13 -61 -13q-37 0 -58 14t-21 54v664h-88l-1 -592q0 -60 -41 -89.5t-99 -29.5q-30 0 -52 22.5t-22 51.5q2 1 11 4t11 4t10 4t10.5 4.5t8.5 5.5t8.5 7l6.5 8t5 10t2.5 11.5t1.5 14.5v182q-108 0 -184 75.5t-76 184.5q0 107 76 183.5t184 76.5h457
q16 -23 16 -59q0 -35 -12 -57t-33 -22z" />
    <glyph glyph-name="periodcentered" unicode="&#xb7;" horiz-adv-x="224" 
d="M40 264q0 72 72 72t72 -72t-72 -72t-72 72z" />
    <glyph glyph-name="cedilla" unicode="&#xb8;" horiz-adv-x="545" 
d="M292 -113q0 18 -22.5 26.5t-47.5 8.5q-9 11 -9 25l1 70l76 -1l-5 -46q44 -9 61.5 -31t17.5 -59q0 -41 -26.5 -66.5t-77.5 -25.5q-45 0 -70.5 17t-25.5 39q0 28 20 41q32 -28 71 -28q37 0 37 30z" />
    <glyph glyph-name="onesuperior" unicode="&#xb9;" horiz-adv-x="357" 
d="M318 285h-270q-11 22 -11 40q0 24 9.5 36t41.5 12h62v200q-35 -22 -72 -22q-42 0 -42 44q0 23 10 39q33 2 64.5 19.5t39.5 40.5q18 7 51 7q48 0 48 -33v-295h89q11 -16 11 -37q0 -22 -8 -36.5t-23 -14.5z" />
    <glyph glyph-name="ordmasculine" unicode="&#xba;" horiz-adv-x="277" 
d="M15 474q0 65 34 97t88 32q56 0 90.5 -31.5t34.5 -97.5q0 -65 -34 -96t-90 -31q-55 0 -89 31.5t-34 95.5zM101 473q0 -29 11 -43t26 -14q36 0 36 57q0 59 -37 59q-36 0 -36 -59z" />
    <glyph glyph-name="guillemotright" unicode="&#xbb;" horiz-adv-x="509" 
d="M237 174l-119 -138q-15 -6 -29 -6q-28 0 -46 19.5t-18 42.5q0 27 18 48l89 108l-100 129q-5 12 -5 28q0 25 21 40.5t44 15.5q31 0 53 -27l99 -127q15 -27 15 -66q0 -40 -22 -67zM462 174l-119 -138q-15 -6 -29 -6q-28 0 -46 19.5t-18 42.5q0 27 18 48l89 108l-100 129
q-5 12 -5 28q0 25 21 40.5t44 15.5q31 0 53 -27l99 -127q15 -27 15 -66q0 -40 -22 -67z" />
    <glyph glyph-name="onequarter" unicode="&#xbc;" horiz-adv-x="919" 
d="M602 700q33 0 46 -14.5t3 -41.5l-244 -635q-22 -11 -49 -11q-71 0 -43 74l233 621q22 7 54 7zM318 285h-270q-11 22 -11 40q0 24 9.5 36t41.5 12h62v200q-35 -22 -72 -22q-42 0 -42 44q0 23 10 39q33 2 64.5 19.5t39.5 40.5q18 7 51 7q48 0 48 -33v-295h89q11 -16 11 -37
q0 -22 -8 -36.5t-23 -14.5zM793 302q45 0 45 -33v-114h60q10 -12 10 -41q0 -38 -31 -38h-38v-69q-16 -7 -52 -7q-41 0 -41 32l-1 44h-188q-8 9 -8 29q0 16 9 43l84 257q20 9 56 9q19 0 28 -10t4 -24l-69 -225h84l-1 134q20 13 49 13z" />
    <glyph glyph-name="onehalf" unicode="&#xbd;" horiz-adv-x="946" 
d="M602 700q33 0 46 -14.5t3 -41.5l-244 -635q-22 -11 -49 -11q-71 0 -43 74l233 621q22 7 54 7zM318 285h-270q-11 22 -11 40q0 24 9.5 36t41.5 12h62v200q-35 -22 -72 -22q-42 0 -42 44q0 23 10 39q33 2 64.5 19.5t39.5 40.5q18 7 51 7q48 0 48 -33v-295h89q11 -16 11 -37
q0 -22 -8 -36.5t-23 -14.5zM614 341q0 30 38 51t104 21q79 0 117 -33.5t38 -89.5q0 -53 -49.5 -106.5t-123.5 -96.5v-4l178 4q7 -12 7 -45q0 -22 -6.5 -32t-24.5 -10h-273q-9 20 -9 49q0 43 31 67q124 94 152 130q13 17 13 28q0 43 -58 43q-60 0 -105 -33q-29 22 -29 57z
" />
    <glyph glyph-name="threequarters" unicode="&#xbe;" horiz-adv-x="867" 
d="M550 700q33 0 46 -14.5t3 -41.5l-244 -635q-22 -11 -49 -11q-71 0 -43 74l233 621q22 7 54 7zM203 563q0 37 -51 37q-56 0 -102 -27q-26 21 -26 53q0 29 35.5 50.5t98.5 21.5q76 0 111.5 -31.5t35.5 -82.5q0 -32 -18.5 -58.5t-46.5 -32.5v-1q31 -4 53 -29t22 -64
q0 -49 -38.5 -84.5t-115.5 -35.5q-72 0 -107.5 22t-35.5 52q0 37 31 56q46 -42 107 -42q27 0 43 11.5t16 29.5q0 21 -12 30.5t-42 9.5h-24q-22 0 -22 38q0 22 7 35q33 1 57 11.5t24 30.5zM741 302q45 0 45 -33v-114h60q10 -12 10 -41q0 -38 -31 -38h-38v-69q-16 -7 -52 -7
q-41 0 -41 32l-1 44h-188q-8 9 -8 29q0 16 9 43l84 257q20 9 56 9q19 0 28 -10t4 -24l-69 -225h84l-1 134q20 13 49 13z" />
    <glyph glyph-name="questiondown" unicode="&#xbf;" horiz-adv-x="498" 
d="M181 40q0 -41 21 -60.5t66 -19.5q84 0 154 59q42 -33 42 -88q0 -48 -54.5 -84t-151.5 -36q-115 0 -170 53t-55 137q0 80 45 133.5t145 66.5l-9 98q15 19 67 19q27 0 43.5 -14.5t18.5 -37.5l6 -96q2 -34 -14 -54q-22 -1 -46.5 -5.5t-49.5 -12.5t-41.5 -23.5t-16.5 -34.5z
M343 428q0 -72 -72 -72t-72 72t72 72t72 -72z" />
    <glyph glyph-name="Agrave" unicode="&#xc0;" horiz-adv-x="660" 
d="M87 0q-52 0 -72 20l233 657q40 23 87 23q58 0 77 -49l233 -620q-18 -31 -75 -31q-66 0 -86 61l-27 73h-258l-28 -85q-9 -27 -28 -38t-56 -11zM322 496l-81 -239h170zM449 779q-4 -21 -19 -33t-36 -12q-23 0 -56 21.5t-71.5 54.5t-55.5 43q4 56 63 56q25 0 62.5 -30
t71 -63.5t41.5 -36.5z" />
    <glyph glyph-name="Aacute" unicode="&#xc1;" horiz-adv-x="660" 
d="M87 0q-52 0 -72 20l233 657q40 23 87 23q58 0 77 -49l233 -620q-18 -31 -75 -31q-66 0 -86 61l-27 73h-258l-28 -85q-9 -27 -28 -38t-56 -11zM322 496l-81 -239h170zM211 782q8 3 41.5 36.5t71 63.5t62.5 30q59 0 63 -56q-17 -10 -55.5 -43t-71.5 -54.5t-56 -21.5
q-21 0 -36 12t-19 33z" />
    <glyph glyph-name="Acircumflex" unicode="&#xc2;" horiz-adv-x="660" 
d="M87 0q-52 0 -72 20l233 657q40 23 87 23q58 0 77 -49l233 -620q-18 -31 -75 -31q-66 0 -86 61l-27 73h-258l-28 -85q-9 -27 -28 -38t-56 -11zM322 496l-81 -239h170zM507 784q-5 -29 -29 -40q-10 -5 -26 -5t-39.5 12.5t-38.5 23.5t-44 35q-88 -71 -122 -71q-16 0 -26 5
q-24 11 -29 40q9 3 41.5 36t70 63.5t62.5 30.5q26 0 64 -30t71.5 -63t44.5 -37z" />
    <glyph glyph-name="Atilde" unicode="&#xc3;" horiz-adv-x="660" 
d="M87 0q-52 0 -72 20l233 657q40 23 87 23q58 0 77 -49l233 -620q-18 -31 -75 -31q-66 0 -86 61l-27 73h-258l-28 -85q-9 -27 -28 -38t-56 -11zM322 496l-81 -239h170zM246 881q35 0 83 -14t73 -14q26 0 42 8t18 15q11 -4 20.5 -21t9.5 -36q0 -28 -19 -45t-54 -17
q-27 0 -89 13.5t-90 13.5q-39 0 -44 -24q-28 8 -28 51q0 26 19.5 48t58.5 22z" />
    <glyph glyph-name="Adieresis" unicode="&#xc4;" horiz-adv-x="660" 
d="M87 0q-52 0 -72 20l233 657q40 23 87 23q58 0 77 -49l233 -620q-18 -31 -75 -31q-66 0 -86 61l-27 73h-258l-28 -85q-9 -27 -28 -38t-56 -11zM322 496l-81 -239h170zM156 831q0 72 72 72t72 -72t-72 -72t-72 72zM360 831q0 72 72 72t72 -72t-72 -72t-72 72z" />
    <glyph glyph-name="Aring" unicode="&#xc5;" horiz-adv-x="660" 
d="M87 0q-52 0 -72 20l233 657q40 23 87 23q58 0 77 -49l233 -620q-18 -31 -75 -31q-66 0 -86 61l-27 73h-258l-28 -85q-9 -27 -28 -38t-56 -11zM322 496l-81 -239h170zM236 834q0 94 94 94t94 -94t-94 -94t-94 94zM295 834q0 -35 35 -35t35 35t-35 35t-35 -35z" />
    <glyph glyph-name="AE" unicode="&#xc6;" horiz-adv-x="946" 
d="M861 0h-375q-29 0 -46 13.5t-17 53.5v67h-213l-32 -85q-9 -27 -28 -38t-56 -11q-59 0 -79 20l254 656q35 24 90 24h531q16 -23 16 -59q0 -35 -12 -57t-33 -22h-290v-139h270q16 -23 16 -66q0 -33 -11 -52t-30 -19h-245v-148h319q16 -23 16 -59q0 -35 -12 -57t-33 -22z
M370 562l-113 -301h166v301h-53z" />
    <glyph glyph-name="Ccedilla" unicode="&#xc7;" horiz-adv-x="609" 
d="M532 184q21 0 39 -15.5t18 -45.5q0 -47 -51 -82q-75 -51 -192 -51q-137 0 -221.5 89t-84.5 270q0 184 82 272.5t217 88.5q55 0 93.5 -7t56.5 -16t44 -26q43 -29 43 -76q0 -51 -41 -76q-79 61 -189 61q-70 0 -115 -52.5t-45 -172.5q0 -118 46.5 -169.5t121.5 -51.5
q105 0 178 60zM377 -113q0 18 -22.5 26.5t-47.5 8.5q-9 11 -9 25l1 70l76 -1l-5 -46q44 -9 61.5 -31t17.5 -59q0 -41 -26.5 -66.5t-77.5 -25.5q-45 0 -70.5 17t-25.5 39q0 28 20 41q32 -28 71 -28q37 0 37 30z" />
    <glyph glyph-name="Egrave" unicode="&#xc8;" horiz-adv-x="603" 
d="M473 286h-245v-148h319q16 -23 16 -59q0 -35 -12 -57t-33 -22h-375q-29 0 -46 13.5t-17 53.5v620q21 13 69 13h398q16 -23 16 -59q0 -35 -12 -57t-33 -22h-290v-139h270q16 -23 16 -66q0 -33 -11 -52t-30 -19zM437 779q-4 -21 -19 -33t-36 -12q-23 0 -56 21.5t-71.5 54.5
t-55.5 43q4 56 63 56q25 0 62.5 -30t71 -63.5t41.5 -36.5z" />
    <glyph glyph-name="Eacute" unicode="&#xc9;" horiz-adv-x="603" 
d="M473 286h-245v-148h319q16 -23 16 -59q0 -35 -12 -57t-33 -22h-375q-29 0 -46 13.5t-17 53.5v620q21 13 69 13h398q16 -23 16 -59q0 -35 -12 -57t-33 -22h-290v-139h270q16 -23 16 -66q0 -33 -11 -52t-30 -19zM197 782q8 3 41.5 36.5t71 63.5t62.5 30q59 0 63 -56
q-17 -10 -55.5 -43t-71.5 -54.5t-56 -21.5q-21 0 -36 12t-19 33z" />
    <glyph glyph-name="Ecircumflex" unicode="&#xca;" horiz-adv-x="603" 
d="M473 286h-245v-148h319q16 -23 16 -59q0 -35 -12 -57t-33 -22h-375q-29 0 -46 13.5t-17 53.5v620q21 13 69 13h398q16 -23 16 -59q0 -35 -12 -57t-33 -22h-290v-139h270q16 -23 16 -66q0 -33 -11 -52t-30 -19zM497 784q-5 -29 -29 -40q-10 -5 -26 -5t-39.5 12.5
t-38.5 23.5t-44 35q-88 -71 -122 -71q-16 0 -26 5q-24 11 -29 40q9 3 41.5 36t70 63.5t62.5 30.5q26 0 64 -30t71.5 -63t44.5 -37z" />
    <glyph glyph-name="Edieresis" unicode="&#xcb;" horiz-adv-x="603" 
d="M473 286h-245v-148h319q16 -23 16 -59q0 -35 -12 -57t-33 -22h-375q-29 0 -46 13.5t-17 53.5v620q21 13 69 13h398q16 -23 16 -59q0 -35 -12 -57t-33 -22h-290v-139h270q16 -23 16 -66q0 -33 -11 -52t-30 -19zM157 831q0 72 72 72t72 -72t-72 -72t-72 72zM361 831
q0 72 72 72t72 -72t-72 -72t-72 72z" />
    <glyph glyph-name="Igrave" unicode="&#xcc;" horiz-adv-x="308" 
d="M162 700q66 0 66 -51v-633q-30 -16 -81 -16q-67 0 -67 68v619q28 13 82 13zM273 779q-4 -21 -19 -33t-36 -12q-23 0 -56 21.5t-71.5 54.5t-55.5 43q4 56 63 56q25 0 62.5 -30t71 -63.5t41.5 -36.5z" />
    <glyph glyph-name="Iacute" unicode="&#xcd;" horiz-adv-x="308" 
d="M162 700q66 0 66 -51v-633q-30 -16 -81 -16q-67 0 -67 68v619q28 13 82 13zM35 782q8 3 41.5 36.5t71 63.5t62.5 30q59 0 63 -56q-17 -10 -55.5 -43t-71.5 -54.5t-56 -21.5q-21 0 -36 12t-19 33z" />
    <glyph glyph-name="Icircumflex" unicode="&#xce;" horiz-adv-x="308" 
d="M162 700q66 0 66 -51v-633q-30 -16 -81 -16q-67 0 -67 68v619q28 13 82 13zM331 784q-5 -29 -29 -40q-10 -5 -26 -5t-39.5 12.5t-38.5 23.5t-44 35q-88 -71 -122 -71q-16 0 -26 5q-24 11 -29 40q9 3 41.5 36t70 63.5t62.5 30.5q26 0 64 -30t71.5 -63t44.5 -37z" />
    <glyph glyph-name="Idieresis" unicode="&#xcf;" horiz-adv-x="308" 
d="M162 700q66 0 66 -51v-633q-30 -16 -81 -16q-67 0 -67 68v619q28 13 82 13zM-20 831q0 72 72 72t72 -72t-72 -72t-72 72zM184 831q0 72 72 72t72 -72t-72 -72t-72 72z" />
    <glyph glyph-name="Eth" unicode="&#xd0;" horiz-adv-x="676" 
d="M154 700h141q341 0 341 -365q0 -175 -87 -255t-241 -80h-155q-34 0 -53.5 13.5t-19.5 53.5v202h-65q-16 34 -16 68q0 70 67 70h14v281q22 12 74 12zM304 269h-76v-142h75q185 0 185 205q0 232 -194 232h-66v-157h133q14 -21 14 -65q0 -73 -71 -73z" />
    <glyph glyph-name="Ntilde" unicode="&#xd1;" horiz-adv-x="715" 
d="M493 38l-272 392l7 -415q-16 -16 -85 -16q-28 0 -45.5 14t-17.5 54v620q31 13 80 13q44 0 69 -38l266 -394l-4 414q24 19 72 19q31 0 54 -12t23 -39v-638q-21 -12 -76 -12q-45 0 -71 38zM273 881q35 0 83 -14t73 -14q27 0 42.5 8t17.5 15q11 -4 20.5 -21t9.5 -36
q0 -28 -19 -45t-54 -17q-27 0 -89 13.5t-90 13.5q-39 0 -44 -24q-28 8 -28 51q0 26 19.5 48t58.5 22z" />
    <glyph glyph-name="Ograve" unicode="&#xd2;" horiz-adv-x="682" 
d="M40 349q0 183 83.5 272t216.5 89q137 0 219.5 -88.5t82.5 -272.5t-83 -271.5t-218 -87.5t-218 89t-83 270zM186 345q0 -118 45 -174.5t110 -56.5q153 0 153 231q0 122 -42.5 179t-111.5 57q-66 0 -110 -57.5t-44 -178.5zM460 779q-4 -21 -19 -33t-36 -12q-23 0 -56 21.5
t-71.5 54.5t-55.5 43q4 56 63 56q25 0 62.5 -30t71 -63.5t41.5 -36.5z" />
    <glyph glyph-name="Oacute" unicode="&#xd3;" horiz-adv-x="682" 
d="M40 349q0 183 83.5 272t216.5 89q137 0 219.5 -88.5t82.5 -272.5t-83 -271.5t-218 -87.5t-218 89t-83 270zM186 345q0 -118 45 -174.5t110 -56.5q153 0 153 231q0 122 -42.5 179t-111.5 57q-66 0 -110 -57.5t-44 -178.5zM222 782q8 3 41.5 36.5t71 63.5t62.5 30
q59 0 63 -56q-17 -10 -55.5 -43t-71.5 -54.5t-56 -21.5q-21 0 -36 12t-19 33z" />
    <glyph glyph-name="Ocircumflex" unicode="&#xd4;" horiz-adv-x="682" 
d="M40 349q0 183 83.5 272t216.5 89q137 0 219.5 -88.5t82.5 -272.5t-83 -271.5t-218 -87.5t-218 89t-83 270zM186 345q0 -118 45 -174.5t110 -56.5q153 0 153 231q0 122 -42.5 179t-111.5 57q-66 0 -110 -57.5t-44 -178.5zM518 784q-5 -29 -29 -40q-10 -5 -26 -5
t-39.5 12.5t-38.5 23.5t-44 35q-88 -71 -122 -71q-16 0 -26 5q-24 11 -29 40q9 3 41.5 36t70 63.5t62.5 30.5q26 0 64 -30t71.5 -63t44.5 -37z" />
    <glyph glyph-name="Otilde" unicode="&#xd5;" horiz-adv-x="682" 
d="M40 349q0 183 83.5 272t216.5 89q137 0 219.5 -88.5t82.5 -272.5t-83 -271.5t-218 -87.5t-218 89t-83 270zM186 345q0 -118 45 -174.5t110 -56.5q153 0 153 231q0 122 -42.5 179t-111.5 57q-66 0 -110 -57.5t-44 -178.5zM257 881q35 0 83 -14t73 -14q27 0 42.5 8t17.5 15
q11 -4 20.5 -21t9.5 -36q0 -28 -19 -45t-54 -17q-27 0 -89 13.5t-90 13.5q-39 0 -44 -24q-28 8 -28 51q0 26 19.5 48t58.5 22z" />
    <glyph glyph-name="Odieresis" unicode="&#xd6;" horiz-adv-x="682" 
d="M40 349q0 183 83.5 272t216.5 89q137 0 219.5 -88.5t82.5 -272.5t-83 -271.5t-218 -87.5t-218 89t-83 270zM186 345q0 -118 45 -174.5t110 -56.5q153 0 153 231q0 122 -42.5 179t-111.5 57q-66 0 -110 -57.5t-44 -178.5zM167 831q0 72 72 72t72 -72t-72 -72t-72 72z
M371 831q0 72 72 72t72 -72t-72 -72t-72 72z" />
    <glyph glyph-name="multiply" unicode="&#xd7;" horiz-adv-x="466" 
d="M189 407l44 -45l85 85q24 -4 47 -27q14 -13 23 -28.5t8 -39t-21 -43.5l-44 -44l85 -85q-12 -34 -34 -56q-17 -17 -30.5 -24.5t-33 -3t-41.5 26.5l-44 44l-85 -85q-35 12 -56 33q-18 17 -25 30.5t-2.5 33t26.5 41.5l44 44l-85 86q4 24 27 47q14 14 29.5 23t39 8t43.5 -21z
" />
    <glyph glyph-name="Oslash" unicode="&#xd8;" horiz-adv-x="682" 
d="M40 349q0 183 83.5 272t216.5 89q56 0 109 -17l51 109q15 5 46 5q23 0 38 -12t15 -25q0 -12 -5 -23l-52 -109q100 -92 100 -289q0 -184 -83 -271.5t-218 -87.5q-52 0 -100 14l-59 -125q-17 -4 -36 -4q-21 0 -40 11.5t-19 26.5q0 14 7 29l53 113q-107 91 -107 294z
M186 345q0 -94 28 -148l177 375q-24 9 -51 9q-66 0 -110 -57.5t-44 -178.5zM494 345q0 85 -23 142l-174 -366q20 -7 44 -7q153 0 153 231z" />
    <glyph glyph-name="Ugrave" unicode="&#xd9;" horiz-adv-x="674" 
d="M460 271v416q21 13 75 13q73 0 73 -51l1 -394q0 -134 -70.5 -199.5t-202.5 -65.5q-265 0 -265 265l-1 433q19 12 77 12q71 0 71 -50v-379q0 -149 118 -149q67 0 95.5 37t28.5 112zM456 779q-4 -21 -19 -33t-36 -12q-23 0 -56 21.5t-71.5 54.5t-55.5 43q4 56 63 56
q25 0 62.5 -30t71 -63.5t41.5 -36.5z" />
    <glyph glyph-name="Uacute" unicode="&#xda;" horiz-adv-x="674" 
d="M460 271v416q21 13 75 13q73 0 73 -51l1 -394q0 -134 -70.5 -199.5t-202.5 -65.5q-265 0 -265 265l-1 433q19 12 77 12q71 0 71 -50v-379q0 -149 118 -149q67 0 95.5 37t28.5 112zM218 782q8 3 41.5 36.5t71 63.5t62.5 30q59 0 63 -56q-17 -10 -55.5 -43t-71.5 -54.5
t-56 -21.5q-21 0 -36 12t-19 33z" />
    <glyph glyph-name="Ucircumflex" unicode="&#xdb;" horiz-adv-x="674" 
d="M460 271v416q21 13 75 13q73 0 73 -51l1 -394q0 -134 -70.5 -199.5t-202.5 -65.5q-265 0 -265 265l-1 433q19 12 77 12q71 0 71 -50v-379q0 -149 118 -149q67 0 95.5 37t28.5 112zM514 784q-5 -29 -29 -40q-10 -5 -26 -5t-39.5 12.5t-38.5 23.5t-44 35q-88 -71 -122 -71
q-16 0 -26 5q-24 11 -29 40q9 3 41.5 36t70 63.5t62.5 30.5q26 0 64 -30t71.5 -63t44.5 -37z" />
    <glyph glyph-name="Udieresis" unicode="&#xdc;" horiz-adv-x="674" 
d="M460 271v416q21 13 75 13q73 0 73 -51l1 -394q0 -134 -70.5 -199.5t-202.5 -65.5q-265 0 -265 265l-1 433q19 12 77 12q71 0 71 -50v-379q0 -149 118 -149q67 0 95.5 37t28.5 112zM163 831q0 72 72 72t72 -72t-72 -72t-72 72zM367 831q0 72 72 72t72 -72t-72 -72t-72 72z
" />
    <glyph glyph-name="Yacute" unicode="&#xdd;" horiz-adv-x="589" 
d="M379 246v-230q-24 -16 -82 -16q-65 0 -65 46v192q-179 296 -217 444q34 18 81 18q31 0 47 -10t24 -38q31 -111 142 -302q49 85 89.5 182.5t55.5 160.5q21 7 70 7q23 0 36.5 -14t13.5 -37q0 -50 -64.5 -177.5t-130.5 -225.5zM175 782q8 3 41.5 36.5t71 63.5t62.5 30
q59 0 63 -56q-17 -10 -55.5 -43t-71.5 -54.5t-56 -21.5q-21 0 -36 12t-19 33z" />
    <glyph glyph-name="Thorn" unicode="&#xde;" horiz-adv-x="604" 
d="M158 700q26 0 43 -11t17 -32v-69h136q90 0 152.5 -51.5t62.5 -162.5q0 -57 -15 -100.5t-37.5 -68.5t-54 -40.5t-60 -20.5t-60.5 -5h-124v-126q-23 -13 -82 -13q-66 0 -66 67v622q26 11 88 11zM334 469h-116v-205h102q109 0 109 98q0 54 -27 80.5t-68 26.5z" />
    <glyph glyph-name="germandbls" unicode="&#xdf;" horiz-adv-x="620" 
d="M484 362q-30 5 -66 5q-51 0 -51 -30q0 -11 10 -15.5t49 -13.5q5 -1 7 -2q82 -20 116.5 -53t35.5 -103t-44 -115t-136 -45q-79 0 -125.5 27.5t-46.5 66.5q0 40 21 73q66 -36 153 -36q52 0 52 25q0 12 -13.5 19t-57.5 16q-147 29 -147 157q0 63 31.5 102t91.5 49q2 10 2 20
q0 58 -82 58q-98 0 -98 -130v-404q0 -15 -19.5 -24t-47.5 -9q-51 0 -79 15v442q0 114 68 178.5t177 64.5q94 0 155.5 -48t61.5 -149q0 -109 -18 -141z" />
    <glyph glyph-name="agrave" unicode="&#xe0;" horiz-adv-x="495" 
d="M79 359q-17 39 -17 59q0 27 17 46t45 28.5t55 13.5t55 4q95 0 144.5 -45.5t49.5 -132.5v-211q0 -26 16 -26h28q8 -10 8 -43q0 -52 -98 -52q-24 0 -44.5 14.5t-29.5 36.5q-75 -61 -146 -61q-68 0 -105 43.5t-37 119.5q0 71 42 112.5t122 42.5l117 1q-9 70 -79 70
q-88 0 -143 -20zM189 112q55 0 114 35v65l-109 -12q-47 -6 -47 -46q0 -17 11.5 -29.5t30.5 -12.5zM321 579q-4 -21 -19 -33t-36 -12q-23 0 -56 21.5t-71.5 54.5t-55.5 43q4 56 63 56q25 0 62.5 -30t71 -63.5t41.5 -36.5z" />
    <glyph glyph-name="aacute" unicode="&#xe1;" horiz-adv-x="495" 
d="M79 359q-17 39 -17 59q0 27 17 46t45 28.5t55 13.5t55 4q95 0 144.5 -45.5t49.5 -132.5v-211q0 -26 16 -26h28q8 -10 8 -43q0 -52 -98 -52q-24 0 -44.5 14.5t-29.5 36.5q-75 -61 -146 -61q-68 0 -105 43.5t-37 119.5q0 71 42 112.5t122 42.5l117 1q-9 70 -79 70
q-88 0 -143 -20zM189 112q55 0 114 35v65l-109 -12q-47 -6 -47 -46q0 -17 11.5 -29.5t30.5 -12.5zM144 582q8 3 41.5 36.5t71 63.5t62.5 30q59 0 63 -56q-17 -10 -55.5 -43t-71.5 -54.5t-56 -21.5q-21 0 -36 12t-19 33z" />
    <glyph glyph-name="acircumflex" unicode="&#xe2;" horiz-adv-x="495" 
d="M79 359q-17 39 -17 59q0 27 17 46t45 28.5t55 13.5t55 4q95 0 144.5 -45.5t49.5 -132.5v-211q0 -26 16 -26h28q8 -10 8 -43q0 -52 -98 -52q-24 0 -44.5 14.5t-29.5 36.5q-75 -61 -146 -61q-68 0 -105 43.5t-37 119.5q0 71 42 112.5t122 42.5l117 1q-9 70 -79 70
q-88 0 -143 -20zM189 112q55 0 114 35v65l-109 -12q-47 -6 -47 -46q0 -17 11.5 -29.5t30.5 -12.5zM410 584q-5 -29 -29 -40q-10 -5 -26 -5t-39.5 12.5t-38.5 23.5t-44 35q-88 -71 -122 -71q-16 0 -26 5q-24 11 -29 40q9 3 41.5 36t70 63.5t62.5 30.5q26 0 64 -30t71.5 -63
t44.5 -37z" />
    <glyph glyph-name="atilde" unicode="&#xe3;" horiz-adv-x="495" 
d="M79 359q-17 39 -17 59q0 27 17 46t45 28.5t55 13.5t55 4q95 0 144.5 -45.5t49.5 -132.5v-211q0 -26 16 -26h28q8 -10 8 -43q0 -52 -98 -52q-24 0 -44.5 14.5t-29.5 36.5q-75 -61 -146 -61q-68 0 -105 43.5t-37 119.5q0 71 42 112.5t122 42.5l117 1q-9 70 -79 70
q-88 0 -143 -20zM189 112q55 0 114 35v65l-109 -12q-47 -6 -47 -46q0 -17 11.5 -29.5t30.5 -12.5zM159 681q35 0 83 -14t73 -14q27 0 42.5 8t17.5 15q11 -4 20.5 -21t9.5 -36q0 -28 -19 -45t-54 -17q-27 0 -89 13.5t-90 13.5q-39 0 -44 -24q-28 8 -28 51q0 26 19.5 48
t58.5 22z" />
    <glyph glyph-name="adieresis" unicode="&#xe4;" horiz-adv-x="495" 
d="M79 359q-17 39 -17 59q0 27 17 46t45 28.5t55 13.5t55 4q95 0 144.5 -45.5t49.5 -132.5v-211q0 -26 16 -26h28q8 -10 8 -43q0 -52 -98 -52q-24 0 -44.5 14.5t-29.5 36.5q-75 -61 -146 -61q-68 0 -105 43.5t-37 119.5q0 71 42 112.5t122 42.5l117 1q-9 70 -79 70
q-88 0 -143 -20zM189 112q55 0 114 35v65l-109 -12q-47 -6 -47 -46q0 -17 11.5 -29.5t30.5 -12.5zM60 631q0 72 72 72t72 -72t-72 -72t-72 72zM264 631q0 72 72 72t72 -72t-72 -72t-72 72z" />
    <glyph glyph-name="aring" unicode="&#xe5;" horiz-adv-x="495" 
d="M79 359q-17 39 -17 59q0 27 17 46t45 28.5t55 13.5t55 4q95 0 144.5 -45.5t49.5 -132.5v-211q0 -26 16 -26h28q8 -10 8 -43q0 -52 -98 -52q-24 0 -44.5 14.5t-29.5 36.5q-75 -61 -146 -61q-68 0 -105 43.5t-37 119.5q0 71 42 112.5t122 42.5l117 1q-9 70 -79 70
q-88 0 -143 -20zM189 112q55 0 114 35v65l-109 -12q-47 -6 -47 -46q0 -17 11.5 -29.5t30.5 -12.5zM137 634q0 94 94 94t94 -94t-94 -94t-94 94zM196 634q0 -35 35 -35t35 35t-35 35t-35 -35z" />
    <glyph glyph-name="ae" unicode="&#xe6;" horiz-adv-x="767" 
d="M79 359q-17 39 -17 59q0 27 17 46t45 28.5t55 13.5t55 4q102 0 153 -54q65 54 151 54q92 0 143 -61t51 -164q0 -47 -10 -77h-277q16 -88 100 -88q31 0 46 2q76 8 112 32q24 -22 24 -57q0 -51 -51.5 -79t-144.5 -28q-114 0 -176 83q-95 -83 -193 -83q-68 0 -105 43.5
t-37 119.5q0 117 105 147q33 9 176 9q-9 70 -79 70q-88 0 -143 -20zM189 112q31 0 57.5 10.5t67.5 38.5q-3 13 -7 34l-2 18l-111 -13q-47 -6 -47 -46q0 -17 11.5 -29.5t30.5 -12.5zM537 382q-28 0 -54 -21t-37 -60h160q0 81 -69 81z" />
    <glyph glyph-name="ccedilla" unicode="&#xe7;" horiz-adv-x="448" 
d="M419 420q0 -36 -32 -73q-77 20 -116 20q-42 0 -71 -29.5t-29 -94.5q0 -59 29.5 -90.5t75.5 -31.5q70 0 130 32q17 -21 17 -60q0 -49 -39 -74q-45 -29 -120 -29q-107 0 -168 69.5t-61 184.5q0 72 21 126t56 83t74 43t81 14q74 0 123 -33q29 -19 29 -57zM311 -113
q0 18 -22.5 26.5t-47.5 8.5q-9 11 -9 25l1 70l76 -1l-5 -46q44 -9 61.5 -31t17.5 -59q0 -41 -26.5 -66.5t-77.5 -25.5q-45 0 -70.5 17t-25.5 39q0 28 20 41q32 -28 71 -28q37 0 37 30z" />
    <glyph glyph-name="egrave" unicode="&#xe8;" horiz-adv-x="499" 
d="M454 208h-277q17 -88 100 -88q46 0 91 9.5t67 24.5q24 -22 24 -57q0 -42 -32 -63q-33 -23 -67.5 -33.5t-96.5 -10.5q-107 0 -167.5 73.5t-60.5 192.5q0 117 69 185.5t166 68.5q92 0 143 -61t51 -164q0 -47 -10 -77zM269 382q-28 0 -54 -21t-37 -60h160q0 81 -69 81z
M359 579q-4 -21 -19 -33t-36 -12q-23 0 -56 21.5t-71.5 54.5t-55.5 43q4 56 63 56q25 0 62.5 -30t71 -63.5t41.5 -36.5z" />
    <glyph glyph-name="eacute" unicode="&#xe9;" horiz-adv-x="499" 
d="M454 208h-277q17 -88 100 -88q46 0 91 9.5t67 24.5q24 -22 24 -57q0 -42 -32 -63q-33 -23 -67.5 -33.5t-96.5 -10.5q-107 0 -167.5 73.5t-60.5 192.5q0 117 69 185.5t166 68.5q92 0 143 -61t51 -164q0 -47 -10 -77zM269 382q-28 0 -54 -21t-37 -60h160q0 81 -69 81z
M182 582q8 3 41.5 36.5t71 63.5t62.5 30q59 0 63 -56q-17 -10 -55.5 -43t-71.5 -54.5t-56 -21.5q-21 0 -36 12t-19 33z" />
    <glyph glyph-name="ecircumflex" unicode="&#xea;" horiz-adv-x="499" 
d="M454 208h-277q17 -88 100 -88q46 0 91 9.5t67 24.5q24 -22 24 -57q0 -42 -32 -63q-33 -23 -67.5 -33.5t-96.5 -10.5q-107 0 -167.5 73.5t-60.5 192.5q0 117 69 185.5t166 68.5q92 0 143 -61t51 -164q0 -47 -10 -77zM269 382q-28 0 -54 -21t-37 -60h160q0 81 -69 81z
M448 584q-5 -29 -29 -40q-10 -5 -26 -5t-39.5 12.5t-38.5 23.5t-44 35q-88 -71 -122 -71q-16 0 -26 5q-24 11 -29 40q9 3 41.5 36t70 63.5t62.5 30.5q26 0 64 -30t71.5 -63t44.5 -37z" />
    <glyph glyph-name="edieresis" unicode="&#xeb;" horiz-adv-x="499" 
d="M454 208h-277q17 -88 100 -88q46 0 91 9.5t67 24.5q24 -22 24 -57q0 -42 -32 -63q-33 -23 -67.5 -33.5t-96.5 -10.5q-107 0 -167.5 73.5t-60.5 192.5q0 117 69 185.5t166 68.5q92 0 143 -61t51 -164q0 -47 -10 -77zM269 382q-28 0 -54 -21t-37 -60h160q0 81 -69 81z
M98 631q0 72 72 72t72 -72t-72 -72t-72 72zM302 631q0 72 72 72t72 -72t-72 -72t-72 72z" />
    <glyph glyph-name="igrave" unicode="&#xec;" horiz-adv-x="302" 
d="M118 500q49 0 77.5 -24.5t28.5 -92.5v-247q0 -30 22 -30h33q8 -18 8 -43q0 -63 -105 -63q-52 0 -76.5 24.5t-24.5 87.5v231q0 31 -24 31h-29q-8 16 -8 51q0 75 98 75zM216 579q-4 -21 -19 -33t-36 -12q-23 0 -56 21.5t-71.5 54.5t-55.5 43q4 56 63 56q25 0 62.5 -30
t71 -63.5t41.5 -36.5z" />
    <glyph glyph-name="iacute" unicode="&#xed;" horiz-adv-x="302" 
d="M118 500q49 0 77.5 -24.5t28.5 -92.5v-247q0 -30 22 -30h33q8 -18 8 -43q0 -63 -105 -63q-52 0 -76.5 24.5t-24.5 87.5v231q0 31 -24 31h-29q-8 16 -8 51q0 75 98 75zM39 582q8 3 41.5 36.5t71 63.5t62.5 30q59 0 63 -56q-17 -10 -55.5 -43t-71.5 -54.5t-56 -21.5
q-21 0 -36 12t-19 33z" />
    <glyph glyph-name="icircumflex" unicode="&#xee;" horiz-adv-x="302" 
d="M118 500q49 0 77.5 -24.5t28.5 -92.5v-247q0 -30 22 -30h33q8 -18 8 -43q0 -63 -105 -63q-52 0 -76.5 24.5t-24.5 87.5v231q0 31 -24 31h-29q-8 16 -8 51q0 75 98 75zM305 584q-5 -29 -29 -40q-10 -5 -26 -5t-39.5 12.5t-38.5 23.5t-44 35q-88 -71 -122 -71q-16 0 -26 5
q-24 11 -29 40q9 3 41.5 36t70 63.5t62.5 30.5q26 0 64 -30t71.5 -63t44.5 -37z" />
    <glyph glyph-name="idieresis" unicode="&#xef;" horiz-adv-x="302" 
d="M118 500q49 0 77.5 -24.5t28.5 -92.5v-247q0 -30 22 -30h33q8 -18 8 -43q0 -63 -105 -63q-52 0 -76.5 24.5t-24.5 87.5v231q0 31 -24 31h-29q-8 16 -8 51q0 75 98 75zM-45 631q0 72 72 72t72 -72t-72 -72t-72 72zM159 631q0 72 72 72t72 -72t-72 -72t-72 72z" />
    <glyph glyph-name="eth" unicode="&#xf0;" horiz-adv-x="513" 
d="M435 555l-10 -2q63 -149 63 -279q0 -148 -63 -214t-169 -66q-105 0 -168 61t-63 189q0 66 17 113t46.5 71.5t61.5 35t70 10.5q42 0 81 -17q-15 41 -30 69l-93 -16q-17 14 -21 38q-5 27 4 42t46 22l11 2q-17 22 -27 32q21 39 50 55q27 14 52 18t43 -11q24 -32 44 -66
l81 15q18 -8 23 -34q8 -57 -49 -68zM337 272q0 27 -5 62q-44 22 -85 22q-73 0 -73 -114q0 -65 23 -93.5t59 -28.5q39 0 60 33t21 119z" />
    <glyph glyph-name="ntilde" unicode="&#xf1;" horiz-adv-x="607" 
d="M130 500q35 0 64 -19t42 -52q72 81 159 81q61 0 98.5 -38.5t37.5 -119.5v-231q0 -26 21 -26h34q6 -11 6 -33q0 -29 -29.5 -45.5t-84.5 -16.5q-49 0 -70.5 22t-21.5 75v215q0 22 -13 35.5t-36 13.5q-48 0 -93 -34v-313q-22 -14 -83 -14q-69 0 -69 74v269q0 31 -28 31h-31
q-13 28 -13 56q0 70 110 70zM218 681q35 0 83 -14t73 -14q26 0 42 8t18 15q11 -4 20.5 -21t9.5 -36q0 -28 -19 -45t-54 -17q-27 0 -89 13.5t-90 13.5q-39 0 -44 -24q-28 8 -28 51q0 26 19.5 48t58.5 22z" />
    <glyph glyph-name="ograve" unicode="&#xf2;" horiz-adv-x="553" 
d="M35 248q0 132 66.5 197t174.5 65q110 0 176 -64.5t66 -197.5q0 -132 -66 -195t-176 -63q-109 0 -175 64t-66 194zM187 246q0 -67 25 -97.5t64 -30.5q88 0 88 128q0 133 -88 133q-39 0 -64 -32.5t-25 -100.5zM365 579q-4 -21 -19 -33t-36 -12q-23 0 -56 21.5t-71.5 54.5
t-55.5 43q4 56 63 56q25 0 62.5 -30t71 -63.5t41.5 -36.5z" />
    <glyph glyph-name="oacute" unicode="&#xf3;" horiz-adv-x="553" 
d="M35 248q0 132 66.5 197t174.5 65q110 0 176 -64.5t66 -197.5q0 -132 -66 -195t-176 -63q-109 0 -175 64t-66 194zM187 246q0 -67 25 -97.5t64 -30.5q88 0 88 128q0 133 -88 133q-39 0 -64 -32.5t-25 -100.5zM188 582q8 3 41.5 36.5t71 63.5t62.5 30q59 0 63 -56
q-17 -10 -55.5 -43t-71.5 -54.5t-56 -21.5q-21 0 -36 12t-19 33z" />
    <glyph glyph-name="ocircumflex" unicode="&#xf4;" horiz-adv-x="553" 
d="M35 248q0 132 66.5 197t174.5 65q110 0 176 -64.5t66 -197.5q0 -132 -66 -195t-176 -63q-109 0 -175 64t-66 194zM187 246q0 -67 25 -97.5t64 -30.5q88 0 88 128q0 133 -88 133q-39 0 -64 -32.5t-25 -100.5zM454 584q-5 -29 -29 -40q-10 -5 -26 -5t-39.5 12.5t-38.5 23.5
t-44 35q-88 -71 -122 -71q-16 0 -26 5q-24 11 -29 40q9 3 41.5 36t70 63.5t62.5 30.5q26 0 64 -30t71.5 -63t44.5 -37z" />
    <glyph glyph-name="otilde" unicode="&#xf5;" horiz-adv-x="553" 
d="M35 248q0 132 66.5 197t174.5 65q110 0 176 -64.5t66 -197.5q0 -132 -66 -195t-176 -63q-109 0 -175 64t-66 194zM187 246q0 -67 25 -97.5t64 -30.5q88 0 88 128q0 133 -88 133q-39 0 -64 -32.5t-25 -100.5zM203 681q35 0 83 -14t73 -14q27 0 42.5 8t17.5 15
q11 -4 20.5 -21t9.5 -36q0 -28 -19 -45t-54 -17q-27 0 -89 13.5t-90 13.5q-39 0 -44 -24q-28 8 -28 51q0 26 19.5 48t58.5 22z" />
    <glyph glyph-name="odieresis" unicode="&#xf6;" horiz-adv-x="553" 
d="M35 248q0 132 66.5 197t174.5 65q110 0 176 -64.5t66 -197.5q0 -132 -66 -195t-176 -63q-109 0 -175 64t-66 194zM187 246q0 -67 25 -97.5t64 -30.5q88 0 88 128q0 133 -88 133q-39 0 -64 -32.5t-25 -100.5zM104 631q0 72 72 72t72 -72t-72 -72t-72 72zM308 631
q0 72 72 72t72 -72t-72 -72t-72 72z" />
    <glyph glyph-name="divide" unicode="&#xf7;" horiz-adv-x="499" 
d="M177 72q0 72 72 72t72 -72t-72 -72t-72 72zM177 427q0 72 72 72t72 -72t-72 -72t-72 72zM388 185h-327q-16 34 -16 73q0 28 14 46.5t43 18.5h338q14 -26 14 -68q0 -70 -66 -70z" />
    <glyph glyph-name="oslash" unicode="&#xf8;" horiz-adv-x="553" 
d="M35 248q0 132 66.5 197t174.5 65q27 0 55 -5l38 105q19 7 36 7q33 0 33 -21q0 -12 -5 -25l-32 -88q117 -60 117 -235q0 -132 -66 -195t-176 -63q-29 0 -50 4l-31 -88q-17 -9 -40 -9q-11 0 -20 5.5t-9 14.5q0 15 6 31l24 67q-121 58 -121 233zM187 246q0 -58 19 -90
l80 222q-4 1 -10 1q-39 0 -64 -32.5t-25 -100.5zM364 246q0 53 -16 87l-77 -215h5q88 0 88 128z" />
    <glyph glyph-name="ugrave" unicode="&#xf9;" horiz-adv-x="611" 
d="M480 0q-73 0 -96 59q-66 -69 -154 -69q-57 0 -98 39t-41 119v198q0 28 -23 28h-45q-8 26 -7 57q1 33 35 51t82 18q57 0 83.5 -21t26.5 -72v-219q0 -21 12.5 -35t30.5 -14q57 0 89 38v307q30 16 83 16q71 0 71 -55l1 -298q0 -31 26 -31h36q4 -16 4 -45q0 -71 -116 -71z
M379 579q-4 -21 -19 -33t-36 -12q-23 0 -56 21.5t-71.5 54.5t-55.5 43q4 56 63 56q25 0 62.5 -30t71 -63.5t41.5 -36.5z" />
    <glyph glyph-name="uacute" unicode="&#xfa;" horiz-adv-x="611" 
d="M480 0q-73 0 -96 59q-66 -69 -154 -69q-57 0 -98 39t-41 119v198q0 28 -23 28h-45q-8 26 -7 57q1 33 35 51t82 18q57 0 83.5 -21t26.5 -72v-219q0 -21 12.5 -35t30.5 -14q57 0 89 38v307q30 16 83 16q71 0 71 -55l1 -298q0 -31 26 -31h36q4 -16 4 -45q0 -71 -116 -71z
M202 582q8 3 41.5 36.5t71 63.5t62.5 30q59 0 63 -56q-17 -10 -55.5 -43t-71.5 -54.5t-56 -21.5q-21 0 -36 12t-19 33z" />
    <glyph glyph-name="ucircumflex" unicode="&#xfb;" horiz-adv-x="611" 
d="M480 0q-73 0 -96 59q-66 -69 -154 -69q-57 0 -98 39t-41 119v198q0 28 -23 28h-45q-8 26 -7 57q1 33 35 51t82 18q57 0 83.5 -21t26.5 -72v-219q0 -21 12.5 -35t30.5 -14q57 0 89 38v307q30 16 83 16q71 0 71 -55l1 -298q0 -31 26 -31h36q4 -16 4 -45q0 -71 -116 -71z
M468 584q-5 -29 -29 -40q-10 -5 -26 -5t-39.5 12.5t-38.5 23.5t-44 35q-88 -71 -122 -71q-16 0 -26 5q-24 11 -29 40q9 3 41.5 36t70 63.5t62.5 30.5q26 0 64 -30t71.5 -63t44.5 -37z" />
    <glyph glyph-name="udieresis" unicode="&#xfc;" horiz-adv-x="611" 
d="M480 0q-73 0 -96 59q-66 -69 -154 -69q-57 0 -98 39t-41 119v198q0 28 -23 28h-45q-8 26 -7 57q1 33 35 51t82 18q57 0 83.5 -21t26.5 -72v-219q0 -21 12.5 -35t30.5 -14q57 0 89 38v307q30 16 83 16q71 0 71 -55l1 -298q0 -31 26 -31h36q4 -16 4 -45q0 -71 -116 -71z
M118 631q0 72 72 72t72 -72t-72 -72t-72 72zM322 631q0 72 72 72t72 -72t-72 -72t-72 72z" />
    <glyph glyph-name="yacute" unicode="&#xfd;" horiz-adv-x="560" 
d="M217 419l77 -241q6 -20 19 -28q73 150 73 209q0 29 -24 29h-31q-9 20 -9 50q0 28 28 45t68 17q112 0 112 -101q0 -65 -47 -180t-112 -231q-49 -88 -111 -123t-145 -35q-84 0 -84 64q0 24 11 50h94q34 0 61 19.5t54 66.5q-51 13 -68 71l-95 261q-8 26 -29 26h-35
q-9 19 -9 50q0 28 27 45t76 17q41 0 64 -19.5t35 -61.5zM188 582q8 3 41.5 36.5t71 63.5t62.5 30q59 0 63 -56q-17 -10 -55.5 -43t-71.5 -54.5t-56 -21.5q-21 0 -36 12t-19 33z" />
    <glyph glyph-name="thorn" unicode="&#xfe;" horiz-adv-x="567" 
d="M164 700q67 0 67 -51v-203q61 64 128 64q171 0 172 -252q1 -123 -55.5 -195.5t-136.5 -72.5q-60 0 -108 37v-183q-22 -14 -77 -14q-70 0 -70 74v784q34 12 80 12zM310 358q-38 0 -79 -27v-172q32 -32 72 -32q41 0 63 31.5t22 83.5q0 62 -19.5 89t-58.5 27z" />
    <glyph glyph-name="ydieresis" unicode="&#xff;" horiz-adv-x="560" 
d="M217 419l77 -241q6 -20 19 -28q73 150 73 209q0 29 -24 29h-31q-9 20 -9 50q0 28 28 45t68 17q112 0 112 -101q0 -65 -47 -180t-112 -231q-49 -88 -111 -123t-145 -35q-84 0 -84 64q0 24 11 50h94q34 0 61 19.5t54 66.5q-51 13 -68 71l-95 261q-8 26 -29 26h-35
q-9 19 -9 50q0 28 27 45t76 17q41 0 64 -19.5t35 -61.5zM104 631q0 72 72 72t72 -72t-72 -72t-72 72zM308 631q0 72 72 72t72 -72t-72 -72t-72 72z" />
    <glyph glyph-name="Amacron" unicode="&#x100;" horiz-adv-x="660" 
d="M87 0q-52 0 -72 20l233 657q40 23 87 23q58 0 77 -49l233 -620q-18 -31 -75 -31q-66 0 -86 61l-27 73h-258l-28 -85q-9 -27 -28 -38t-56 -11zM322 496l-81 -239h170zM433 758h-262q-16 25 -16 47q0 29 14 43t60 14h262q14 -16 14 -39q0 -25 -16 -45t-56 -20z" />
    <glyph glyph-name="amacron" unicode="&#x101;" horiz-adv-x="495" 
d="M79 359q-17 39 -17 59q0 27 17 46t45 28.5t55 13.5t55 4q95 0 144.5 -45.5t49.5 -132.5v-211q0 -26 16 -26h28q8 -10 8 -43q0 -52 -98 -52q-24 0 -44.5 14.5t-29.5 36.5q-75 -61 -146 -61q-68 0 -105 43.5t-37 119.5q0 71 42 112.5t122 42.5l117 1q-9 70 -79 70
q-88 0 -143 -20zM189 112q55 0 114 35v65l-109 -12q-47 -6 -47 -46q0 -17 11.5 -29.5t30.5 -12.5zM346 558h-262q-16 25 -16 47q0 29 14 43t60 14h262q14 -16 14 -39q0 -25 -16 -45t-56 -20z" />
    <glyph glyph-name="Abreve" unicode="&#x102;" horiz-adv-x="660" 
d="M87 0q-52 0 -72 20l233 657q40 23 87 23q58 0 77 -49l233 -620q-18 -31 -75 -31q-66 0 -86 61l-27 73h-258l-28 -85q-9 -27 -28 -38t-56 -11zM322 496l-81 -239h170zM256 894q2 -22 15 -38q19 -22 59 -22q37 0 53 18q9 10 19 38q16 13 54 11q24 -1 33.5 -14.5t4.5 -31.5
q-16 -52 -48 -77q-40 -32 -115 -32q-78 0 -122 34q-38 29 -46 82q-4 36 37 40q31 3 56 -8z" />
    <glyph glyph-name="abreve" unicode="&#x103;" horiz-adv-x="495" 
d="M79 359q-17 39 -17 59q0 27 17 46t45 28.5t55 13.5t55 4q95 0 144.5 -45.5t49.5 -132.5v-211q0 -26 16 -26h28q8 -10 8 -43q0 -52 -98 -52q-24 0 -44.5 14.5t-29.5 36.5q-75 -61 -146 -61q-68 0 -105 43.5t-37 119.5q0 71 42 112.5t122 42.5l117 1q-9 70 -79 70
q-88 0 -143 -20zM189 112q55 0 114 35v65l-109 -12q-47 -6 -47 -46q0 -17 11.5 -29.5t30.5 -12.5zM157 694q2 -22 15 -38q19 -22 59 -22q37 0 53 18q10 10 19 38q16 13 54 11q24 -1 33.5 -14.5t4.5 -31.5q-16 -52 -48 -77q-40 -32 -115 -32q-78 0 -122 34q-38 29 -46 82
q-4 36 37 40q31 3 56 -8z" />
    <glyph glyph-name="Aogonek" unicode="&#x104;" horiz-adv-x="660" 
d="M412 651l233 -620q-57 -81 -57 -113q0 -19 10.5 -26.5t35.5 -7.5q8 -15 8 -34q0 -39 -51 -39q-39 0 -61 23.5t-22 61.5q0 35 13 65t22 41q-42 9 -59 59l-27 73h-258l-28 -85q-9 -27 -28 -38t-56 -11q-52 0 -72 20l233 657q40 23 87 23q58 0 77 -49zM322 496l-81 -239h170
z" />
    <glyph glyph-name="aogonek" unicode="&#x105;" horiz-adv-x="495" 
d="M79 359q-17 39 -17 59q0 27 17 46t45 28.5t55 13.5t55 4q94 0 144 -45.5t50 -132.5v-211q0 -26 16 -26h28q8 -10 8 -43q0 -17 -18 -35q-43 -41 -43 -85q0 -19 10.5 -26.5t35.5 -7.5q8 -15 8 -34q0 -39 -51 -39q-39 0 -61 23.5t-22 61.5q0 47 28 91q-41 10 -59 50
q-75 -61 -146 -61q-68 0 -105 43.5t-37 119.5q0 61 31 100t90 51q25 5 160 5q-6 36 -24 53t-55 17q-88 0 -143 -20zM189 112q55 0 114 35v65l-109 -12q-47 -6 -47 -46q0 -17 11.5 -29.5t30.5 -12.5z" />
    <glyph glyph-name="Cacute" unicode="&#x106;" horiz-adv-x="609" 
d="M532 184q21 0 39 -15.5t18 -45.5q0 -47 -51 -82q-75 -51 -192 -51q-137 0 -221.5 89t-84.5 270q0 184 82 272.5t217 88.5q55 0 93.5 -7t56.5 -16t44 -26q43 -29 43 -76q0 -51 -41 -76q-79 61 -189 61q-70 0 -115 -52.5t-45 -172.5q0 -118 46.5 -169.5t121.5 -51.5
q105 0 178 60zM218 782q8 3 41.5 36.5t71 63.5t62.5 30q59 0 63 -56q-17 -10 -55.5 -43t-71.5 -54.5t-56 -21.5q-21 0 -36 12t-19 33z" />
    <glyph glyph-name="cacute" unicode="&#x107;" horiz-adv-x="448" 
d="M419 420q0 -36 -32 -73q-77 20 -116 20q-42 0 -71 -29.5t-29 -94.5q0 -59 29.5 -90.5t75.5 -31.5q70 0 130 32q17 -21 17 -60q0 -49 -39 -74q-45 -29 -120 -29q-107 0 -168 69.5t-61 184.5q0 72 21 126t56 83t74 43t81 14q74 0 123 -33q29 -19 29 -57zM178 582
q8 3 41.5 36.5t71 63.5t62.5 30q59 0 63 -56q-17 -10 -55.5 -43t-71.5 -54.5t-56 -21.5q-21 0 -36 12t-19 33z" />
    <glyph glyph-name="Ccircumflex" unicode="&#x108;" horiz-adv-x="609" 
d="M532 184q21 0 39 -15.5t18 -45.5q0 -47 -51 -82q-75 -51 -192 -51q-137 0 -221.5 89t-84.5 270q0 184 82 272.5t217 88.5q55 0 93.5 -7t56.5 -16t44 -26q43 -29 43 -76q0 -51 -41 -76q-79 61 -189 61q-70 0 -115 -52.5t-45 -172.5q0 -118 46.5 -169.5t121.5 -51.5
q105 0 178 60zM521 784q-5 -29 -29 -40q-10 -5 -26 -5t-39.5 12.5t-38.5 23.5t-44 35q-88 -71 -122 -71q-16 0 -26 5q-24 11 -29 40q9 3 41.5 36t70 63.5t62.5 30.5q26 0 64 -30t71.5 -63t44.5 -37z" />
    <glyph glyph-name="ccircumflex" unicode="&#x109;" horiz-adv-x="448" 
d="M419 420q0 -36 -32 -73q-77 20 -116 20q-42 0 -71 -29.5t-29 -94.5q0 -59 29.5 -90.5t75.5 -31.5q70 0 130 32q17 -21 17 -60q0 -49 -39 -74q-45 -29 -120 -29q-107 0 -168 69.5t-61 184.5q0 72 21 126t56 83t74 43t81 14q74 0 123 -33q29 -19 29 -57zM444 584
q-5 -29 -29 -40q-10 -5 -26 -5t-39.5 12.5t-38.5 23.5t-44 35q-88 -71 -122 -71q-16 0 -26 5q-24 11 -29 40q9 3 41.5 36t70 63.5t62.5 30.5q26 0 64 -30t71.5 -63t44.5 -37z" />
    <glyph glyph-name="Cdotaccent" unicode="&#x10a;" horiz-adv-x="609" 
d="M532 184q21 0 39 -15.5t18 -45.5q0 -47 -51 -82q-75 -51 -192 -51q-137 0 -221.5 89t-84.5 270q0 184 82 272.5t217 88.5q55 0 93.5 -7t56.5 -16t44 -26q43 -29 43 -76q0 -51 -41 -76q-79 61 -189 61q-70 0 -115 -52.5t-45 -172.5q0 -118 46.5 -169.5t121.5 -51.5
q105 0 178 60zM275 824q0 72 72 72t72 -72t-72 -72t-72 72z" />
    <glyph glyph-name="cdotaccent" unicode="&#x10b;" horiz-adv-x="448" 
d="M419 420q0 -36 -32 -73q-77 20 -116 20q-42 0 -71 -29.5t-29 -94.5q0 -59 29.5 -90.5t75.5 -31.5q70 0 130 32q17 -21 17 -60q0 -49 -39 -74q-45 -29 -120 -29q-107 0 -168 69.5t-61 184.5q0 72 21 126t56 83t74 43t81 14q74 0 123 -33q29 -19 29 -57zM195 635
q0 72 72 72t72 -72t-72 -72t-72 72z" />
    <glyph glyph-name="Ccaron" unicode="&#x10c;" horiz-adv-x="609" 
d="M532 184q21 0 39 -15.5t18 -45.5q0 -47 -51 -82q-75 -51 -192 -51q-137 0 -221.5 89t-84.5 270q0 184 82 272.5t217 88.5q55 0 93.5 -7t56.5 -16t44 -26q43 -29 43 -76q0 -51 -41 -76q-79 61 -189 61q-70 0 -115 -52.5t-45 -172.5q0 -118 46.5 -169.5t121.5 -51.5
q105 0 178 60zM344 740q-13 0 -25 6q-29 12 -86 58.5t-70 54.5q1 23 20.5 39.5t42.5 16.5q37 0 120 -81q83 81 120 81q22 0 42 -17t21 -39q-12 -8 -69.5 -54.5t-87.5 -58.5q-17 -7 -28 -6z" />
    <glyph glyph-name="ccaron" unicode="&#x10d;" horiz-adv-x="448" 
d="M419 420q0 -36 -32 -73q-77 20 -116 20q-42 0 -71 -29.5t-29 -94.5q0 -59 29.5 -90.5t75.5 -31.5q70 0 130 32q17 -21 17 -60q0 -49 -39 -74q-45 -29 -120 -29q-107 0 -168 69.5t-61 184.5q0 72 21 126t56 83t74 43t81 14q74 0 123 -33q29 -19 29 -57zM264 540
q-13 0 -25 6q-29 12 -86 58.5t-70 54.5q1 23 20.5 39.5t42.5 16.5q37 0 120 -81q83 81 120 81q22 0 42 -17t21 -39q-12 -8 -69.5 -54.5t-87.5 -58.5q-17 -7 -28 -6z" />
    <glyph glyph-name="Dcaron" unicode="&#x10e;" horiz-adv-x="676" 
d="M154 700h141q341 0 341 -365q0 -175 -87 -255t-241 -80h-155q-34 0 -53.5 13.5t-19.5 53.5v621q22 12 74 12zM294 564h-66v-437h75q185 0 185 205q0 232 -194 232zM309 740q-13 0 -25 6q-29 12 -86 58.5t-70 54.5q1 23 20.5 39.5t42.5 16.5q37 0 120 -81q83 81 120 81
q22 0 42 -17t21 -39q-12 -8 -69.5 -54.5t-87.5 -58.5q-17 -7 -28 -6z" />
    <glyph glyph-name="dcaron" unicode="&#x10f;" horiz-adv-x="621" 
d="M444 0q-53 0 -85 40q-56 -50 -138 -50q-77 0 -131.5 63t-54.5 187q0 130 57.5 200t140.5 70q56 0 98 -29v170q0 49 57 49q53 0 78 -19v-544q0 -33 26 -33h32q9 -25 9 -44q0 -26 -21.5 -43t-67.5 -17zM256 123q46 0 75 14v204q-27 19 -74 19q-36 0 -59 -29t-23 -84
q0 -124 81 -124zM575 556q-36 0 -52 17.5t-16 54.5q0 72 72 72q77 0 77 -102q0 -81 -22 -121.5t-55 -40.5q-39 0 -43 28q17 9 28 41t11 51z" />
    <glyph glyph-name="Dcroat" unicode="&#x110;" horiz-adv-x="676" 
d="M154 700h141q341 0 341 -365q0 -175 -87 -255t-241 -80h-155q-34 0 -53.5 13.5t-19.5 53.5v202h-65q-16 34 -16 68q0 70 67 70h14v281q22 12 74 12zM304 269h-76v-142h75q185 0 185 205q0 232 -194 232h-66v-157h133q14 -21 14 -65q0 -73 -71 -73z" />
    <glyph glyph-name="dcroat" unicode="&#x111;" horiz-adv-x="548" 
d="M510 543h-44v-406q0 -33 26 -33h32q9 -25 9 -44q0 -41 -47 -55q-18 -5 -42 -5q-51 0 -85 40q-45 -41 -105 -48q-20 -2 -33 -2q-77 0 -131.5 63t-54.5 187q0 130 57.5 200t140.5 70q56 0 98 -29v62h-105q-11 28 -11 55q0 45 32 45h84v8q0 49 57 49q53 0 78 -19v-38h66
q10 -17 10 -56q0 -44 -32 -44zM256 123q46 0 75 14v204q-27 19 -74 19q-36 0 -59 -29t-23 -84q0 -124 81 -124z" />
    <glyph glyph-name="Emacron" unicode="&#x112;" horiz-adv-x="603" 
d="M473 286h-245v-148h319q16 -23 16 -59q0 -35 -12 -57t-33 -22h-375q-29 0 -46 13.5t-17 53.5v620q21 13 69 13h398q16 -23 16 -59q0 -35 -12 -57t-33 -22h-290v-139h270q16 -23 16 -66q0 -33 -11 -52t-30 -19zM427 758h-262q-16 25 -16 47q0 29 14 43t60 14h262
q14 -16 14 -39q0 -25 -16 -45t-56 -20z" />
    <glyph glyph-name="emacron" unicode="&#x113;" horiz-adv-x="499" 
d="M454 208h-277q17 -88 100 -88q46 0 91 9.5t67 24.5q24 -22 24 -57q0 -42 -32 -63q-33 -23 -67.5 -33.5t-96.5 -10.5q-107 0 -167.5 73.5t-60.5 192.5q0 117 69 185.5t166 68.5q92 0 143 -61t51 -164q0 -47 -10 -77zM269 382q-28 0 -54 -21t-37 -60h160q0 81 -69 81z
M384 558h-262q-16 25 -16 47q0 29 14 43t60 14h262q14 -16 14 -39q0 -25 -16 -45t-56 -20z" />
    <glyph glyph-name="Ebreve" unicode="&#x114;" horiz-adv-x="603" 
d="M473 286h-245v-148h319q16 -23 16 -59q0 -35 -12 -57t-33 -22h-375q-29 0 -46 13.5t-17 53.5v620q21 13 69 13h398q16 -23 16 -59q0 -35 -12 -57t-33 -22h-290v-139h270q16 -23 16 -66q0 -33 -11 -52t-30 -19zM249 894q2 -22 15 -38q19 -22 59 -22q37 0 53 18
q10 10 19 38q16 13 54 11q24 -1 33.5 -14.5t4.5 -31.5q-16 -52 -48 -77q-40 -32 -115 -32q-78 0 -122 34q-38 29 -46 82q-4 36 37 40q31 3 56 -8z" />
    <glyph glyph-name="ebreve" unicode="&#x115;" horiz-adv-x="499" 
d="M454 208h-277q17 -88 100 -88q46 0 91 9.5t67 24.5q24 -22 24 -57q0 -42 -32 -63q-33 -23 -67.5 -33.5t-96.5 -10.5q-107 0 -167.5 73.5t-60.5 192.5q0 117 69 185.5t166 68.5q92 0 143 -61t51 -164q0 -47 -10 -77zM269 382q-28 0 -54 -21t-37 -60h160q0 81 -69 81z
M195 694q2 -22 15 -38q19 -22 59 -22q37 0 53 18q10 10 19 38q16 13 54 11q24 -1 33.5 -14.5t4.5 -31.5q-16 -52 -48 -77q-40 -32 -115 -32q-78 0 -122 34q-38 29 -46 82q-4 36 37 40q31 3 56 -8z" />
    <glyph glyph-name="Edotaccent" unicode="&#x116;" horiz-adv-x="603" 
d="M473 286h-245v-148h319q16 -23 16 -59q0 -35 -12 -57t-33 -22h-375q-29 0 -46 13.5t-17 53.5v620q21 13 69 13h398q16 -23 16 -59q0 -35 -12 -57t-33 -22h-290v-139h270q16 -23 16 -66q0 -33 -11 -52t-30 -19zM254 824q0 72 72 72t72 -72t-72 -72t-72 72z" />
    <glyph glyph-name="edotaccent" unicode="&#x117;" horiz-adv-x="499" 
d="M454 208h-277q17 -88 100 -88q46 0 91 9.5t67 24.5q24 -22 24 -57q0 -42 -32 -63q-33 -23 -67.5 -33.5t-96.5 -10.5q-107 0 -167.5 73.5t-60.5 192.5q0 117 69 185.5t166 68.5q92 0 143 -61t51 -164q0 -47 -10 -77zM269 382q-28 0 -54 -21t-37 -60h160q0 81 -69 81z
M199 635q0 72 72 72t72 -72t-72 -72t-72 72z" />
    <glyph glyph-name="Eogonek" unicode="&#x118;" horiz-adv-x="603" 
d="M473 286h-245v-148h319q16 -23 16 -59q0 -42 -25 -73q-44 -55 -44 -88q0 -19 10.5 -26.5t35.5 -7.5q8 -15 8 -34q0 -39 -51 -39q-46 0 -72 22.5t-26 59.5q0 56 37 107h-293q-29 0 -46 13.5t-17 53.5v620q21 13 69 13h398q16 -23 16 -59q0 -35 -12 -57t-33 -22h-290v-139
h270q16 -23 16 -66q0 -33 -11 -52t-30 -19z" />
    <glyph glyph-name="eogonek" unicode="&#x119;" horiz-adv-x="499" 
d="M454 208h-277q16 -88 100 -88q46 0 91 9.5t67 24.5q24 -22 24 -57q0 -28 -28 -60q-39 -44 -39 -83q0 -19 10.5 -26.5t35.5 -7.5q8 -15 8 -34q0 -39 -51 -39q-39 0 -61 23.5t-22 61.5q0 29 12 62q-23 -4 -61 -4q-107 0 -167.5 73.5t-60.5 192.5q0 117 69 185.5t166 68.5
q92 0 143 -61t51 -164q0 -47 -10 -77zM269 382q-28 0 -54 -21t-37 -60h160q0 81 -69 81z" />
    <glyph glyph-name="Ecaron" unicode="&#x11a;" horiz-adv-x="603" 
d="M473 286h-245v-148h319q16 -23 16 -59q0 -35 -12 -57t-33 -22h-375q-29 0 -46 13.5t-17 53.5v620q21 13 69 13h398q16 -23 16 -59q0 -35 -12 -57t-33 -22h-290v-139h270q16 -23 16 -66q0 -33 -11 -52t-30 -19zM312 740q-13 0 -25 6q-29 12 -86 58.5t-70 54.5
q1 23 20.5 39.5t42.5 16.5q37 0 120 -81q83 81 120 81q22 0 42 -17t21 -39q-12 -8 -69.5 -54.5t-87.5 -58.5q-17 -7 -28 -6z" />
    <glyph glyph-name="ecaron" unicode="&#x11b;" horiz-adv-x="499" 
d="M454 208h-277q17 -88 100 -88q46 0 91 9.5t67 24.5q24 -22 24 -57q0 -42 -32 -63q-33 -23 -67.5 -33.5t-96.5 -10.5q-107 0 -167.5 73.5t-60.5 192.5q0 117 69 185.5t166 68.5q92 0 143 -61t51 -164q0 -47 -10 -77zM269 382q-28 0 -54 -21t-37 -60h160q0 81 -69 81z
M268 540q-13 0 -25 6q-29 12 -86 58.5t-70 54.5q1 23 20.5 39.5t42.5 16.5q37 0 120 -81q83 81 120 81q22 0 42 -17t21 -39q-12 -8 -69.5 -54.5t-87.5 -58.5q-17 -7 -28 -6z" />
    <glyph glyph-name="Gcircumflex" unicode="&#x11c;" horiz-adv-x="663" 
d="M492 274h-160q-15 32 -15 59q0 17 4 28t21 19.5t49 8.5h133q54 0 71.5 -23t17.5 -85v-268q-21 -13 -66 -13q-27 0 -41 11.5t-14 43.5v14q-65 -79 -165 -79q-124 0 -205.5 90t-81.5 269q0 185 86 273t235 88q106 0 160.5 -39t54.5 -83q0 -26 -16.5 -43t-39.5 -23
q-32 30 -67.5 43t-90.5 13q-81 0 -133 -56t-52 -177q0 -117 49.5 -175.5t116.5 -58.5q96 0 149 91v72zM525 784q-5 -29 -29 -40q-10 -5 -26 -5t-39.5 12.5t-38.5 23.5t-44 35q-88 -71 -122 -71q-16 0 -26 5q-24 11 -29 40q9 3 41.5 36t70 63.5t62.5 30.5q26 0 64 -30
t71.5 -63t44.5 -37z" />
    <glyph glyph-name="gcircumflex" unicode="&#x11d;" horiz-adv-x="511" 
d="M447 397h-31q13 -39 13 -82q0 -99 -55 -146t-143 -47q-41 0 -72 10q-4 -11 -4 -24q0 -40 54 -40h134q131 0 131 -120q0 -90 -69 -142t-178 -52q-82 0 -139.5 31t-57.5 79q0 38 37 73q63 -61 158 -61q58 0 90.5 16t32.5 37t-34 21h-125q-155 0 -155 110q0 58 48 116
q-48 50 -48 139q0 98 55 146.5t142 48.5q75 0 126 -35q16 25 48 25h74q12 -15 12 -46q0 -57 -44 -57zM177 311q0 -81 55 -81q52 0 52 81q0 84 -52 84q-55 0 -55 -84zM412 584q-5 -29 -29 -40q-10 -5 -26 -5t-39.5 12.5t-38.5 23.5t-44 35q-88 -71 -122 -71q-16 0 -26 5
q-24 11 -29 40q9 3 41.5 36t70 63.5t62.5 30.5q26 0 64 -30t71.5 -63t44.5 -37z" />
    <glyph glyph-name="Gbreve" unicode="&#x11e;" horiz-adv-x="663" 
d="M492 274h-160q-15 32 -15 59q0 17 4 28t21 19.5t49 8.5h133q54 0 71.5 -23t17.5 -85v-268q-21 -13 -66 -13q-27 0 -41 11.5t-14 43.5v14q-65 -79 -165 -79q-124 0 -205.5 90t-81.5 269q0 185 86 273t235 88q106 0 160.5 -39t54.5 -83q0 -26 -16.5 -43t-39.5 -23
q-32 30 -67.5 43t-90.5 13q-81 0 -133 -56t-52 -177q0 -117 49.5 -175.5t116.5 -58.5q96 0 149 91v72zM270 894q2 -22 15 -38q19 -22 59 -22q37 0 53 18q9 10 19 38q16 13 54 11q24 -1 33.5 -14.5t4.5 -31.5q-16 -52 -48 -77q-40 -32 -115 -32q-78 0 -122 34q-38 29 -46 82
q-4 36 37 40q31 3 56 -8z" />
    <glyph glyph-name="gbreve" unicode="&#x11f;" horiz-adv-x="511" 
d="M447 397h-31q13 -39 13 -82q0 -99 -55 -146t-143 -47q-41 0 -72 10q-4 -11 -4 -24q0 -40 54 -40h134q131 0 131 -120q0 -90 -69 -142t-178 -52q-82 0 -139.5 31t-57.5 79q0 38 37 73q63 -61 158 -61q58 0 90.5 16t32.5 37t-34 21h-125q-155 0 -155 110q0 58 48 116
q-48 50 -48 139q0 98 55 146.5t142 48.5q75 0 126 -35q16 25 48 25h74q12 -15 12 -46q0 -57 -44 -57zM177 311q0 -81 55 -81q52 0 52 81q0 84 -52 84q-55 0 -55 -84zM159 694q2 -22 15 -38q19 -22 59 -22q37 0 53 18q10 10 19 38q16 13 54 11q24 -1 33.5 -14.5t4.5 -31.5
q-16 -52 -48 -77q-40 -32 -115 -32q-78 0 -122 34q-38 29 -46 82q-4 36 37 40q31 3 56 -8z" />
    <glyph glyph-name="Gdotaccent" unicode="&#x120;" horiz-adv-x="663" 
d="M492 274h-160q-15 32 -15 59q0 17 4 28t21 19.5t49 8.5h133q54 0 71.5 -23t17.5 -85v-268q-21 -13 -66 -13q-27 0 -41 11.5t-14 43.5v14q-65 -79 -165 -79q-124 0 -205.5 90t-81.5 269q0 185 86 273t235 88q106 0 160.5 -39t54.5 -83q0 -26 -16.5 -43t-39.5 -23
q-32 30 -67.5 43t-90.5 13q-81 0 -133 -56t-52 -177q0 -117 49.5 -175.5t116.5 -58.5q96 0 149 91v72zM259 824q0 72 72 72t72 -72t-72 -72t-72 72z" />
    <glyph glyph-name="gdotaccent" unicode="&#x121;" horiz-adv-x="511" 
d="M447 397h-31q13 -39 13 -82q0 -99 -55 -146t-143 -47q-41 0 -72 10q-4 -11 -4 -24q0 -40 54 -40h134q131 0 131 -120q0 -90 -69 -142t-178 -52q-82 0 -139.5 31t-57.5 79q0 38 37 73q63 -61 158 -61q58 0 90.5 16t32.5 37t-34 21h-125q-155 0 -155 110q0 58 48 116
q-48 50 -48 139q0 98 55 146.5t142 48.5q75 0 126 -35q16 25 48 25h74q12 -15 12 -46q0 -57 -44 -57zM177 311q0 -81 55 -81q52 0 52 81q0 84 -52 84q-55 0 -55 -84zM163 635q0 72 72 72t72 -72t-72 -72t-72 72z" />
    <glyph glyph-name="Gcommaaccent" unicode="&#x122;" horiz-adv-x="663" 
d="M333 -213q-61 0 -61 65t65 65q69 0 69 -92q0 -74 -19.5 -110t-49.5 -36q-35 0 -39 25q15 9 25 37.5t10 45.5zM492 274h-160q-15 32 -15 59q0 17 4 28t21 19.5t49 8.5h133q54 0 71.5 -23t17.5 -85v-268q-21 -13 -66 -13q-27 0 -41 11.5t-14 43.5v14q-65 -79 -165 -79
q-124 0 -205.5 90t-81.5 269q0 185 86 273t235 88q106 0 160.5 -39t54.5 -83q0 -26 -16.5 -43t-39.5 -23q-32 30 -67.5 43t-90.5 13q-81 0 -133 -56t-52 -177q0 -117 49.5 -175.5t116.5 -58.5q96 0 149 91v72z" />
    <glyph glyph-name="gcommaaccent" unicode="&#x123;" horiz-adv-x="511" 
d="M226 681q61 0 61 -65t-65 -65q-69 0 -69 92q0 74 19.5 110t49.5 36q35 0 39 -25q-15 -9 -25 -37.5t-10 -45.5zM447 397h-31q13 -39 13 -82q0 -99 -55 -146t-143 -47q-41 0 -72 10q-4 -11 -4 -24q0 -40 54 -40h134q131 0 131 -120q0 -90 -69 -142t-178 -52
q-82 0 -139.5 31t-57.5 79q0 38 37 73q63 -61 158 -61q58 0 90.5 16t32.5 37t-34 21h-125q-155 0 -155 110q0 58 48 116q-48 50 -48 139q0 98 55 146.5t142 48.5q75 0 126 -35q16 25 48 25h74q12 -15 12 -46q0 -57 -44 -57zM177 311q0 -81 55 -81q52 0 52 81q0 84 -52 84
q-55 0 -55 -84z" />
    <glyph glyph-name="Hcircumflex" unicode="&#x124;" horiz-adv-x="711" 
d="M562 700q69 0 69 -51v-636q-19 -13 -70 -13q-37 0 -58 14t-21 54v227h-254v-279q-16 -16 -85 -16q-28 0 -45.5 14t-17.5 54v619q26 13 81 13q67 0 67 -51v-219h254v257q26 13 80 13zM532 784q-5 -29 -29 -40q-10 -5 -26 -5t-39.5 12.5t-38.5 23.5t-44 35
q-88 -71 -122 -71q-16 0 -26 5q-24 11 -29 40q9 3 41.5 36t70 63.5t62.5 30.5q26 0 64 -30t71.5 -63t44.5 -37z" />
    <glyph glyph-name="hcircumflex" unicode="&#x125;" horiz-adv-x="529" 
d="M115 700q66 0 66 -52v-201q61 63 138 63q144 0 144 -174v-216q0 -24 17 -24h27q7 -11 7 -34q0 -27 -28.5 -44.5t-83.5 -17.5q-82 0 -82 97v200q0 66 -57 66q-38 0 -82 -32v-318q-21 -13 -75 -13q-66 0 -66 68v616q27 16 75 16zM285 757q-5 -29 -29 -40q-10 -5 -26 -5
t-39.5 12.5t-38.5 23.5t-44 35q-88 -71 -122 -71q-16 0 -26 5q-24 11 -29 40q9 3 41.5 36t70 63.5t62.5 30.5q26 0 64 -30t71.5 -63t44.5 -37z" />
    <glyph glyph-name="Hbar" unicode="&#x126;" horiz-adv-x="711" 
d="M562 700q69 0 69 -51v-64h75q14 -21 14 -60q0 -34 -15.5 -51t-55.5 -17h-18v-444q-19 -13 -70 -13q-37 0 -58 14t-21 54v181h-254v-233q-16 -16 -85 -16q-28 0 -45.5 14t-17.5 54v389h-71q-16 34 -16 63q0 65 67 65h20v102q26 13 81 13q67 0 67 -51v-64h254v102
q26 13 80 13zM228 457v-73h254v73h-254z" />
    <glyph glyph-name="hbar" unicode="&#x127;" horiz-adv-x="529" 
d="M115 700q66 0 66 -52v-5h113q10 -17 10 -56q0 -44 -32 -44h-91v-96q61 63 138 63q144 0 144 -174v-216q0 -24 17 -24h27q7 -11 7 -34q0 -27 -28.5 -44.5t-83.5 -17.5q-82 0 -82 97v200q0 66 -57 66q-38 0 -82 -32v-318q-21 -13 -75 -13q-66 0 -66 68v475h-52
q-11 28 -11 55q0 45 32 45h31v41q27 16 75 16z" />
    <glyph glyph-name="Itilde" unicode="&#x128;" horiz-adv-x="308" 
d="M162 700q66 0 66 -51v-633q-30 -16 -81 -16q-67 0 -67 68v619q28 13 82 13zM70 881q35 0 83 -14t73 -14q26 0 42 8t18 15q11 -4 20.5 -21t9.5 -36q0 -28 -19 -45t-54 -17q-27 0 -89 13.5t-90 13.5q-39 0 -44 -24q-28 8 -28 51q0 26 19.5 48t58.5 22z" />
    <glyph glyph-name="itilde" unicode="&#x129;" horiz-adv-x="302" 
d="M118 500q49 0 77.5 -24.5t28.5 -92.5v-247q0 -30 22 -30h33q8 -18 8 -43q0 -63 -105 -63q-52 0 -76.5 24.5t-24.5 87.5v231q0 31 -24 31h-29q-8 16 -8 51q0 75 98 75zM54 681q35 0 83 -14t73 -14q26 0 42 8t18 15q11 -4 20.5 -21t9.5 -36q0 -28 -19 -45t-54 -17
q-27 0 -89 13.5t-90 13.5q-39 0 -44 -24q-28 8 -28 51q0 26 19.5 48t58.5 22z" />
    <glyph glyph-name="Imacron" unicode="&#x12a;" horiz-adv-x="308" 
d="M162 700q66 0 66 -51v-633q-30 -16 -81 -16q-67 0 -67 68v619q28 13 82 13zM257 758h-262q-16 25 -16 47q0 29 14 43t60 14h262q14 -16 14 -39q0 -25 -16 -45t-56 -20z" />
    <glyph glyph-name="imacron" unicode="&#x12b;" horiz-adv-x="302" 
d="M118 500q49 0 77.5 -24.5t28.5 -92.5v-247q0 -30 22 -30h33q8 -18 8 -43q0 -63 -105 -63q-52 0 -76.5 24.5t-24.5 87.5v231q0 31 -24 31h-29q-8 16 -8 51q0 75 98 75zM241 558h-262q-16 25 -16 47q0 29 14 43t60 14h262q14 -16 14 -39q0 -25 -16 -45t-56 -20z" />
    <glyph glyph-name="Ibreve" unicode="&#x12c;" horiz-adv-x="308" 
d="M162 700q66 0 66 -51v-633q-30 -16 -81 -16q-67 0 -67 68v619q28 13 82 13zM80 894q2 -22 15 -38q19 -22 59 -22q37 0 53 18q9 10 19 38q16 13 54 11q24 -1 33.5 -14.5t4.5 -31.5q-16 -52 -48 -77q-40 -32 -115 -32q-78 0 -122 34q-38 29 -46 82q-4 36 37 40q31 3 56 -8z
" />
    <glyph glyph-name="ibreve" unicode="&#x12d;" horiz-adv-x="302" 
d="M118 500q49 0 77.5 -24.5t28.5 -92.5v-247q0 -30 22 -30h33q8 -18 8 -43q0 -63 -105 -63q-52 0 -76.5 24.5t-24.5 87.5v231q0 31 -24 31h-29q-8 16 -8 51q0 75 98 75zM52 694q2 -22 15 -38q19 -22 59 -22q37 0 53 18q9 10 19 38q16 13 54 11q24 -1 33.5 -14.5t4.5 -31.5
q-16 -52 -48 -77q-40 -32 -115 -32q-78 0 -122 34q-38 29 -46 82q-4 36 37 40q31 3 56 -8z" />
    <glyph glyph-name="Iogonek" unicode="&#x12e;" horiz-adv-x="308" 
d="M94 -104q0 53 37 105q-26 4 -38.5 17.5t-12.5 49.5v619q28 13 82 13q66 0 66 -51v-633q-54 -69 -54 -98q0 -19 10.5 -26.5t35.5 -7.5q8 -15 8 -34q0 -39 -51 -39q-39 0 -61 23.5t-22 61.5z" />
    <glyph glyph-name="iogonek" unicode="&#x12f;" horiz-adv-x="302" 
d="M118 500q49 0 77.5 -24t28.5 -93v-247q0 -30 22 -30h33q8 -18 8 -43q0 -22 -31 -50q-40 -36 -40 -82q0 -19 10.5 -26.5t35.5 -7.5q8 -15 8 -34q0 -39 -51 -39q-39 0 -61 23.5t-22 61.5q0 47 28 91q-42 3 -62.5 28.5t-20.5 83.5v231q0 31 -24 31h-29q-8 16 -8 51
q0 75 98 75zM58 629q0 80 80 80t80 -80t-80 -80t-80 80z" />
    <glyph glyph-name="Idotaccent" unicode="&#x130;" horiz-adv-x="308" 
d="M162 700q66 0 66 -51v-633q-30 -16 -81 -16q-67 0 -67 68v619q28 13 82 13zM82 824q0 72 72 72t72 -72t-72 -72t-72 72z" />
    <glyph glyph-name="dotlessi" unicode="&#x131;" horiz-adv-x="302" 
d="M118 500q49 0 77.5 -24.5t28.5 -92.5v-247q0 -30 22 -30h33q8 -18 8 -43q0 -63 -105 -63q-52 0 -76.5 24.5t-24.5 87.5v231q0 31 -24 31h-29q-8 16 -8 51q0 75 98 75z" />
    <glyph glyph-name="IJ" unicode="&#x132;" horiz-adv-x="724" 
d="M162 700q66 0 66 -51v-633q-30 -16 -81 -16q-67 0 -67 68v619q28 13 82 13zM580 700q64 0 64 -55v-481q0 -81 -40.5 -122.5t-115.5 -41.5q-160 0 -160 83q0 32 10 50h104q65 0 65 54v500q25 13 73 13z" />
    <glyph glyph-name="ij" unicode="&#x133;" horiz-adv-x="583" 
d="M118 500q49 0 77.5 -24.5t28.5 -92.5v-247q0 -30 22 -30h33q8 -18 8 -43q0 -63 -105 -63q-52 0 -76.5 24.5t-24.5 87.5v231q0 31 -24 31h-29q-8 16 -8 51q0 75 98 75zM58 629q0 80 80 80t80 -80t-80 -80t-80 80zM426 500q50 0 72 -24.5t22 -83.5v-407q0 -165 -134 -165
q-129 0 -129 69q0 36 10 58h74q46 0 46 66v330q0 31 -24 31h-35q-8 30 -8 58q0 32 27 50t79 18zM363 629q0 80 80 80t80 -80t-80 -80t-80 80z" />
    <glyph glyph-name="Jcircumflex" unicode="&#x134;" horiz-adv-x="416" 
d="M272 700q64 0 64 -55v-481q0 -81 -40.5 -122.5t-115.5 -41.5q-160 0 -160 83q0 32 10 50h104q65 0 65 54v500q25 13 73 13zM445 784q-5 -29 -29 -40q-10 -5 -26 -5t-39.5 12.5t-38.5 23.5t-44 35q-88 -71 -122 -71q-16 0 -26 5q-24 11 -29 40q9 3 41.5 36t70 63.5
t62.5 30.5q26 0 64 -30t71.5 -63t44.5 -37z" />
    <glyph glyph-name="jcircumflex" unicode="&#x135;" horiz-adv-x="281" 
d="M124 500q50 0 72 -24.5t22 -83.5v-407q0 -165 -134 -165q-129 0 -129 69q0 36 10 58h74q46 0 46 66v330q0 31 -24 31h-35q-8 30 -8 58q0 32 27 50t79 18zM303 589q-5 -29 -29 -40q-10 -5 -26 -5t-39.5 12.5t-38.5 23.5t-44 35q-88 -71 -122 -71q-16 0 -26 5
q-24 11 -29 40q9 3 41.5 36t70 63.5t62.5 30.5q26 0 64 -30t71.5 -63t44.5 -37z" />
    <glyph glyph-name="Kcommaaccent" unicode="&#x136;" horiz-adv-x="630" 
d="M314 -192q-61 0 -61 65t65 65q69 0 69 -92q0 -74 -19.5 -110t-49.5 -36q-35 0 -39 25q15 9 25 37.5t10 45.5zM157 700q67 0 67 -50v-238q70 58 127.5 138t74.5 139q21 11 64 11q22 0 38 -15t16 -37q0 -31 -13 -57q-67 -129 -166 -214q26 -24 60 -89t65 -113t60 -48h38
q12 -14 12 -48q0 -37 -24 -58t-73 -21q-43 0 -78 32.5t-54.5 74l-49 102t-55.5 96.5l-42 -24v-266q-26 -15 -81 -15q-31 0 -47 14.5t-16 52.5v619q31 14 77 14z" />
    <glyph glyph-name="kcommaaccent" unicode="&#x137;" horiz-adv-x="506" 
d="M112 701q31 0 54 -12t23 -39v-335q87 69 103 171q26 14 61 14q73 0 73 -63q0 -38 -38.5 -87t-87.5 -71q17 -13 42.5 -50.5t50 -63.5t51.5 -26h46q11 -14 11 -54q0 -37 -25.5 -61t-66.5 -24q-40 0 -73.5 26.5t-53 59.5l-46 75.5t-47.5 62.5v-209q-23 -15 -81 -15
q-29 0 -46 13.5t-17 53.5v615q24 19 67 19z" />
    <glyph glyph-name="kgreenlandic" unicode="&#x138;" horiz-adv-x="506" 
d="M112 500q31 0 54 -12t23 -39v-134q87 69 103 171q26 14 61 14q73 0 73 -63q0 -38 -38.5 -87t-87.5 -71q17 -13 42.5 -50.5t50 -63.5t51.5 -26h46q11 -14 11 -54q0 -37 -25.5 -61t-66.5 -24q-40 0 -73.5 26.5t-53 59.5l-46 75.5t-47.5 62.5v-209q-23 -15 -81 -15
q-29 0 -46 13.5t-17 53.5v414q24 19 67 19z" />
    <glyph glyph-name="Lacute" unicode="&#x139;" horiz-adv-x="539" 
d="M153 700q30 0 52.5 -11.5t22.5 -38.5v-512h280q16 -23 16 -59q0 -79 -76 -79h-305q-63 0 -63 64v624q28 12 73 12zM99 782q8 3 41.5 36.5t71 63.5t62.5 30q59 0 63 -56q-17 -10 -55.5 -43t-71.5 -54.5t-56 -21.5q-21 0 -36 12t-19 33z" />
    <glyph glyph-name="lacute" unicode="&#x13a;" horiz-adv-x="308" 
d="M185 638v-470q0 -28 11.5 -40t34.5 -12h66q6 -18 6 -40q0 -32 -32.5 -54t-103.5 -22q-122 0 -122 137v543q27 23 69 22q71 -3 71 -64zM24 776q8 3 41.5 36.5t71 63.5t62.5 30q59 0 63 -56q-17 -10 -55.5 -43t-71.5 -54.5t-56 -21.5q-21 0 -36 12t-19 33z" />
    <glyph glyph-name="Lcommaaccent" unicode="&#x13b;" horiz-adv-x="539" 
d="M299 -203q-61 0 -61 65t65 65q69 0 69 -92q0 -74 -19.5 -110t-49.5 -36q-35 0 -39 25q15 9 25 37.5t10 45.5zM153 700q30 0 52.5 -11.5t22.5 -38.5v-512h280q16 -23 16 -59q0 -79 -76 -79h-305q-63 0 -63 64v624q28 12 73 12z" />
    <glyph glyph-name="lcommaaccent" unicode="&#x13c;" horiz-adv-x="308" 
d="M142 -177q-61 0 -61 65t65 65q69 0 69 -92q0 -74 -19.5 -110t-49.5 -36q-35 0 -39 25q15 9 25 37.5t10 45.5zM185 638v-470q0 -28 11.5 -40t34.5 -12h66q6 -18 6 -40q0 -32 -32.5 -54t-103.5 -22q-122 0 -122 137v543q27 23 69 22q71 -3 71 -64z" />
    <glyph glyph-name="Lcaron" unicode="&#x13d;" horiz-adv-x="539" 
d="M153 700q30 0 52.5 -11.5t22.5 -38.5v-512h280q16 -23 16 -59q0 -79 -76 -79h-305q-63 0 -63 64v624q28 12 73 12zM344 556q-36 0 -52 17.5t-16 54.5q0 72 72 72q77 0 77 -102q0 -81 -22 -121.5t-55 -40.5q-39 0 -43 28q17 9 28 41t11 51z" />
    <glyph glyph-name="lcaron" unicode="&#x13e;" horiz-adv-x="308" 
d="M273 595q-61 0 -61 65t65 65q69 0 69 -92q0 -74 -19.5 -110t-49.5 -36q-35 0 -39 25q15 9 25 37.5t10 45.5zM185 638v-470q0 -28 11.5 -40t34.5 -12h66q6 -18 6 -40q0 -32 -32.5 -54t-103.5 -22q-122 0 -122 137v543q27 23 69 22q71 -3 71 -64z" />
    <glyph glyph-name="Ldot" unicode="&#x13f;" horiz-adv-x="539" 
d="M153 700q30 0 52.5 -11.5t22.5 -38.5v-512h280q16 -23 16 -59q0 -79 -76 -79h-305q-63 0 -63 64v624q28 12 73 12zM337 352q0 72 72 72t72 -72t-72 -72t-72 72z" />
    <glyph glyph-name="ldot" unicode="&#x140;" horiz-adv-x="348" 
d="M185 638v-470q0 -28 11.5 -40t34.5 -12h66q6 -18 6 -40q0 -32 -32.5 -54t-103.5 -22q-122 0 -122 137v543q27 23 69 22q71 -3 71 -64zM220 360q0 72 72 72t72 -72t-72 -72t-72 72z" />
    <glyph glyph-name="Lslash" unicode="&#x141;" horiz-adv-x="539" 
d="M153 700q30 0 52.5 -11.5t22.5 -38.5v-203l100 64q15 -5 33 -27t18 -48q0 -29 -42 -55l-109 -69v-174h280q16 -23 16 -59q0 -79 -76 -79h-305q-63 0 -63 64v154l-43 -27q-56 34 -56 70q0 28 36 52l63 40v335q28 12 73 12z" />
    <glyph glyph-name="lslash" unicode="&#x142;" horiz-adv-x="308" 
d="M185 638v-177l57 37q23 -6 39.5 -27.5t16.5 -44.5q0 -36 -25 -52l-88 -56v-150q0 -28 11.5 -40t34.5 -12h66q6 -18 6 -40q0 -32 -32.5 -54t-103.5 -22q-122 0 -122 137v91l-34 -21q-49 28 -49 80q0 30 30 50l53 34v309q27 23 69 22q71 -3 71 -64z" />
    <glyph glyph-name="Nacute" unicode="&#x143;" horiz-adv-x="715" 
d="M493 38l-272 392l7 -415q-16 -16 -85 -16q-28 0 -45.5 14t-17.5 54v620q31 13 80 13q44 0 69 -38l266 -394l-4 414q24 19 72 19q31 0 54 -12t23 -39v-638q-21 -12 -76 -12q-45 0 -71 38zM238 782q8 3 41.5 36.5t71 63.5t62.5 30q59 0 63 -56q-17 -10 -55.5 -43
t-71.5 -54.5t-56 -21.5q-21 0 -36 12t-19 33z" />
    <glyph glyph-name="nacute" unicode="&#x144;" horiz-adv-x="607" 
d="M130 500q35 0 64 -19t42 -52q72 81 159 81q61 0 98.5 -38.5t37.5 -119.5v-231q0 -26 21 -26h34q6 -11 6 -33q0 -29 -29.5 -45.5t-84.5 -16.5q-49 0 -70.5 22t-21.5 75v215q0 22 -13 35.5t-36 13.5q-48 0 -93 -34v-313q-22 -14 -83 -14q-69 0 -69 74v269q0 31 -28 31h-31
q-13 28 -13 56q0 70 110 70zM203 582q8 3 41.5 36.5t71 63.5t62.5 30q59 0 63 -56q-17 -10 -55.5 -43t-71.5 -54.5t-56 -21.5q-21 0 -36 12t-19 33z" />
    <glyph glyph-name="Ncommaaccent" unicode="&#x145;" horiz-adv-x="715" 
d="M367 -188q-61 0 -61 65t65 65q69 0 69 -92q0 -74 -19.5 -110t-49.5 -36q-35 0 -39 25q15 9 25 37.5t10 45.5zM493 38l-272 392l7 -415q-16 -16 -85 -16q-28 0 -45.5 14t-17.5 54v620q31 13 80 13q44 0 69 -38l266 -394l-4 414q24 19 72 19q31 0 54 -12t23 -39v-638
q-21 -12 -76 -12q-45 0 -71 38z" />
    <glyph glyph-name="ncommaaccent" unicode="&#x146;" horiz-adv-x="607" 
d="M320 -177q-61 0 -61 65t65 65q69 0 69 -92q0 -74 -19.5 -110t-49.5 -36q-35 0 -39 25q15 9 25 37.5t10 45.5zM130 500q35 0 64 -19t42 -52q72 81 159 81q61 0 98.5 -38.5t37.5 -119.5v-231q0 -26 21 -26h34q6 -11 6 -33q0 -29 -29.5 -45.5t-84.5 -16.5q-49 0 -70.5 22
t-21.5 75v215q0 22 -13 35.5t-36 13.5q-48 0 -93 -34v-313q-22 -14 -83 -14q-69 0 -69 74v269q0 31 -28 31h-31q-13 28 -13 56q0 70 110 70z" />
    <glyph glyph-name="Ncaron" unicode="&#x147;" horiz-adv-x="715" 
d="M493 38l-272 392l7 -415q-16 -16 -85 -16q-28 0 -45.5 14t-17.5 54v620q31 13 80 13q44 0 69 -38l266 -394l-4 414q24 19 72 19q31 0 54 -12t23 -39v-638q-21 -12 -76 -12q-45 0 -71 38zM355 740q-13 0 -25 6q-29 12 -86 58.5t-70 54.5q1 23 20.5 39.5t42.5 16.5
q37 0 120 -81q83 81 120 81q22 0 42 -17t21 -39q-12 -8 -69.5 -54.5t-87.5 -58.5q-17 -7 -28 -6z" />
    <glyph glyph-name="ncaron" unicode="&#x148;" horiz-adv-x="607" 
d="M130 500q35 0 64 -19t42 -52q72 81 159 81q61 0 98.5 -38.5t37.5 -119.5v-231q0 -26 21 -26h34q6 -11 6 -33q0 -29 -29.5 -45.5t-84.5 -16.5q-49 0 -70.5 22t-21.5 75v215q0 22 -13 35.5t-36 13.5q-48 0 -93 -34v-313q-22 -14 -83 -14q-69 0 -69 74v269q0 31 -28 31h-31
q-13 28 -13 56q0 70 110 70zM289 540q-13 0 -25 6q-29 12 -86 58.5t-70 54.5q1 23 20.5 39.5t42.5 16.5q37 0 120 -81q83 81 120 81q22 0 42 -17t21 -39q-12 -8 -69.5 -54.5t-87.5 -58.5q-17 -7 -28 -6z" />
    <glyph glyph-name="napostrophe" unicode="&#x149;" horiz-adv-x="676" 
d="M24 643q-61 0 -61 65t65 65q69 0 69 -92q0 -74 -19.5 -110t-49.5 -36q-35 0 -39 25q15 9 25 37.5t10 45.5zM199 500q35 0 64 -19t42 -52q72 81 159 81q61 0 98.5 -38.5t37.5 -119.5v-231q0 -26 21 -26h34q6 -11 6 -33q0 -29 -29.5 -45.5t-84.5 -16.5q-49 0 -70.5 22
t-21.5 75v215q0 22 -13 35.5t-36 13.5q-48 0 -93 -34v-313q-22 -14 -83 -14q-69 0 -69 74v269q0 31 -28 31h-31q-13 28 -13 56q0 70 110 70z" />
    <glyph glyph-name="Eng" unicode="&#x14a;" horiz-adv-x="715" 
d="M498 3v28l-277 399l7 -415q-16 -16 -85 -16q-28 0 -45.5 14t-17.5 54v620q31 13 80 13q44 0 69 -38l266 -394l-4 414q24 19 72 19q31 0 54 -12t23 -39v-665q0 -165 -134 -165q-129 0 -129 69q0 36 10 58h65q46 0 46 56z" />
    <glyph glyph-name="eng" unicode="&#x14b;" horiz-adv-x="592" 
d="M390 13v295q0 53 -58 53q-47 0 -90 -33v-314q-22 -14 -83 -14q-70 0 -70 74v269q0 31 -27 31h-29q-13 28 -13 56q0 70 109 70q35 0 63.5 -19t41.5 -52q72 81 158 81q63 0 100.5 -38t37.5 -120v-367q0 -165 -134 -165q-129 0 -129 69q0 36 10 58h67q46 0 46 66z" />
    <glyph glyph-name="Omacron" unicode="&#x14c;" horiz-adv-x="682" 
d="M40 349q0 183 83.5 272t216.5 89q137 0 219.5 -88.5t82.5 -272.5t-83 -271.5t-218 -87.5t-218 89t-83 270zM186 345q0 -118 45 -174.5t110 -56.5q153 0 153 231q0 122 -42.5 179t-111.5 57q-66 0 -110 -57.5t-44 -178.5zM444 758h-262q-16 25 -16 47q0 29 14 43t60 14
h262q14 -16 14 -39q0 -25 -16 -45t-56 -20z" />
    <glyph glyph-name="omacron" unicode="&#x14d;" horiz-adv-x="553" 
d="M35 248q0 132 66.5 197t174.5 65q110 0 176 -64.5t66 -197.5q0 -132 -66 -195t-176 -63q-109 0 -175 64t-66 194zM187 246q0 -67 25 -97.5t64 -30.5q88 0 88 128q0 133 -88 133q-39 0 -64 -32.5t-25 -100.5zM378 558h-262q-16 25 -16 47q0 29 14 43t60 14h262
q14 -16 14 -39q0 -25 -16 -45t-56 -20z" />
    <glyph glyph-name="Obreve" unicode="&#x14e;" horiz-adv-x="682" 
d="M40 349q0 183 83.5 272t216.5 89q137 0 219.5 -88.5t82.5 -272.5t-83 -271.5t-218 -87.5t-218 89t-83 270zM186 345q0 -118 45 -174.5t110 -56.5q153 0 153 231q0 122 -42.5 179t-111.5 57q-66 0 -110 -57.5t-44 -178.5zM267 894q2 -22 15 -38q19 -22 59 -22q37 0 53 18
q10 10 19 38q16 13 54 11q24 -1 33.5 -14.5t4.5 -31.5q-16 -52 -48 -77q-40 -32 -115 -32q-78 0 -122 34q-38 29 -46 82q-4 36 37 40q31 3 56 -8z" />
    <glyph glyph-name="obreve" unicode="&#x14f;" horiz-adv-x="553" 
d="M35 248q0 132 66.5 197t174.5 65q110 0 176 -64.5t66 -197.5q0 -132 -66 -195t-176 -63q-109 0 -175 64t-66 194zM187 246q0 -67 25 -97.5t64 -30.5q88 0 88 128q0 133 -88 133q-39 0 -64 -32.5t-25 -100.5zM201 694q2 -22 15 -38q19 -22 59 -22q37 0 53 18q10 10 19 38
q16 13 54 11q24 -1 33.5 -14.5t4.5 -31.5q-16 -52 -48 -77q-40 -32 -115 -32q-78 0 -122 34q-38 29 -46 82q-4 36 37 40q31 3 56 -8z" />
    <glyph glyph-name="Ohungarumlaut" unicode="&#x150;" horiz-adv-x="682" 
d="M40 349q0 183 83.5 272t216.5 89q137 0 219.5 -88.5t82.5 -272.5t-83 -271.5t-218 -87.5t-218 89t-83 270zM186 345q0 -118 45 -174.5t110 -56.5q153 0 153 231q0 122 -42.5 179t-111.5 57q-66 0 -110 -57.5t-44 -178.5zM142 786q17 12 44.5 54t56.5 73t60 31
q52 0 62 -46q-17 -14 -51.5 -54.5t-64.5 -67t-54 -26.5q-40 0 -53 36zM346 795q8 3 41.5 36.5t71 63.5t62.5 30q59 0 63 -56q-17 -10 -55.5 -43t-71.5 -54.5t-56 -21.5q-21 0 -36 12t-19 33z" />
    <glyph glyph-name="ohungarumlaut" unicode="&#x151;" horiz-adv-x="553" 
d="M35 248q0 132 66.5 197t174.5 65q110 0 176 -64.5t66 -197.5q0 -132 -66 -195t-176 -63q-109 0 -175 64t-66 194zM187 246q0 -67 25 -97.5t64 -30.5q88 0 88 128q0 133 -88 133q-39 0 -64 -32.5t-25 -100.5zM104 586q17 12 44.5 54t56.5 73t60 31q52 0 62 -46
q-17 -14 -51.5 -54.5t-64.5 -67t-54 -26.5q-40 0 -53 36zM308 595q8 3 41.5 36.5t71 63.5t62.5 30q59 0 63 -56q-17 -10 -55.5 -43t-71.5 -54.5t-56 -21.5q-21 0 -36 12t-19 33z" />
    <glyph glyph-name="OE" unicode="&#x152;" horiz-adv-x="967" 
d="M882 0h-375q-21 0 -34 5q-60 -15 -127 -15q-139 0 -222.5 89t-83.5 270q0 173 80.5 267t223.5 94q55 0 118 -16q20 6 59 6h390q16 -23 16 -59q0 -35 -12 -57t-33 -22h-290v-139h270q16 -23 16 -66q0 -33 -11 -52t-30 -19h-245v-148h319q16 -23 16 -59q0 -35 -12 -57
t-33 -22zM186 345q0 -118 45.5 -174.5t114.5 -56.5q60 0 98 20v423q-42 24 -99 24q-69 0 -114 -57t-45 -179z" />
    <glyph glyph-name="oe" unicode="&#x153;" horiz-adv-x="839" 
d="M35 248q0 132 66.5 197t174.5 65q113 0 176 -66q68 66 163 66q92 0 143 -61t51 -164q0 -47 -10 -77h-277q16 -88 100 -88q46 0 91 9.5t67 24.5q24 -22 24 -57q0 -51 -51.5 -79t-144.5 -28q-97 0 -157 62q-62 -62 -175 -62q-109 0 -175 64t-66 194zM187 246
q0 -67 25 -97.5t64 -30.5q88 0 88 128q0 133 -88 133q-39 0 -64 -32.5t-25 -100.5zM614 382q-28 0 -54 -21t-37 -60h160q0 81 -69 81z" />
    <glyph glyph-name="Racute" unicode="&#x154;" horiz-adv-x="672" 
d="M154 700h210q90 0 152.5 -50t62.5 -155q0 -72 -39.5 -122.5t-100.5 -74.5q12 -17 43 -70t53.5 -77t46.5 -24h38q12 -14 12 -48q0 -37 -24 -58t-73 -21q-55 0 -90 41.5t-71 122t-64 118.5h-82v-268q-19 -14 -75 -14q-34 0 -53.5 13.5t-19.5 53.5v622q21 11 74 11zM344 584
h-116v-189h102q51 0 80 26t29 72q0 41 -28 66t-67 25zM217 782q8 3 41.5 36.5t71 63.5t62.5 30q59 0 63 -56q-17 -10 -55.5 -43t-71.5 -54.5t-56 -21.5q-21 0 -36 12t-19 33z" />
    <glyph glyph-name="racute" unicode="&#x155;" horiz-adv-x="455" 
d="M115 500q87 0 107 -60q66 70 133 70q50 0 72.5 -27.5t22.5 -83.5q0 -117 -91 -117q-30 0 -51 17q0 47 -29 47q-32 0 -49 -12v-320q-16 -14 -80 -14q-31 0 -49 13.5t-18 53.5v276q0 31 -24 31h-34q-10 29 -10 60q0 27 28 46.5t72 19.5zM143 582q8 3 41.5 36.5t71 63.5
t62.5 30q59 0 63 -56q-17 -10 -55.5 -43t-71.5 -54.5t-56 -21.5q-21 0 -36 12t-19 33z" />
    <glyph glyph-name="Rcommaaccent" unicode="&#x156;" horiz-adv-x="672" 
d="M333 -213q-61 0 -61 65t65 65q69 0 69 -92q0 -74 -19.5 -110t-49.5 -36q-35 0 -39 25q15 9 25 37.5t10 45.5zM154 700h210q90 0 152.5 -50t62.5 -155q0 -72 -39.5 -122.5t-100.5 -74.5q12 -17 43 -70t53.5 -77t46.5 -24h38q12 -14 12 -48q0 -37 -24 -58t-73 -21
q-55 0 -90 41.5t-71 122t-64 118.5h-82v-268q-19 -14 -75 -14q-34 0 -53.5 13.5t-19.5 53.5v622q21 11 74 11zM344 584h-116v-189h102q51 0 80 26t29 72q0 41 -28 66t-67 25z" />
    <glyph glyph-name="rcommaaccent" unicode="&#x157;" horiz-adv-x="455" 
d="M156 -177q-61 0 -61 65t65 65q69 0 69 -92q0 -74 -19.5 -110t-49.5 -36q-35 0 -39 25q15 9 25 37.5t10 45.5zM115 500q87 0 107 -60q66 70 133 70q50 0 72.5 -27.5t22.5 -83.5q0 -117 -91 -117q-30 0 -51 17q0 47 -29 47q-32 0 -49 -12v-320q-16 -14 -80 -14
q-31 0 -49 13.5t-18 53.5v276q0 31 -24 31h-34q-10 29 -10 60q0 27 28 46.5t72 19.5z" />
    <glyph glyph-name="Rcaron" unicode="&#x158;" horiz-adv-x="672" 
d="M154 700h210q90 0 152.5 -50t62.5 -155q0 -72 -39.5 -122.5t-100.5 -74.5q12 -17 43 -70t53.5 -77t46.5 -24h38q12 -14 12 -48q0 -37 -24 -58t-73 -21q-55 0 -90 41.5t-71 122t-64 118.5h-82v-268q-19 -14 -75 -14q-34 0 -53.5 13.5t-19.5 53.5v622q21 11 74 11zM344 584
h-116v-189h102q51 0 80 26t29 72q0 41 -28 66t-67 25zM299 740q-13 0 -25 6q-29 12 -86 58.5t-70 54.5q1 23 20.5 39.5t42.5 16.5q37 0 120 -81q83 81 120 81q22 0 42 -17t21 -39q-12 -8 -69.5 -54.5t-87.5 -58.5q-17 -7 -28 -6z" />
    <glyph glyph-name="rcaron" unicode="&#x159;" horiz-adv-x="455" 
d="M115 500q87 0 107 -60q66 70 133 70q50 0 72.5 -27.5t22.5 -83.5q0 -117 -91 -117q-30 0 -51 17q0 47 -29 47q-32 0 -49 -12v-320q-16 -14 -80 -14q-31 0 -49 13.5t-18 53.5v276q0 31 -24 31h-34q-10 29 -10 60q0 27 28 46.5t72 19.5zM229 540q-13 0 -25 6
q-29 12 -86 58.5t-70 54.5q1 23 20.5 39.5t42.5 16.5q37 0 120 -81q83 81 120 81q22 0 42 -17t21 -39q-12 -8 -69.5 -54.5t-87.5 -58.5q-17 -7 -28 -6z" />
    <glyph glyph-name="Sacute" unicode="&#x15a;" horiz-adv-x="580" 
d="M291 710q134 0 193 -57q26 -26 26 -65q0 -30 -27 -70q-72 38 -191 38q-97 0 -97 -61q0 -27 25.5 -47t92.5 -35q122 -26 173 -69t53 -139q2 -97 -59.5 -156t-187.5 -59q-151 0 -216 49q-36 27 -36 74q0 40 19 72q96 -49 228 -49q56 0 79.5 18t23.5 43q0 30 -24 47t-97 30
q-120 21 -171 71.5t-51 151.5q0 98 64 155.5t180 57.5zM171 782q8 3 41.5 36.5t71 63.5t62.5 30q59 0 63 -56q-17 -10 -55.5 -43t-71.5 -54.5t-56 -21.5q-21 0 -36 12t-19 33z" />
    <glyph glyph-name="sacute" unicode="&#x15b;" horiz-adv-x="446" 
d="M226 510q87 0 129 -28t42 -65q0 -57 -17 -78q-21 12 -68.5 20t-87.5 8q-60 0 -60 -25q0 -24 74 -33q94 -12 136 -49.5t42 -108.5q0 -76 -47.5 -118.5t-140.5 -42.5q-97 0 -147.5 25t-50.5 68q0 48 21 75q30 -15 79 -26t89 -11q66 0 66 27t-81 36q-94 12 -129.5 50
t-35.5 112q0 77 48 120.5t139 43.5zM138 582q8 3 41.5 36.5t71 63.5t62.5 30q59 0 63 -56q-17 -10 -55.5 -43t-71.5 -54.5t-56 -21.5q-21 0 -36 12t-19 33z" />
    <glyph glyph-name="Scircumflex" unicode="&#x15c;" horiz-adv-x="580" 
d="M291 710q134 0 193 -57q26 -26 26 -65q0 -30 -27 -70q-72 38 -191 38q-97 0 -97 -61q0 -27 25.5 -47t92.5 -35q122 -26 173 -69t53 -139q2 -97 -59.5 -156t-187.5 -59q-151 0 -216 49q-36 27 -36 74q0 40 19 72q96 -49 228 -49q56 0 79.5 18t23.5 43q0 30 -24 47t-97 30
q-120 21 -171 71.5t-51 151.5q0 98 64 155.5t180 57.5zM467 784q-5 -29 -29 -40q-10 -5 -26 -5t-39.5 12.5t-38.5 23.5t-44 35q-88 -71 -122 -71q-16 0 -26 5q-24 11 -29 40q9 3 41.5 36t70 63.5t62.5 30.5q26 0 64 -30t71.5 -63t44.5 -37z" />
    <glyph glyph-name="scircumflex" unicode="&#x15d;" horiz-adv-x="446" 
d="M226 510q87 0 129 -28t42 -65q0 -57 -17 -78q-21 12 -68.5 20t-87.5 8q-60 0 -60 -25q0 -24 74 -33q94 -12 136 -49.5t42 -108.5q0 -76 -47.5 -118.5t-140.5 -42.5q-97 0 -147.5 25t-50.5 68q0 48 21 75q30 -15 79 -26t89 -11q66 0 66 27t-81 36q-94 12 -129.5 50
t-35.5 112q0 77 48 120.5t139 43.5zM404 584q-5 -29 -29 -40q-10 -5 -26 -5t-39.5 12.5t-38.5 23.5t-44 35q-88 -71 -122 -71q-16 0 -26 5q-24 11 -29 40q9 3 41.5 36t70 63.5t62.5 30.5q26 0 64 -30t71.5 -63t44.5 -37z" />
    <glyph glyph-name="Scedilla" unicode="&#x15e;" horiz-adv-x="580" 
d="M291 710q134 0 193 -57q26 -26 26 -65q0 -30 -27 -70q-72 38 -191 38q-97 0 -97 -61q0 -27 25.5 -47t92.5 -35q122 -26 173 -69t53 -139q2 -97 -59.5 -156t-187.5 -59q-151 0 -216 49q-36 27 -36 74q0 40 19 72q96 -49 228 -49q56 0 79.5 18t23.5 43q0 30 -24 47t-97 30
q-120 21 -171 71.5t-51 151.5q0 98 64 155.5t180 57.5zM318 -120q0 18 -22.5 26.5t-47.5 8.5q-9 11 -9 25l1 70l76 -1l-5 -46q44 -9 61.5 -31t17.5 -59q0 -41 -26.5 -66.5t-77.5 -25.5q-45 0 -70.5 17t-25.5 39q0 28 20 41q32 -28 71 -28q37 0 37 30z" />
    <glyph glyph-name="scedilla" unicode="&#x15f;" horiz-adv-x="446" 
d="M226 510q87 0 129 -28t42 -65q0 -57 -17 -78q-21 12 -68.5 20t-87.5 8q-60 0 -60 -25q0 -24 74 -33q94 -12 136 -49.5t42 -108.5q0 -76 -47.5 -118.5t-140.5 -42.5q-97 0 -147.5 25t-50.5 68q0 48 21 75q30 -15 79 -26t89 -11q66 0 66 27t-81 36q-94 12 -129.5 50
t-35.5 112q0 77 48 120.5t139 43.5zM266 -113q0 18 -22.5 26.5t-47.5 8.5q-9 11 -9 25l1 70l76 -1l-5 -46q44 -9 61.5 -31t17.5 -59q0 -41 -26.5 -66.5t-77.5 -25.5q-45 0 -70.5 17t-25.5 39q0 28 20 41q32 -28 71 -28q37 0 37 30z" />
    <glyph glyph-name="Scaron" unicode="&#x160;" horiz-adv-x="580" 
d="M291 710q134 0 193 -57q26 -26 26 -65q0 -30 -27 -70q-72 38 -191 38q-97 0 -97 -61q0 -27 25.5 -47t92.5 -35q122 -26 173 -69t53 -139q2 -97 -59.5 -156t-187.5 -59q-151 0 -216 49q-36 27 -36 74q0 40 19 72q96 -49 228 -49q56 0 79.5 18t23.5 43q0 30 -24 47t-97 30
q-120 21 -171 71.5t-51 151.5q0 98 64 155.5t180 57.5zM288 740q-13 0 -25 6q-29 12 -86 58.5t-70 54.5q1 23 20.5 39.5t42.5 16.5q37 0 120 -81q83 81 120 81q22 0 42 -17t21 -39q-12 -8 -69.5 -54.5t-87.5 -58.5q-17 -7 -28 -6z" />
    <glyph glyph-name="scaron" unicode="&#x161;" horiz-adv-x="446" 
d="M226 510q87 0 129 -28t42 -65q0 -57 -17 -78q-21 12 -68.5 20t-87.5 8q-60 0 -60 -25q0 -24 74 -33q94 -12 136 -49.5t42 -108.5q0 -76 -47.5 -118.5t-140.5 -42.5q-97 0 -147.5 25t-50.5 68q0 48 21 75q30 -15 79 -26t89 -11q66 0 66 27t-81 36q-94 12 -129.5 50
t-35.5 112q0 77 48 120.5t139 43.5zM224 540q-13 0 -25 6q-29 12 -86 58.5t-70 54.5q1 23 20.5 39.5t42.5 16.5q37 0 120 -81q83 81 120 81q22 0 42 -17t21 -39q-12 -8 -69.5 -54.5t-87.5 -58.5q-17 -7 -28 -6z" />
    <glyph glyph-name="Tcommaaccent" unicode="&#x162;" horiz-adv-x="573" 
d="M289 -202q-61 0 -61 65t65 65q69 0 69 -92q0 -74 -19.5 -110t-49.5 -36q-35 0 -39 25q15 9 25 37.5t10 45.5zM518 562h-159v-550q-23 -12 -82 -12q-62 0 -62 67v495h-189q-16 34 -16 70q0 68 66 68h471q16 -23 16 -59q0 -35 -12 -57t-33 -22z" />
    <glyph glyph-name="tcommaaccent" unicode="&#x163;" horiz-adv-x="386" 
d="M187 -177q-61 0 -61 65t65 65q69 0 69 -92q0 -74 -19.5 -110t-49.5 -36q-35 0 -39 25q15 9 25 37.5t10 45.5zM304 383h-75v-210q0 -29 10 -40.5t32 -11.5h86q9 -22 9 -42q0 -37 -31 -58t-115 -21q-128 0 -128 145v238h-59q-13 23 -13 51q0 33 11 49.5t38 16.5h23v106
q28 15 75 15q62 0 62 -57v-64h116q15 -14 15 -45q0 -27 -12.5 -49.5t-43.5 -22.5z" />
    <glyph glyph-name="Tcaron" unicode="&#x164;" horiz-adv-x="573" 
d="M518 562h-159v-550q-23 -12 -82 -12q-62 0 -62 67v495h-189q-16 34 -16 70q0 68 66 68h471q16 -23 16 -59q0 -35 -12 -57t-33 -22zM284 740q-13 0 -25 6q-29 12 -86 58.5t-70 54.5q1 23 20.5 39.5t42.5 16.5q37 0 120 -81q83 81 120 81q22 0 42 -17t21 -39
q-12 -8 -69.5 -54.5t-87.5 -58.5q-17 -7 -28 -6z" />
    <glyph glyph-name="tcaron" unicode="&#x165;" horiz-adv-x="386" 
d="M305 640q-61 0 -61 65t65 65q69 0 69 -92q0 -74 -19.5 -110t-49.5 -36q-35 0 -39 25q15 9 25 37.5t10 45.5zM304 383h-75v-210q0 -29 10 -40.5t32 -11.5h86q9 -22 9 -42q0 -37 -31 -58t-115 -21q-128 0 -128 145v238h-59q-13 23 -13 51q0 33 11 49.5t38 16.5h23v106
q28 15 75 15q62 0 62 -57v-64h116q15 -14 15 -45q0 -27 -12.5 -49.5t-43.5 -22.5z" />
    <glyph glyph-name="Tbar" unicode="&#x166;" horiz-adv-x="573" 
d="M518 562h-159v-165h120q14 -26 14 -68q0 -70 -66 -70h-68v-247q-23 -12 -82 -12q-62 0 -62 67v192h-123q-16 34 -16 73q0 28 14 46.5t43 18.5h82v165h-189q-16 34 -16 70q0 68 66 68h471q16 -23 16 -59q0 -35 -12 -57t-33 -22z" />
    <glyph glyph-name="tbar" unicode="&#x167;" horiz-adv-x="386" 
d="M304 383h-75v-50h111q14 -21 14 -59q0 -33 -14 -49.5t-49 -16.5h-62v-35q0 -29 10 -40.5t32 -11.5h86q9 -22 9 -42q0 -37 -31 -58t-115 -21q-128 0 -128 145v63h-59q-14 33 -14 61q0 32 11 48t40 16h22v50h-59q-13 23 -13 51q0 33 11 49.5t38 16.5h23v106q28 15 75 15
q62 0 62 -57v-64h116q15 -14 15 -45q0 -27 -12.5 -49.5t-43.5 -22.5z" />
    <glyph glyph-name="Utilde" unicode="&#x168;" horiz-adv-x="674" 
d="M460 271v416q21 13 75 13q73 0 73 -51l1 -394q0 -134 -70.5 -199.5t-202.5 -65.5q-265 0 -265 265l-1 433q19 12 77 12q71 0 71 -50v-379q0 -149 118 -149q67 0 95.5 37t28.5 112zM253 881q35 0 83 -14t73 -14q27 0 42.5 8t17.5 15q11 -4 20.5 -21t9.5 -36q0 -28 -19 -45
t-54 -17q-27 0 -89 13.5t-90 13.5q-39 0 -44 -24q-28 8 -28 51q0 26 19.5 48t58.5 22z" />
    <glyph glyph-name="utilde" unicode="&#x169;" horiz-adv-x="611" 
d="M480 0q-73 0 -96 59q-66 -69 -154 -69q-57 0 -98 39t-41 119v198q0 28 -23 28h-45q-8 26 -7 57q1 33 35 51t82 18q57 0 83.5 -21t26.5 -72v-219q0 -21 12.5 -35t30.5 -14q57 0 89 38v307q30 16 83 16q71 0 71 -55l1 -298q0 -31 26 -31h36q4 -16 4 -45q0 -71 -116 -71z
M217 681q35 0 83 -14t73 -14q27 0 42.5 8t17.5 15q11 -4 20.5 -21t9.5 -36q0 -28 -19 -45t-54 -17q-27 0 -89 13.5t-90 13.5q-39 0 -44 -24q-28 8 -28 51q0 26 19.5 48t58.5 22z" />
    <glyph glyph-name="Umacron" unicode="&#x16a;" horiz-adv-x="674" 
d="M460 271v416q21 13 75 13q73 0 73 -51l1 -394q0 -134 -70.5 -199.5t-202.5 -65.5q-265 0 -265 265l-1 433q19 12 77 12q71 0 71 -50v-379q0 -149 118 -149q67 0 95.5 37t28.5 112zM440 758h-262q-16 25 -16 47q0 29 14 43t60 14h262q14 -16 14 -39q0 -25 -16 -45t-56 -20
z" />
    <glyph glyph-name="umacron" unicode="&#x16b;" horiz-adv-x="611" 
d="M480 0q-73 0 -96 59q-66 -69 -154 -69q-57 0 -98 39t-41 119v198q0 28 -23 28h-45q-8 26 -7 57q1 33 35 51t82 18q57 0 83.5 -21t26.5 -72v-219q0 -21 12.5 -35t30.5 -14q57 0 89 38v307q30 16 83 16q71 0 71 -55l1 -298q0 -31 26 -31h36q4 -16 4 -45q0 -71 -116 -71z
M404 558h-262q-16 25 -16 47q0 29 14 43t60 14h262q14 -16 14 -39q0 -25 -16 -45t-56 -20z" />
    <glyph glyph-name="Ubreve" unicode="&#x16c;" horiz-adv-x="674" 
d="M460 271v416q21 13 75 13q73 0 73 -51l1 -394q0 -134 -70.5 -199.5t-202.5 -65.5q-265 0 -265 265l-1 433q19 12 77 12q71 0 71 -50v-379q0 -149 118 -149q67 0 95.5 37t28.5 112zM263 894q2 -22 15 -38q19 -22 59 -22q37 0 53 18q10 10 19 38q16 13 54 11
q24 -1 33.5 -14.5t4.5 -31.5q-16 -52 -48 -77q-40 -32 -115 -32q-78 0 -122 34q-38 29 -46 82q-4 36 37 40q31 3 56 -8z" />
    <glyph glyph-name="ubreve" unicode="&#x16d;" horiz-adv-x="611" 
d="M480 0q-73 0 -96 59q-66 -69 -154 -69q-57 0 -98 39t-41 119v198q0 28 -23 28h-45q-8 26 -7 57q1 33 35 51t82 18q57 0 83.5 -21t26.5 -72v-219q0 -21 12.5 -35t30.5 -14q57 0 89 38v307q30 16 83 16q71 0 71 -55l1 -298q0 -31 26 -31h36q4 -16 4 -45q0 -71 -116 -71z
M215 694q2 -22 15 -38q19 -22 59 -22q37 0 53 18q10 10 19 38q16 13 54 11q24 -1 33.5 -14.5t4.5 -31.5q-16 -52 -48 -77q-40 -32 -115 -32q-78 0 -122 34q-38 29 -46 82q-4 36 37 40q31 3 56 -8z" />
    <glyph glyph-name="Uring" unicode="&#x16e;" horiz-adv-x="674" 
d="M460 271v416q21 13 75 13q73 0 73 -51l1 -394q0 -134 -70.5 -199.5t-202.5 -65.5q-265 0 -265 265l-1 433q19 12 77 12q71 0 71 -50v-379q0 -149 118 -149q67 0 95.5 37t28.5 112zM243 834q0 94 94 94t94 -94t-94 -94t-94 94zM302 834q0 -35 35 -35t35 35t-35 35t-35 -35
z" />
    <glyph glyph-name="uring" unicode="&#x16f;" horiz-adv-x="611" 
d="M480 0q-73 0 -96 59q-66 -69 -154 -69q-57 0 -98 39t-41 119v198q0 28 -23 28h-45q-8 26 -7 57q1 33 35 51t82 18q57 0 83.5 -21t26.5 -72v-219q0 -21 12.5 -35t30.5 -14q57 0 89 38v307q30 16 83 16q71 0 71 -55l1 -298q0 -31 26 -31h36q4 -16 4 -45q0 -71 -116 -71z
M195 634q0 94 94 94t94 -94t-94 -94t-94 94zM254 634q0 -35 35 -35t35 35t-35 35t-35 -35z" />
    <glyph glyph-name="Uhungarumlaut" unicode="&#x170;" horiz-adv-x="674" 
d="M460 271v416q21 13 75 13q73 0 73 -51l1 -394q0 -134 -70.5 -199.5t-202.5 -65.5q-265 0 -265 265l-1 433q19 12 77 12q71 0 71 -50v-379q0 -149 118 -149q67 0 95.5 37t28.5 112zM144 786q17 12 44.5 54t56.5 73t60 31q52 0 62 -46q-17 -14 -51.5 -54.5t-64.5 -67
t-54 -26.5q-40 0 -53 36zM348 795q8 3 41.5 36.5t71 63.5t62.5 30q59 0 63 -56q-17 -10 -55.5 -43t-71.5 -54.5t-56 -21.5q-21 0 -36 12t-19 33z" />
    <glyph glyph-name="uhungarumlaut" unicode="&#x171;" horiz-adv-x="611" 
d="M480 0q-73 0 -96 59q-66 -69 -154 -69q-57 0 -98 39t-41 119v198q0 28 -23 28h-45q-8 26 -7 57q1 33 35 51t82 18q57 0 83.5 -21t26.5 -72v-219q0 -21 12.5 -35t30.5 -14q57 0 89 38v307q30 16 83 16q71 0 71 -55l1 -298q0 -31 26 -31h36q4 -16 4 -45q0 -71 -116 -71z
M118 586q17 12 44.5 54t56.5 73t60 31q52 0 62 -46q-17 -14 -51.5 -54.5t-64.5 -67t-54 -26.5q-40 0 -53 36zM322 595q8 3 41.5 36.5t71 63.5t62.5 30q59 0 63 -56q-17 -10 -55.5 -43t-71.5 -54.5t-56 -21.5q-21 0 -36 12t-19 33z" />
    <glyph glyph-name="Uogonek" unicode="&#x172;" horiz-adv-x="674" 
d="M370 -9q-11 -1 -34 -1q-265 0 -265 265l-1 433q19 12 77 12q71 0 71 -50v-379q0 -149 118 -149q67 0 95.5 37t28.5 112v416q21 13 75 13q73 0 73 -51l1 -394q0 -175 -123 -236q-32 -16 -51 -46.5t-19 -54.5q0 -19 10.5 -26.5t35.5 -7.5q8 -15 8 -34q0 -39 -51 -39
q-39 0 -61 23.5t-22 61.5q0 53 34 95z" />
    <glyph glyph-name="uogonek" unicode="&#x173;" horiz-adv-x="611" 
d="M286 139q57 0 89 38v307q30 16 83 16q71 0 71 -55l1 -298q0 -31 26 -31h36q4 -16 4 -45q0 -25 -26 -51q-42 -41 -42 -82q0 -19 10.5 -26.5t35.5 -7.5q8 -15 8 -34q0 -39 -51 -39q-39 0 -61 23.5t-22 61.5q0 43 24 84q-64 0 -88 59q-66 -69 -154 -69q-57 0 -98 39t-41 119
v198q0 28 -23 28h-45q-8 26 -7 57q1 33 35 51t82 18q57 0 83.5 -21t26.5 -72v-219q0 -21 12.5 -35t30.5 -14z" />
    <glyph glyph-name="Wcircumflex" unicode="&#x174;" horiz-adv-x="972" 
d="M471 700q60 0 76 -48l152 -448q100 169 123 480q32 16 81 16q22 0 38 -10.5t16 -27.5q0 -28 -11 -85q-61 -319 -206 -567q-29 -10 -60 -10q-50 0 -71 57l-94 261q-73 -185 -143 -306q-29 -10 -60 -10q-50 0 -71 57l-226 625q30 16 88 16q60 0 76 -48l152 -446
q59 100 115 302l-63 176q30 16 88 16zM663 784q-5 -29 -29 -40q-10 -5 -26 -5t-39.5 12.5t-38.5 23.5t-44 35q-88 -71 -122 -71q-16 0 -26 5q-24 11 -29 40q9 3 41.5 36t70 63.5t62.5 30.5q26 0 64 -30t71.5 -63t44.5 -37z" />
    <glyph glyph-name="wcircumflex" unicode="&#x175;" horiz-adv-x="795" 
d="M502 12l-71 209q-29 -84 -68 -147q-27 -42 -47 -58t-50 -16q-33 0 -54 12l-125 357q-6 19 -25 19h-39q-8 24 -8 50q0 62 112 62q40 0 60 -15t30 -44l78 -232q28 37 47 80t19 72q0 27 -20 27h-27q-9 22 -9 47q0 28 28.5 46.5t77.5 18.5q59 0 74 -50l77 -243q62 79 62 156
q0 11 -7.5 18t-15.5 7h-26q-8 22 -8 48q0 28 28.5 46t73.5 18q96 0 96 -103q0 -58 -36 -156t-80 -169q-22 -36 -44 -54t-52 -18q-31 0 -51 12zM563 584q-5 -29 -29 -40q-10 -5 -26 -5t-39.5 12.5t-38.5 23.5t-44 35q-88 -71 -122 -71q-16 0 -26 5q-24 11 -29 40q9 3 41.5 36
t70 63.5t62.5 30.5q26 0 64 -30t71.5 -63t44.5 -37z" />
    <glyph glyph-name="Ycircumflex" unicode="&#x176;" horiz-adv-x="589" 
d="M379 246v-230q-24 -16 -82 -16q-65 0 -65 46v192q-179 296 -217 444q34 18 81 18q31 0 47 -10t24 -38q31 -111 142 -302q49 85 89.5 182.5t55.5 160.5q21 7 70 7q23 0 36.5 -14t13.5 -37q0 -50 -64.5 -177.5t-130.5 -225.5zM471 784q-5 -29 -29 -40q-10 -5 -26 -5
t-39.5 12.5t-38.5 23.5t-44 35q-88 -71 -122 -71q-16 0 -26 5q-24 11 -29 40q9 3 41.5 36t70 63.5t62.5 30.5q26 0 64 -30t71.5 -63t44.5 -37z" />
    <glyph glyph-name="ycircumflex" unicode="&#x177;" horiz-adv-x="560" 
d="M217 419l77 -241q6 -20 19 -28q73 150 73 209q0 29 -24 29h-31q-9 20 -9 50q0 28 28 45t68 17q112 0 112 -101q0 -65 -47 -180t-112 -231q-49 -88 -111 -123t-145 -35q-84 0 -84 64q0 24 11 50h94q34 0 61 19.5t54 66.5q-51 13 -68 71l-95 261q-8 26 -29 26h-35
q-9 19 -9 50q0 28 27 45t76 17q41 0 64 -19.5t35 -61.5zM454 584q-5 -29 -29 -40q-10 -5 -26 -5t-39.5 12.5t-38.5 23.5t-44 35q-88 -71 -122 -71q-16 0 -26 5q-24 11 -29 40q9 3 41.5 36t70 63.5t62.5 30.5q26 0 64 -30t71.5 -63t44.5 -37z" />
    <glyph glyph-name="Ydieresis" unicode="&#x178;" horiz-adv-x="589" 
d="M379 246v-230q-24 -16 -82 -16q-65 0 -65 46v192q-179 296 -217 444q34 18 81 18q31 0 47 -10t24 -38q31 -111 142 -302q49 85 89.5 182.5t55.5 160.5q21 7 70 7q23 0 36.5 -14t13.5 -37q0 -50 -64.5 -177.5t-130.5 -225.5zM120 831q0 72 72 72t72 -72t-72 -72t-72 72z
M324 831q0 72 72 72t72 -72t-72 -72t-72 72z" />
    <glyph glyph-name="Zacute" unicode="&#x179;" horiz-adv-x="613" 
d="M550 574l-326 -451h357q12 -24 12 -60q0 -63 -56 -63h-505q-12 23 -12 52q0 39 22 68l326 446h-305q-16 34 -16 66q0 27 12.5 47.5t35.5 20.5h473q10 -14 10 -49q0 -39 -28 -77zM187 782q8 3 41.5 36.5t71 63.5t62.5 30q59 0 63 -56q-17 -10 -55.5 -43t-71.5 -54.5
t-56 -21.5q-21 0 -36 12t-19 33z" />
    <glyph glyph-name="zacute" unicode="&#x17a;" horiz-adv-x="494" 
d="M30 55q0 35 17 56l221 272h-205q-13 23 -13 51q0 32 10.5 49t44.5 17h333q9 -20 9 -49q0 -30 -23 -60l-210 -269h239q11 -20 11 -60q0 -62 -54 -62h-366q-14 24 -14 55zM128 582q8 3 41.5 36.5t71 63.5t62.5 30q59 0 63 -56q-17 -10 -55.5 -43t-71.5 -54.5t-56 -21.5
q-21 0 -36 12t-19 33z" />
    <glyph glyph-name="Zdotaccent" unicode="&#x17b;" horiz-adv-x="613" 
d="M550 574l-326 -451h357q12 -24 12 -60q0 -63 -56 -63h-505q-12 23 -12 52q0 39 22 68l326 446h-305q-16 34 -16 66q0 27 12.5 47.5t35.5 20.5h473q10 -14 10 -49q0 -39 -28 -77zM234 824q0 72 72 72t72 -72t-72 -72t-72 72z" />
    <glyph glyph-name="zdotaccent" unicode="&#x17c;" horiz-adv-x="494" 
d="M30 55q0 35 17 56l221 272h-205q-13 23 -13 51q0 32 10.5 49t44.5 17h333q9 -20 9 -49q0 -30 -23 -60l-210 -269h239q11 -20 11 -60q0 -62 -54 -62h-366q-14 24 -14 55zM175 635q0 72 72 72t72 -72t-72 -72t-72 72z" />
    <glyph glyph-name="Zcaron" unicode="&#x17d;" horiz-adv-x="613" 
d="M550 574l-326 -451h357q12 -24 12 -60q0 -63 -56 -63h-505q-12 23 -12 52q0 39 22 68l326 446h-305q-16 34 -16 66q0 27 12.5 47.5t35.5 20.5h473q10 -14 10 -49q0 -39 -28 -77zM304 740q-13 0 -25 6q-29 12 -86 58.5t-70 54.5q1 23 20.5 39.5t42.5 16.5q37 0 120 -81
q83 81 120 81q22 0 42 -17t21 -39q-12 -8 -69.5 -54.5t-87.5 -58.5q-17 -7 -28 -6z" />
    <glyph glyph-name="zcaron" unicode="&#x17e;" horiz-adv-x="494" 
d="M30 55q0 35 17 56l221 272h-205q-13 23 -13 51q0 32 10.5 49t44.5 17h333q9 -20 9 -49q0 -30 -23 -60l-210 -269h239q11 -20 11 -60q0 -62 -54 -62h-366q-14 24 -14 55zM245 540q-13 0 -25 6q-29 12 -86 58.5t-70 54.5q1 23 20.5 39.5t42.5 16.5q37 0 120 -81
q83 81 120 81q22 0 42 -17t21 -39q-12 -8 -69.5 -54.5t-87.5 -58.5q-17 -7 -28 -6z" />
    <glyph glyph-name="florin" unicode="&#x192;" horiz-adv-x="480" 
d="M376 276h-80l-40 -278q-13 -88 -60 -128.5t-134 -40.5q-91 0 -91 67q0 35 12 64h74q23 0 37 12t19 45l37 259h-95q-16 34 -16 71q0 61 74 61h56l19 134q11 82 59.5 120t140.5 38q44 0 64 -19t20 -47q0 -31 -10 -68h-76q-25 0 -38 -9.5t-17 -34.5l-16 -114h119
q14 -20 14 -60q0 -72 -72 -72z" />
    <glyph glyph-name="aringacute" unicode="&#x1fb;" horiz-adv-x="495" 
d="M79 359q-17 39 -17 59q0 27 17 46t45 28.5t55 13.5t55 4q95 0 144.5 -45.5t49.5 -132.5v-211q0 -26 16 -26h28q8 -10 8 -43q0 -52 -98 -52q-24 0 -44.5 14.5t-29.5 36.5q-75 -61 -146 -61q-68 0 -105 43.5t-37 119.5q0 71 42 112.5t122 42.5l117 1q-9 70 -79 70
q-88 0 -143 -20zM189 112q55 0 114 35v65l-109 -12q-47 -6 -47 -46q0 -17 11.5 -29.5t30.5 -12.5zM153 634q0 94 94 94t94 -94t-94 -94t-94 94zM212 634q0 -35 35 -35t35 35t-35 35t-35 -35zM149 792q8 3 41.5 36.5t71 63.5t62.5 30q59 0 63 -56q-17 -10 -55.5 -43
t-71.5 -54.5t-56 -21.5q-21 0 -36 12t-19 33z" />
    <glyph glyph-name="AEacute" unicode="&#x1fc;" horiz-adv-x="946" 
d="M861 0h-375q-29 0 -46 13.5t-17 53.5v67h-213l-32 -85q-9 -27 -28 -38t-56 -11q-59 0 -79 20l254 656q35 24 90 24h531q16 -23 16 -59q0 -35 -12 -57t-33 -22h-290v-139h270q16 -23 16 -66q0 -33 -11 -52t-30 -19h-245v-148h319q16 -23 16 -59q0 -35 -12 -57t-33 -22z
M370 562l-113 -301h166v301h-53zM429 782q8 3 41.5 36.5t71 63.5t62.5 30q59 0 63 -56q-17 -10 -55.5 -43t-71.5 -54.5t-56 -21.5q-21 0 -36 12t-19 33z" />
    <glyph glyph-name="aeacute" unicode="&#x1fd;" horiz-adv-x="767" 
d="M79 359q-17 39 -17 59q0 27 17 46t45 28.5t55 13.5t55 4q102 0 153 -54q65 54 151 54q92 0 143 -61t51 -164q0 -47 -10 -77h-277q16 -88 100 -88q31 0 46 2q76 8 112 32q24 -22 24 -57q0 -51 -51.5 -79t-144.5 -28q-114 0 -176 83q-95 -83 -193 -83q-68 0 -105 43.5
t-37 119.5q0 117 105 147q33 9 176 9q-9 70 -79 70q-88 0 -143 -20zM189 112q31 0 57.5 10.5t67.5 38.5q-3 13 -7 34l-2 18l-111 -13q-47 -6 -47 -46q0 -17 11.5 -29.5t30.5 -12.5zM537 382q-28 0 -54 -21t-37 -60h160q0 81 -69 81zM300 587q8 3 41.5 36.5t71 63.5t62.5 30
q59 0 63 -56q-17 -10 -55.5 -43t-71.5 -54.5t-56 -21.5q-21 0 -36 12t-19 33z" />
    <glyph glyph-name="Oslashacute" unicode="&#x1fe;" horiz-adv-x="682" 
d="M40 349q0 183 83.5 272t216.5 89q56 0 109 -17l51 109q15 5 46 5q23 0 38 -12t15 -25q0 -12 -5 -23l-52 -109q100 -92 100 -289q0 -184 -83 -271.5t-218 -87.5q-52 0 -100 14l-59 -125q-17 -4 -36 -4q-21 0 -40 11.5t-19 26.5q0 14 7 29l53 113q-107 91 -107 294z
M186 345q0 -94 28 -148l177 375q-24 9 -51 9q-66 0 -110 -57.5t-44 -178.5zM494 345q0 85 -23 142l-174 -366q20 -7 44 -7q153 0 153 231zM222 782q8 3 41.5 36.5t71 63.5t62.5 30q59 0 63 -56q-17 -10 -55.5 -43t-71.5 -54.5t-56 -21.5q-21 0 -36 12t-19 33z" />
    <glyph glyph-name="oslashacute" unicode="&#x1ff;" horiz-adv-x="553" 
d="M35 248q0 132 66.5 197t174.5 65q27 0 55 -5l38 105q19 7 36 7q33 0 33 -21q0 -12 -5 -25l-32 -88q117 -60 117 -235q0 -132 -66 -195t-176 -63q-29 0 -50 4l-31 -88q-17 -9 -40 -9q-11 0 -20 5.5t-9 14.5q0 15 6 31l24 67q-121 58 -121 233zM187 246q0 -58 19 -90
l80 222q-4 1 -10 1q-39 0 -64 -32.5t-25 -100.5zM364 246q0 53 -16 87l-77 -215h5q88 0 88 128zM157 582q8 3 41.5 36.5t71 63.5t62.5 30q59 0 63 -56q-17 -10 -55.5 -43t-71.5 -54.5t-56 -21.5q-21 0 -36 12t-19 33z" />
    <glyph glyph-name="Scommaaccent" unicode="&#x218;" horiz-adv-x="580" 
d="M272 -187q-61 0 -61 65t65 65q69 0 69 -92q0 -74 -19.5 -110t-49.5 -36q-35 0 -39 25q15 9 25 37.5t10 45.5zM291 710q134 0 193 -57q26 -26 26 -65q0 -30 -27 -70q-72 38 -191 38q-97 0 -97 -61q0 -27 25.5 -47t92.5 -35q122 -26 173 -69t53 -139q2 -97 -59.5 -156
t-187.5 -59q-151 0 -216 49q-36 27 -36 74q0 40 19 72q96 -49 228 -49q56 0 79.5 18t23.5 43q0 30 -24 47t-97 30q-120 21 -171 71.5t-51 151.5q0 98 64 155.5t180 57.5z" />
    <glyph glyph-name="scommaaccent" unicode="&#x219;" horiz-adv-x="446" 
d="M217 -177q-61 0 -61 65t65 65q69 0 69 -92q0 -74 -19.5 -110t-49.5 -36q-35 0 -39 25q15 9 25 37.5t10 45.5zM226 510q87 0 129 -28t42 -65q0 -57 -17 -78q-21 12 -68.5 20t-87.5 8q-60 0 -60 -25q0 -24 74 -33q94 -12 136 -49.5t42 -108.5q0 -76 -47.5 -118.5
t-140.5 -42.5q-97 0 -147.5 25t-50.5 68q0 48 21 75q30 -15 79 -26t89 -11q66 0 66 27t-81 36q-94 12 -129.5 50t-35.5 112q0 77 48 120.5t139 43.5z" />
    <glyph glyph-name="uni021A" unicode="&#x21a;" horiz-adv-x="573" 
d="M281 -195q-61 0 -61 65t65 65q69 0 69 -92q0 -74 -19.5 -110t-49.5 -36q-35 0 -39 25q15 9 25 37.5t10 45.5zM518 562h-159v-550q-23 -12 -82 -12q-62 0 -62 67v495h-189q-16 34 -16 70q0 68 66 68h471q16 -23 16 -59q0 -35 -12 -57t-33 -22z" />
    <glyph glyph-name="uni021B" unicode="&#x21b;" horiz-adv-x="386" 
d="M187 -177q-61 0 -61 65t65 65q69 0 69 -92q0 -74 -19.5 -110t-49.5 -36q-35 0 -39 25q15 9 25 37.5t10 45.5zM304 383h-75v-210q0 -29 10 -40.5t32 -11.5h86q9 -22 9 -42q0 -37 -31 -58t-115 -21q-128 0 -128 145v238h-59q-13 23 -13 51q0 33 11 49.5t38 16.5h23v106
q28 15 75 15q62 0 62 -57v-64h116q15 -14 15 -45q0 -27 -12.5 -49.5t-43.5 -22.5z" />
    <glyph glyph-name="dotlessj" unicode="&#x237;" horiz-adv-x="281" 
d="M124 500q50 0 72 -24.5t22 -83.5v-407q0 -165 -134 -165q-129 0 -129 69q0 36 10 58h74q46 0 46 66v330q0 31 -24 31h-35q-8 30 -8 58q0 32 27 50t79 18z" />
    <glyph glyph-name="hsuperior" unicode="&#x2b0;" horiz-adv-x="286" 
d="M66 700q38 0 38 -28v-93q31 28 69 28q77 0 77 -89v-104q0 -12 8 -12h14q4 -5 4 -18q0 -34 -64 -34q-45 0 -45 51v96q0 29 -27 29q-17 0 -36 -11v-158q-12 -7 -43 -7q-38 0 -38 37v304q14 9 43 9z" />
    <glyph glyph-name="circumflex" unicode="&#x2c6;" horiz-adv-x="481" 
d="M404 584q-5 -29 -29 -40q-10 -5 -26 -5t-39.5 12.5t-38.5 23.5t-44 35q-88 -71 -122 -71q-16 0 -26 5q-24 11 -29 40q9 3 41.5 36t70 63.5t62.5 30.5q26 0 64 -30t71.5 -63t44.5 -37z" />
    <glyph glyph-name="caron" unicode="&#x2c7;" horiz-adv-x="474" 
d="M231 540q-13 0 -25 6q-29 12 -86 58.5t-70 54.5q1 23 20.5 39.5t42.5 16.5q37 0 120 -81q83 81 120 81q22 0 42 -17t21 -39q-12 -8 -69.5 -54.5t-87.5 -58.5q-17 -7 -28 -6z" />
    <glyph glyph-name="breve" unicode="&#x2d8;" horiz-adv-x="476" 
d="M155 694q2 -22 15 -38q19 -22 59 -22q37 0 53 18q10 10 19 38q16 13 54 11q24 -1 33.5 -14.5t4.5 -31.5q-16 -52 -48 -77q-40 -32 -115 -32q-78 0 -122 34q-38 29 -46 82q-4 36 37 40q31 3 56 -8z" />
    <glyph glyph-name="dotaccent" unicode="&#x2d9;" horiz-adv-x="438" 
d="M143 635q0 72 72 72t72 -72t-72 -72t-72 72z" />
    <glyph glyph-name="ring" unicode="&#x2da;" horiz-adv-x="428" 
d="M120 634q0 94 94 94t94 -94t-94 -94t-94 94zM179 634q0 -35 35 -35t35 35t-35 35t-35 -35z" />
    <glyph glyph-name="ogonek" unicode="&#x2db;" horiz-adv-x="495" 
d="M340 38l56 -32q-5 -8 -16.5 -25t-15.5 -24t-8 -18t-4 -21q0 -19 10.5 -26.5t35.5 -7.5q8 -15 8 -34q0 -39 -51 -39q-39 0 -61 23.5t-22 61.5q0 71 68 142z" />
    <glyph glyph-name="tilde" unicode="&#x2dc;" horiz-adv-x="484" 
d="M142 681q35 0 83 -14t73 -14q26 0 42 8t18 15q11 -4 20.5 -21t9.5 -36q0 -28 -19 -45t-54 -17q-27 0 -89 13.5t-90 13.5q-39 0 -44 -24q-28 8 -28 51q0 26 19.5 48t58.5 22z" />
    <glyph glyph-name="hungarumlaut" unicode="&#x2dd;" horiz-adv-x="509" 
d="M41 586q17 12 44.5 54t56.5 73t60 31q52 0 62 -46q-17 -14 -51.5 -54.5t-64.5 -67t-54 -26.5q-40 0 -53 36zM245 595q8 3 41.5 36.5t71 63.5t62.5 30q59 0 63 -56q-17 -10 -55.5 -43t-71.5 -54.5t-56 -21.5q-21 0 -36 12t-19 33z" />
    <glyph glyph-name="uni0394" unicode="&#x394;" horiz-adv-x="657" 
d="M93 0q-59 0 -79 20l215 606q14 41 37.5 57.5t60.5 16.5q66 0 93 -72l224 -597q-18 -31 -68 -31h-483zM326 496l-123 -369h262z" />
    <glyph glyph-name="uni03A9" unicode="&#x3a9;" horiz-adv-x="682" 
d="M161 114l2 4q-54 33 -88.5 100.5t-34.5 147.5q0 171 84 257.5t216 86.5q137 0 219.5 -85.5t82.5 -257.5q0 -82 -32.5 -148t-90.5 -101l1 -4h126q16 -21 16 -43q0 -32 -12 -51.5t-33 -19.5h-237q-16 30 -16 77q0 58 20 61q110 16 110 225q0 110 -43 164t-111 54
q-65 0 -109.5 -53.5t-44.5 -162.5q0 -95 39 -155.5t87 -72.5q16 -21 16 -66q0 -32 -12 -51.5t-33 -19.5h-247q-16 30 -16 57q0 30 16.5 43.5t57.5 13.5h67z" />
    <glyph glyph-name="uni03BC" unicode="&#x3bc;" horiz-adv-x="578" 
d="M464 0q-73 0 -96 59q-53 -55 -118 -66q-18 -3 -36 -3v-145q-17 -15 -72 -15q-67 0 -67 68v448q0 28 -23 28h-45q-8 26 -7 57q1 33 35 51t82 18q57 0 83.5 -21.5t26.5 -71.5v-146q0 -7 -0.5 -23t-0.5 -24.5t1 -22t4 -21t7.5 -16t12.5 -12t19 -3.5q57 0 89 38v307
q30 16 83 16q71 0 71 -55q0 -49 0.5 -149t0.5 -149q0 -31 26 -31h36q4 -16 4 -45q0 -33 -27 -51q-29 -20 -89 -20z" />
    <glyph glyph-name="pi" unicode="&#x3c0;" horiz-adv-x="612" 
d="M94 142v220h-68q-16 34 -16 63q0 38 14 56.5t60 18.5h502q16 -23 16 -59q0 -35 -12 -57t-33 -22h-39v-349q-19 -13 -70 -13q-37 0 -58 14t-21 54v294h-127v-234q0 -76 -38.5 -104.5t-109.5 -28.5q-33 0 -54 18t-21 56q75 13 75 73z" />
    <glyph glyph-name="Wgrave" unicode="&#x1e80;" horiz-adv-x="972" 
d="M471 700q60 0 76 -48l152 -448q100 169 123 480q32 16 81 16q22 0 38 -10.5t16 -27.5q0 -28 -11 -85q-61 -319 -206 -567q-29 -10 -60 -10q-50 0 -71 57l-94 261q-73 -185 -143 -306q-29 -10 -60 -10q-50 0 -71 57l-226 625q30 16 88 16q60 0 76 -48l152 -446
q59 100 115 302l-63 176q30 16 88 16zM605 779q-4 -21 -19 -33t-36 -12q-23 0 -56 21.5t-71.5 54.5t-55.5 43q4 56 63 56q25 0 62.5 -30t71 -63.5t41.5 -36.5z" />
    <glyph glyph-name="wgrave" unicode="&#x1e81;" horiz-adv-x="795" 
d="M502 12l-71 209q-29 -84 -68 -147q-27 -42 -47 -58t-50 -16q-33 0 -54 12l-125 357q-6 19 -25 19h-39q-8 24 -8 50q0 62 112 62q40 0 60 -15t30 -44l78 -232q28 37 47 80t19 72q0 27 -20 27h-27q-9 22 -9 47q0 28 28.5 46.5t77.5 18.5q59 0 74 -50l77 -243q62 79 62 156
q0 11 -7.5 18t-15.5 7h-26q-8 22 -8 48q0 28 28.5 46t73.5 18q96 0 96 -103q0 -58 -36 -156t-80 -169q-22 -36 -44 -54t-52 -18q-31 0 -51 12zM474 579q-4 -21 -19 -33t-36 -12q-23 0 -56 21.5t-71.5 54.5t-55.5 43q4 56 63 56q25 0 62.5 -30t71 -63.5t41.5 -36.5z" />
    <glyph glyph-name="Wacute" unicode="&#x1e82;" horiz-adv-x="972" 
d="M471 700q60 0 76 -48l152 -448q100 169 123 480q32 16 81 16q22 0 38 -10.5t16 -27.5q0 -28 -11 -85q-61 -319 -206 -567q-29 -10 -60 -10q-50 0 -71 57l-94 261q-73 -185 -143 -306q-29 -10 -60 -10q-50 0 -71 57l-226 625q30 16 88 16q60 0 76 -48l152 -446
q59 100 115 302l-63 176q30 16 88 16zM367 782q8 3 41.5 36.5t71 63.5t62.5 30q59 0 63 -56q-17 -10 -55.5 -43t-71.5 -54.5t-56 -21.5q-21 0 -36 12t-19 33z" />
    <glyph glyph-name="wacute" unicode="&#x1e83;" horiz-adv-x="795" 
d="M502 12l-71 209q-29 -84 -68 -147q-27 -42 -47 -58t-50 -16q-33 0 -54 12l-125 357q-6 19 -25 19h-39q-8 24 -8 50q0 62 112 62q40 0 60 -15t30 -44l78 -232q28 37 47 80t19 72q0 27 -20 27h-27q-9 22 -9 47q0 28 28.5 46.5t77.5 18.5q59 0 74 -50l77 -243q62 79 62 156
q0 11 -7.5 18t-15.5 7h-26q-8 22 -8 48q0 28 28.5 46t73.5 18q96 0 96 -103q0 -58 -36 -156t-80 -169q-22 -36 -44 -54t-52 -18q-31 0 -51 12zM297 582q8 3 41.5 36.5t71 63.5t62.5 30q59 0 63 -56q-17 -10 -55.5 -43t-71.5 -54.5t-56 -21.5q-21 0 -36 12t-19 33z" />
    <glyph glyph-name="Wdieresis" unicode="&#x1e84;" horiz-adv-x="972" 
d="M471 700q60 0 76 -48l152 -448q100 169 123 480q32 16 81 16q22 0 38 -10.5t16 -27.5q0 -28 -11 -85q-61 -319 -206 -567q-29 -10 -60 -10q-50 0 -71 57l-94 261q-73 -185 -143 -306q-29 -10 -60 -10q-50 0 -71 57l-226 625q30 16 88 16q60 0 76 -48l152 -446
q59 100 115 302l-63 176q30 16 88 16zM312 831q0 72 72 72t72 -72t-72 -72t-72 72zM516 831q0 72 72 72t72 -72t-72 -72t-72 72z" />
    <glyph glyph-name="wdieresis" unicode="&#x1e85;" horiz-adv-x="795" 
d="M502 12l-71 209q-29 -84 -68 -147q-27 -42 -47 -58t-50 -16q-33 0 -54 12l-125 357q-6 19 -25 19h-39q-8 24 -8 50q0 62 112 62q40 0 60 -15t30 -44l78 -232q28 37 47 80t19 72q0 27 -20 27h-27q-9 22 -9 47q0 28 28.5 46.5t77.5 18.5q59 0 74 -50l77 -243q62 79 62 156
q0 11 -7.5 18t-15.5 7h-26q-8 22 -8 48q0 28 28.5 46t73.5 18q96 0 96 -103q0 -58 -36 -156t-80 -169q-22 -36 -44 -54t-52 -18q-31 0 -51 12zM213 631q0 72 72 72t72 -72t-72 -72t-72 72zM417 631q0 72 72 72t72 -72t-72 -72t-72 72z" />
    <glyph glyph-name="uni1E8A" unicode="&#x1e8a;" horiz-adv-x="670" 
d="M114 700q42 0 67 -16t52 -54l104 -149l112 167q33 52 103 52q62 0 81 -29l-211 -312l233 -334q-19 -14 -39 -19.5t-60 -5.5q-33 0 -66.5 17t-55.5 48l-118 169l-124 -190q-27 -44 -101 -44q-53 0 -76 28l212 332l-211 303q28 37 98 37zM263 824q0 72 72 72t72 -72
t-72 -72t-72 72z" />
    <glyph glyph-name="uni1E8B" unicode="&#x1e8b;" horiz-adv-x="533" 
d="M134 500q40 0 64 -16t46 -54l33 -57l38 68q14 25 39 42t46 17q52 0 74 -26.5t18 -62.5l-145 -159l51 -87q30 -52 64 -52h43q8 -14 8 -44q0 -69 -113 -69q-69 0 -108 64l-41 68l-55 -79q-36 -53 -94 -53q-36 0 -57.5 25.5t-24.5 64.5l160 160l-74 122q-11 16 -34 16h-40
q-6 19 -6 41q0 33 31.5 52t76.5 19zM194 624q0 72 72 72t72 -72t-72 -72t-72 72z" />
    <glyph glyph-name="Ygrave" unicode="&#x1ef2;" horiz-adv-x="589" 
d="M379 246v-230q-24 -16 -82 -16q-65 0 -65 46v192q-179 296 -217 444q34 18 81 18q31 0 47 -10t24 -38q31 -111 142 -302q49 85 89.5 182.5t55.5 160.5q21 7 70 7q23 0 36.5 -14t13.5 -37q0 -50 -64.5 -177.5t-130.5 -225.5zM413 779q-4 -21 -19 -33t-36 -12
q-23 0 -56 21.5t-71.5 54.5t-55.5 43q4 56 63 56q25 0 62.5 -30t71 -63.5t41.5 -36.5z" />
    <glyph glyph-name="ygrave" unicode="&#x1ef3;" horiz-adv-x="560" 
d="M217 419l77 -241q6 -20 19 -28q73 150 73 209q0 29 -24 29h-31q-9 20 -9 50q0 28 28 45t68 17q112 0 112 -101q0 -65 -47 -180t-112 -231q-49 -88 -111 -123t-145 -35q-84 0 -84 64q0 24 11 50h94q34 0 61 19.5t54 66.5q-51 13 -68 71l-95 261q-8 26 -29 26h-35
q-9 19 -9 50q0 28 27 45t76 17q41 0 64 -19.5t35 -61.5zM365 579q-4 -21 -19 -33t-36 -12q-23 0 -56 21.5t-71.5 54.5t-55.5 43q4 56 63 56q25 0 62.5 -30t71 -63.5t41.5 -36.5z" />
    <glyph glyph-name="endash" unicode="&#x2013;" horiz-adv-x="499" 
d="M388 195h-327q-16 34 -16 73q0 28 14 46.5t43 18.5h338q14 -26 14 -68q0 -70 -66 -70z" />
    <glyph glyph-name="emdash" unicode="&#x2014;" horiz-adv-x="643" 
d="M546 195h-485q-16 34 -16 70q0 27 14.5 47.5t44.5 20.5h480q14 -20 14 -65q0 -29 -12 -51t-40 -22z" />
    <glyph glyph-name="quoteleft" unicode="&#x2018;" horiz-adv-x="229" 
d="M121 580q36 0 52 -17.5t16 -54.5q0 -72 -72 -72q-77 0 -77 102q0 81 22 121.5t55 40.5q39 0 43 -28q-17 -9 -28 -41t-11 -51z" />
    <glyph glyph-name="quoteright" unicode="&#x2019;" horiz-adv-x="229" 
d="M108 556q-36 0 -52 17.5t-16 54.5q0 72 72 72q77 0 77 -102q0 -81 -22 -121.5t-55 -40.5q-39 0 -43 28q17 9 28 41t11 51z" />
    <glyph glyph-name="quotesinglbase" unicode="&#x201a;" horiz-adv-x="229" 
d="M108 0q-36 0 -52 17.5t-16 54.5q0 72 72 72q77 0 77 -102q0 -81 -22 -121.5t-55 -40.5q-39 0 -43 28q17 9 28 41t11 51z" />
    <glyph glyph-name="quotedblleft" unicode="&#x201c;" horiz-adv-x="408" 
d="M121 581q36 0 52 -17.5t16 -54.5q0 -72 -72 -72q-77 0 -77 102q0 81 22 121.5t55 40.5q39 0 43 -28q-17 -9 -28 -41t-11 -51zM300 581q36 0 52 -17.5t16 -54.5q0 -72 -72 -72q-77 0 -77 102q0 81 22 121.5t55 40.5q39 0 43 -28q-17 -9 -28 -41t-11 -51z" />
    <glyph glyph-name="quotedblright" unicode="&#x201d;" horiz-adv-x="408" 
d="M108 557q-36 0 -52 17.5t-16 54.5q0 72 72 72q77 0 77 -102q0 -81 -22 -121.5t-55 -40.5q-39 0 -43 28q17 9 28 41t11 51zM287 557q-36 0 -52 17.5t-16 54.5q0 72 72 72q77 0 77 -102q0 -81 -22 -121.5t-55 -40.5q-39 0 -43 28q17 9 28 41t11 51z" />
    <glyph glyph-name="quotedblbase" unicode="&#x201e;" horiz-adv-x="408" 
d="M108 0q-36 0 -52 17.5t-16 54.5q0 72 72 72q77 0 77 -102q0 -81 -22 -121.5t-55 -40.5q-39 0 -43 28q17 9 28 41t11 51zM287 0q-36 0 -52 17.5t-16 54.5q0 72 72 72q77 0 77 -102q0 -81 -22 -121.5t-55 -40.5q-39 0 -43 28q17 9 28 41t11 51z" />
    <glyph glyph-name="dagger" unicode="&#x2020;" horiz-adv-x="449" 
d="M227 713q71 0 71 -51v-746q-30 -16 -85 -16q-63 0 -63 59v741q23 13 77 13zM363 404h-327q-16 34 -16 73q0 28 14 46.5t43 18.5h338q14 -26 14 -68q0 -70 -66 -70z" />
    <glyph glyph-name="daggerdbl" unicode="&#x2021;" horiz-adv-x="449" 
d="M227 713q71 0 71 -51v-746q-30 -16 -85 -16q-63 0 -63 59v741q23 13 77 13zM363 404h-327q-16 34 -16 73q0 28 14 46.5t43 18.5h338q14 -26 14 -68q0 -70 -66 -70zM363 65h-327q-16 34 -16 73q0 28 14 46.5t43 18.5h338q14 -26 14 -68q0 -70 -66 -70z" />
    <glyph glyph-name="bullet" unicode="&#x2022;" horiz-adv-x="302" 
d="M50 263q0 101 101 101t101 -101t-101 -101t-101 101z" />
    <glyph glyph-name="ellipsis" unicode="&#x2026;" horiz-adv-x="672" 
d="M40 72q0 72 72 72t72 -72t-72 -72t-72 72zM264 72q0 72 72 72t72 -72t-72 -72t-72 72zM488 72q0 72 72 72t72 -72t-72 -72t-72 72z" />
    <glyph glyph-name="perthousand" unicode="&#x2030;" horiz-adv-x="1257" 
d="M571 700q33 0 46 -14.5t3 -41.5l-244 -635q-22 -11 -49 -11q-71 0 -43 74l233 621q22 7 54 7zM529 203q0 107 47.5 159t121.5 52q78 0 126 -51.5t48 -159.5q0 -106 -47.5 -156.5t-123.5 -50.5q-77 0 -124.5 51t-47.5 156zM630 200q0 -63 22 -93.5t49 -30.5q68 0 68 124
q0 68 -20.5 99t-50.5 31q-27 0 -47.5 -31.5t-20.5 -98.5zM899 203q0 107 47.5 159t121.5 52q78 0 126 -51.5t48 -159.5q0 -106 -47.5 -156.5t-123.5 -50.5q-77 0 -124.5 51t-47.5 156zM1000 200q0 -63 22 -93.5t49 -30.5q68 0 68 124q0 68 -20.5 99t-50.5 31
q-27 0 -47.5 -31.5t-20.5 -98.5zM28 490q0 107 47.5 159t121.5 52q78 0 126 -51.5t48 -159.5q0 -106 -47.5 -156.5t-123.5 -50.5q-77 0 -124.5 51t-47.5 156zM129 487q0 -63 22 -93.5t49 -30.5q68 0 68 124q0 68 -20.5 99t-50.5 31q-27 0 -47.5 -31.5t-20.5 -98.5z" />
    <glyph glyph-name="guilsinglleft" unicode="&#x2039;" horiz-adv-x="284" 
d="M47 317l119 138q15 6 29 6q28 0 46 -19.5t18 -42.5q0 -27 -18 -48l-89 -108l100 -129q5 -12 5 -28q0 -25 -21 -40.5t-44 -15.5q-31 0 -53 27l-99 127q-15 27 -15 66q0 40 22 67z" />
    <glyph glyph-name="guilsinglright" unicode="&#x203a;" horiz-adv-x="284" 
d="M237 174l-119 -138q-15 -6 -29 -6q-28 0 -46 19.5t-18 42.5q0 27 18 48l89 108l-100 129q-5 12 -5 28q0 25 21 40.5t44 15.5q31 0 53 -27l99 -127q15 -27 15 -66q0 -40 -22 -67z" />
    <glyph glyph-name="fraction" unicode="&#x2044;" horiz-adv-x="180" 
d="M213 700q33 0 46 -14.5t3 -41.5l-244 -635q-22 -11 -49 -11q-71 0 -43 74l233 621q22 7 54 7z" />
    <glyph glyph-name="uni2070" unicode="&#x2070;" horiz-adv-x="399" 
d="M28 488q0 107 47.5 159t121.5 52q78 0 126 -51.5t48 -159.5q0 -106 -47.5 -156.5t-123.5 -50.5q-77 0 -124.5 51t-47.5 156zM129 485q0 -63 22 -93.5t49 -30.5q68 0 68 124q0 68 -20.5 99t-50.5 31q-27 0 -47.5 -31.5t-20.5 -98.5z" />
    <glyph glyph-name="uni2074" unicode="&#x2074;" horiz-adv-x="383" 
d="M256 587q45 0 45 -33v-114h60q10 -12 10 -41q0 -38 -31 -38h-38v-69q-16 -7 -52 -7q-41 0 -41 32l-1 44h-188q-8 9 -8 29q0 16 9 43l84 257q20 9 56 9q19 0 28 -10t4 -24l-69 -225h84l-1 134q20 13 49 13z" />
    <glyph glyph-name="uni2075" unicode="&#x2075;" horiz-adv-x="356" 
d="M291 606h-160l-5 -69q28 7 58 7q62 0 104 -31t42 -99q0 -58 -43.5 -96.5t-117.5 -38.5q-76 0 -113.5 22t-37.5 51q0 30 36 52q49 -44 111 -44q68 0 68 57q0 51 -87 51q-13 0 -38.5 -1.5t-45.5 -1.5q-13 0 -21 11t-7 29l10 179q19 10 59 10h207q11 -13 11 -37
q0 -22 -8 -36.5t-22 -14.5z" />
    <glyph glyph-name="uni2076" unicode="&#x2076;" horiz-adv-x="368" 
d="M28 503q0 95 50 147t134 52q115 0 115 -52q0 -16 -7.5 -31.5t-18.5 -19.5q-37 14 -86 14q-45 0 -64.5 -20t-23.5 -68q38 16 78 16q144 0 144 -121q0 -59 -37.5 -100t-117.5 -41q-166 0 -166 224zM193 470q-36 0 -66 -14q3 -51 18.5 -72.5t46.5 -21.5q28 0 44 14.5
t16 39.5q0 30 -14 42t-45 12z" />
    <glyph glyph-name="uni2077" unicode="&#x2077;" horiz-adv-x="333" 
d="M133 285q-23 0 -32 9.5t-4 24.5l104 289h-187q-11 13 -11 45q0 17 8.5 31.5t21.5 14.5h277q7 -13 7 -33q0 -23 -10 -50l-122 -323q-16 -8 -52 -8z" />
    <glyph glyph-name="uni2078" unicode="&#x2078;" horiz-adv-x="367" 
d="M25 408q0 62 58 95q-41 32 -41 84q0 113 138 113q143 0 143 -112q0 -47 -42 -77q61 -28 61 -105q0 -52 -39 -89.5t-114 -37.5q-82 0 -123 35t-41 94zM247 408q0 16 -12.5 27.5t-26.5 16.5t-45 14q-41 -15 -41 -57q0 -21 18.5 -34.5t46.5 -13.5q60 0 60 47zM131 587
q0 -43 66 -55q39 18 39 54q0 21 -14.5 31.5t-36.5 10.5q-24 0 -39 -10.5t-15 -30.5z" />
    <glyph glyph-name="uni2079" unicode="&#x2079;" horiz-adv-x="365" 
d="M337 485q0 -103 -47 -154.5t-122 -51.5q-63 0 -99.5 17t-36.5 45q0 29 21 47q53 -20 94 -20q45 0 65 19.5t24 66.5q-35 -19 -78 -19q-57 0 -98 29t-41 90q0 67 37 107.5t114 40.5q79 0 123 -47.5t44 -169.5zM169 512q41 0 67 13q-7 93 -59 93q-64 0 -64 -55q0 -51 56 -51
z" />
    <glyph glyph-name="nsuperior" unicode="&#x207f;" horiz-adv-x="318" 
d="M74 602q39 0 57 -34q35 39 78 39q30 0 49 -19t19 -59v-115q0 -13 11 -13h16q4 -4 4 -17q0 -34 -64 -34q-27 0 -39 12t-12 39v105q0 19 -18 19t-37 -11v-156q-13 -8 -48 -8q-41 0 -41 41v126q0 16 -14 16h-15q-7 16 -7 31q0 38 61 38z" />
    <glyph glyph-name="uni2080" unicode="&#x2080;" horiz-adv-x="399" 
d="M28 73q0 107 47.5 159t121.5 52q78 0 126 -51.5t48 -159.5q0 -106 -47.5 -156.5t-123.5 -50.5q-77 0 -124.5 51t-47.5 156zM129 70q0 -63 22 -93.5t49 -30.5q68 0 68 124q0 68 -20.5 99t-50.5 31q-27 0 -47.5 -31.5t-20.5 -98.5z" />
    <glyph glyph-name="uni2081" unicode="&#x2081;" horiz-adv-x="357" 
d="M318 -130h-270q-11 22 -11 40q0 24 9.5 36t41.5 12h62v200q-35 -22 -72 -22q-42 0 -42 44q0 23 10 39q33 2 64.5 19.5t39.5 40.5q18 7 51 7q48 0 48 -33v-295h89q11 -16 11 -37q0 -22 -8 -36.5t-23 -14.5z" />
    <glyph glyph-name="uni2082" unicode="&#x2082;" horiz-adv-x="359" 
d="M27 211q0 30 38 51t104 21q79 0 117 -33.5t38 -89.5q0 -53 -49.5 -106.5t-123.5 -96.5v-4l178 4q7 -12 7 -45q0 -22 -6.5 -32t-24.5 -10h-273q-9 20 -9 49q0 43 31 67q124 94 152 130q13 17 13 28q0 43 -58 43q-60 0 -105 -33q-29 22 -29 57z" />
    <glyph glyph-name="uni2083" unicode="&#x2083;" horiz-adv-x="347" 
d="M203 148q0 37 -51 37q-56 0 -102 -27q-26 21 -26 53q0 29 35.5 50.5t98.5 21.5q76 0 111.5 -31.5t35.5 -82.5q0 -32 -18.5 -58.5t-46.5 -32.5v-1q31 -4 53 -29t22 -64q0 -49 -38.5 -84.5t-115.5 -35.5q-72 0 -107.5 22t-35.5 52q0 37 31 56q46 -42 107 -42q27 0 43 11.5
t16 29.5q0 21 -12 30.5t-42 9.5h-24q-22 0 -22 38q0 22 7 35q33 1 57 11.5t24 30.5z" />
    <glyph glyph-name="uni2084" unicode="&#x2084;" horiz-adv-x="383" 
d="M256 172q45 0 45 -33v-114h60q10 -12 10 -41q0 -38 -31 -38h-38v-69q-16 -7 -52 -7q-41 0 -41 32l-1 44h-188q-8 9 -8 29q0 16 9 43l84 257q20 9 56 9q19 0 28 -10t4 -24l-69 -225h84l-1 134q20 13 49 13z" />
    <glyph glyph-name="uni2085" unicode="&#x2085;" horiz-adv-x="356" 
d="M291 191h-160l-5 -69q28 7 58 7q62 0 104 -31t42 -99q0 -58 -43.5 -96.5t-117.5 -38.5q-76 0 -113.5 22t-37.5 51q0 30 36 52q49 -44 111 -44q68 0 68 57q0 51 -87 51q-13 0 -38.5 -1.5t-45.5 -1.5q-13 0 -21 11t-7 29l10 179q19 10 59 10h207q11 -13 11 -37
q0 -22 -8 -36.5t-22 -14.5z" />
    <glyph glyph-name="uni2086" unicode="&#x2086;" horiz-adv-x="368" 
d="M28 88q0 95 50 147t134 52q115 0 115 -52q0 -16 -7.5 -31.5t-18.5 -19.5q-37 14 -86 14q-45 0 -64.5 -20t-23.5 -68q38 16 78 16q144 0 144 -121q0 -59 -37.5 -100t-117.5 -41q-166 0 -166 224zM193 55q-36 0 -66 -14q3 -51 18.5 -72.5t46.5 -21.5q28 0 44 14.5t16 39.5
q0 30 -14 42t-45 12z" />
    <glyph glyph-name="uni2087" unicode="&#x2087;" horiz-adv-x="333" 
d="M133 -130q-23 0 -32 9.5t-4 24.5l104 289h-187q-11 13 -11 45q0 17 8.5 31.5t21.5 14.5h277q7 -13 7 -33q0 -23 -10 -50l-122 -323q-16 -8 -52 -8z" />
    <glyph glyph-name="uni2088" unicode="&#x2088;" horiz-adv-x="367" 
d="M25 -7q0 62 58 95q-41 32 -41 84q0 113 138 113q143 0 143 -112q0 -47 -42 -77q61 -28 61 -105q0 -52 -39 -89.5t-114 -37.5q-82 0 -123 35t-41 94zM247 -7q0 16 -12.5 27.5t-26.5 16.5t-45 14q-41 -15 -41 -57q0 -21 18.5 -34.5t46.5 -13.5q60 0 60 47zM131 172
q0 -43 66 -55q39 18 39 54q0 21 -14.5 31.5t-36.5 10.5q-24 0 -39 -10.5t-15 -30.5z" />
    <glyph glyph-name="uni2089" unicode="&#x2089;" horiz-adv-x="365" 
d="M337 70q0 -103 -47 -154.5t-122 -51.5q-63 0 -99.5 17t-36.5 45q0 30 21 47q52 -20 94 -20q45 0 65 19.5t24 66.5q-35 -19 -78 -19q-57 0 -98 29t-41 90q0 67 37 107.5t114 40.5q79 0 123 -47.5t44 -169.5zM169 97q41 0 67 13q-7 93 -59 93q-64 0 -64 -55q0 -51 56 -51z
" />
    <glyph glyph-name="Euro" unicode="&#x20ac;" horiz-adv-x="701" 
d="M388 215h-117q37 -84 138 -84q52 0 98 23.5t66 60.5q32 4 60 -8q18 -7 27 -21q21 -28 -2 -75q-26 -51 -94 -84t-155 -33q-110 0 -187 54t-105 167h-87q-13 23 -13 49q0 21 4 33q9 28 67 28h15v41h-73q-13 23 -13 49q0 33 12.5 47t58.5 14h28q27 118 102.5 175.5
t183.5 57.5q206 0 240 -92q11 -32 -5 -62q-19 -39 -55 -48q-42 36 -77.5 50t-102.5 14q-96 0 -133 -95h226q12 -14 12 -41q0 -69 -70 -69h-188v-41h197q12 -14 12 -41q0 -69 -70 -69z" />
    <glyph glyph-name="trademark" unicode="&#x2122;" horiz-adv-x="748" 
d="M523 345q-22 0 -35.5 9.5t-23.5 38.5l-41 139l-12 -167q-3 -34 -49 -34q-31 0 -45 7l27 302q5 62 65 62q25 0 43 -7l70 -224l42 181q11 50 59 50q34 0 56 -9l55 -350q-19 -12 -50 -12q-46 0 -50 34l-18 167l-32 -138q-5 -23 -15.5 -34.5t-19.5 -13t-26 -1.5zM274 618h-78
v-280q-14 -7 -52 -7q-39 0 -39 41v246h-96q-10 20 -10 43q0 11 3 20q9 21 37 21h252q10 -15 10 -36q0 -20 -7.5 -34t-19.5 -14z" />
    <glyph glyph-name="Omega" unicode="&#x2126;" horiz-adv-x="682" 
d="M161 114l2 4q-54 33 -88.5 100.5t-34.5 147.5q0 171 84 257.5t216 86.5q137 0 219.5 -85.5t82.5 -257.5q0 -82 -32.5 -148t-90.5 -101l1 -4h126q16 -21 16 -43q0 -32 -12 -51.5t-33 -19.5h-237q-16 30 -16 77q0 58 20 61q110 16 110 225q0 110 -43 164t-111 54
q-65 0 -109.5 -53.5t-44.5 -162.5q0 -95 39 -155.5t87 -72.5q16 -21 16 -66q0 -32 -12 -51.5t-33 -19.5h-247q-16 30 -16 57q0 30 16.5 43.5t57.5 13.5h67z" />
    <glyph glyph-name="onethird" unicode="&#x2153;" horiz-adv-x="934" 
d="M602 700q33 0 46 -14.5t3 -41.5l-244 -635q-22 -11 -49 -11q-71 0 -43 74l233 621q22 7 54 7zM318 285h-270q-11 22 -11 40q0 24 9.5 36t41.5 12h62v200q-35 -22 -72 -22q-42 0 -42 44q0 23 10 39q33 2 64.5 19.5t39.5 40.5q18 7 51 7q48 0 48 -33v-295h89q11 -16 11 -37
q0 -22 -8 -36.5t-23 -14.5zM790 278q0 37 -51 37q-56 0 -102 -27q-26 21 -26 53q0 29 35.5 50.5t98.5 21.5q76 0 111.5 -31.5t35.5 -82.5q0 -32 -18.5 -58.5t-46.5 -32.5v-1q31 -4 53 -29t22 -64q0 -49 -38.5 -84.5t-115.5 -35.5q-72 0 -107.5 22t-35.5 52q0 37 31 56
q46 -42 107 -42q27 0 43 11.5t16 29.5q0 21 -12 30.5t-42 9.5h-24q-22 0 -22 38q0 22 7 35q33 1 57 11.5t24 30.5z" />
    <glyph glyph-name="twothirds" unicode="&#x2154;" horiz-adv-x="934" 
d="M602 700q33 0 46 -14.5t3 -41.5l-244 -635q-22 -11 -49 -11q-71 0 -43 74l233 621q22 7 54 7zM27 626q0 30 38 51t104 21q79 0 117 -33.5t38 -89.5q0 -53 -49.5 -106.5t-123.5 -96.5v-4l178 4q7 -12 7 -45q0 -22 -6.5 -32t-24.5 -10h-273q-9 20 -9 49q0 43 31 67
q124 94 152 130q13 17 13 28q0 43 -58 43q-60 0 -105 -33q-29 22 -29 57zM790 278q0 37 -51 37q-56 0 -102 -27q-26 21 -26 53q0 29 35.5 50.5t98.5 21.5q76 0 111.5 -31.5t35.5 -82.5q0 -32 -18.5 -58.5t-46.5 -32.5v-1q31 -4 53 -29t22 -64q0 -49 -38.5 -84.5
t-115.5 -35.5q-72 0 -107.5 22t-35.5 52q0 37 31 56q46 -42 107 -42q27 0 43 11.5t16 29.5q0 21 -12 30.5t-42 9.5h-24q-22 0 -22 38q0 22 7 35q33 1 57 11.5t24 30.5z" />
    <glyph glyph-name="oneeighth" unicode="&#x215b;" horiz-adv-x="944" 
d="M602 700q33 0 46 -14.5t3 -41.5l-244 -635q-22 -11 -49 -11q-71 0 -43 74l233 621q22 7 54 7zM318 285h-270q-11 22 -11 40q0 24 9.5 36t41.5 12h62v200q-35 -22 -72 -22q-42 0 -42 44q0 23 10 39q33 2 64.5 19.5t39.5 40.5q18 7 51 7q48 0 48 -33v-295h89q11 -16 11 -37
q0 -22 -8 -36.5t-23 -14.5zM602 123q0 62 58 95q-41 32 -41 84q0 113 138 113q143 0 143 -112q0 -47 -42 -77q61 -28 61 -105q0 -52 -39 -89.5t-114 -37.5q-82 0 -123 35t-41 94zM824 123q0 16 -12.5 27.5t-26.5 16.5t-45 14q-41 -15 -41 -57q0 -21 18.5 -34.5t46.5 -13.5
q60 0 60 47zM708 302q0 -43 66 -55q39 18 39 54q0 21 -14.5 31.5t-36.5 10.5q-24 0 -39 -10.5t-15 -30.5z" />
    <glyph glyph-name="threeeighths" unicode="&#x215c;" horiz-adv-x="941" 
d="M590 700q33 0 46 -14.5t3 -41.5l-244 -635q-22 -11 -49 -11q-71 0 -43 74l233 621q22 7 54 7zM203 563q0 37 -51 37q-56 0 -102 -27q-26 21 -26 53q0 29 35.5 50.5t98.5 21.5q76 0 111.5 -31.5t35.5 -82.5q0 -32 -18.5 -58.5t-46.5 -32.5v-1q31 -4 53 -29t22 -64
q0 -49 -38.5 -84.5t-115.5 -35.5q-72 0 -107.5 22t-35.5 52q0 37 31 56q46 -42 107 -42q27 0 43 11.5t16 29.5q0 21 -12 30.5t-42 9.5h-24q-22 0 -22 38q0 22 7 35q33 1 57 11.5t24 30.5zM590 123q0 62 58 95q-41 32 -41 84q0 113 138 113q143 0 143 -112q0 -47 -42 -77
q61 -28 61 -105q0 -52 -39 -89.5t-114 -37.5q-82 0 -123 35t-41 94zM812 123q0 16 -12.5 27.5t-26.5 16.5t-45 14q-41 -15 -41 -57q0 -21 18.5 -34.5t46.5 -13.5q60 0 60 47zM696 302q0 -43 66 -55q39 18 39 54q0 21 -14.5 31.5t-36.5 10.5q-24 0 -39 -10.5t-15 -30.5z" />
    <glyph glyph-name="fiveeighths" unicode="&#x215d;" horiz-adv-x="944" 
d="M602 700q33 0 46 -14.5t3 -41.5l-244 -635q-22 -11 -49 -11q-71 0 -43 74l233 621q22 7 54 7zM291 606h-160l-5 -69q28 7 58 7q62 0 104 -31t42 -99q0 -58 -43.5 -96.5t-117.5 -38.5q-76 0 -113.5 22t-37.5 51q0 30 36 52q49 -44 111 -44q68 0 68 57q0 51 -87 51
q-13 0 -38.5 -1.5t-45.5 -1.5q-13 0 -21 11t-7 29l10 179q19 10 59 10h207q11 -13 11 -37q0 -22 -8 -36.5t-22 -14.5zM602 123q0 62 58 95q-41 32 -41 84q0 113 138 113q143 0 143 -112q0 -47 -42 -77q61 -28 61 -105q0 -52 -39 -89.5t-114 -37.5q-82 0 -123 35t-41 94z
M824 123q0 16 -12.5 27.5t-26.5 16.5t-45 14q-41 -15 -41 -57q0 -21 18.5 -34.5t46.5 -13.5q60 0 60 47zM708 302q0 -43 66 -55q39 18 39 54q0 21 -14.5 31.5t-36.5 10.5q-24 0 -39 -10.5t-15 -30.5z" />
    <glyph glyph-name="seveneighths" unicode="&#x215e;" horiz-adv-x="870" 
d="M528 700q33 0 46 -14.5t3 -41.5l-244 -635q-22 -11 -49 -11q-71 0 -43 74l233 621q22 7 54 7zM133 285q-23 0 -32 9.5t-4 24.5l104 289h-187q-11 13 -11 45q0 17 8.5 31.5t21.5 14.5h277q7 -13 7 -33q0 -23 -10 -50l-122 -323q-16 -8 -52 -8zM528 123q0 62 58 95
q-41 32 -41 84q0 113 138 113q143 0 143 -112q0 -47 -42 -77q61 -28 61 -105q0 -52 -39 -89.5t-114 -37.5q-82 0 -123 35t-41 94zM750 123q0 16 -12.5 27.5t-26.5 16.5t-45 14q-41 -15 -41 -57q0 -21 18.5 -34.5t46.5 -13.5q60 0 60 47zM634 302q0 -43 66 -55q39 18 39 54
q0 21 -14.5 31.5t-36.5 10.5q-24 0 -39 -10.5t-15 -30.5z" />
    <glyph glyph-name="partialdiff" unicode="&#x2202;" horiz-adv-x="587" 
d="M547 440q0 -213 -79 -331.5t-196 -118.5q-108 0 -170 57.5t-62 175.5q0 144 72.5 215.5t187.5 71.5q53 0 102 -33q-5 116 -42 167.5t-108 51.5q-101 0 -152 -26q-16 28 -16 53q0 40 23 55q57 35 160 35q95 0 159.5 -52t92.5 -134t28 -187zM291 379q-43 0 -71 -36.5
t-28 -112.5q0 -58 22.5 -85t58.5 -27q38 0 74.5 61t49.5 164q-40 36 -106 36z" />
    <glyph glyph-name="Delta" unicode="&#x2206;" horiz-adv-x="657" 
d="M106 0q-59 0 -79 20l215 606q14 41 37.5 57.5t60.5 16.5q66 0 93 -72l224 -597q-18 -31 -68 -31h-483zM339 496l-123 -369h262z" />
    <glyph glyph-name="product" unicode="&#x220f;" horiz-adv-x="767" 
d="M701 562h-75v-763q-19 -13 -70 -13q-37 0 -58 14t-21 54v708h-190v-760q-16 -16 -85 -16q-28 0 -45.5 14t-17.5 54v708h-104q-16 34 -16 63q0 38 14 56.5t60 18.5h637q16 -23 16 -59q0 -35 -12 -57t-33 -22z" />
    <glyph glyph-name="summation" unicode="&#x2211;" horiz-adv-x="665" 
d="M561 -179h-529q-17 32 -17 66q0 29 12 41l268 340l-244 298q-9 28 -9 61q0 37 13.5 55t58.5 18h494q10 -14 10 -44q0 -90 -69 -90h-299l223 -268q0 -26 -23 -57l-221 -297h390q14 -14 14 -53q0 -32 -15.5 -51t-56.5 -19z" />
    <glyph glyph-name="minus" unicode="&#x2212;" horiz-adv-x="499" 
d="M388 195h-327q-16 34 -16 73q0 28 14 46.5t43 18.5h338q14 -26 14 -68q0 -70 -66 -70z" />
    <glyph glyph-name="radical" unicode="&#x221a;" horiz-adv-x="659" 
d="M24 372h248l64 -218l147 500q15 46 80 46q46 0 86 -20l-216 -664q-40 -16 -119 -16q-43 0 -65 17t-34 54l-55 171h-110q-18 0 -29 18t-11 48q0 22 14 64z" />
    <glyph glyph-name="infinity" unicode="&#x221e;" horiz-adv-x="711" 
d="M516 62q-90 0 -152 99q-31 -43 -74 -71t-91 -28q-69 0 -119 56.5t-50 144.5q0 91 48.5 151.5t120.5 60.5q93 0 158 -100q60 100 159 100q65 0 115 -53t50 -154t-46 -153.5t-119 -52.5zM208 196q63 0 100 74q-50 74 -98 74q-25 0 -42 -24t-17 -50q0 -27 17 -50.5t40 -23.5
zM507 344q-26 0 -51.5 -21.5t-43.5 -58.5q43 -68 96 -68q24 0 39 21t15 51q0 33 -15.5 54.5t-39.5 21.5z" />
    <glyph glyph-name="integral" unicode="&#x222b;" horiz-adv-x="393" 
d="M242 714q0 -124 26.5 -347.5t26.5 -320.5q0 -217 -174 -217q-111 0 -111 65q0 30 12 59h74q54 0 57 71q5 127 -24.5 359.5t-29.5 330.5q0 184 177 184q107 0 107 -66q0 -24 -10 -61h-76q-27 0 -41 -12t-14 -45z" />
    <glyph glyph-name="approxequal" unicode="&#x2248;" horiz-adv-x="484" 
d="M151 244q44 0 104.5 -17.5t91.5 -17.5q23 0 41.5 5.5t26 12t8.5 11.5q13 -6 25.5 -27t12.5 -45q0 -35 -24 -56.5t-68 -21.5q-34 0 -112 17t-114 17q-48 0 -55 -30q-35 9 -35 64q0 33 24.5 60.5t73.5 27.5zM148 457q44 0 104.5 -17.5t91.5 -17.5q23 0 41.5 5.5t26 12
t8.5 11.5q13 -6 25.5 -27t12.5 -45q0 -35 -24 -56.5t-68 -21.5q-34 0 -112 17t-114 17q-48 0 -55 -30q-35 9 -35 64q0 33 24.5 60.5t73.5 27.5z" />
    <glyph glyph-name="notequal" unicode="&#x2260;" horiz-adv-x="499" 
d="M348 542q28 0 43.5 -12t7.5 -34l-200 -519q-18 -9 -60 -9q-58 0 -35 60l191 508q16 6 53 6zM388 71h-327q-16 34 -16 73q0 28 14 46.5t43 18.5h338q14 -26 14 -68q0 -70 -66 -70zM388 287h-327q-16 34 -16 73q0 28 14 46.5t43 18.5h338q14 -26 14 -68q0 -70 -66 -70z" />
    <glyph glyph-name="lessequal" unicode="&#x2264;" horiz-adv-x="301" 
d="M57 377l151 121q12 4 29 4q18 0 30.5 -13t12.5 -29q0 -19 -22 -39l-130 -108l138 -116q7 -21 7 -28q0 -20 -16 -32t-33 -12q-25 0 -46 20l-140 118q-1 2 -5 7t-6 8.5t-4.5 9t-4 12t-1.5 13.5q0 21 8.5 33.5t31.5 30.5zM232 0h-202q-13 28 -13 52q0 53 56 53h207
q11 -17 11 -49q0 -56 -59 -56z" />
    <glyph glyph-name="greaterequal" unicode="&#x2265;" horiz-adv-x="301" 
d="M240 251l-151 -121q-15 -5 -29 -5q-18 0 -30.5 13.5t-12.5 29.5q0 19 22 39l130 107l-138 116q-7 21 -7 28q0 20 16.5 32t33.5 12q24 0 45 -20l140 -118q1 -2 5 -7t6 -8.5t4.5 -9t4 -12t1.5 -13.5q0 -21 -8.5 -33t-31.5 -30zM232 0h-202q-13 28 -13 52q0 53 56 53h207
q11 -17 11 -49q0 -56 -59 -56z" />
    <glyph glyph-name="lozenge" unicode="&#x25ca;" horiz-adv-x="447" 
d="M427 352l-136 -302q-13 -29 -33.5 -39.5t-54.5 -10.5q-33 0 -54 12l-129 350l139 288q14 28 34 39t54 11q33 0 54 -12zM162 361l63 -175l63 154l-63 174z" />
    <glyph glyph-name="asuperior" unicode="&#xf6e9;" horiz-adv-x="267" 
d="M45 527q-9 20 -9 32q0 48 90 48q104 0 104 -93v-100q0 -12 8 -12h14q5 -8 5 -24q0 -28 -56 -28q-26 0 -39 23q-39 -28 -73 -28q-36 0 -56 22t-20 61q0 36 23 57.5t66 22.5l54 -1q-6 28 -37 28q-47 0 -74 -8zM105 412q28 0 53 13v29l-50 -5q-22 -3 -22 -20t19 -17z" />
    <glyph glyph-name="bsuperior" unicode="&#xf6ea;" horiz-adv-x="276" 
d="M104 670v-85q29 22 56 22q46 0 71 -32t25 -92q0 -67 -35 -102.5t-90 -35.5t-92 27q-13 9 -13 25v294q18 9 39 9q39 0 39 -30zM137 526q-17 0 -33 -6v-93q13 -9 31 -9q20 0 30.5 15.5t10.5 38.5q0 54 -39 54z" />
    <glyph glyph-name="dsuperior" unicode="&#xf6eb;" horiz-adv-x="296" 
d="M236 350q-29 0 -46 19q-27 -24 -72 -24q-40 0 -69 31.5t-29 93.5q0 65 30.5 101t73.5 36q28 0 49 -13v79q0 27 33 27q29 0 45 -10v-267q0 -16 13 -16h17q5 -20 5 -24q0 -33 -50 -33zM139 418q22 0 34 5v94q-12 7 -35 7q-16 0 -26.5 -13t-10.5 -37q0 -56 38 -56z" />
    <glyph glyph-name="esuperior" unicode="&#xf6ec;" horiz-adv-x="267" 
d="M244 451h-141q10 -35 47 -35q57 0 83 16q14 -12 14 -31q0 -24 -19 -34q-32 -22 -86 -22q-58 0 -90 37.5t-32 97.5q0 58 37 92.5t89 34.5q48 0 75.5 -30.5t27.5 -83.5q0 -27 -5 -42zM145 537q-12 0 -24 -9.5t-18 -25.5h74q0 35 -32 35z" />
    <glyph glyph-name="isuperior" unicode="&#xf6ed;" horiz-adv-x="169" 
d="M67 602q27 0 43.5 -13t16.5 -50v-116q0 -16 11 -16h18q4 -8 4 -23q0 -34 -59 -34q-29 0 -43 13t-14 47v107q0 16 -13 16h-15q-4 9 -4 28q0 41 55 41zM32 665q0 44 45 44q46 0 46 -44q0 -43 -46 -43q-45 0 -45 43z" />
    <glyph glyph-name="lsuperior" unicode="&#xf6ee;" horiz-adv-x="167" 
d="M106 666v-229q0 -24 20 -24h31q4 -12 4 -22q0 -41 -75 -41q-61 0 -61 70v269q17 13 40 12q41 -1 41 -35z" />
    <glyph glyph-name="msuperior" unicode="&#xf6ef;" horiz-adv-x="455" 
d="M77 602q18 0 34.5 -10.5t22.5 -29.5q35 45 79 45q40 0 55 -41q38 41 79 41q29 0 48.5 -19t19.5 -59v-115q0 -13 11 -13h16q3 -4 3 -17q0 -34 -63 -34q-27 0 -39 11.5t-12 39.5v105q0 17 -16 17q-22 0 -41 -10v-99q0 -13 10 -13h16q3 -5 3 -18q0 -33 -67 -33q-48 0 -48 51
v105q0 17 -16 17q-14 0 -34 -9v-156q-13 -8 -48 -8q-41 0 -41 41v126q0 16 -14 16h-15q-7 16 -7 31q0 38 64 38z" />
    <glyph glyph-name="osuperior" unicode="&#xf6f0;" horiz-adv-x="292" 
d="M20 475q0 67 35 99.5t91 32.5q57 0 91.5 -32.5t34.5 -99.5t-34.5 -98.5t-91.5 -31.5q-56 0 -91 32.5t-35 97.5zM108 474q0 -30 11 -44.5t27 -14.5q37 0 37 59q0 61 -37 61q-38 0 -38 -61z" />
    <glyph glyph-name="rsuperior" unicode="&#xf6f1;" horiz-adv-x="252" 
d="M67 602q46 0 58 -28q35 33 69 33q52 0 52 -58q0 -65 -53 -65q-18 0 -29 9q0 24 -14 24q-16 0 -19 -1v-158q-9 -9 -46 -9q-38 0 -38 38v131q0 15 -13 15h-18q-6 17 -6 33q0 14 16 25t41 11z" />
    <glyph glyph-name="ssuperior" unicode="&#xf6f2;" horiz-adv-x="241" 
d="M123 607q47 0 69 -14.5t22 -33.5q0 -31 -9 -43q-30 13 -83 13q-27 0 -27 -9q0 -10 34 -12q49 -6 71.5 -25t22.5 -55q0 -39 -25 -61t-74 -22q-106 0 -106 48q0 26 12 41q40 -17 88 -17q30 0 30 9q0 10 -39 13q-50 6 -68 25.5t-18 57.5q0 40 25.5 62.5t74.5 22.5z" />
    <glyph glyph-name="tsuperior" unicode="&#xf6f3;" horiz-adv-x="215" 
d="M166 538h-36v-98q0 -24 21 -24h44q6 -14 6 -23q0 -43 -80 -43q-69 0 -69 75v113h-32q-7 14 -7 28q0 36 27 36h12v50q14 9 43 9q35 0 35 -31v-28h58q9 -8 9 -25q0 -39 -31 -39z" />
    <glyph glyph-name="exclam.sc" unicode="&#xf721;" horiz-adv-x="235" 
d="M113 554q73 0 73 -45v-327q-16 -16 -70 -16q-68 0 -68 72v304q18 12 65 12zM53 63q0 64 65 64q66 0 66 -64q0 -63 -66 -63q-65 0 -65 63z" />
    <glyph glyph-name="dollar.osf" unicode="&#xf724;" horiz-adv-x="571" 
d="M301 823q22 0 32.5 -9t9.5 -30l-2 -77q90 -8 137 -54q26 -26 26 -65q0 -30 -27 -70q-59 30 -138 36l-3 -148q105 -25 150 -68t47 -133q2 -88 -49 -145.5t-155 -67.5l-1 -114q-15 -9 -49 -9q-26 0 -38.5 12.5t-11.5 46.5v64q-108 7 -159 47q-36 27 -36 74q0 40 19 72
q72 -38 179 -47l2 142q-103 23 -148 72t-45 145q0 88 52.5 144t148.5 66l2 103q21 13 57 13zM384 197q0 41 -50 59l-2 -115q52 14 52 56zM189 495q0 -38 48 -61l2 116q-50 -12 -50 -55z" />
    <glyph glyph-name="ampersand.sc" unicode="&#xf726;" horiz-adv-x="670" 
d="M580 240h-56q-14 -58 -37 -100q19 -3 41 -3h91q14 -22 14 -63q0 -74 -93 -74q-76 0 -147 33q-63 -41 -149 -41q-88 0 -140.5 54.5t-52.5 129.5q0 120 111 166q0 4 -0.5 12t-0.5 12q0 95 48 140t144 45q78 0 111.5 -17t33.5 -53q0 -43 -13 -65h-116q-36 0 -51.5 -13.5
t-15.5 -48.5q0 -51 23 -97t65 -77q25 28 38 60h-66q-12 24 -12 55q0 63 57 63h198q15 -22 15 -57q0 -61 -40 -61zM280 112q-57 55 -90 130q-17 -19 -17 -61q0 -27 22 -49t58 -22q18 0 27 2z" />
    <glyph glyph-name="question.sc" unicode="&#xf73f;" horiz-adv-x="431" 
d="M260 360q0 25 -14 37t-47 12q-65 0 -128 -42q-37 31 -37 80q0 41 46 69t128 28q99 0 144.5 -41.5t45.5 -105.5q0 -60 -36 -102.5t-121 -53.5l8 -69q-13 -17 -62 -17q-25 0 -40.5 12.5t-17.5 33.5l-5 67q-2 31 13 49q41 1 82 11.5t41 31.5zM130 63q0 64 66 64q65 0 65 -64
q0 -63 -65 -63q-66 0 -66 63z" />
    <glyph glyph-name="a.sc" unicode="&#xf761;" horiz-adv-x="570" 
d="M85 0q-49 0 -67 18l191 514q36 21 81 21q54 0 71 -43l191 -482q-16 -28 -70 -28q-61 0 -80 56l-17 41h-204l-18 -52q-8 -25 -25.5 -35t-52.5 -10zM278 384l-57 -176h120z" />
    <glyph glyph-name="b.sc" unicode="&#xf762;" horiz-adv-x="567" 
d="M138 553h174q35 0 66 -8.5t58.5 -27t43.5 -53.5t16 -82q0 -48 -33 -84q69 -47 69 -143q0 -76 -53 -115.5t-129 -39.5h-214q-32 0 -49.5 12t-17.5 48v483q17 10 69 10zM311 227h-105v-120h103q45 0 65.5 12.5t20.5 42.5q0 32 -23 48.5t-61 16.5zM294 444h-88v-112h85
q75 2 75 57q0 26 -21.5 40.5t-50.5 14.5z" />
    <glyph glyph-name="c.sc" unicode="&#xf763;" horiz-adv-x="517" 
d="M446 154q19 0 35.5 -14t16.5 -41q0 -24 -10.5 -40t-36.5 -33q-58 -34 -157 -34q-115 0 -187 70.5t-72 212.5q0 147 69.5 216.5t183.5 69.5q46 0 77.5 -4.5t45 -9.5t36.5 -17q40 -24 40 -68q0 -46 -37 -69q-75 41 -156 41q-123 0 -123 -162q0 -86 37 -122.5t94 -36.5
q78 0 144 41z" />
    <glyph glyph-name="d.sc" unicode="&#xf764;" horiz-adv-x="576" 
d="M138 553h119q284 0 284 -290q0 -136 -74 -199.5t-202 -63.5h-129q-32 0 -49.5 12t-17.5 48v482q19 11 69 11zM255 430h-49v-316h55q142 0 142 146q0 90 -40.5 130t-107.5 40z" />
    <glyph glyph-name="e.sc" unicode="&#xf765;" horiz-adv-x="512" 
d="M399 217h-193v-92h254q15 -23 15 -53q0 -31 -11 -51.5t-29 -20.5h-308q-27 0 -42.5 12t-15.5 48v481q21 12 64 12h327q15 -23 15 -53q0 -31 -11 -51.5t-29 -20.5h-229v-87h215q15 -22 15 -60q0 -30 -10 -47t-27 -17z" />
    <glyph glyph-name="f.sc" unicode="&#xf766;" horiz-adv-x="498" 
d="M399 210h-193v-196q-12 -14 -79 -14q-27 0 -42.5 12t-15.5 48v481q21 12 64 12h316q15 -23 15 -53q0 -32 -11 -52t-30 -20h-217v-93h219q15 -25 15 -54q0 -31 -11 -51t-30 -20z" />
    <glyph glyph-name="g.sc" unicode="&#xf767;" horiz-adv-x="561" 
d="M407 211h-129q-14 28 -14 53q0 11 2 19t8.5 15.5t20.5 11.5t36 4h107q50 0 65.5 -20t15.5 -76v-207q-21 -11 -61 -11q-25 0 -38 10t-13 39v1q-51 -58 -131 -58q-105 0 -173 71t-68 212q0 148 72.5 217t200.5 69q90 0 134 -32t44 -70q0 -45 -51 -60q-26 25 -54 34t-72 9
q-65 0 -106 -39.5t-41 -130.5q0 -86 39 -128.5t90 -42.5q75 0 116 66v44z" />
    <glyph glyph-name="h.sc" unicode="&#xf768;" horiz-adv-x="605" 
d="M473 553q63 0 63 -45v-497q-16 -11 -64 -11q-35 0 -54.5 12.5t-19.5 48.5v165h-192v-212q-14 -14 -79 -14q-26 0 -42 12.5t-16 48.5v481q22 11 75 11q62 0 62 -45v-159h192v193q24 11 75 11z" />
    <glyph glyph-name="i.sc" unicode="&#xf769;" horiz-adv-x="275" 
d="M145 553q61 0 61 -45v-494q-28 -14 -75 -14q-62 0 -62 61v481q24 11 76 11z" />
    <glyph glyph-name="j.sc" unicode="&#xf76a;" horiz-adv-x="367" 
d="M239 553q59 0 59 -49v-368q0 -66 -35.5 -101t-99.5 -35q-140 0 -140 74q0 29 9 45h88q51 0 51 37v386q22 11 68 11z" />
    <glyph glyph-name="k.sc" unicode="&#xf76b;" horiz-adv-x="544" 
d="M140 553q62 0 62 -44v-174q55 44 101 104.5t58 103.5q20 10 59 10q20 0 35.5 -14t15.5 -33q0 -28 -11 -47q-56 -101 -133 -162q20 -18 46.5 -66t50 -82.5t46.5 -34.5h34q11 -11 11 -43q0 -33 -22 -52t-66 -19q-38 0 -66.5 24.5t-43.5 55.5l-39 78.5t-46 76.5l-30 -15
v-207q-24 -13 -75 -13q-29 0 -43.5 13t-14.5 47v481q27 12 71 12z" />
    <glyph glyph-name="l.sc" unicode="&#xf76c;" horiz-adv-x="465" 
d="M136 553q70 0 70 -44v-384h226q15 -23 15 -53q0 -72 -70 -72h-250q-58 0 -58 57v485q24 11 67 11z" />
    <glyph glyph-name="m.sc" unicode="&#xf76d;" horiz-adv-x="748" 
d="M370 21q-32 0 -52 14t-34 57l-72 222l-17 -264q-3 -50 -73 -50q-46 0 -65 10l41 452q3 42 27.5 66.5t67.5 24.5q32 0 64 -10l112 -336l70 272q10 40 31 57t55 17q51 0 84 -13l82 -522q-25 -18 -73 -18q-69 0 -74 50l-27 263l-56 -220q-8 -33 -24 -50t-29 -19.5t-38 -2.5z
" />
    <glyph glyph-name="n.sc" unicode="&#xf76e;" horiz-adv-x="609" 
d="M408 34l-208 279l6 -300q-14 -14 -79 -14q-26 0 -42 12.5t-16 48.5v481q25 12 74 12q41 0 64 -35l203 -281l-3 300q20 17 67 17q28 0 49.5 -10.5t21.5 -34.5v-498q-20 -11 -71 -11q-40 0 -66 34z" />
    <glyph glyph-name="o.sc" unicode="&#xf76f;" horiz-adv-x="579" 
d="M35 275q0 146 70.5 216t182.5 70q116 0 186 -69.5t70 -216.5q0 -144 -70.5 -213.5t-184.5 -69.5q-113 0 -183.5 70.5t-70.5 212.5zM171 272q0 -86 35 -127t83 -41q118 0 118 168q0 91 -33.5 132t-85.5 41q-49 0 -83 -41.5t-34 -131.5z" />
    <glyph glyph-name="p.sc" unicode="&#xf770;" horiz-adv-x="542" 
d="M138 553h174q35 0 66 -8.5t58.5 -27t43.5 -53.5t16 -82t-13 -82.5t-32.5 -55.5t-46.5 -32t-50 -16t-49 -4h-99v-181q-20 -11 -76 -11q-61 0 -61 60v483q24 10 69 10zM294 445h-88v-140h79q81 0 81 66q0 38 -21 56t-51 18z" />
    <glyph glyph-name="r.sc" unicode="&#xf772;" horiz-adv-x="577" 
d="M138 553h174q75 0 129 -40t54 -125q0 -55 -31 -95t-80 -60q9 -12 26.5 -38.5t28 -41t26 -27t30.5 -12.5h34q11 -13 11 -43q0 -33 -22.5 -52t-66.5 -19q-38 0 -65.5 22t-41.5 50l-36.5 72.5t-43.5 72.5h-58v-205q-19 -12 -70 -12q-32 0 -49.5 12t-17.5 48v483q20 10 69 10
zM294 448h-88v-129h77q40 0 61 18t21 49q0 26 -21.5 44t-49.5 18z" />
    <glyph glyph-name="s.sc" unicode="&#xf773;" horiz-adv-x="495" 
d="M249 561q111 0 159 -44q24 -23 24 -58q0 -25 -23 -63q-62 26 -159 26q-72 0 -72 -38t88 -52q104 -19 146.5 -53t44.5 -112q2 -77 -50 -126t-158 -49q-130 0 -184 39q-29 21 -29 63q0 34 17 64q88 -34 191 -34q28 0 46 6.5t23 14t5 15.5q0 18 -18 28.5t-75 17.5
q-98 14 -141.5 55t-43.5 125q0 82 55 128.5t154 46.5z" />
    <glyph glyph-name="t.sc" unicode="&#xf774;" horiz-adv-x="488" 
d="M435 428h-123v-417q-22 -11 -76 -11q-58 0 -58 60v368h-150q-15 34 -15 63q0 62 60 62h388q14 -21 14 -53t-10.5 -52t-29.5 -20z" />
    <glyph glyph-name="u.sc" unicode="&#xf775;" horiz-adv-x="573" 
d="M379 216v326q19 11 70 11q68 0 68 -45l1 -306q0 -210 -232 -210q-225 0 -225 210l-1 340q16 11 71 11q66 0 66 -44v-293q0 -105 89 -105q50 0 71.5 26t21.5 79z" />
    <glyph glyph-name="v.sc" unicode="&#xf776;" horiz-adv-x="552" 
d="M99 553q55 0 70 -43l125 -325q52 85 82 188.5t34 165.5q31 14 75 14q20 0 35 -9.5t15 -24.5q0 -29 -10 -76q-12 -54 -61.5 -177t-131.5 -257q-28 -9 -56 -9q-47 0 -65 51l-194 487q27 15 82 15z" />
    <glyph glyph-name="w.sc" unicode="&#xf777;" horiz-adv-x="823" 
d="M405 553q56 0 71 -43l114 -325q27 44 45.5 95.5t27 109.5t11 81t5.5 68q33 14 76 14q20 0 35 -9.5t15 -24.5q0 -24 -10 -76l-3 -17q-4 -16 -6 -25t-7.5 -31l-10 -38.5t-13 -43.5t-17 -49.5t-21 -52t-25.5 -57t-30 -59t-35 -61.5q-27 -9 -55 -9q-47 0 -65 51l-71 187
q-55 -134 -112 -227q-23 -9 -55 -9q-47 0 -66 51l-185 485q27 15 82 15q56 0 71 -43l116 -323q48 78 86 218l-50 133q27 15 82 15z" />
    <glyph glyph-name="x.sc" unicode="&#xf778;" horiz-adv-x="575" 
d="M103 553q40 0 63 -14.5t48 -48.5l73 -99l85 115q29 47 96 47q58 0 75 -26l-175 -244l194 -261q-18 -13 -36.5 -17.5t-56.5 -4.5q-31 0 -62 15.5t-51 43.5l-85 113l-93 -133q-24 -39 -94 -39q-47 0 -71 24l174 261l-175 235q27 33 91 33z" />
    <glyph glyph-name="y.sc" unicode="&#xf779;" horiz-adv-x="507" 
d="M331 197v-183q-22 -14 -76 -14q-60 0 -60 41v149l-75.5 122.5t-59 110t-45.5 114.5q30 16 75 16q28 0 43 -9t23 -34q21 -77 110 -219q84 143 114 256q21 6 65 6q21 0 34 -12.5t13 -33.5q0 -37 -52 -132.5t-109 -177.5z" />
    <glyph glyph-name="z.sc" unicode="&#xf77a;" horiz-adv-x="523" 
d="M466 439l-255 -329h280q11 -22 11 -54q0 -56 -51 -56h-419q-11 18 -11 47q0 35 20 61l253 324h-236q-15 32 -15 60q0 24 11.5 42.5t31.5 18.5h397q9 -13 9 -44q0 -35 -26 -70z" />
    <glyph glyph-name="exclamdown.sc" unicode="&#xf7a1;" horiz-adv-x="235" 
d="M121 0q-73 0 -73 45v327q16 16 70 16q68 0 68 -72v-304q-18 -12 -65 -12zM181 491q0 -64 -65 -64q-66 0 -66 64q0 63 66 63q65 0 65 -63z" />
    <glyph glyph-name="cent.osf" unicode="&#xf7a2;" horiz-adv-x="476" 
d="M424 420q0 -36 -32 -73q-55 13 -68 15l-6 -238q57 10 93 29q17 -21 17 -60q0 -49 -39 -74q-28 -17 -74 -25l-3 -93q-11 -11 -54 -11q-20 1 -30.5 9.5t-9.5 32.5l2 62q-85 16 -132.5 82.5t-47.5 167.5q0 122 55.5 186t137.5 77l3 89q17 10 46 9q23 -1 36 -10t12 -31
l-3 -59q32 -5 68 -28q29 -19 29 -57zM164 243q0 -84 59 -113l6 231q-65 -22 -65 -118z" />
    <glyph glyph-name="questiondown.sc" unicode="&#xf7bf;" horiz-adv-x="431" 
d="M171 184q0 -25 14 -37t47 -12q65 0 128 42q37 -31 37 -80q0 -41 -46 -69t-128 -28q-99 0 -144.5 41.5t-45.5 105.5q0 60 36 102.5t121 53.5l-8 69q13 17 62 17q25 0 40.5 -12.5t17.5 -33.5l5 -67q2 -31 -13 -49q-41 -1 -82 -11.5t-41 -31.5zM301 481q0 -64 -66 -64
q-65 0 -65 64q0 63 65 63q66 0 66 -63z" />
    <glyph glyph-name="Euro.lf" horiz-adv-x="701" 
d="M388 215h-117q37 -84 138 -84q52 0 98 23.5t66 60.5q32 4 60 -8q18 -7 27 -21q21 -28 -2 -75q-26 -51 -94 -84t-155 -33q-110 0 -187 54t-105 167h-87q-13 23 -13 49q0 21 4 33q9 28 67 28h15v41h-73q-13 23 -13 49q0 33 12.5 47t58.5 14h28q27 118 102.5 175.5
t183.5 57.5q206 0 240 -92q11 -32 -5 -62q-19 -39 -55 -48q-42 36 -77.5 50t-102.5 14q-96 0 -133 -95h226q12 -14 12 -41q0 -69 -70 -69h-188v-41h197q12 -14 12 -41q0 -69 -70 -69z" />
    <glyph glyph-name="Euro.sc" horiz-adv-x="614" 
d="M329 160h-79q31 -38 100 -38q42 0 79 18t54 48q31 4 58 -8q17 -8 25 -20q18 -24 -2 -68q-23 -45 -82 -71t-132 -26q-90 0 -155.5 40.5t-90.5 124.5h-73q-13 22 -12 46q0 20 4 31q9 23 61 23h7v23h-60q-12 20 -12 45q0 30 11 42.5t54 12.5h19q24 91 87.5 134.5t152.5 43.5
q181 0 209 -81q8 -27 -7 -56q-18 -36 -51 -45q-38 32 -66 43t-85 11q-66 0 -95 -50h177q12 -12 12 -37q0 -63 -63 -63h-145v-23h152q11 -13 11 -37q0 -63 -63 -63z" />
    <glyph glyph-name="Euro.tf" horiz-adv-x="650" 
d="M354 215h-117q37 -84 138 -84q52 0 98 23.5t66 60.5q32 4 60 -8q18 -7 27 -21q21 -28 -2 -75q-26 -51 -94 -84t-155 -33q-110 0 -187 54t-105 167h-87q-13 23 -13 49q0 21 4 33q9 28 67 28h15v41h-73q-13 23 -13 49q0 33 12.5 47t58.5 14h28q27 118 102.5 175.5
t183.5 57.5q206 0 240 -92q11 -32 -5 -62q-19 -39 -55 -48q-42 36 -77.5 50t-102.5 14q-96 0 -133 -95h226q12 -14 12 -41q0 -69 -70 -69h-188v-41h197q12 -14 12 -41q0 -69 -70 -69z" />
    <glyph glyph-name="Euro.tosf" horiz-adv-x="650" 
d="M354 215h-117q37 -84 138 -84q52 0 98 23.5t66 60.5q32 4 60 -8q18 -7 27 -21q21 -28 -2 -75q-26 -51 -94 -84t-155 -33q-110 0 -187 54t-105 167h-87q-13 23 -13 49q0 21 4 33q9 28 67 28h15v41h-73q-13 23 -13 49q0 33 12.5 47t58.5 14h28q27 118 102.5 175.5
t183.5 57.5q206 0 240 -92q11 -32 -5 -62q-19 -39 -55 -48q-42 36 -77.5 50t-102.5 14q-96 0 -133 -95h226q12 -14 12 -41q0 -69 -70 -69h-188v-41h197q12 -14 12 -41q0 -69 -70 -69z" />
    <glyph glyph-name="Idotaccent.sc" horiz-adv-x="275" 
d="M145 553q61 0 61 -45v-494q-28 -14 -75 -14q-62 0 -62 61v481q24 11 76 11zM66 687q0 72 72 72t72 -72t-72 -72t-72 72z" />
    <glyph glyph-name="Ldot.latn_CAT" horiz-adv-x="539" 
d="M153 700q30 0 52.5 -11.5t22.5 -38.5v-512h280q16 -23 16 -59q0 -79 -76 -79h-305q-63 0 -63 64v624q28 12 73 12zM337 352q0 72 72 72t72 -72t-72 -72t-72 72z" />
    <glyph glyph-name="S_S" horiz-adv-x="1160" 
d="M291 710q134 0 193 -57q26 -26 26 -65q0 -30 -27 -70q-72 38 -191 38q-97 0 -97 -61q0 -27 25.5 -47t92.5 -35q122 -26 173 -69t53 -139q2 -97 -59.5 -156t-187.5 -59q-151 0 -216 49q-36 27 -36 74q0 40 19 72q96 -49 228 -49q56 0 79.5 18t23.5 43q0 30 -24 47t-97 30
q-120 21 -171 71.5t-51 151.5q0 98 64 155.5t180 57.5zM871 710q134 0 193 -57q26 -26 26 -65q0 -30 -27 -70q-72 38 -191 38q-97 0 -97 -61q0 -27 25.5 -47t92.5 -35q122 -26 173 -69t53 -139q2 -97 -59.5 -156t-187.5 -59q-151 0 -216 49q-36 27 -36 74q0 40 19 72
q96 -49 228 -49q56 0 79.5 18t23.5 43q0 30 -24 47t-97 30q-120 21 -171 71.5t-51 151.5q0 98 64 155.5t180 57.5z" />
    <glyph glyph-name="T_h" horiz-adv-x="1019" 
d="M530 68v494h-171v-550q-23 -12 -82 -12q-62 0 -62 67v495h-189q-16 34 -16 70q0 68 66 68h576q19 -15 19 -61v-192q61 63 138 63q144 0 144 -174v-216q0 -24 17 -24h27q7 -11 7 -34q0 -27 -28.5 -44.5t-83.5 -17.5q-82 0 -82 97v200q0 66 -57 66q-38 0 -82 -32v-318
q-21 -13 -75 -13q-66 0 -66 68z" />
    <glyph glyph-name="Tbar_h" horiz-adv-x="1019" 
d="M422 259h-63v-247q-23 -12 -82 -12q-62 0 -62 67v192h-119q-16 34 -16 68q0 33 13.5 51.5t49.5 18.5h72v165h-189q-16 34 -16 70q0 68 66 68h576q19 -15 19 -61v-192q61 63 138 63q144 0 144 -174v-216q0 -24 17 -24h27q7 -11 7 -34q0 -27 -28.5 -44.5t-83.5 -17.5
q-82 0 -82 97v200q0 66 -57 66q-38 0 -82 -32v-318q-21 -13 -75 -13q-66 0 -66 68v494h-171v-165h116q14 -21 14 -65q0 -36 -14 -54.5t-53 -18.5z" />
    <glyph glyph-name="Tcaron_h" horiz-adv-x="1019" 
d="M530 68v494h-171v-550q-23 -12 -82 -12q-62 0 -62 67v495h-189q-16 34 -16 70q0 68 66 68h576q19 -15 19 -61v-192q61 63 138 63q144 0 144 -174v-216q0 -24 17 -24h27q7 -11 7 -34q0 -27 -28.5 -44.5t-83.5 -17.5q-82 0 -82 97v200q0 66 -57 66q-38 0 -82 -32v-318
q-21 -13 -75 -13q-66 0 -66 68zM284 740q-13 0 -25 6q-29 12 -86 58.5t-70 54.5q1 23 20.5 39.5t42.5 16.5q37 0 120 -81q83 81 120 81q22 0 42 -17t21 -39q-12 -8 -69.5 -54.5t-87.5 -58.5q-17 -7 -28 -6z" />
    <glyph glyph-name="Tcommaaccent_h" horiz-adv-x="1019" 
d="M530 68v494h-171v-550q-23 -12 -82 -12q-62 0 -62 67v495h-189q-16 34 -16 70q0 68 66 68h576q19 -15 19 -61v-192q61 63 138 63q144 0 144 -174v-216q0 -24 17 -24h27q7 -11 7 -34q0 -27 -28.5 -44.5t-83.5 -17.5q-82 0 -82 97v200q0 66 -57 66q-38 0 -82 -32v-318
q-21 -13 -75 -13q-66 0 -66 68zM291 -202q-36 0 -52 17.5t-16 54.5q0 72 72 72q77 0 77 -102q0 -81 -22 -121.5t-55 -40.5q-39 0 -43 28q17 9 28 41t11 51z" />
    <glyph glyph-name="aacute.sc" horiz-adv-x="570" 
d="M85 0q-49 0 -67 18l191 514q36 21 81 21q54 0 71 -43l191 -482q-16 -28 -70 -28q-61 0 -80 56l-17 41h-204l-18 -52q-8 -25 -25.5 -35t-52.5 -10zM278 384l-57 -176h120zM166 652q8 3 41.5 36.5t71 63.5t62.5 30q59 0 63 -56q-17 -10 -55.5 -43t-71.5 -54.5t-56 -21.5
q-21 0 -36 12t-19 33z" />
    <glyph glyph-name="abreve.sc" horiz-adv-x="570" 
d="M85 0q-49 0 -67 18l191 514q36 21 81 21q54 0 71 -43l191 -482q-16 -28 -70 -28q-61 0 -80 56l-17 41h-204l-18 -52q-8 -25 -25.5 -35t-52.5 -10zM278 384l-57 -176h120zM211 764q2 -22 15 -38q19 -22 59 -22q37 0 53 18q10 10 19 38q16 13 54 11q24 -1 33.5 -14.5
t4.5 -31.5q-16 -52 -48 -77q-40 -32 -115 -32q-78 0 -122 34q-38 29 -46 82q-4 36 37 40q31 3 56 -8z" />
    <glyph glyph-name="acircumflex.sc" horiz-adv-x="570" 
d="M85 0q-49 0 -67 18l191 514q36 21 81 21q54 0 71 -43l191 -482q-16 -28 -70 -28q-61 0 -80 56l-17 41h-204l-18 -52q-8 -25 -25.5 -35t-52.5 -10zM278 384l-57 -176h120zM462 654q-5 -29 -29 -40q-10 -5 -26 -5t-39.5 12.5t-38.5 23.5t-44 35q-88 -71 -122 -71
q-16 0 -26 5q-24 11 -29 40q9 3 41.5 36t70 63.5t62.5 30.5q26 0 64 -30t71.5 -63t44.5 -37z" />
    <glyph glyph-name="adieresis.sc" horiz-adv-x="570" 
d="M85 0q-49 0 -67 18l191 514q36 21 81 21q54 0 71 -43l191 -482q-16 -28 -70 -28q-61 0 -80 56l-17 41h-204l-18 -52q-8 -25 -25.5 -35t-52.5 -10zM278 384l-57 -176h120zM107 701q0 72 72 72t72 -72t-72 -72t-72 72zM311 701q0 72 72 72t72 -72t-72 -72t-72 72z" />
    <glyph glyph-name="ae.sc" horiz-adv-x="800" 
d="M723 0h-308q-26 0 -42 12t-16 48v37h-167l-20 -52q-8 -25 -26 -35t-52 -10q-56 0 -74 18l210 513q31 22 83 22h437q15 -19 15 -53q0 -32 -10.5 -52t-29.5 -20h-229v-87h215q15 -19 15 -60q0 -30 -9.5 -47t-26.5 -17h-194v-92h254q15 -19 15 -53q0 -32 -10.5 -52
t-29.5 -20zM322 428l-86 -216h121v216h-35z" />
    <glyph glyph-name="aeacute.sc" horiz-adv-x="800" 
d="M723 0h-308q-26 0 -42 12t-16 48v37h-167l-20 -52q-8 -25 -26 -35t-52 -10q-56 0 -74 18l210 513q31 22 83 22h437q15 -19 15 -53q0 -32 -10.5 -52t-29.5 -20h-229v-87h215q15 -19 15 -60q0 -30 -9.5 -47t-26.5 -17h-194v-92h254q15 -19 15 -53q0 -32 -10.5 -52
t-29.5 -20zM322 428l-86 -216h121v216h-35zM368 652q8 3 41.5 36.5t71 63.5t62.5 30q59 0 63 -56q-17 -10 -55.5 -43t-71.5 -54.5t-56 -21.5q-21 0 -36 12t-19 33z" />
    <glyph glyph-name="agrave.sc" horiz-adv-x="570" 
d="M85 0q-49 0 -67 18l191 514q36 21 81 21q54 0 71 -43l191 -482q-16 -28 -70 -28q-61 0 -80 56l-17 41h-204l-18 -52q-8 -25 -25.5 -35t-52.5 -10zM278 384l-57 -176h120zM401 649q-4 -21 -19 -33t-36 -12q-23 0 -56 21.5t-71.5 54.5t-55.5 43q4 56 63 56q25 0 62.5 -30
t71 -63.5t41.5 -36.5z" />
    <glyph glyph-name="amacron.sc" horiz-adv-x="570" 
d="M85 0q-49 0 -67 18l191 514q36 21 81 21q54 0 71 -43l191 -482q-16 -28 -70 -28q-61 0 -80 56l-17 41h-204l-18 -52q-8 -25 -25.5 -35t-52.5 -10zM278 384l-57 -176h120zM388 628h-262q-16 25 -16 47q0 29 14 43t60 14h262q14 -16 14 -39q0 -25 -16 -45t-56 -20z" />
    <glyph glyph-name="aogonek.sc" horiz-adv-x="570" 
d="M445 7q-15 4 -24 14t-19 35l-17 41h-204l-18 -52q-8 -25 -25.5 -35t-52.5 -10q-49 0 -67 18l191 514q36 21 81 21q54 0 71 -43l194 -489q-35 -20 -53.5 -49.5t-18.5 -53.5q0 -19 10.5 -26.5t35.5 -7.5q8 -15 8 -34q0 -39 -51 -39q-39 0 -61 23.5t-22 61.5q0 60 42 111z
M278 368l-57 -160h120z" />
    <glyph glyph-name="aring.sc" horiz-adv-x="570" 
d="M85 0q-49 0 -67 18l191 514q36 21 81 21q54 0 71 -43l191 -482q-16 -28 -70 -28q-61 0 -80 56l-17 41h-204l-18 -52q-8 -25 -25.5 -35t-52.5 -10zM278 384l-57 -176h120zM186 704q0 94 94 94t94 -94t-94 -94t-94 94zM245 704q0 -35 35 -35t35 35t-35 35t-35 -35z" />
    <glyph glyph-name="at.case" horiz-adv-x="848" 
d="M626 -29q28 -18 28 -50q0 -37 -40 -58q-63 -33 -180 -33q-188 0 -298.5 108t-110.5 294q0 171 112 281.5t287 110.5q178 0 288.5 -106.5t110.5 -276.5q0 -121 -59.5 -181t-160.5 -60q-87 0 -108 62q-76 -60 -145 -60q-52 0 -83 39t-31 105q0 115 145 121l107 5
q-10 52 -64 52q-85 0 -133 -16q-13 16 -13 54q0 30 30 50.5t63 27t62 5.5q163 -3 163 -156v-170q0 -26 34 -26q74 0 74 151q0 114 -77.5 187.5t-202.5 73.5q-120 0 -200 -79t-80 -195q0 -136 77.5 -210t213.5 -74q121 0 191 24zM387 111q47 0 103 31v46l-101 -12
q-38 -5 -38 -32q0 -33 36 -33z" />
    <glyph glyph-name="atilde.sc" horiz-adv-x="570" 
d="M85 0q-49 0 -67 18l191 514q36 21 81 21q54 0 71 -43l191 -482q-16 -28 -70 -28q-61 0 -80 56l-17 41h-204l-18 -52q-8 -25 -25.5 -35t-52.5 -10zM278 384l-57 -176h120zM201 751q35 0 83 -14t73 -14q27 0 42.5 8t17.5 15q11 -4 20.5 -21t9.5 -36q0 -28 -19 -45t-54 -17
q-27 0 -89 13.5t-90 13.5q-39 0 -44 -24q-28 8 -28 51q0 26 19.5 48t58.5 22z" />
    <glyph glyph-name="braceleft.case" horiz-adv-x="391" 
d="M238 761q123 0 123 -83q0 -25 -7 -46h-87q-52 0 -52 -57v-133q0 -48 -17.5 -68.5t-35.5 -22.5v-7q9 -1 20 -8.5t22 -30t11 -54.5v-113q0 -65 51 -65h87q8 -14 8 -42q0 -41 -30.5 -61.5t-101.5 -20.5q-55 0 -98 31.5t-43 96.5v157q0 32 -10.5 43.5t-29.5 14.5
q-28 3 -28 58q0 37 8 48q60 2 60 54v155q0 83 42.5 118.5t107.5 35.5z" />
    <glyph glyph-name="braceright.case" horiz-adv-x="391" 
d="M143 -55q-123 0 -123 83q0 25 7 46h87q52 0 52 57v133q0 48 17.5 68.5t35.5 22.5v7q-9 1 -20 8.5t-22 30t-11 54.5v113q0 65 -51 65h-87q-8 14 -8 42q0 41 30.5 61.5t101.5 20.5q55 0 98 -31.5t43 -96.5v-157q0 -32 10.5 -43.5t29.5 -14.5q28 -3 28 -58q0 -37 -8 -48
q-60 -2 -60 -54v-155q0 -83 -42.5 -118.5t-107.5 -35.5z" />
    <glyph glyph-name="bracketleft.case" horiz-adv-x="388" 
d="M57 30v722q29 20 88 20h188q16 -23 16 -60q0 -35 -12 -57.5t-33 -22.5h-105v-533h134q16 -23 16 -59t-12 -58t-33 -22h-231q-16 34 -16 70z" />
    <glyph glyph-name="bracketright.case" horiz-adv-x="388" 
d="M349 706v-722q-29 -20 -88 -20h-188q-16 23 -16 60q0 35 12 57.5t33 22.5h105v533h-134q-16 23 -16 59t12 58t33 22h231q16 -34 16 -70z" />
    <glyph glyph-name="cacute.sc" horiz-adv-x="517" 
d="M446 154q19 0 35.5 -14t16.5 -41q0 -24 -10.5 -40t-36.5 -33q-58 -34 -157 -34q-115 0 -187 70.5t-72 212.5q0 147 69.5 216.5t183.5 69.5q46 0 77.5 -4.5t45 -9.5t36.5 -17q40 -24 40 -68q0 -46 -37 -69q-75 41 -156 41q-123 0 -123 -162q0 -86 37 -122.5t94 -36.5
q78 0 144 41zM184 652q8 3 41.5 36.5t71 63.5t62.5 30q59 0 63 -56q-17 -10 -55.5 -43t-71.5 -54.5t-56 -21.5q-21 0 -36 12t-19 33z" />
    <glyph glyph-name="ccaron.sc" horiz-adv-x="517" 
d="M446 154q19 0 35.5 -14t16.5 -41q0 -24 -10.5 -40t-36.5 -33q-58 -34 -157 -34q-115 0 -187 70.5t-72 212.5q0 147 69.5 216.5t183.5 69.5q46 0 77.5 -4.5t45 -9.5t36.5 -17q40 -24 40 -68q0 -46 -37 -69q-75 41 -156 41q-123 0 -123 -162q0 -86 37 -122.5t94 -36.5
q78 0 144 41zM287 610q-13 0 -25 6q-29 12 -86 58.5t-70 54.5q1 23 20.5 39.5t42.5 16.5q37 0 120 -81q83 81 120 81q22 0 42 -17t21 -39q-12 -8 -69.5 -54.5t-87.5 -58.5q-17 -7 -28 -6z" />
    <glyph glyph-name="ccedilla.sc" horiz-adv-x="517" 
d="M446 154q19 0 35.5 -14t16.5 -41q0 -24 -10.5 -40t-36.5 -33q-58 -34 -157 -34q-115 0 -187 70.5t-72 212.5q0 147 69.5 216.5t183.5 69.5q46 0 77.5 -4.5t45 -9.5t36.5 -17q40 -24 40 -68q0 -46 -37 -69q-75 41 -156 41q-123 0 -123 -162q0 -86 37 -122.5t94 -36.5
q78 0 144 41zM337 -113q0 18 -22.5 26.5t-47.5 8.5q-9 11 -9 25l1 70l76 -1l-5 -46q44 -9 61.5 -31t17.5 -59q0 -41 -26.5 -66.5t-77.5 -25.5q-45 0 -70.5 17t-25.5 39q0 28 20 41q32 -28 71 -28q37 0 37 30z" />
    <glyph glyph-name="ccircumflex.sc" horiz-adv-x="517" 
d="M446 154q19 0 35.5 -14t16.5 -41q0 -24 -10.5 -40t-36.5 -33q-58 -34 -157 -34q-115 0 -187 70.5t-72 212.5q0 147 69.5 216.5t183.5 69.5q46 0 77.5 -4.5t45 -9.5t36.5 -17q40 -24 40 -68q0 -46 -37 -69q-75 41 -156 41q-123 0 -123 -162q0 -86 37 -122.5t94 -36.5
q78 0 144 41zM466 654q-5 -29 -29 -40q-10 -5 -26 -5t-39.5 12.5t-38.5 23.5t-44 35q-88 -71 -122 -71q-16 0 -26 5q-24 11 -29 40q9 3 41.5 36t70 63.5t62.5 30.5q26 0 64 -30t71.5 -63t44.5 -37z" />
    <glyph glyph-name="cdotaccent.sc" horiz-adv-x="517" 
d="M446 154q19 0 35.5 -14t16.5 -41q0 -24 -10.5 -40t-36.5 -33q-58 -34 -157 -34q-115 0 -187 70.5t-72 212.5q0 147 69.5 216.5t183.5 69.5q46 0 77.5 -4.5t45 -9.5t36.5 -17q40 -24 40 -68q0 -46 -37 -69q-75 41 -156 41q-123 0 -123 -162q0 -86 37 -122.5t94 -36.5
q78 0 144 41zM223 692q0 72 72 72t72 -72t-72 -72t-72 72z" />
    <glyph glyph-name="cent.lf" horiz-adv-x="476" 
d="M424 420q0 -36 -32 -73q-55 13 -68 15l-6 -238q57 10 93 29q17 -21 17 -60q0 -49 -39 -74q-28 -17 -74 -25l-2 -78q-11 -11 -54 -11q-20 1 -30.5 9.5t-9.5 32.5l1 47q-85 16 -132.5 82.5t-47.5 167.5q0 122 55.5 186t137.5 77l2 79q17 10 46 9q23 -1 36 -10t12 -31
l-2 -49q32 -5 68 -28q29 -19 29 -57zM164 243q0 -84 59 -113l6 231q-65 -22 -65 -118z" />
    <glyph glyph-name="cent.tf" horiz-adv-x="650" 
d="M515 420q0 -36 -32 -73q-55 13 -68 15l-6 -238q57 10 93 29q17 -21 17 -60q0 -49 -39 -74q-28 -17 -74 -25l-3 -93q-11 -11 -54 -11q-20 1 -30.5 9.5t-9.5 32.5l2 62q-85 16 -132.5 82.5t-47.5 167.5q0 122 55.5 186t137.5 77l3 89q17 10 46 9q23 -1 36 -10t12 -31
l-3 -59q32 -5 68 -28q29 -19 29 -57zM255 243q0 -84 59 -113l6 231q-65 -22 -65 -118z" />
    <glyph glyph-name="cent.tosf" horiz-adv-x="650" 
d="M515 420q0 -36 -32 -73q-55 13 -68 15l-6 -238q57 10 93 29q17 -21 17 -60q0 -49 -39 -74q-28 -17 -74 -25l-3 -93q-11 -11 -54 -11q-20 1 -30.5 9.5t-9.5 32.5l2 62q-85 16 -132.5 82.5t-47.5 167.5q0 122 55.5 186t137.5 77l3 89q17 10 46 9q23 -1 36 -10t12 -31
l-3 -59q32 -5 68 -28q29 -19 29 -57zM255 243q0 -84 59 -113l6 231q-65 -22 -65 -118z" />
    <glyph glyph-name="dcaron.sc" horiz-adv-x="576" 
d="M138 553h119q284 0 284 -290q0 -136 -74 -199.5t-202 -63.5h-129q-32 0 -49.5 12t-17.5 48v482q19 11 69 11zM255 430h-49v-316h55q142 0 142 146q0 90 -40.5 130t-107.5 40zM258 610q-13 0 -25 6q-29 12 -86 58.5t-70 54.5q1 23 20.5 39.5t42.5 16.5q37 0 120 -81
q83 81 120 81q22 0 42 -17t21 -39q-12 -8 -69.5 -54.5t-87.5 -58.5q-17 -7 -28 -6z" />
    <glyph glyph-name="dcroat.sc" horiz-adv-x="576" 
d="M138 553h119q284 0 284 -290q0 -136 -74 -199.5t-202 -63.5h-129q-32 0 -49.5 12t-17.5 48v151h-51q-15 32 -15 54q0 59 62 59h4v218q19 11 69 11zM261 211h-55v-97h55q142 0 142 146q0 90 -40.5 130t-107.5 40h-49v-106h108q13 -20 13 -55q0 -30 -14.5 -44t-51.5 -14z
" />
    <glyph glyph-name="dollar.lf" horiz-adv-x="571" 
d="M300 791q22 0 32.5 -9t9.5 -30l-1 -45q90 -8 137 -54q26 -26 26 -65q0 -30 -27 -70q-59 30 -138 36l-3 -148q105 -25 150 -68t47 -133q2 -88 -49 -145.5t-155 -67.5l-1 -79q-15 -9 -49 -9q-26 0 -38.5 12.5t-11.5 46.5v29q-108 7 -159 47q-36 27 -36 74q0 40 19 72
q72 -38 179 -47l2 142q-103 23 -148 72t-45 145q0 88 52.5 144t148.5 66l1 71q21 13 57 13zM384 197q0 41 -50 59l-2 -115q52 14 52 56zM189 495q0 -38 48 -61l2 116q-50 -12 -50 -55z" />
    <glyph glyph-name="dollar.sc" horiz-adv-x="486" 
d="M255 627q20 0 30 -7.5t9 -26.5l-1 -35q72 -7 109 -41q24 -23 24 -59q0 -28 -24 -65q-44 17 -111 23l-3 -90q87 -17 124 -50.5t39 -107.5q2 -71 -40.5 -118t-129.5 -56l-1 -67q-13 -7 -45 -7q-25 0 -36.5 11t-10.5 43v20q-91 7 -130 37q-28 22 -28 63q0 37 17 67
q67 -24 144 -31l2 79q-84 14 -121.5 54.5t-37.5 120.5q0 73 44 118.5t123 55.5l1 58q19 11 53 11zM309 161q0 19 -23 26l-2 -54q25 11 25 28zM174 383q0 -21 22 -31l2 60q-24 -14 -24 -29z" />
    <glyph glyph-name="dollar.tf" horiz-adv-x="650" 
d="M342 823q22 0 32.5 -9t9.5 -30l-2 -77q90 -8 137 -54q26 -26 26 -65q0 -30 -27 -70q-59 30 -138 36l-3 -148q105 -25 150 -68t47 -133q2 -88 -49 -145.5t-155 -67.5l-1 -114q-15 -9 -49 -9q-26 0 -38.5 12.5t-11.5 46.5v64q-108 7 -159 47q-36 27 -36 74q0 40 19 72
q72 -38 179 -47l2 142q-103 23 -148 72t-45 145q0 88 52.5 144t148.5 66l2 103q21 13 57 13zM425 197q0 41 -50 59l-2 -115q52 14 52 56zM230 495q0 -38 48 -61l2 116q-50 -12 -50 -55z" />
    <glyph glyph-name="dollar.tosf" horiz-adv-x="650" 
d="M342 823q22 0 32.5 -9t9.5 -30l-2 -77q90 -8 137 -54q26 -26 26 -65q0 -30 -27 -70q-59 30 -138 36l-3 -148q105 -25 150 -68t47 -133q2 -88 -49 -145.5t-155 -67.5l-1 -114q-15 -9 -49 -9q-26 0 -38.5 12.5t-11.5 46.5v64q-108 7 -159 47q-36 27 -36 74q0 40 19 72
q72 -38 179 -47l2 142q-103 23 -148 72t-45 145q0 88 52.5 144t148.5 66l2 103q21 13 57 13zM425 197q0 41 -50 59l-2 -115q52 14 52 56zM230 495q0 -38 48 -61l2 116q-50 -12 -50 -55z" />
    <glyph glyph-name="dotlessi.sc" horiz-adv-x="275" 
d="M145 553q61 0 61 -45v-494q-28 -14 -75 -14q-62 0 -62 61v481q24 11 76 11z" />
    <glyph glyph-name="dotlessj.sc" horiz-adv-x="367" 
d="M239 553q59 0 59 -49v-368q0 -66 -35.5 -101t-99.5 -35q-140 0 -140 74q0 29 9 45h88q51 0 51 37v386q22 11 68 11z" />
    <glyph glyph-name="eacute.sc" horiz-adv-x="512" 
d="M399 217h-193v-92h254q15 -23 15 -53q0 -31 -11 -51.5t-29 -20.5h-308q-27 0 -42.5 12t-15.5 48v481q21 12 64 12h327q15 -23 15 -53q0 -31 -11 -51.5t-29 -20.5h-229v-87h215q15 -22 15 -60q0 -30 -10 -47t-27 -17zM152 652q8 3 41.5 36.5t71 63.5t62.5 30q59 0 63 -56
q-17 -10 -55.5 -43t-71.5 -54.5t-56 -21.5q-21 0 -36 12t-19 33z" />
    <glyph glyph-name="ebreve.sc" horiz-adv-x="512" 
d="M399 217h-193v-92h254q15 -23 15 -53q0 -31 -11 -51.5t-29 -20.5h-308q-27 0 -42.5 12t-15.5 48v481q21 12 64 12h327q15 -23 15 -53q0 -31 -11 -51.5t-29 -20.5h-229v-87h215q15 -22 15 -60q0 -30 -10 -47t-27 -17zM193 764q2 -22 15 -38q19 -22 59 -22q37 0 53 18
q10 10 19 38q16 13 54 11q24 -1 33.5 -14.5t4.5 -31.5q-16 -52 -48 -77q-40 -32 -115 -32q-78 0 -122 34q-38 29 -46 82q-4 36 37 40q31 3 56 -8z" />
    <glyph glyph-name="ecaron.sc" horiz-adv-x="512" 
d="M399 217h-193v-92h254q15 -23 15 -53q0 -31 -11 -51.5t-29 -20.5h-308q-27 0 -42.5 12t-15.5 48v481q21 12 64 12h327q15 -23 15 -53q0 -31 -11 -51.5t-29 -20.5h-229v-87h215q15 -22 15 -60q0 -30 -10 -47t-27 -17zM269 610q-13 0 -25 6q-29 12 -86 58.5t-70 54.5
q1 23 20.5 39.5t42.5 16.5q37 0 120 -81q83 81 120 81q22 0 42 -17t21 -39q-12 -8 -69.5 -54.5t-87.5 -58.5q-17 -7 -28 -6z" />
    <glyph glyph-name="ecircumflex.sc" horiz-adv-x="512" 
d="M399 217h-193v-92h254q15 -23 15 -53q0 -31 -11 -51.5t-29 -20.5h-308q-27 0 -42.5 12t-15.5 48v481q21 12 64 12h327q15 -23 15 -53q0 -31 -11 -51.5t-29 -20.5h-229v-87h215q15 -22 15 -60q0 -30 -10 -47t-27 -17zM444 654q-5 -29 -29 -40q-10 -5 -26 -5t-39.5 12.5
t-38.5 23.5t-44 35q-88 -71 -122 -71q-16 0 -26 5q-24 11 -29 40q9 3 41.5 36t70 63.5t62.5 30.5q26 0 64 -30t71.5 -63t44.5 -37z" />
    <glyph glyph-name="edieresis.sc" horiz-adv-x="512" 
d="M399 217h-193v-92h254q15 -23 15 -53q0 -31 -11 -51.5t-29 -20.5h-308q-27 0 -42.5 12t-15.5 48v481q21 12 64 12h327q15 -23 15 -53q0 -31 -11 -51.5t-29 -20.5h-229v-87h215q15 -22 15 -60q0 -30 -10 -47t-27 -17zM94 701q0 72 72 72t72 -72t-72 -72t-72 72zM298 701
q0 72 72 72t72 -72t-72 -72t-72 72z" />
    <glyph glyph-name="edotaccent.sc" horiz-adv-x="512" 
d="M399 217h-193v-92h254q15 -23 15 -53q0 -31 -11 -51.5t-29 -20.5h-308q-27 0 -42.5 12t-15.5 48v481q21 12 64 12h327q15 -23 15 -53q0 -31 -11 -51.5t-29 -20.5h-229v-87h215q15 -22 15 -60q0 -30 -10 -47t-27 -17zM205 692q0 72 72 72t72 -72t-72 -72t-72 72z" />
    <glyph glyph-name="egrave.sc" horiz-adv-x="512" 
d="M399 217h-193v-92h254q15 -23 15 -53q0 -31 -11 -51.5t-29 -20.5h-308q-27 0 -42.5 12t-15.5 48v481q21 12 64 12h327q15 -23 15 -53q0 -31 -11 -51.5t-29 -20.5h-229v-87h215q15 -22 15 -60q0 -30 -10 -47t-27 -17zM375 649q-4 -21 -19 -33t-36 -12q-23 0 -56 21.5
t-71.5 54.5t-55.5 43q4 56 63 56q25 0 62.5 -30t71 -63.5t41.5 -36.5z" />
    <glyph glyph-name="egravesuperior" horiz-adv-x="267" 
d="M244 451h-141q10 -35 47 -35q57 0 83 16q14 -12 14 -31q0 -24 -19 -34q-32 -22 -86 -22q-58 0 -90 37.5t-32 97.5q0 58 37 92.5t89 34.5q48 0 75.5 -30.5t27.5 -83.5q0 -27 -5 -42zM145 537q-12 0 -24 -9.5t-18 -25.5h74q0 35 -32 35zM206 662q-5 -27 -33 -27
q-15 0 -35.5 13t-44.5 33.5t-34 26.5q4 35 39 35q21 0 63.5 -40t44.5 -41z" />
    <glyph glyph-name="eight.dnom" horiz-adv-x="367" 
d="M25 123q0 62 58 95q-41 32 -41 84q0 113 138 113q143 0 143 -112q0 -47 -42 -77q61 -28 61 -105q0 -52 -39 -89.5t-114 -37.5q-82 0 -123 35t-41 94zM247 123q0 16 -12.5 27.5t-26.5 16.5t-45 14q-41 -15 -41 -57q0 -21 18.5 -34.5t46.5 -13.5q60 0 60 47zM131 302
q0 -43 66 -55q39 18 39 54q0 21 -14.5 31.5t-36.5 10.5q-24 0 -39 -10.5t-15 -30.5z" />
    <glyph glyph-name="eight.lf" horiz-adv-x="555" 
d="M35 203q0 105 92 160q-66 54 -66 143q0 90 53.5 137.5t157.5 47.5q218 0 218 -185q0 -81 -68 -132q98 -46 98 -174q0 -87 -60 -148.5t-176 -61.5q-124 0 -186.5 58t-62.5 155zM382 203q0 18 -7.5 32t-17 23.5t-31 19t-36.5 14.5t-45 14q-69 -26 -69 -101q0 -39 29 -63
t77 -24t74 22.5t26 62.5zM190 506q0 -45 30 -66.5t81 -31.5q63 32 63 95q0 37 -24 56.5t-61 19.5q-39 0 -64 -19.5t-25 -53.5z" />
    <glyph glyph-name="eight.numr" horiz-adv-x="367" 
d="M25 408q0 62 58 95q-41 32 -41 84q0 113 138 113q143 0 143 -112q0 -47 -42 -77q61 -28 61 -105q0 -52 -39 -89.5t-114 -37.5q-82 0 -123 35t-41 94zM247 408q0 16 -12.5 27.5t-26.5 16.5t-45 14q-41 -15 -41 -57q0 -21 18.5 -34.5t46.5 -13.5q60 0 60 47zM131 587
q0 -43 66 -55q39 18 39 54q0 21 -14.5 31.5t-36.5 10.5q-24 0 -39 -10.5t-15 -30.5z" />
    <glyph glyph-name="eight.sc" horiz-adv-x="481" 
d="M34 164q0 77 72 123q-50 42 -50 108q0 151 179 151q186 0 186 -150q0 -57 -49 -96q75 -36 75 -138q0 -68 -51 -119t-148 -51q-107 0 -160.5 47t-53.5 125zM316 166q0 25 -20 37t-68 26q-9 3 -14 4q-46 -18 -46 -66q0 -25 22 -40.5t56 -15.5q70 0 70 55zM178 395
q0 -30 21 -43.5t58 -21.5q45 24 45 63q0 25 -17 37.5t-43 12.5q-28 0 -46 -12.5t-18 -35.5z" />
    <glyph glyph-name="eight.tf" 
d="M57 203q0 105 92 160q-66 54 -66 143q0 90 53.5 137.5t157.5 47.5q218 0 218 -185q0 -81 -68 -132q98 -46 98 -174q0 -87 -60 -148.5t-176 -61.5q-124 0 -186.5 58t-62.5 155zM404 203q0 18 -7.5 32t-17 23.5t-31 19t-36.5 14.5t-45 14q-69 -26 -69 -101q0 -39 29 -63
t77 -24t74 22.5t26 62.5zM212 506q0 -45 30 -66.5t81 -31.5q63 32 63 95q0 37 -24 56.5t-61 19.5q-39 0 -64 -19.5t-25 -53.5z" />
    <glyph glyph-name="eight.tosf" 
d="M57 203q0 105 92 160q-66 54 -66 143q0 90 53.5 137.5t157.5 47.5q218 0 218 -185q0 -81 -68 -132q98 -46 98 -174q0 -87 -60 -148.5t-176 -61.5q-124 0 -186.5 58t-62.5 155zM404 203q0 18 -7.5 32t-17 23.5t-31 19t-36.5 14.5t-45 14q-69 -26 -69 -101q0 -39 29 -63
t77 -24t74 22.5t26 62.5zM212 506q0 -45 30 -66.5t81 -31.5q63 32 63 95q0 37 -24 56.5t-61 19.5q-39 0 -64 -19.5t-25 -53.5z" />
    <glyph glyph-name="emacron.sc" horiz-adv-x="512" 
d="M399 217h-193v-92h254q15 -23 15 -53q0 -31 -11 -51.5t-29 -20.5h-308q-27 0 -42.5 12t-15.5 48v481q21 12 64 12h327q15 -23 15 -53q0 -31 -11 -51.5t-29 -20.5h-229v-87h215q15 -22 15 -60q0 -30 -10 -47t-27 -17zM372 628h-262q-16 25 -16 47q0 29 14 43t60 14h262
q14 -16 14 -39q0 -25 -16 -45t-56 -20z" />
    <glyph glyph-name="emdash.case" horiz-adv-x="643" 
d="M526 271h-465q-16 34 -16 63q0 38 14 56.5t60 18.5h465q14 -20 14 -52t-16 -59t-56 -27z" />
    <glyph glyph-name="endash.case" horiz-adv-x="499" 
d="M382 280h-321q-16 34 -16 63q0 38 14 56.5t60 18.5h321q14 -20 14 -52t-16 -59t-56 -27z" />
    <glyph glyph-name="eng.sc" horiz-adv-x="609" 
d="M413 11v17l-213 285l6 -300q-14 -14 -79 -14q-26 0 -42 12.5t-16 48.5v481q25 12 74 12q41 0 64 -35l203 -281l-3 300q20 17 67 17q28 0 49.5 -10.5t21.5 -34.5v-513q0 -140 -116 -140q-54 0 -84 13t-30 48q0 32 9 52h54q35 0 35 42z" />
    <glyph glyph-name="eogonek.sc" horiz-adv-x="512" 
d="M399 217h-193v-92h254q15 -23 15 -53q0 -44 -21 -66q-44 -53 -44 -88q0 -19 10.5 -26.5t35.5 -7.5q8 -15 8 -34q0 -39 -51 -39q-39 0 -61 23.5t-22 61.5q0 53 35 104h-238q-27 0 -42.5 12t-15.5 48v481q21 12 64 12h327q15 -23 15 -53q0 -31 -11 -51.5t-29 -20.5h-229
v-87h215q15 -22 15 -60q0 -30 -10 -47t-27 -17z" />
    <glyph glyph-name="eth.sc" horiz-adv-x="576" 
d="M138 553h119q284 0 284 -290q0 -136 -74 -199.5t-202 -63.5h-129q-32 0 -49.5 12t-17.5 48v151h-51q-15 32 -15 54q0 59 62 59h4v218q19 11 69 11zM261 211h-55v-97h55q142 0 142 146q0 90 -40.5 130t-107.5 40h-49v-106h108q13 -20 13 -55q0 -30 -14.5 -44t-51.5 -14z
" />
    <glyph glyph-name="exclamdown.case" horiz-adv-x="248" 
d="M129 -1q-32 0 -55.5 12t-23.5 39v437q18 18 75 18q73 0 73 -80v-413q-21 -13 -69 -13zM195 628q0 -72 -72 -72t-72 72t72 72t72 -72z" />
    <glyph glyph-name="five.dnom" horiz-adv-x="356" 
d="M291 321h-160l-5 -69q28 7 58 7q62 0 104 -31t42 -99q0 -58 -43.5 -96.5t-117.5 -38.5q-76 0 -113.5 22t-37.5 51q0 30 36 52q49 -44 111 -44q68 0 68 57q0 51 -87 51q-13 0 -38.5 -1.5t-45.5 -1.5q-13 0 -21 11t-7 29l10 179q19 10 59 10h207q11 -13 11 -37
q0 -22 -8 -36.5t-22 -14.5z" />
    <glyph glyph-name="five.lf" horiz-adv-x="537" 
d="M443 545h-251l-8 -127q43 12 93 12q97 0 161 -51.5t64 -164.5q0 -96 -66 -160t-181 -64q-116 0 -173 37.5t-57 86.5t53 82q68 -80 172 -80q51 0 81 26t30 77q0 92 -138 92q-22 0 -63 -3.5t-69 -3.5q-20 0 -31 17t-10 46l14 299q28 17 86 17h322q16 -23 16 -59
q0 -35 -12 -57t-33 -22z" />
    <glyph glyph-name="five.numr" horiz-adv-x="356" 
d="M291 606h-160l-5 -69q28 7 58 7q62 0 104 -31t42 -99q0 -58 -43.5 -96.5t-117.5 -38.5q-76 0 -113.5 22t-37.5 51q0 30 36 52q49 -44 111 -44q68 0 68 57q0 51 -87 51q-13 0 -38.5 -1.5t-45.5 -1.5q-13 0 -21 11t-7 29l10 179q19 10 59 10h207q11 -13 11 -37
q0 -22 -8 -36.5t-22 -14.5z" />
    <glyph glyph-name="five.sc" horiz-adv-x="464" 
d="M378 411h-201l-5 -74q33 7 69 7q80 0 133.5 -41t53.5 -132q0 -76 -56 -127.5t-152 -51.5q-99 0 -147.5 27t-48.5 65q0 43 49 76q66 -51 142 -51q80 0 80 67q0 58 -107 58q-14 0 -47 -0.5t-59 -0.5q-18 0 -28 15.5t-9 42.5l12 232q26 15 82 15h264q16 -21 16 -54
q0 -32 -11 -52.5t-30 -20.5z" />
    <glyph glyph-name="five.tf" 
d="M479 545h-251l-8 -127q43 12 93 12q97 0 161 -51.5t64 -164.5q0 -96 -66 -160t-181 -64q-116 0 -173 37.5t-57 86.5t53 82q68 -80 172 -80q51 0 81 26t30 77q0 92 -138 92q-22 0 -63 -3.5t-69 -3.5q-20 0 -31 17t-10 46l14 299q28 17 86 17h322q16 -23 16 -59
q0 -35 -12 -57t-33 -22z" />
    <glyph glyph-name="five.tosf" 
d="M479 415h-251l-8 -127q43 12 93 12q97 0 161 -51.5t64 -164.5q0 -96 -66 -160t-181 -64q-116 0 -173 37.5t-57 86.5t53 82q68 -80 172 -80q51 0 81 26t30 77q0 92 -138 92q-22 0 -63 -3.5t-69 -3.5q-20 0 -31 17t-10 46l14 299q28 17 86 17h322q16 -23 16 -59
q0 -35 -12 -57t-33 -22z" />
    <glyph glyph-name="florin.lf" horiz-adv-x="480" 
d="M376 276h-80l-40 -278q-13 -88 -60 -128.5t-134 -40.5q-91 0 -91 67q0 35 12 64h74q23 0 37 12t19 45l37 259h-95q-16 34 -16 71q0 61 74 61h56l19 134q11 82 59.5 120t140.5 38q44 0 64 -19t20 -47q0 -31 -10 -68h-76q-25 0 -38 -9.5t-17 -34.5l-16 -114h119
q14 -20 14 -60q0 -72 -72 -72z" />
    <glyph glyph-name="florin.tf" horiz-adv-x="480" 
d="M376 276h-80l-40 -278q-13 -88 -60 -128.5t-134 -40.5q-91 0 -91 67q0 35 12 64h74q23 0 37 12t19 45l37 259h-95q-16 34 -16 71q0 61 74 61h56l19 134q11 82 59.5 120t140.5 38q44 0 64 -19t20 -47q0 -31 -10 -68h-76q-25 0 -38 -9.5t-17 -34.5l-16 -114h119
q14 -20 14 -60q0 -72 -72 -72z" />
    <glyph glyph-name="florin.tosf" horiz-adv-x="480" 
d="M376 276h-80l-40 -278q-13 -88 -60 -128.5t-134 -40.5q-91 0 -91 67q0 35 12 64h74q23 0 37 12t19 45l37 259h-95q-16 34 -16 71q0 61 74 61h56l19 134q11 82 59.5 120t140.5 38q44 0 64 -19t20 -47q0 -31 -10 -68h-76q-25 0 -38 -9.5t-17 -34.5l-16 -114h119
q14 -20 14 -60q0 -72 -72 -72z" />
    <glyph glyph-name="four.dnom" horiz-adv-x="382" 
d="M256 302q45 0 45 -33v-114h60q10 -12 10 -41q0 -38 -31 -38h-38v-69q-16 -7 -52 -7q-41 0 -41 32l-1 44h-188q-8 9 -8 29q0 16 9 43l84 257q20 9 56 9q19 0 28 -10t4 -24l-69 -225h84l-1 134q20 13 49 13z" />
    <glyph glyph-name="four.lf" horiz-adv-x="578" 
d="M391 500q65 0 65 -51l1 -197h92q14 -20 14 -64q0 -59 -45 -59h-61l1 -118q-22 -11 -76 -11q-60 0 -60 51l-1 78h-294q-11 15 -11 46q0 22 13 67l131 434q28 14 82 14q27 0 40 -15.5t6 -38.5l-110 -384h143l-1 229q30 19 71 19z" />
    <glyph glyph-name="four.numr" horiz-adv-x="383" 
d="M256 587q45 0 45 -33v-114h60q10 -12 10 -41q0 -38 -31 -38h-38v-69q-16 -7 -52 -7q-41 0 -41 32l-1 44h-188q-8 9 -8 29q0 16 9 43l84 257q20 9 56 9q19 0 28 -10t4 -24l-69 -225h84l-1 134q20 13 49 13z" />
    <glyph glyph-name="four.sc" horiz-adv-x="499" 
d="M331 400q62 0 62 -47l1 -142h76q14 -18 14 -59q0 -54 -42 -54h-48l1 -88q-22 -10 -72 -10q-26 0 -41.5 12t-15.5 34l-1 52h-239q-10 14 -10 42q0 16 12 62l106 330q28 13 78 13q25 0 37.5 -14.5t5.5 -34.5l-85 -285h95l-1 172q28 17 67 17z" />
    <glyph glyph-name="four.tf" 
d="M401 500q65 0 65 -51l1 -197h92q14 -20 14 -64q0 -59 -45 -59h-61l1 -118q-22 -11 -76 -11q-60 0 -60 51l-1 78h-294q-11 15 -11 46q0 22 13 67l131 434q28 14 82 14q27 0 40 -15.5t6 -38.5l-110 -384h143l-1 229q30 19 71 19z" />
    <glyph glyph-name="four.tosf" 
d="M401 371q65 0 65 -51l1 -197h92q14 -20 14 -64q0 -59 -45 -59h-61l1 -118q-22 -11 -76 -11q-60 0 -60 51l-1 78h-294q-11 15 -11 46q0 22 13 67l131 434q28 14 82 14q27 0 40 -15.5t6 -38.5l-110 -384h143l-1 229q30 19 71 19z" />
    <glyph glyph-name="gbreve.sc" horiz-adv-x="561" 
d="M407 211h-129q-14 28 -14 53q0 11 2 19t8.5 15.5t20.5 11.5t36 4h107q50 0 65.5 -20t15.5 -76v-207q-21 -11 -61 -11q-25 0 -38 10t-13 39v1q-51 -58 -131 -58q-105 0 -173 71t-68 212q0 148 72.5 217t200.5 69q90 0 134 -32t44 -70q0 -45 -51 -60q-26 25 -54 34t-72 9
q-65 0 -106 -39.5t-41 -130.5q0 -86 39 -128.5t90 -42.5q75 0 116 66v44zM206 764q2 -22 15 -38q19 -22 59 -22q37 0 53 18q9 10 19 38q16 13 54 11q24 -1 33.5 -14.5t4.5 -31.5q-16 -52 -48 -77q-40 -32 -115 -32q-78 0 -122 34q-38 29 -46 82q-4 36 37 40q31 3 56 -8z" />
    <glyph glyph-name="gcircumflex.sc" horiz-adv-x="561" 
d="M407 211h-129q-14 28 -14 53q0 11 2 19t8.5 15.5t20.5 11.5t36 4h107q50 0 65.5 -20t15.5 -76v-207q-21 -11 -61 -11q-25 0 -38 10t-13 39v1q-51 -58 -131 -58q-105 0 -173 71t-68 212q0 148 72.5 217t200.5 69q90 0 134 -32t44 -70q0 -45 -51 -60q-26 25 -54 34t-72 9
q-65 0 -106 -39.5t-41 -130.5q0 -86 39 -128.5t90 -42.5q75 0 116 66v44zM467 654q-5 -29 -29 -40q-10 -5 -26 -5t-39.5 12.5t-38.5 23.5t-44 35q-88 -71 -122 -71q-16 0 -26 5q-24 11 -29 40q9 3 41.5 36t70 63.5t62.5 30.5q26 0 64 -30t71.5 -63t44.5 -37z" />
    <glyph glyph-name="gcommaaccent.sc" horiz-adv-x="561" 
d="M407 211h-129q-14 28 -14 53q0 11 2 19t8.5 15.5t20.5 11.5t36 4h107q50 0 65.5 -20t15.5 -76v-207q-21 -11 -61 -11q-25 0 -38 10t-13 39v1q-51 -58 -131 -58q-105 0 -173 71t-68 212q0 148 72.5 217t200.5 69q90 0 134 -32t44 -70q0 -45 -51 -60q-26 25 -54 34t-72 9
q-65 0 -106 -39.5t-41 -130.5q0 -86 39 -128.5t90 -42.5q75 0 116 66v44zM287 -202q-36 0 -52 17.5t-16 54.5q0 72 72 72q77 0 77 -102q0 -81 -22 -121.5t-55 -40.5q-39 0 -43 28q17 9 28 41t11 51z" />
    <glyph glyph-name="gdotaccent.sc" horiz-adv-x="561" 
d="M407 211h-129q-14 28 -14 53q0 11 2 19t8.5 15.5t20.5 11.5t36 4h107q50 0 65.5 -20t15.5 -76v-207q-21 -11 -61 -11q-25 0 -38 10t-13 39v1q-51 -58 -131 -58q-105 0 -173 71t-68 212q0 148 72.5 217t200.5 69q90 0 134 -32t44 -70q0 -45 -51 -60q-26 25 -54 34t-72 9
q-65 0 -106 -39.5t-41 -130.5q0 -86 39 -128.5t90 -42.5q75 0 116 66v44zM208 690q0 72 72 72t72 -72t-72 -72t-72 72z" />
    <glyph glyph-name="germandbls.sc" horiz-adv-x="990" 
d="M249 561q111 0 159 -44q24 -23 24 -58q0 -25 -23 -63q-62 26 -159 26q-72 0 -72 -38t88 -52q104 -19 146.5 -53t44.5 -112q2 -77 -50 -126t-158 -49q-130 0 -184 39q-29 21 -29 63q0 34 17 64q88 -34 191 -34q28 0 46 6.5t23 14t5 15.5q0 18 -18 28.5t-75 17.5
q-98 14 -141.5 55t-43.5 125q0 82 55 128.5t154 46.5zM744 561q111 0 159 -44q24 -23 24 -58q0 -25 -23 -63q-62 26 -159 26q-72 0 -72 -38t88 -52q104 -19 146.5 -53t44.5 -112q2 -77 -50 -126t-158 -49q-130 0 -184 39q-29 21 -29 63q0 34 17 64q88 -34 191 -34
q28 0 46 6.5t23 14t5 15.5q0 18 -18 28.5t-75 17.5q-98 14 -141.5 55t-43.5 125q0 82 55 128.5t154 46.5z" />
    <glyph glyph-name="guillemotleft.case" horiz-adv-x="509" 
d="M47 422l119 138q15 6 29 6q28 0 46 -19.5t18 -42.5q0 -27 -18 -48l-89 -108l100 -129q5 -12 5 -28q0 -25 -21 -40.5t-44 -15.5q-31 0 -53 27l-99 127q-15 27 -15 66q0 40 22 67zM272 422l119 138q15 6 29 6q28 0 46 -19.5t18 -42.5q0 -27 -18 -48l-89 -108l100 -129
q5 -12 5 -28q0 -25 -21 -40.5t-44 -15.5q-31 0 -53 27l-99 127q-15 27 -15 66q0 40 22 67z" />
    <glyph glyph-name="guillemotright.case" horiz-adv-x="509" 
d="M237 278l-119 -138q-15 -6 -29 -6q-28 0 -46 19.5t-18 42.5q0 27 18 48l89 108l-100 129q-5 12 -5 28q0 25 21 40.5t44 15.5q31 0 53 -27l99 -127q15 -27 15 -66q0 -40 -22 -67zM462 278l-119 -138q-15 -6 -29 -6q-28 0 -46 19.5t-18 42.5q0 27 18 48l89 108l-100 129
q-5 12 -5 28q0 25 21 40.5t44 15.5q31 0 53 -27l99 -127q15 -27 15 -66q0 -40 -22 -67z" />
    <glyph glyph-name="guilsinglleft.case" horiz-adv-x="284" 
d="M47 422l119 138q15 6 29 6q28 0 46 -19.5t18 -42.5q0 -27 -18 -48l-89 -108l100 -129q5 -12 5 -28q0 -25 -21 -40.5t-44 -15.5q-31 0 -53 27l-99 127q-15 27 -15 66q0 40 22 67z" />
    <glyph glyph-name="guilsinglright.case" horiz-adv-x="284" 
d="M237 278l-119 -138q-15 -6 -29 -6q-28 0 -46 19.5t-18 42.5q0 27 18 48l89 108l-100 129q-5 12 -5 28q0 25 21 40.5t44 15.5q31 0 53 -27l99 -127q15 -27 15 -66q0 -40 -22 -67z" />
    <glyph glyph-name="hbar.sc" horiz-adv-x="605" 
d="M553 351h-17v-340q-16 -11 -64 -11q-35 0 -54.5 12.5t-19.5 48.5v118h-192v-165q-14 -14 -79 -14q-26 0 -42 12.5t-16 48.5v290h-53l-5 10l-4.5 9t-3.5 9.5t-2.5 14t-0.5 17.5q0 52 57 52h12v79q22 11 75 11q62 0 62 -45v-45h192v79q24 11 75 11q63 0 63 -45v-45h55
q14 -26 14 -55q0 -57 -52 -57zM206 351v-58h192v58h-192z" />
    <glyph glyph-name="hcircumflex.sc" horiz-adv-x="605" 
d="M473 553q63 0 63 -45v-497q-16 -11 -64 -11q-35 0 -54.5 12.5t-19.5 48.5v165h-192v-212q-14 -14 -79 -14q-26 0 -42 12.5t-16 48.5v481q22 11 75 11q62 0 62 -45v-159h192v193q24 11 75 11zM479 654q-5 -29 -29 -40q-10 -5 -26 -5t-39.5 12.5t-38.5 23.5t-44 35
q-88 -71 -122 -71q-16 0 -26 5q-24 11 -29 40q9 3 41.5 36t70 63.5t62.5 30.5q26 0 64 -30t71.5 -63t44.5 -37z" />
    <glyph glyph-name="hyphen.case" horiz-adv-x="420" 
d="M301 274h-239q-16 34 -16 63q0 38 14 56.5t60 18.5h239q14 -20 14 -52t-16 -59t-56 -27z" />
    <glyph glyph-name="i.latn_TRK" horiz-adv-x="302" 
d="M118 500q49 0 77.5 -24.5t28.5 -92.5v-247q0 -30 22 -30h33q8 -18 8 -43q0 -63 -105 -63q-52 0 -76.5 24.5t-24.5 87.5v231q0 31 -24 31h-29q-8 16 -8 51q0 75 98 75zM58 629q0 80 80 80t80 -80t-80 -80t-80 80z" />
    <glyph glyph-name="i.latn_TRK.sc" horiz-adv-x="275" 
d="M145 553q61 0 61 -45v-494q-28 -14 -75 -14q-62 0 -62 61v481q24 11 76 11zM66 692q0 72 72 72t72 -72t-72 -72t-72 72z" />
    <glyph glyph-name="iacute.sc" horiz-adv-x="275" 
d="M145 553q61 0 61 -45v-494q-28 -14 -75 -14q-62 0 -62 61v481q24 11 76 11zM19 652q8 3 41.5 36.5t71 63.5t62.5 30q59 0 63 -56q-17 -10 -55.5 -43t-71.5 -54.5t-56 -21.5q-21 0 -36 12t-19 33z" />
    <glyph glyph-name="ibreve.sc" horiz-adv-x="275" 
d="M145 553q61 0 61 -45v-494q-28 -14 -75 -14q-62 0 -62 61v481q24 11 76 11zM64 764q2 -22 15 -38q19 -22 59 -22q37 0 53 18q9 10 19 38q16 13 54 11q24 -1 33.5 -14.5t4.5 -31.5q-16 -52 -48 -77q-40 -32 -115 -32q-78 0 -122 34q-38 29 -46 82q-4 36 37 40q31 3 56 -8z
" />
    <glyph glyph-name="icircumflex.sc" horiz-adv-x="275" 
d="M145 553q61 0 61 -45v-494q-28 -14 -75 -14q-62 0 -62 61v481q24 11 76 11zM315 654q-5 -29 -29 -40q-10 -5 -26 -5t-39.5 12.5t-38.5 23.5t-44 35q-88 -71 -122 -71q-16 0 -26 5q-24 11 -29 40q9 3 41.5 36t70 63.5t62.5 30.5q26 0 64 -30t71.5 -63t44.5 -37z" />
    <glyph glyph-name="idieresis.sc" horiz-adv-x="275" 
d="M145 553q61 0 61 -45v-494q-28 -14 -75 -14q-62 0 -62 61v481q24 11 76 11zM-36 701q0 72 72 72t72 -72t-72 -72t-72 72zM168 701q0 72 72 72t72 -72t-72 -72t-72 72z" />
    <glyph glyph-name="idotaccent" horiz-adv-x="302" 
d="M118 500q49 0 77.5 -24.5t28.5 -92.5v-247q0 -30 22 -30h33q8 -18 8 -43q0 -63 -105 -63q-52 0 -76.5 24.5t-24.5 87.5v231q0 31 -24 31h-29q-8 16 -8 51q0 75 98 75zM58 629q0 80 80 80t80 -80t-80 -80t-80 80z" />
    </font>
</defs>
</svg>
