<?xml version="1.0" standalone="no"?>
<!DOCTYPE svg PUBLIC "-//W3C//DTD SVG 1.1//EN" "http://www.w3.org/Graphics/SVG/1.1/DTD/svg11.dtd" >
<svg>
<metadata>
Created by FontForge 20090622 at Tue Jan 10 05:15:01 2017
 By deploy user
Copyright (c) 2010 by Stereotypes.de. All rights reserved.
</metadata>
<defs>
<font id="StRydeRegular" horiz-adv-x="551" >
  <font-face 
    font-family="St Ryde Regular"
    font-weight="400"
    font-stretch="normal"
    units-per-em="1000"
    panose-1="2 0 5 3 2 0 0 2 0 3"
    ascent="800"
    descent="-200"
    x-height="482"
    cap-height="700"
    bbox="-77.7407 -267 1177 939"
    underline-thickness="70"
    underline-position="-90"
    unicode-range="U+000D-U+FB02"
  />
<missing-glyph horiz-adv-x="469" 
d="M80 0v700h626v-700h-626zM114 666v-632h559v632h-559zM229 343q0 67 47.5 114.5t114.5 47.5t114.5 -47.5t47.5 -114.5t-47.5 -114.5t-114.5 -47.5t-114.5 47.5t-47.5 114.5z" />
    <glyph glyph-name="fi" unicode="fi" horiz-adv-x="601" 
d="M395 417h-208v-392q0 -25 -43 -25q-24 0 -34 9v408h-59q-7 12 -7 28q0 37 37 37h29v92q0 71 31.5 101.5t91.5 30.5q61 0 81 -10.5t20 -30.5q0 -22 -9 -33h-72q-34 0 -50 -14.5t-16 -53.5v-82h237q36 0 53.5 -16.5t17.5 -61.5v-316q0 -26 23 -26h29q6 -12 6 -25
q0 -37 -67 -37q-66 0 -66 68v321q0 28 -25 28zM399 619q0 50 49 50t49 -50q0 -48 -49 -48t-49 48z" />
    <glyph glyph-name="fl" unicode="fl" horiz-adv-x="629" 
d="M187 564v-82h121q7 -10 7 -27q0 -38 -34 -38h-94v-392q0 -25 -43 -25q-24 0 -34 9v408h-59q-7 12 -7 28q0 37 37 37h29v92q0 71 31.5 101.5t91.5 30.5q61 0 81 -10.5t20 -30.5q0 -22 -9 -33h-72q-34 0 -50 -14.5t-16 -53.5zM477 667v-526q0 -44 15 -60t52 -16h68
q3 -9 3 -23q0 -18 -24 -30t-72 -12q-61 0 -89 29.5t-28 93.5v567q14 11 37 11q38 -1 38 -34z" />
    <glyph glyph-name=".notdef" horiz-adv-x="469" 
d="M80 0v700h626v-700h-626zM114 666v-632h559v632h-559zM229 343q0 67 47.5 114.5t114.5 47.5t114.5 -47.5t47.5 -114.5t-47.5 -114.5t-114.5 -47.5t-114.5 47.5t-47.5 114.5z" />
    <glyph glyph-name=".null" horiz-adv-x="0" 
 />
    <glyph glyph-name=".null" horiz-adv-x="0" 
 />
    <glyph glyph-name="nonmarkingreturn" horiz-adv-x="333" 
 />
    <glyph glyph-name="CR" unicode="&#xd;" horiz-adv-x="0" 
 />
    <glyph glyph-name="space" unicode=" " horiz-adv-x="240" 
 />
    <glyph glyph-name="exclam" unicode="!" horiz-adv-x="205" 
d="M100 700q41 0 41 -31v-511q-11 -11 -39 -11q-39 0 -39 42v503q13 8 37 8zM57 45q0 47 46 47t46 -47q0 -45 -46 -45t-46 45z" />
    <glyph glyph-name="quotedbl" unicode="&#x22;" horiz-adv-x="293" 
d="M168 528v149q0 24 35 24q23 0 32 -12t9 -44q0 -127 -43 -127q-21 0 -33 10zM49 528v149q0 24 35 24q23 0 32 -12t9 -44q0 -127 -43 -127q-21 0 -33 10z" />
    <glyph glyph-name="numbersign" unicode="#" horiz-adv-x="802" 
d="M731 422h-129l-37 -212h167q8 -12 8 -30q0 -45 -53 -45h-135l-32 -181q-11 -8 -38 -8q-43 0 -35 37l27 152h-211l-32 -181q-10 -8 -38 -8q-42 0 -35 37l27 152h-158q-9 23 -9 33q0 21 9 31.5t37 10.5h134l37 212h-164q-9 22 -9 33q0 21 9 31t37 10h140l37 208q14 8 36 8
q18 0 29.5 -7.5t8.5 -23.5l-33 -185h211l37 208q13 8 35 8q18 0 29.5 -7.5t9.5 -23.5l-33 -185h161q8 -10 8 -29q0 -45 -53 -45zM314 422l-38 -212h210l38 212h-210z" />
    <glyph glyph-name="dollar" unicode="$" horiz-adv-x="599" 
d="M312 815q28 0 27 -27v-80q106 -6 163 -59q16 -16 16 -39q0 -21 -22 -37q-56 48 -158 54l-1 -240q111 -33 159.5 -78t49.5 -126q0 -84 -53 -134.5t-159 -57.5l-1 -100q-8 -7 -29 -7q-30 0 -29 34v73q-107 3 -177 46q-44 29 -44 59q0 24 14 40q70 -64 208 -69l1 256
q-115 34 -160.5 77.5t-45.5 124.5q0 78 52 128t157 56l1 97q13 9 31 9zM470 180q0 45 -30 73.5t-104 53.5l-1 -238q69 6 102 35.5t33 75.5zM147 524q0 -42 29 -68t102 -52l1 222q-132 -7 -132 -102z" />
    <glyph glyph-name="percent" unicode="%" horiz-adv-x="871" 
d="M556 700q18 0 25.5 -8t2.5 -23l-251 -665q-14 -6 -31 -6q-38 0 -22 41l245 656q11 5 31 5zM507 205q0 104 43.5 157t114.5 53q72 0 114 -52.5t42 -157.5q0 -108 -42.5 -158t-114.5 -50t-114.5 50.5t-42.5 157.5zM565 203q0 -82 27 -119.5t72 -37.5q98 0 98 157
q0 81 -26 121t-71 40q-44 0 -72 -41t-28 -120zM35 491q0 104 43.5 157t114.5 53q72 0 114 -52.5t42 -157.5q0 -108 -42.5 -158t-114.5 -50t-114.5 50.5t-42.5 157.5zM93 489q0 -82 27 -119.5t72 -37.5q98 0 98 157q0 81 -26 121t-71 40q-44 0 -72 -41t-28 -120z" />
    <glyph glyph-name="ampersand" unicode="&#x26;" horiz-adv-x="816" 
d="M700 375h-82q-17 -158 -103 -267q64 -29 134 -29h93q8 -14 8 -36t-20 -32.5t-74 -10.5q-100 0 -194 54q-77 -64 -177 -64q-110 0 -171 60t-61 162q0 160 157 214q-4 27 -4 62q0 108 53 159t159 51q127 0 127 -49q0 -22 -6 -33h-113q-77 0 -109 -31t-32 -104
q0 -105 47 -195t126 -145q84 93 103 234h-135q-8 16 -8 32q0 40 43 40h263q9 -11 9 -35q0 -37 -33 -37zM403 93q-137 108 -181 275q-99 -42 -99 -154q0 -71 44.5 -113.5t122.5 -42.5q61 0 113 35z" />
    <glyph glyph-name="quotesingle" unicode="'" horiz-adv-x="174" 
d="M49 528v149q0 24 35 24q23 0 32 -12t9 -44q0 -127 -43 -127q-21 0 -33 10z" />
    <glyph glyph-name="parenleft" unicode="(" horiz-adv-x="235" 
d="M28 304q0 184 43.5 296t98.5 112q37 0 43 -35q-46 -34 -77 -128t-31 -245q0 -148 31.5 -245.5t80.5 -132.5q-6 -38 -43 -38q-57 0 -101.5 119t-44.5 297z" />
    <glyph glyph-name="parenright" unicode=")" horiz-adv-x="235" 
d="M217 296q0 -184 -43.5 -296t-98.5 -112q-37 0 -43 35q46 34 77 128t31 245q0 148 -31.5 245.5t-80.5 132.5q6 38 43 38q57 0 101.5 -119t44.5 -297z" />
    <glyph glyph-name="asterisk" unicode="*" horiz-adv-x="524" 
d="M417 471l-112 10l80 -115q-8 -17 -24 -26q-9 -9 -28 -7t-26 23l-46 103l-63 -129q-20 2 -32 9q-40 23 -14 52l67 91l-143 -10q-9 16 -9 33q0 20 8.5 31.5t30.5 7.5l112 -10l-82 117q11 15 26 24q40 25 52 -14l49 -107l60 132q17 2 37 -9q7 -5 12.5 -12t7.5 -19t-9 -23
l-65 -89l143 10q8 -16 8 -34q0 -16 -9.5 -29t-30.5 -10z" />
    <glyph glyph-name="plus" unicode="+" horiz-adv-x="524" 
d="M299 437v-134h163q8 -10 8 -36q0 -38 -35 -38h-136v-163q-14 -8 -36 -8q-20 0 -29 9t-9 32v130h-163q-8 16 -8 36q0 38 30 38h141v163q10 8 38 8q36 0 36 -37z" />
    <glyph glyph-name="comma" unicode="," horiz-adv-x="175" 
d="M86 0q-46 0 -46 45q0 47 46 47q25 0 37 -15.5t12 -53.5q0 -54 -15 -86t-36 -32q-22 0 -26 17q13 12 20.5 36.5t7.5 41.5z" />
    <glyph glyph-name="hyphen" unicode="-" horiz-adv-x="427" 
d="M330 229h-267q-9 18 -9 36q0 38 40 38h270q8 -10 8 -34q0 -40 -42 -40z" />
    <glyph glyph-name="period" unicode="." horiz-adv-x="171" 
d="M40 45q0 47 45 47q46 0 46 -47q0 -45 -46 -45q-45 0 -45 45z" />
    <glyph glyph-name="slash" unicode="/" horiz-adv-x="298" 
d="M200 712q18 0 29.5 -7.5t8.5 -23.5l-128 -727q-10 -8 -38 -8q-42 0 -35 37l127 721q14 8 36 8z" />
    <glyph glyph-name="zero" unicode="0" horiz-adv-x="592" 
d="M52 278q0 141 68 212.5t179 71.5q113 0 177 -70.5t64 -213.5q0 -147 -65.5 -214.5t-178.5 -67.5t-178.5 68.5t-65.5 213.5zM128 275q0 -112 45 -162.5t123 -50.5q167 0 167 213q0 111 -43.5 165t-120.5 54q-76 0 -123.5 -55t-47.5 -164z" />
    <glyph glyph-name="one" unicode="1" horiz-adv-x="479" 
d="M227 550q15 10 36 10q41 0 41 -31l-1 -456h142q9 -14 9 -31q0 -42 -33 -42h-339q-9 18 -9 34q0 20 9 29.5t37 9.5h108v369q-73 -45 -147 -45q-13 0 -23 8t-10 25q0 15 10 32q132 20 170 88z" />
    <glyph glyph-name="two" unicode="2" horiz-adv-x="499" 
d="M31 468q0 32 55.5 63t143.5 31q107 0 160 -43t53 -120q0 -164 -313 -335h335q7 -8 7 -29q0 -35 -29 -35h-409q-7 18 -7 40q0 32 23 50q9 5 43.5 26.5l51.5 32l51 33t53 38t44.5 39t39 43t23.5 42.5t10 45q0 99 -140 99q-54 0 -101 -18.5t-63 -44.5q-31 12 -31 43z" />
    <glyph glyph-name="three" unicode="3" horiz-adv-x="520" 
d="M380 367q-1 52 -38.5 84t-107.5 32q-58 0 -102.5 -21.5t-60.5 -54.5q-31 11 -31 42q0 39 52.5 75.5t145.5 36.5q105 0 162 -51.5t57 -130.5q0 -56 -31 -100.5t-80 -55.5v-2q55 -9 92 -50.5t37 -110.5q0 -85 -58.5 -139.5t-177.5 -54.5q-59 0 -102.5 14t-66 35.5
t-32.5 42.5t-10 41q0 40 34 47q13 -45 54.5 -77t118.5 -32q83 0 124 36t41 93q0 55 -37 86t-99 31h-34q-21 0 -21 32q0 18 7 32q79 1 122 33.5t42 86.5z" />
    <glyph glyph-name="four" unicode="4" horiz-adv-x="573" 
d="M405 338q35 0 35 -28v-243h95q7 -10 7 -35q0 -32 -26 -32h-76v-137q-10 -6 -41 -6q-32 0 -32 29l-1 114h-329q-6 10 -6 27q0 13 7 36l150 476q13 8 42 8q17 0 23.5 -9.5t1.5 -24.5l-139 -446h250v261q15 10 39 10z" />
    <glyph glyph-name="five" unicode="5" horiz-adv-x="531" 
d="M444 484h-299l-10 -222q65 25 133 25q106 0 168.5 -51t62.5 -159q0 -95 -62 -155.5t-182 -60.5q-60 0 -105 15t-68 38t-34 46t-11 44q0 37 36 46q10 -48 54 -85t125 -37q87 0 129.5 41t42.5 112q0 140 -177 140q-40 0 -90.5 -11t-65.5 -11q-29 0 -27 36l11 313
q16 10 46 10h347q9 -14 9 -33q0 -41 -33 -41z" />
    <glyph glyph-name="six" unicode="6" horiz-adv-x="556" 
d="M52 333q0 170 64 264.5t193 94.5q79 0 130 -26t51 -58q0 -30 -23 -42q-71 54 -156 54q-172 0 -183 -254q80 41 170 41q101 0 161.5 -47.5t60.5 -154.5q0 -94 -53.5 -154.5t-166.5 -60.5q-248 0 -248 343zM291 344q-92 0 -164 -42q4 -128 44.5 -186t126.5 -58q76 0 112 40
t36 106q0 72 -41.5 106t-113.5 34z" />
    <glyph glyph-name="seven" unicode="7" horiz-adv-x="477" 
d="M196 -133q-19 0 -26 9.5t-2 23.5l203 582h-362q-9 11 -9 39q0 15 8.5 25.5t23.5 10.5h423q5 -9 5 -27t-8 -44l-216 -612q-14 -7 -40 -7z" />
    <glyph glyph-name="eight" unicode="8" horiz-adv-x="544" 
d="M41 190q0 124 114 174q-88 49 -88 156q0 81 52.5 126t148.5 45q102 0 155.5 -44.5t53.5 -129.5q0 -53 -26.5 -94.5t-70.5 -65.5q122 -47 122 -170q0 -87 -57 -142t-174 -55q-115 0 -172.5 54.5t-57.5 145.5zM266 325l-31 7q-53 -11 -87 -47t-34 -96q0 -58 40 -94.5
t116 -36.5q82 0 121 35t39 93t-44 90t-120 49zM136 520q0 -36 13.5 -61.5t40 -41t51.5 -23.5t63 -16q47 14 76 50.5t29 88.5q0 53 -36 83t-100 30q-62 0 -99.5 -30.5t-37.5 -79.5z" />
    <glyph glyph-name="nine" unicode="9" 
d="M499 201q0 -343 -249 -343q-88 0 -147.5 30.5t-59.5 62.5q0 23 21 39q79 -60 174 -60q97 0 139 58.5t45 190.5q-73 -48 -179 -48q-89 0 -149 48.5t-60 146.5q0 107 55.5 171t170.5 64q123 0 181 -80.5t58 -279.5zM250 196q103 0 172 49q-4 134 -40.5 190.5t-116.5 56.5
t-119 -43.5t-39 -116.5q0 -65 40.5 -100.5t102.5 -35.5z" />
    <glyph glyph-name="colon" unicode=":" horiz-adv-x="171" 
d="M40 45q0 47 45 47q46 0 46 -47q0 -45 -46 -45q-45 0 -45 45zM40 453q0 47 45 47q46 0 46 -47q0 -45 -46 -45q-45 0 -45 45z" />
    <glyph glyph-name="semicolon" unicode=";" horiz-adv-x="175" 
d="M86 0q-46 0 -46 45q0 47 46 47q25 0 37 -15.5t12 -53.5q0 -54 -15 -86t-36 -32q-22 0 -26 17q13 12 20.5 36.5t7.5 41.5zM42 453q0 47 45 47q46 0 46 -47q0 -45 -46 -45q-45 0 -45 45z" />
    <glyph glyph-name="less" unicode="&#x3c;" horiz-adv-x="356" 
d="M60 287l214 202q8 4 19 4q10 0 19 -10t9 -21q0 -12 -14 -28l-198 -189l202 -191q6 -8 6 -21t-10 -22.5t-20 -9.5q-15 0 -30 15l-207 195q-12 22 -12 34q0 23 22 42z" />
    <glyph glyph-name="equal" unicode="=" horiz-adv-x="524" 
d="M434 123h-372q-8 20 -8 39q0 35 32 35h376q8 -13 8 -36q0 -38 -36 -38zM434 313h-372q-8 20 -8 39q0 35 32 35h376q8 -13 8 -36q0 -38 -36 -38z" />
    <glyph glyph-name="greater" unicode="&#x3e;" horiz-adv-x="356" 
d="M296 207l-214 -202q-8 -4 -19 -4q-10 0 -19 10t-9 21q0 12 14 28l198 189l-202 191q-6 8 -6 21t10 22.5t20 9.5q15 0 30 -15l207 -195q12 -22 12 -34q0 -23 -22 -42z" />
    <glyph glyph-name="question" unicode="?" horiz-adv-x="493" 
d="M375 472q0 72 -40 106.5t-108 34.5q-58 0 -102.5 -23t-59.5 -57q-32 12 -32 45q0 38 52.5 75t145.5 37q101 0 160.5 -54t59.5 -148q0 -93 -55.5 -146t-145.5 -62l6 -132q-11 -10 -38 -10q-29 0 -31 31l-4 130q0 22 8 31q74 2 129 37.5t55 104.5zM181 45q0 47 46 47
t46 -47q0 -45 -46 -45t-46 45z" />
    <glyph glyph-name="at" unicode="@" horiz-adv-x="865" 
d="M651 -63q19 -10 19 -27q0 -22 -24 -35q-86 -42 -213 -42q-175 0 -287 107.5t-112 287.5q0 177 110.5 286.5t288.5 109.5t287.5 -106t109.5 -272q0 -113 -55.5 -179.5t-138.5 -66.5q-93 0 -93 73v11q-94 -83 -177 -83q-58 0 -89.5 36.5t-31.5 98.5q0 51 33.5 81t97.5 34
l167 11v36q0 83 -101 83q-43 0 -84.5 -8.5t-59.5 -17.5q-13 8 -13 32q0 29 51.5 45.5t109.5 16.5q157 -2 157 -131v-228q0 -22 9.5 -29.5t31.5 -7.5q51 0 86.5 52.5t35.5 143.5q0 135 -92 221.5t-241 86.5q-148 0 -240.5 -91.5t-92.5 -238.5q0 -152 93.5 -240.5t240.5 -88.5
q120 0 217 39zM382 62q68 0 161 72v78l-164 -14q-70 -7 -70 -64q0 -32 19 -52t54 -20z" />
    <glyph glyph-name="A" unicode="A" horiz-adv-x="640" 
d="M56 0q-27 0 -38 11l258 676q22 13 46 13q32 0 44 -30l256 -652q-8 -18 -38 -18q-35 0 -44 31l-56 139h-329l-55 -145q-9 -25 -44 -25zM317 593l-137 -357h278z" />
    <glyph glyph-name="B" unicode="B" horiz-adv-x="665" 
d="M143 700h219q197 0 197 -184q0 -96 -72 -147q114 -45 114 -174q0 -67 -34.5 -113t-83.5 -64t-108 -18h-232q-39 0 -39 36v657q11 7 39 7zM345 328h-164v-263h171q171 0 171 134q0 129 -178 129zM347 636h-166v-245h165q139 4 139 127q0 65 -34.5 91.5t-103.5 26.5z" />
    <glyph glyph-name="C" unicode="C" horiz-adv-x="641" 
d="M569 147q12 1 23 -7.5t11 -24.5q0 -27 -26 -46q-79 -79 -217 -79q-137 0 -216.5 88t-79.5 272q0 178 78.5 269t212.5 91q146 0 215 -83q22 -19 22 -43q0 -26 -29 -36q-69 88 -205 88q-100 0 -158.5 -72.5t-58.5 -214.5q0 -287 222 -287q135 0 206 85z" />
    <glyph glyph-name="D" unicode="D" horiz-adv-x="696" 
d="M143 700h136q180 0 266.5 -87t86.5 -271q0 -182 -83.5 -262t-242.5 -80h-163q-39 0 -39 36v656q13 8 39 8zM284 627h-102v-557h121q126 0 188.5 63t62.5 207q0 147 -66 217t-204 70z" />
    <glyph glyph-name="E" unicode="E" horiz-adv-x="636" 
d="M494 322h-312v-248h393q9 -9 9 -32q0 -42 -32 -42h-413q-35 0 -35 37v655q13 8 37 8h434q9 -9 9 -32q0 -42 -32 -42h-370v-230h334q9 -9 9 -35q0 -39 -31 -39z" />
    <glyph glyph-name="F" unicode="F" horiz-adv-x="623" 
d="M494 309h-312v-301q-10 -8 -43 -8q-35 0 -35 37v655q13 8 37 8h430q8 -10 8 -32q0 -42 -32 -42h-365v-243h336q8 -10 8 -32q0 -42 -32 -42z" />
    <glyph glyph-name="G" unicode="G" horiz-adv-x="702" 
d="M557 295h-188q-7 16 -7 33q0 15 9.5 23.5t36.5 8.5h160q32 0 43 -13.5t11 -49.5v-289q-14 -9 -36 -9q-14 0 -21.5 6.5t-7.5 25.5v65q-82 -106 -203 -106q-124 0 -207 90t-83 270q0 176 84.5 268t219.5 92q102 0 165 -34.5t63 -65.5q0 -15 -10 -24.5t-22 -10.5
q-72 64 -195 64q-100 0 -166 -75t-66 -215q0 -148 64.5 -220t158.5 -72q60 0 112 30t85 83v125z" />
    <glyph glyph-name="H" unicode="H" horiz-adv-x="733" 
d="M591 700q38 0 38 -31v-660q-13 -9 -38 -9q-41 0 -41 37v285h-368v-312q-10 -10 -43 -10q-35 0 -35 37v655q14 8 41 8q37 0 37 -31v-275h368v298q16 8 41 8z" />
    <glyph glyph-name="I" unicode="I" horiz-adv-x="286" 
d="M146 700q36 0 36 -31v-659q-17 -10 -42 -10q-36 0 -36 37v655q14 8 42 8z" />
    <glyph glyph-name="J" unicode="J" horiz-adv-x="386" 
d="M247 700q35 0 35 -32v-532q0 -136 -135 -136q-127 0 -127 47q0 17 6 29h102q41 0 60.5 18t19.5 60v538q16 8 39 8z" />
    <glyph glyph-name="K" unicode="K" horiz-adv-x="614" 
d="M145 700q36 0 36 -31v-308q84 64 155.5 157t105.5 176q12 6 33 6q11 0 19.5 -8t8.5 -19q0 -20 -15 -48q-76 -146 -190 -250q29 -28 75.5 -108.5t88 -139t75.5 -58.5h28q7 -9 7 -26q0 -43 -60 -43q-46 0 -91 57.5t-95 149t-79 126.5q-36 -27 -66 -47v-277q-15 -9 -44 -9
q-33 0 -33 36v655q18 9 41 9z" />
    <glyph glyph-name="L" unicode="L" horiz-adv-x="540" 
d="M144 700q38 0 38 -31v-595h331q9 -11 9 -32q0 -42 -45 -42h-338q-35 0 -35 36v657q14 7 40 7z" />
    <glyph glyph-name="M" unicode="M" horiz-adv-x="897" 
d="M445 38q-37 0 -51 42l-198 484l-33 -536q-1 -28 -38 -28q-25 0 -39 7l45 639q5 54 54 54q21 0 38 -6l222 -552l190 516q12 42 53 42q25 0 47 -10l76 -680q-15 -10 -41 -10q-37 0 -41 28l-48 536l-183 -484q-7 -26 -19.5 -34t-33.5 -8z" />
    <glyph glyph-name="N" unicode="N" horiz-adv-x="734" 
d="M555 20l-377 531l4 -542q-11 -9 -44 -9q-34 0 -34 36v656q16 8 41 8q22 0 36 -19l375 -541l-2 550q13 10 37 10q41 0 41 -31v-662q-12 -7 -40 -7q-22 0 -37 20z" />
    <glyph glyph-name="O" unicode="O" horiz-adv-x="712" 
d="M64 350q0 178 79.5 269t215.5 91q134 0 211 -91t77 -269q0 -186 -76.5 -273t-211.5 -87q-137 0 -216 88.5t-79 271.5zM140 349q0 -151 59 -221t161 -70q211 0 211 291q0 144 -57 217.5t-155 73.5q-102 0 -160.5 -74t-58.5 -217z" />
    <glyph glyph-name="P" unicode="P" horiz-adv-x="621" 
d="M143 700h219q87 0 142 -52t55 -154q0 -61 -18.5 -105t-51.5 -67t-70.5 -33.5t-81.5 -10.5h-155v-270q-13 -8 -43 -8q-35 0 -35 36v657q14 7 39 7zM350 636h-168v-293h139q164 0 164 146q0 73 -35.5 110t-99.5 37z" />
    <glyph glyph-name="Q" unicode="Q" horiz-adv-x="712" 
d="M64 350q0 178 79.5 269t215.5 91q134 0 211 -91t77 -269q0 -264 -161 -333q55 -103 128 -103h50q6 -12 6 -28q0 -22 -18 -35.5t-50 -13.5q-112 0 -183 158q-32 -5 -60 -5q-137 0 -216 88.5t-79 271.5zM140 349q0 -151 59 -221t161 -70q211 0 211 291q0 144 -57 217.5
t-155 73.5q-102 0 -160.5 -74t-58.5 -217z" />
    <glyph glyph-name="R" unicode="R" horiz-adv-x="670" 
d="M143 700h219q90 0 145.5 -46.5t55.5 -146.5q0 -79 -46.5 -130t-116.5 -66q22 -29 57.5 -96t65 -106.5t60.5 -39.5h28q7 -9 7 -26q0 -43 -60 -43q-36 0 -68.5 34.5t-54 78.5t-52.5 102t-57 90h-144v-296q-10 -9 -39 -9q-39 0 -39 36v657q11 7 39 7zM347 638h-165v-271h152
q67 0 111 35.5t44 103.5q0 132 -142 132z" />
    <glyph glyph-name="S" unicode="S" horiz-adv-x="608" 
d="M299 710q144 0 207 -61q16 -16 16 -39q0 -21 -22 -37q-66 55 -201 55q-75 0 -111.5 -28.5t-36.5 -75.5t38.5 -76.5t139.5 -58.5q118 -31 169 -76t52 -130q1 -90 -61 -141.5t-184 -51.5q-126 0 -202 47q-45 29 -45 59q0 24 14 40q37 -32 99.5 -50.5t130.5 -18.5
q89 0 130.5 31t41.5 82q0 49 -36.5 79.5t-133.5 57.5q-128 35 -178.5 79.5t-50.5 128.5q0 83 56.5 134t167.5 51z" />
    <glyph glyph-name="T" unicode="T" horiz-adv-x="598" 
d="M549 626h-212v-618q-11 -8 -43 -8q-33 0 -33 36v590h-236q-9 18 -9 38q0 36 41 36h516q9 -11 9 -32q0 -42 -33 -42z" />
    <glyph glyph-name="U" unicode="U" horiz-adv-x="701" 
d="M530 264v428q13 8 39 8q39 0 39 -31v-415q0 -264 -258 -264q-129 0 -190.5 64.5t-61.5 199.5l-1 438q13 8 40 8q38 0 38 -31v-404q0 -104 41 -154t134 -50q97 0 138.5 49.5t41.5 153.5z" />
    <glyph glyph-name="V" unicode="V" horiz-adv-x="647" 
d="M69 700q30 0 41 -27l224 -567q65 107 136 295t84 290q16 9 41 9q12 0 20 -5.5t8 -14.5q0 -16 -7 -52q-17 -93 -95.5 -286t-163.5 -336q-16 -6 -34 -6q-26 0 -39 32l-260 660q16 8 45 8z" />
    <glyph glyph-name="W" unicode="W" horiz-adv-x="1000" 
d="M453 700q30 0 40 -27l224 -567q61 101 121.5 287.5t74.5 297.5q18 9 41 9q12 0 20 -5.5t8 -14.5q0 -15 -6 -52q-19 -105 -87 -295.5t-148 -326.5q-17 -6 -34 -6q-27 0 -39 32l-142 360q-94 -229 -185 -385q-17 -6 -34 -6q-26 0 -39 31l-250 660q16 8 45 8q30 0 41 -27
l214 -566q37 62 85 170.5t85 210.5l-80 204q14 8 45 8z" />
    <glyph glyph-name="X" unicode="X" horiz-adv-x="669" 
d="M105 700q38 0 65 -39l167 -236l170 246q19 29 55 29q31 0 42 -16l-223 -321l246 -347q-19 -16 -52 -16q-39 0 -62 32l-187 266l-191 -272q-16 -26 -54 -26q-26 0 -39 18l239 343l-223 319q12 20 47 20z" />
    <glyph glyph-name="Y" unicode="Y" horiz-adv-x="591" 
d="M342 233v-224q-13 -9 -43 -9q-34 0 -34 29v201q-159 228 -229 458q19 12 44 12q29 0 38 -26q62 -202 188 -387q61 93 117.5 216.5t68.5 191.5q10 5 37 5q11 0 18.5 -8t7.5 -19q-1 -59 -74 -204.5t-139 -235.5z" />
    <glyph glyph-name="Z" unicode="Z" horiz-adv-x="639" 
d="M559 632l-418 -563h459q7 -16 7 -33q0 -36 -38 -36h-531q-6 14 -6 28q0 23 14 40l418 560h-397q-9 16 -9 34q0 38 35 38h475q6 -6 6 -27q0 -22 -15 -41z" />
    <glyph glyph-name="bracketleft" unicode="[" horiz-adv-x="307" 
d="M58 -73v773q20 12 53 12h158q9 -11 9 -33q0 -42 -28 -42h-117v-673h136q9 -14 9 -33q0 -42 -30 -42h-180q-10 15 -10 38z" />
    <glyph glyph-name="backslash" unicode="\" horiz-adv-x="298" 
d="M73 712q22 0 36 -8l127 -721q7 -37 -35 -37q-28 0 -38 8l-128 727q-3 16 8.5 23.5t29.5 7.5z" />
    <glyph glyph-name="bracketright" unicode="]" horiz-adv-x="307" 
d="M278 673v-773q-20 -12 -53 -12h-158q-9 11 -9 33q0 42 28 42h117v673h-136q-9 14 -9 33q0 42 30 42h180q10 -15 10 -38z" />
    <glyph glyph-name="asciicircum" unicode="^" horiz-adv-x="483" 
d="M391 580q-5 -23 -24 -26q-8 -3 -19 0q-13 4 -31.5 16t-45 32t-39.5 29q-12 -8 -39.5 -28.5t-46 -32.5t-31.5 -16q-10 -3 -18 0q-19 3 -24 26q8 4 70 58t87 54q24 0 87 -53t74 -59z" />
    <glyph glyph-name="underscore" unicode="_" horiz-adv-x="608" 
d="M558 -155h-530q-8 20 -8 37q0 37 36 37h525q7 -9 7 -34q0 -40 -30 -40z" />
    <glyph glyph-name="grave" unicode="`" horiz-adv-x="540" 
d="M338 578q-6 -28 -34 -28q-15 0 -43.5 20t-64 48t-54.5 38q2 34 39 34q24 0 87 -54t70 -58z" />
    <glyph glyph-name="a" unicode="a" horiz-adv-x="493" 
d="M85 387q-14 12 -14 32q0 33 52.5 53t112.5 20q74 0 121 -34.5t47 -110.5v-257q0 -35 25 -35h28q6 -8 6 -26q0 -29 -64 -29q-28 0 -45 19t-17 50v4q-85 -83 -173 -83q-65 0 -98.5 40.5t-33.5 108.5q0 60 34.5 95.5t101.5 39.5l169 10v43q0 95 -104 95q-43 0 -85 -10.5
t-63 -24.5zM175 56q78 0 162 78v94l-165 -16q-71 -7 -71 -74q0 -35 19 -58.5t55 -23.5z" />
    <glyph glyph-name="b" unicode="b" horiz-adv-x="516" 
d="M139 670v-241q61 63 139 63q83 0 132.5 -61.5t49.5 -179.5q0 -131 -58 -196t-155 -65q-93 0 -156 45q-25 20 -25 41v614q15 10 38 10q35 0 35 -30zM262 415q-73 0 -123 -59v-260q44 -36 111 -36q65 0 101.5 46.5t36.5 137.5q0 84 -34.5 127.5t-91.5 43.5z" />
    <glyph glyph-name="c" unicode="c" horiz-adv-x="472" 
d="M424 424q0 -20 -19 -39q-38 18 -62 24.5t-70 6.5q-63 0 -103.5 -42.5t-40.5 -134.5q0 -84 41.5 -131.5t110.5 -47.5q83 0 136 39q13 -11 13 -33q0 -29 -30 -46q-52 -30 -123 -30q-101 0 -161 67.5t-60 182.5q0 129 63.5 190.5t151.5 61.5q51 0 78.5 -8.5t53.5 -25.5
q20 -11 21 -34z" />
    <glyph glyph-name="d" unicode="d" horiz-adv-x="563" 
d="M469 0q-58 0 -77 47q-64 -57 -143 -57q-83 0 -138 61.5t-55 187.5q0 125 60 189t143 64q79 0 127 -48v227q0 29 31 29q27 0 41 -10v-597q0 -34 31 -34h32q6 -12 6 -26q0 -33 -58 -33zM260 60q75 0 126 46v258q-24 27 -49.5 38.5t-68.5 11.5q-55 0 -96.5 -43t-41.5 -129
q0 -91 36 -136.5t94 -45.5z" />
    <glyph glyph-name="e" unicode="e" horiz-adv-x="501" 
d="M444 233h-317q1 -83 41 -128t105 -45q48 0 91.5 14.5t64.5 30.5q17 -10 17 -33t-17 -35q-63 -47 -162 -47q-97 0 -155.5 68t-58.5 181q0 120 64 186.5t154 66.5q87 0 133.5 -58t46.5 -150q0 -33 -7 -51zM269 424q-51 0 -89 -35t-49 -101h252q0 63 -28.5 99.5t-85.5 36.5z
" />
    <glyph glyph-name="f" unicode="f" horiz-adv-x="346" 
d="M187 564v-82h121q7 -10 7 -27q0 -38 -34 -38h-94v-392q0 -25 -43 -25q-24 0 -34 9v408h-59q-7 12 -7 28q0 37 37 37h29v92q0 71 31.5 101.5t91.5 30.5q61 0 81 -10.5t20 -30.5q0 -22 -9 -33h-72q-34 0 -50 -14.5t-16 -53.5z" />
    <glyph glyph-name="g" unicode="g" horiz-adv-x="505" 
d="M426 422h-48q28 -45 28 -116q0 -96 -47.5 -140t-129.5 -44q-47 0 -84 15q-13 -31 -13 -54q0 -27 17 -40.5t59 -13.5h153q55 0 83 -28t28 -76q0 -81 -62.5 -129t-171.5 -48q-84 0 -140 31.5t-56 67.5q0 24 24 41q60 -74 170 -74q79 0 123.5 27.5t44.5 73.5q0 49 -60 49
h-149q-131 0 -131 96q0 50 38 106q-47 45 -47 140q0 92 49 139t129 47q64 0 105 -29q10 19 36 19h81q7 -9 7 -27q0 -33 -36 -33zM131 304q0 -121 99 -121t99 121q0 124 -95 124q-48 0 -75.5 -31.5t-27.5 -92.5z" />
    <glyph glyph-name="h" unicode="h" horiz-adv-x="534" 
d="M104 700q35 0 35 -31v-273q73 96 174 96q135 0 135 -159v-252q0 -25 21 -25h30q5 -8 5 -22q0 -34 -70 -34q-62 0 -62 74v241q0 100 -82 100q-41 0 -82.5 -25.5t-68.5 -68.5v-313q-11 -8 -39 -8q-36 0 -36 37v654q14 9 40 9z" />
    <glyph glyph-name="i" unicode="i" horiz-adv-x="291" 
d="M114 482q36 0 53.5 -16.5t17.5 -61.5v-316q0 -26 23 -26h29q6 -9 6 -25q0 -37 -67 -37q-66 0 -66 68v315q0 28 -25 28h-29q-6 11 -6 30q0 41 64 41zM89 619q0 50 49 50t49 -50q0 -48 -49 -48t-49 48z" />
    <glyph glyph-name="j" unicode="j" horiz-adv-x="284" 
d="M123 482q38 0 54.5 -17.5t16.5 -59.5v-450q0 -126 -117 -126q-95 0 -95 42q0 16 5 30h73q62 0 62 69v413q0 28 -23 28h-39q-5 13 -5 31q0 40 68 40zM101 619q0 50 49 50t49 -50q0 -48 -49 -48t-49 48z" />
    <glyph glyph-name="k" unicode="k" horiz-adv-x="454" 
d="M102 700q41 0 41 -31v-392q68 32 111 88.5t46 108.5q13 8 33 8q37 0 37 -32q0 -49 -50.5 -110t-110.5 -84q26 -15 59.5 -62.5t66 -84t65.5 -36.5h35q6 -10 6 -28q0 -20 -15 -32.5t-42 -12.5q-37 0 -72 29t-58.5 65t-54 77t-56.5 57v-218q-13 -10 -42 -10q-35 0 -35 37
v653q13 10 36 10z" />
    <glyph glyph-name="l" unicode="l" horiz-adv-x="299" 
d="M147 667v-526q0 -44 14.5 -60t52.5 -16h68q3 -9 3 -23q0 -18 -24 -30t-72 -12q-61 0 -89 29t-28 94v567q14 11 37 11q38 -1 38 -34z" />
    <glyph glyph-name="m" unicode="m" horiz-adv-x="886" 
d="M110 482q76 0 76 -78v-17q73 105 168 105q102 0 124 -106q78 106 177 106q64 0 101.5 -42t37.5 -123v-244q0 -27 19 -27h38q5 -8 5 -21q0 -35 -75 -35q-65 0 -65 70v239q0 104 -83 104q-82 0 -150 -93v-237q0 -27 18 -27h35q4 -10 4 -22q0 -34 -74 -34q-32 0 -47 16.5
t-15 53.5v241q0 102 -78 102q-77 0 -140 -94v-310q-14 -9 -43 -9q-37 0 -37 39v344q0 28 -25 28h-36q-7 18 -7 33q0 38 72 38z" />
    <glyph glyph-name="n" unicode="n" horiz-adv-x="592" 
d="M109 482q36 0 56.5 -20t20.5 -58v-15q78 103 176 103q64 0 101 -41.5t37 -123.5v-244q0 -27 19 -27h39q4 -10 4 -21q0 -35 -74 -35q-33 0 -49 16.5t-16 53.5v239q0 51 -22.5 78.5t-62.5 27.5q-84 0 -152 -99v-307q-14 -9 -43 -9q-37 0 -37 39v344q0 28 -25 28h-36
q-7 18 -7 33q0 38 71 38z" />
    <glyph glyph-name="o" unicode="o" 
d="M56 240q0 124 61 188t162 64t158 -63.5t57 -188.5q0 -130 -58.5 -190t-161.5 -60q-101 0 -159.5 60.5t-58.5 189.5zM135 239q0 -179 139 -179q141 0 141 179q0 91 -35.5 136.5t-100.5 45.5q-66 0 -105 -46.5t-39 -135.5z" />
    <glyph glyph-name="p" unicode="p" horiz-adv-x="562" 
d="M101 482q70 0 73 -73q68 83 154 83q78 0 127.5 -55.5t50.5 -187.5q0 -125 -56 -192t-138 -67q-81 0 -138 59v-236q-13 -8 -40 -8q-37 0 -37 39v539q0 28 -24 28h-36q-7 18 -7 33q0 38 71 38zM307 413q-75 0 -133 -74v-209q53 -68 124 -68q59 0 96 45.5t37 133.5
q0 172 -124 172z" />
    <glyph glyph-name="q" unicode="q" horiz-adv-x="558" 
d="M390 -157v200q-61 -53 -144 -53q-85 0 -137.5 64t-52.5 187q0 122 56.5 186.5t142.5 64.5t141 -58q19 48 77 48q55 0 55 -36q0 -19 -5 -32h-35q-26 0 -26 -31v-563q-16 -8 -39 -8q-33 0 -33 31zM261 60q77 0 129 47v249q-43 59 -133 59q-52 0 -90 -44t-38 -130
q0 -87 37.5 -134t94.5 -47z" />
    <glyph glyph-name="r" unicode="r" horiz-adv-x="426" 
d="M99 482q38 0 57.5 -19t19.5 -64v-5q33 43 74.5 70.5t81.5 27.5q86 0 86 -84q0 -55 -44 -55q-17 0 -29 12q0 44 -44 44q-66 0 -125 -87v-313q-10 -9 -42 -9q-36 0 -36 36v344q0 31 -25 31h-37q-6 16 -6 33q0 16 19 27t50 11z" />
    <glyph glyph-name="s" unicode="s" horiz-adv-x="456" 
d="M225 492q76 0 120.5 -24t44.5 -52q0 -30 -18 -40q-18 16 -59 27.5t-90 11.5t-72.5 -17.5t-23.5 -45.5q0 -31 26.5 -47t88.5 -28q88 -15 126.5 -49t38.5 -98q0 -67 -45 -103.5t-133 -36.5q-77 0 -129.5 24t-52.5 53q0 27 16 42q24 -18 71.5 -34t89.5 -16q113 0 113 70
q0 33 -25.5 51t-87.5 29q-92 16 -129 48.5t-37 98.5q0 60 43.5 98t123.5 38z" />
    <glyph glyph-name="t" unicode="t" horiz-adv-x="367" 
d="M300 417h-122v-275q0 -43 14.5 -59t46.5 -16h96q5 -12 5 -22q0 -45 -121 -45q-54 0 -84 28t-30 96v293h-59q-8 11 -8 28q0 37 33 37h34v131q14 8 39 8q34 0 34 -33v-106h153q7 -7 7 -26q0 -39 -38 -39z" />
    <glyph glyph-name="u" unicode="u" horiz-adv-x="592" 
d="M481 0q-68 0 -68 79v9q-75 -98 -178 -98q-134 0 -134 161v234q0 27 -23 27h-44q-4 18 -4 32q1 38 77 38q39 0 56.5 -16t17.5 -54v-244q0 -101 77 -101q93 0 155 106v300q17 9 43 9q37 0 37 -30v-359q0 -28 23 -28h37q3 -18 3 -25q0 -40 -75 -40z" />
    <glyph glyph-name="v" unicode="v" horiz-adv-x="511" 
d="M66 482q53 0 69 -40l130 -343q50 71 87.5 157.5t37.5 134.5q0 30 -31 30h-29q-5 12 -5 30q0 31 61 31q40 0 58.5 -17.5t18.5 -57.5q0 -62 -47.5 -170t-108.5 -197q-15 -22 -26.5 -31t-28.5 -9q-18 0 -28 6l-150 393q-7 22 -27 22h-29q-6 16 -6 30q0 13 14.5 22t39.5 9z
" />
    <glyph glyph-name="w" unicode="w" horiz-adv-x="781" 
d="M513 7l-109 314q-37 -147 -115 -275q-16 -26 -28 -36t-28 -10q-19 0 -29 8l-129 395q-5 18 -22 18h-36q-5 13 -5 27q0 34 67 34q48 0 63 -41l106 -333q45 68 80 157t35 133q0 23 -18 23h-29q-5 12 -5 26q0 16 19.5 25.5t50.5 9.5q39 0 51 -37l114 -339q48 65 80 149.5
t32 138.5q0 27 -24 27h-34q-5 12 -5 27t18.5 24.5t48.5 9.5q70 0 70 -75q0 -67 -41 -174.5t-93 -184.5q-17 -26 -29 -37t-29 -11t-27 7z" />
    <glyph glyph-name="x" unicode="x" horiz-adv-x="529" 
d="M110 482q48 0 75 -44l84 -133l105 146q19 31 47 31q25 0 37 -12.5t11 -29.5l-164 -191l100 -156q19 -32 45 -32h37q4 -7 4 -25q0 -36 -67 -36q-51 0 -76 40l-94 146l-118 -158q-22 -28 -50 -28q-18 0 -30 13t-14 30l176 200l-104 163q-10 15 -28 15h-42q-4 14 -4 22
q0 18 20 28.5t50 10.5z" />
    <glyph glyph-name="y" unicode="y" horiz-adv-x="540" 
d="M146 429l124 -328q7 -22 23 -25q123 242 123 318q0 27 -24 27h-36q-5 10 -5 27q0 15 17.5 24.5t43.5 9.5q80 0 80 -70q0 -67 -73 -231t-133 -258q-40 -63 -83.5 -87t-101.5 -24q-69 0 -69 39q0 16 6 28h74q32 0 59 15.5t55 60.5l32 56q-32 6 -47 47l-132 343
q-7 20 -25 20h-37q-5 10 -5 27q0 34 64 34q29 0 45 -12.5t25 -40.5z" />
    <glyph glyph-name="z" unicode="z" horiz-adv-x="499" 
d="M42 29q0 20 11 33l286 355h-274q-8 11 -8 28q0 12 2 19t9.5 12.5t21.5 5.5h343q5 -15 5 -26q0 -18 -13 -35l-283 -354h309q6 -10 6 -32q0 -35 -39 -35h-368q-8 14 -8 29z" />
    <glyph glyph-name="braceleft" unicode="{" horiz-adv-x="320" 
d="M204 712q85 0 85 -44q0 -16 -7 -27h-69q-50 0 -50 -58v-203q0 -41 -14.5 -59.5t-30.5 -20.5v-4q15 -1 30 -22t15 -62v-201q0 -54 49 -54h71q6 -9 6 -25q0 -44 -96 -44q-41 0 -70 25.5t-29 77.5v218q0 46 -39 52q-22 5 -22 38q0 22 7 31q22 -1 38 14.5t16 39.5v214
q0 61 31.5 87.5t78.5 26.5z" />
    <glyph glyph-name="bar" unicode="|" horiz-adv-x="266" 
d="M137 712q36 0 36 -27v-789q-16 -8 -45 -8q-33 0 -33 34v782q13 8 42 8z" />
    <glyph glyph-name="braceright" unicode="}" horiz-adv-x="320" 
d="M118 -112q-85 0 -85 44q0 16 7 27h69q50 0 50 58v203q0 41 14.5 59.5t30.5 20.5v4q-15 1 -30 22t-15 62v201q0 54 -49 54h-71q-6 9 -6 25q0 44 96 44q41 0 70 -25.5t29 -77.5v-218q0 -46 39 -52q22 -5 22 -38q0 -22 -7 -31q-22 1 -38 -14.5t-16 -39.5v-214
q0 -61 -31.5 -87.5t-78.5 -26.5z" />
    <glyph glyph-name="asciitilde" unicode="~" horiz-adv-x="515" 
d="M133 657q29 0 82.5 -15.5t77.5 -15.5q42 0 63 24q18 -9 18 -34q0 -19 -18.5 -32.5t-50.5 -13.5q-27 0 -89 14.5t-84 14.5q-19 0 -35.5 -8.5t-18.5 -17.5q-20 7 -20 31q0 17 21.5 35t53.5 18z" />
    <glyph glyph-name="uni00A0" unicode="&#xa0;" horiz-adv-x="240" 
 />
    <glyph glyph-name="exclamdown" unicode="&#xa1;" horiz-adv-x="173" 
d="M7 -218q-41 0 -41 31v511q11 11 39 11q39 0 39 -42v-503q-13 -8 -37 -8zM50 437q0 -47 -46 -47t-46 47q0 45 46 45t46 -45z" />
    <glyph glyph-name="cent" unicode="&#xa2;" horiz-adv-x="503" 
d="M449 424q2 -18 -19 -39q-57 27 -110 29l-2 -353q83 6 124 38q14 -12 14 -33q0 -29 -31 -46q-44 -25 -108 -28l-1 -76q-10 -8 -31 -8q-26 0 -26 27l1 57q-93 11 -146.5 76.5t-53.5 171.5q0 120 59 181.5t146 69.5l1 79q12 7 27 7q30 -2 30 -27l-1 -61q56 -3 106 -31
q20 -11 21 -34zM128 239q0 -74 35.5 -120t97.5 -55l2 350q-60 -6 -97.5 -48.5t-37.5 -126.5z" />
    <glyph glyph-name="sterling" unicode="&#xa3;" horiz-adv-x="584" 
d="M531 0h-510q-8 20 -8 36q0 35 26 38q59 3 69 210h-66q-8 20 -8 33q0 21 8 31t34 10h35q1 13 1 41q0 132 53 215t167 83q89 0 139 -19t50 -47q0 -30 -21 -41q-57 35 -164 35q-45 0 -75.5 -18.5t-46 -52.5t-21.5 -71t-6 -85v-40h254q8 -8 8 -29q0 -45 -52 -45h-214
q-6 -159 -44 -210h415q9 -14 9 -32q0 -42 -32 -42z" />
    <glyph glyph-name="currency" unicode="&#xa4;" horiz-adv-x="528" 
d="M79 244q0 54 31 96l-44 43q-29 22 -27 50q2 24 16 35.5t30 9.5l78 -84q43 31 97 31q48 0 87 -25l42 51q19 31 47 31q24 0 36.5 -12.5t11.5 -29.5l-80 -90q38 -48 38 -106q0 -54 -32 -97l55 -53q26 -21 24 -51q-1 -18 -15 -29t-32 -12l-84 91q-43 -31 -98 -31
q-43 0 -79 22l-45 -56q-22 -28 -49 -28q-18 0 -30.5 12.5t-14.5 30.5l79 87q-42 50 -42 114zM138 244q0 -50 36 -86.5t86 -36.5t86.5 36.5t36.5 86.5t-36.5 86t-86.5 36t-86 -36t-36 -86z" />
    <glyph glyph-name="yen" unicode="&#xa5;" horiz-adv-x="590" 
d="M340 233v-38h168q8 -6 8 -25q0 -38 -52 -38h-124v-123q-13 -9 -43 -9q-34 0 -34 29v103h-162q-9 18 -9 28q0 18 8.5 26.5t32.5 8.5h130v35l-17 23h-145q-9 20 -9 30q0 16 8.5 25t31.5 8l76 -1q-110 180 -168 373q19 12 40 12q30 0 38 -26q68 -220 186 -390q60 90 117 216
t69 195q10 5 34 5q11 0 18.5 -8t7.5 -19q-1 -48 -49.5 -155t-107.5 -203l115 1q8 -6 8 -25q0 -15 -13.5 -26.5t-43.5 -11.5h-105z" />
    <glyph glyph-name="brokenbar" unicode="&#xa6;" horiz-adv-x="266" 
d="M131 712q42 0 42 -31v-334q-10 -10 -44 -10t-34 38v329q11 8 36 8zM131 263q42 0 42 -31v-334q-10 -10 -44 -10t-34 37v330q11 8 36 8z" />
    <glyph glyph-name="section" unicode="&#xa7;" horiz-adv-x="592" 
d="M306 723q83 0 133 -27t50 -59q0 -31 -28 -43q-16 22 -58.5 38t-103.5 16q-134 0 -134 -70q0 -32 35 -53t112 -38q102 -22 158 -59.5t57 -104.5q0 -70 -60 -142q34 -31 34 -71q1 -72 -57 -110.5t-155 -38.5q-85 0 -141.5 29t-56.5 55q0 19 4 26t15 16q26 -24 73 -40.5
t106 -16.5q68 0 104.5 20t35.5 57q-1 27 -38 46t-117 37q-108 25 -160 59.5t-53 106.5q-1 68 69 132q-37 34 -37 92q0 62 53 102.5t160 40.5zM275 428q-66 16 -95 31q-51 -43 -51 -101q1 -30 25 -52t58 -34t94 -27q75 -19 108 -33q45 45 43 100q-1 40 -45 67t-137 49z" />
    <glyph glyph-name="dieresis" unicode="&#xa8;" horiz-adv-x="477" 
d="M76 615q0 46 46 46t46 -46q0 -45 -46 -45t-46 45zM286 615q0 46 45 46q46 0 46 -46q0 -45 -46 -45q-45 0 -45 45z" />
    <glyph glyph-name="copyright" unicode="&#xa9;" horiz-adv-x="794" 
d="M37 350q0 165 97.5 262.5t262.5 97.5q164 0 262 -97.5t98 -262.5q0 -164 -98 -262t-262 -98q-165 0 -262.5 98t-97.5 262zM103 350q0 -134 79.5 -214t214.5 -80t215 80t80 214q0 136 -80 215.5t-215 79.5t-214.5 -79.5t-79.5 -215.5zM518 499q2 -13 -17 -32
q-29 15 -48 20t-56 5q-50 0 -82 -33.5t-32 -106.5q0 -67 33 -105t88 -38q62 0 105 30q13 -9 13 -26q0 -24 -23 -36q-39 -25 -99 -25q-80 0 -128 54t-48 146q0 103 50.5 152t120.5 49q65 0 107 -27q16 -8 16 -27z" />
    <glyph glyph-name="ordfeminine" unicode="&#xaa;" horiz-adv-x="271" 
d="M50 538q-10 6 -10 25q0 17 30 27t62 10q93 0 93 -78v-119q0 -18 16 -18q4 0 10 2q5 -5 5 -15q0 -22 -30 -22q-43 0 -43 36q-44 -37 -93 -37q-36 0 -55 21t-19 56q0 61 79 66l88 6v10q0 46 -54 46q-44 0 -79 -16zM99 391q40 0 84 30v43l-85 -9q-36 -3 -36 -30
q0 -34 37 -34z" />
    <glyph glyph-name="guillemotleft" unicode="&#xab;" horiz-adv-x="495" 
d="M52 280l152 170q8 4 18 4q13 0 22.5 -10.5t9.5 -22.5q0 -14 -11 -27l-133 -151l140 -162q3 -12 3 -17q0 -12 -11 -20.5t-22 -8.5q-17 0 -29 15l-143 161q-8 14 -8 34t12 35zM252 280l152 170q8 4 18 4q13 0 22.5 -10.5t9.5 -22.5q0 -14 -11 -27l-133 -151l140 -162
q3 -12 3 -17q0 -12 -11 -20.5t-22 -8.5q-17 0 -29 15l-143 161q-8 14 -8 34t12 35z" />
    <glyph glyph-name="logicalnot" unicode="&#xac;" horiz-adv-x="542" 
d="M426 128q-34 0 -34 38v137h-330q-8 20 -8 39q0 35 32 35h376q8 -13 8 -36v-203q-10 -10 -44 -10z" />
    <glyph glyph-name="uni00AD" unicode="&#xad;" horiz-adv-x="427" 
d="M330 229h-267q-9 18 -9 36q0 38 40 38h270q8 -10 8 -34q0 -40 -42 -40z" />
    <glyph glyph-name="registered" unicode="&#xae;" horiz-adv-x="583" 
d="M37 447q0 117 69 186t185 69t185.5 -69t69.5 -186q0 -116 -69.5 -185t-185.5 -69t-185 69t-69 185zM86 448q0 -95 55.5 -151t149.5 -56q95 0 150.5 56t55.5 151t-55.5 150t-150.5 55t-150 -55t-55 -150zM223 577h84q35 0 59 -18.5t24 -57.5q0 -55 -57 -74
q6 -8 18.5 -28.5t22 -31.5t20.5 -11h13q4 -4 4 -16q0 -27 -33 -27q-21 0 -35 16.5t-29 47.5t-26 45h-41v-104q-5 -5 -25 -5q-24 0 -24 23v237q7 4 25 4zM300 538h-53v-79h47q23 0 36.5 11t13.5 30q0 38 -44 38z" />
    <glyph glyph-name="macron" unicode="&#xaf;" horiz-adv-x="454" 
d="M332 581h-266q-8 16 -8 26q0 18 8.5 26t36.5 8h274q8 -8 8 -24q0 -36 -53 -36z" />
    <glyph glyph-name="degree" unicode="&#xb0;" horiz-adv-x="331" 
d="M32 567q0 55 39 94.5t94 39.5t94.5 -39.5t39.5 -94.5t-39.5 -94t-94.5 -39t-94 39t-39 94zM83 567q0 -35 24.5 -59t58.5 -24t58.5 24t24.5 59t-24.5 59t-58.5 24t-58.5 -24t-24.5 -59z" />
    <glyph glyph-name="plusminus" unicode="&#xb1;" horiz-adv-x="524" 
d="M299 472v-134h163q8 -10 8 -36q0 -38 -35 -38h-136v-163q-14 -8 -36 -8q-20 0 -29 9t-9 32v130h-163q-8 16 -8 36q0 38 30 38h141v163q10 8 38 8q36 0 36 -37zM434 -10h-372q-8 18 -8 36q0 32 32 32h376q8 -11 8 -33q0 -35 -36 -35z" />
    <glyph glyph-name="twosuperior" unicode="&#xb2;" horiz-adv-x="343" 
d="M25 630q0 23 36.5 46t95.5 23q71 0 108.5 -32t37.5 -87q0 -37 -20.5 -75.5t-54.5 -70.5t-65 -54.5t-63 -41.5v-4l217 3q5 -10 5 -27q0 -25 -21 -25h-274q-5 12 -5 30q0 24 17 37q110 77 150 118q55 57 55 102q0 35 -24 53.5t-65 18.5q-34 0 -65.5 -14t-43.5 -33
q-21 11 -21 33z" />
    <glyph glyph-name="threesuperior" unicode="&#xb3;" horiz-adv-x="338" 
d="M236 579q0 29 -22 46t-63 17q-74 0 -102 -42q-20 10 -20 31q0 24 33.5 46t92.5 22q68 0 103.5 -31t35.5 -80q0 -33 -19 -59.5t-49 -33.5v-1q33 -5 56 -30t23 -66q0 -50 -37 -83.5t-112 -33.5q-70 0 -102.5 25t-32.5 54q0 25 23 33q26 -60 109 -60q47 0 71 19.5t24 50.5
t-21 47.5t-59 16.5h-21q-15 0 -15 23q0 11 4 23q47 0 73.5 18t26.5 48z" />
    <glyph glyph-name="acute" unicode="&#xb4;" horiz-adv-x="519" 
d="M143 579q12 7 44.5 36t64 52.5t49.5 23.5q38 0 38 -34q-19 -10 -54 -38t-63.5 -48t-43.5 -20q-29 0 -35 28z" />
    <glyph glyph-name="mu" unicode="&#xb5;" horiz-adv-x="603" 
d="M476 31q-31 31 -38 65q-76 -101 -179 -105q-55 -2 -81 23v-194q-11 -8 -39 -8q-35 0 -35 64v509q0 27 -25 27h-46q-4 18 -4 32q1 38 78 38q21 0 36 -7t22.5 -16.5t11.5 -27.5t5 -32.5t1 -38.5v-163q0 -64 19 -97t64 -33q52 0 96.5 28t71.5 77v301q16 9 43 9q36 0 36 -30
q0 -60 0.5 -179.5t0.5 -179.5q0 -28 23 -28h39q3 -9 3 -25q0 -24 -41 -32t-62 23z" />
    <glyph glyph-name="paragraph" unicode="&#xb6;" horiz-adv-x="683" 
d="M602 626h-63v-768q-11 -9 -34 -9q-41 0 -41 38v739h-105l-1 -645q0 -51 -27.5 -74t-67.5 -23q-17 0 -28.5 12.5t-11.5 29.5q61 13 61 64v251q-96 0 -164 67t-68 162q0 96 66.5 163t165.5 67h342q8 -12 8 -32q0 -42 -32 -42z" />
    <glyph glyph-name="periodcentered" unicode="&#xb7;" horiz-adv-x="171" 
d="M40 262q0 47 45 47q46 0 46 -47q0 -45 -46 -45q-45 0 -45 45z" />
    <glyph glyph-name="cedilla" unicode="&#xb8;" horiz-adv-x="555" 
d="M311 -112q0 39 -64 41q-6 6 -6 20l1 67l49 -1l-4 -51q70 -10 70 -80q0 -37 -23.5 -58.5t-63.5 -21.5q-37 0 -57.5 13.5t-20.5 30.5q0 18 19 27q18 -26 56 -26q44 0 44 39z" />
    <glyph glyph-name="onesuperior" unicode="&#xb9;" horiz-adv-x="318" 
d="M278 285h-228q-7 12 -7 24q0 14 6.5 21t26.5 7h72v286q-41 -34 -90 -34q-24 0 -24 27q0 14 6 22q37 3 67.5 19t40.5 39q10 5 29 5q28 0 28 -22v-342h89q7 -7 7 -22q0 -30 -23 -30z" />
    <glyph glyph-name="ordmasculine" unicode="&#xba;" horiz-adv-x="293" 
d="M29 475q0 63 32.5 95t86.5 32t85 -31.5t31 -95.5q0 -66 -32 -96.5t-86 -30.5q-117 0 -117 127zM80 474q0 -83 66 -83q67 0 67 83q0 84 -65 84q-31 0 -49.5 -21.5t-18.5 -62.5z" />
    <glyph glyph-name="guillemotright" unicode="&#xbb;" horiz-adv-x="495" 
d="M242 209l-152 -170q-8 -4 -18 -4q-13 0 -22.5 10.5t-9.5 22.5q0 14 11 27l133 151l-140 162q-3 12 -3 17q0 12 11 20.5t22 8.5q17 0 29 -15l143 -161q8 -14 8 -34t-12 -35zM443 209l-152 -170q-8 -4 -18 -4q-13 0 -22.5 10.5t-9.5 22.5q0 14 11 27l133 151l-140 162
q-3 12 -3 17q0 12 11 20.5t22 8.5q17 0 29 -15l143 -161q8 -14 8 -34t-12 -35z" />
    <glyph glyph-name="onequarter" unicode="&#xbc;" horiz-adv-x="850" 
d="M555 700q18 0 25.5 -8t2.5 -23l-251 -665q-14 -6 -31 -6q-38 0 -22 41l245 656q11 5 31 5zM278 285h-228q-7 12 -7 24q0 14 6.5 21t26.5 7h72v286q-41 -34 -90 -34q-24 0 -24 27q0 14 6 22q37 3 67.5 19t40.5 39q10 5 29 5q28 0 28 -22v-342h89q7 -7 7 -22q0 -30 -23 -30
zM736 292q26 0 26 -21v-140h60q6 -6 6 -24q0 -23 -19 -23h-47l1 -79q-10 -5 -31 -5q-24 0 -24 21l-1 63h-202q-5 6 -5 19q0 12 5 25l92 281q12 5 32 5q12 0 17 -6.5t2 -16.5l-84 -260h143v153q14 8 29 8z" />
    <glyph glyph-name="onehalf" unicode="&#xbd;" horiz-adv-x="883" 
d="M555 700q18 0 25.5 -8t2.5 -23l-251 -665q-14 -6 -31 -6q-38 0 -22 41l245 656q11 5 31 5zM278 285h-228q-7 12 -7 24q0 14 6.5 21t26.5 7h72v286q-41 -34 -90 -34q-24 0 -24 27q0 14 6 22q37 3 67.5 19t40.5 39q10 5 29 5q28 0 28 -22v-342h89q7 -7 7 -22q0 -30 -23 -30
zM564 345q0 23 36.5 46t95.5 23q71 0 108.5 -32t37.5 -87q0 -37 -20.5 -75.5t-54.5 -70.5t-65 -54.5t-63 -41.5v-4l217 3q5 -10 5 -27q0 -25 -21 -25h-274q-5 12 -5 30q0 24 17 37q110 77 150 118q55 57 55 102q0 35 -24 53.5t-65 18.5q-34 0 -65.5 -14t-43.5 -33
q-21 10 -21 33z" />
    <glyph glyph-name="threequarters" unicode="&#xbe;" horiz-adv-x="829" 
d="M534 700q18 0 25.5 -8t2.5 -23l-251 -665q-14 -6 -31 -6q-38 0 -22 41l245 656q11 5 31 5zM236 579q0 29 -22 46t-63 17q-74 0 -102 -42q-20 10 -20 31q0 24 33.5 46t92.5 22q68 0 103.5 -31t35.5 -80q0 -33 -19 -59.5t-49 -33.5v-1q33 -5 56 -30t23 -66q0 -50 -37 -83.5
t-112 -33.5q-70 0 -102.5 25t-32.5 54q0 25 23 33q26 -60 109 -60q47 0 71 19.5t24 50.5t-21 47.5t-59 16.5h-21q-15 0 -15 23q0 11 4 23q47 0 73.5 18t26.5 48zM716 292q26 0 26 -21v-140h60q6 -6 6 -24q0 -23 -19 -23h-47l1 -79q-10 -5 -31 -5q-24 0 -24 21l-1 63h-202
q-5 6 -5 19q0 12 5 25l92 281q12 5 32 5q12 0 17 -6.5t2 -16.5l-84 -260h143v153q14 8 29 8z" />
    <glyph glyph-name="questiondown" unicode="&#xbf;" horiz-adv-x="493" 
d="M109 10q0 -72 40 -106.5t108 -34.5q58 0 102.5 23t59.5 57q32 -12 32 -45q0 -38 -52.5 -75t-145.5 -37q-101 0 -160.5 54t-59.5 148q0 93 55.5 146t145.5 62l-6 132q11 10 38 10q29 0 31 -31l4 -130q0 -22 -8 -31q-74 -2 -129 -37.5t-55 -104.5zM303 437q0 -47 -46 -47
t-46 47q0 45 46 45t46 -45z" />
    <glyph glyph-name="Agrave" unicode="&#xc0;" horiz-adv-x="640" 
d="M56 0q-27 0 -38 11l258 676q22 13 46 13q32 0 44 -30l256 -652q-8 -18 -38 -18q-35 0 -44 31l-56 139h-329l-55 -145q-9 -25 -44 -25zM317 593l-137 -357h278zM409 796q-6 -28 -34 -28q-15 0 -43.5 20t-64 48t-54.5 38q2 34 39 34q24 0 87 -54t70 -58z" />
    <glyph glyph-name="Aacute" unicode="&#xc1;" horiz-adv-x="640" 
d="M56 0q-27 0 -38 11l258 676q22 13 46 13q32 0 44 -30l256 -652q-8 -18 -38 -18q-35 0 -44 31l-56 139h-329l-55 -145q-9 -25 -44 -25zM317 593l-137 -357h278zM226 797q12 7 44.5 36t64 52.5t49.5 23.5q38 0 38 -34q-19 -10 -54 -38t-63.5 -48t-43.5 -20q-29 0 -35 28z
" />
    <glyph glyph-name="Acircumflex" unicode="&#xc2;" horiz-adv-x="640" 
d="M56 0q-27 0 -38 11l258 676q22 13 46 13q32 0 44 -30l256 -652q-8 -18 -38 -18q-35 0 -44 31l-56 139h-329l-55 -145q-9 -25 -44 -25zM317 593l-137 -357h278zM479 798q-5 -23 -24 -26q-8 -3 -19 0q-13 4 -31.5 16t-45 32t-39.5 29q-12 -8 -39.5 -28.5t-46 -32.5
t-31.5 -16q-10 -3 -18 0q-19 3 -24 26q8 4 70 58t87 54q24 0 87 -53t74 -59z" />
    <glyph glyph-name="Atilde" unicode="&#xc3;" horiz-adv-x="640" 
d="M56 0q-27 0 -38 11l258 676q22 13 46 13q32 0 44 -30l256 -652q-8 -18 -38 -18q-35 0 -44 31l-56 139h-329l-55 -145q-9 -25 -44 -25zM317 593l-137 -357h278zM237 875q29 0 82.5 -15.5t77.5 -15.5q42 0 63 24q18 -9 18 -34q0 -19 -18.5 -32.5t-50.5 -13.5
q-27 0 -89 14.5t-84 14.5q-19 0 -35.5 -8.5t-18.5 -17.5q-20 7 -20 31q0 17 21.5 35t53.5 18z" />
    <glyph glyph-name="Adieresis" unicode="&#xc4;" horiz-adv-x="640" 
d="M56 0q-27 0 -38 11l258 676q22 13 46 13q32 0 44 -30l256 -652q-8 -18 -38 -18q-35 0 -44 31l-56 139h-329l-55 -145q-9 -25 -44 -25zM317 593l-137 -357h278zM169 833q0 46 46 46t46 -46q0 -45 -46 -45t-46 45zM379 833q0 46 45 46q46 0 46 -46q0 -45 -46 -45
q-45 0 -45 45z" />
    <glyph glyph-name="Aring" unicode="&#xc5;" horiz-adv-x="640" 
d="M56 0q-27 0 -38 11l258 676q22 13 46 13q32 0 44 -30l256 -652q-8 -18 -38 -18q-35 0 -44 31l-56 139h-329l-55 -145q-9 -25 -44 -25zM317 593l-137 -357h278zM232 851q0 88 88 88t88 -88t-88 -88t-88 88zM273 851q0 -47 47 -47t47 47q0 22 -12.5 34.5t-34.5 12.5
q-47 0 -47 -47z" />
    <glyph glyph-name="AE" unicode="&#xc6;" horiz-adv-x="978" 
d="M894 0h-413q-35 0 -35 37v133h-285l-58 -145q-9 -25 -44 -25q-30 0 -41 11l272 676q20 13 81 13h546q9 -9 9 -32q0 -42 -32 -42h-370v-230h334q9 -11 9 -35q0 -39 -31 -39h-312v-248h393q9 -9 9 -32q0 -42 -32 -42zM343 626l-156 -389h259v389h-103z" />
    <glyph glyph-name="Ccedilla" unicode="&#xc7;" horiz-adv-x="641" 
d="M569 147q12 1 23 -7.5t11 -24.5q0 -27 -26 -46q-79 -79 -217 -79q-137 0 -216.5 88t-79.5 272q0 178 78.5 269t212.5 91q146 0 215 -83q22 -19 22 -43q0 -26 -29 -36q-69 88 -205 88q-100 0 -158.5 -72.5t-58.5 -214.5q0 -287 222 -287q135 0 206 85zM408 -112
q0 39 -64 41q-6 6 -6 20l1 67l49 -1l-4 -51q70 -10 70 -80q0 -37 -23.5 -58.5t-63.5 -21.5q-37 0 -57.5 13.5t-20.5 30.5q0 18 19 27q18 -26 56 -26q44 0 44 39z" />
    <glyph glyph-name="Egrave" unicode="&#xc8;" horiz-adv-x="636" 
d="M494 322h-312v-248h393q9 -9 9 -32q0 -42 -32 -42h-413q-35 0 -35 37v655q13 8 37 8h434q9 -9 9 -32q0 -42 -32 -42h-370v-230h334q9 -9 9 -35q0 -39 -31 -39zM432 796q-6 -28 -34 -28q-15 0 -43.5 20t-64 48t-54.5 38q2 34 39 34q24 0 87 -54t70 -58z" />
    <glyph glyph-name="Eacute" unicode="&#xc9;" horiz-adv-x="636" 
d="M494 322h-312v-248h393q9 -9 9 -32q0 -42 -32 -42h-413q-35 0 -35 37v655q13 8 37 8h434q9 -9 9 -32q0 -42 -32 -42h-370v-230h334q9 -9 9 -35q0 -39 -31 -39zM236 797q12 7 44.5 36t64 52.5t49.5 23.5q38 0 38 -34q-19 -10 -54 -38t-63.5 -48t-43.5 -20q-29 0 -35 28z
" />
    <glyph glyph-name="Ecircumflex" unicode="&#xca;" horiz-adv-x="636" 
d="M494 322h-312v-248h393q9 -9 9 -32q0 -42 -32 -42h-413q-35 0 -35 37v655q13 8 37 8h434q9 -9 9 -32q0 -42 -32 -42h-370v-230h334q9 -9 9 -35q0 -39 -31 -39zM500 798q-5 -23 -24 -26q-8 -3 -19 0q-13 4 -31.5 16t-45 32t-39.5 29q-12 -8 -39.5 -28.5t-46 -32.5
t-31.5 -16q-10 -3 -18 0q-19 3 -24 26q8 4 70 58t87 54q24 0 87 -53t74 -59z" />
    <glyph glyph-name="Edieresis" unicode="&#xcb;" horiz-adv-x="636" 
d="M494 322h-312v-248h393q9 -9 9 -32q0 -42 -32 -42h-413q-35 0 -35 37v655q13 8 37 8h434q9 -9 9 -32q0 -42 -32 -42h-370v-230h334q9 -9 9 -35q0 -39 -31 -39zM199 833q0 46 46 46t46 -46q0 -45 -46 -45t-46 45zM409 833q0 46 45 46q46 0 46 -46q0 -45 -46 -45
q-45 0 -45 45z" />
    <glyph glyph-name="Igrave" unicode="&#xcc;" horiz-adv-x="286" 
d="M146 700q36 0 36 -31v-659q-17 -10 -42 -10q-36 0 -36 37v655q14 8 42 8zM241 796q-6 -28 -34 -28q-15 0 -43.5 20t-64 48t-54.5 38q2 34 39 34q24 0 87 -54t70 -58z" />
    <glyph glyph-name="Iacute" unicode="&#xcd;" horiz-adv-x="286" 
d="M146 700q36 0 36 -31v-659q-17 -10 -42 -10q-36 0 -36 37v655q14 8 42 8zM45 797q12 7 44.5 36t64 52.5t49.5 23.5q38 0 38 -34q-19 -10 -54 -38t-63.5 -48t-43.5 -20q-29 0 -35 28z" />
    <glyph glyph-name="Icircumflex" unicode="&#xce;" horiz-adv-x="286" 
d="M146 700q36 0 36 -31v-659q-17 -10 -42 -10q-36 0 -36 37v655q14 8 42 8zM302 798q-5 -23 -24 -26q-8 -3 -19 0q-13 4 -31.5 16t-45 32t-39.5 29q-12 -8 -39.5 -28.5t-46 -32.5t-31.5 -16q-10 -3 -18 0q-19 3 -24 26q8 4 70 58t87 54q24 0 87 -53t74 -59z" />
    <glyph glyph-name="Idieresis" unicode="&#xcf;" horiz-adv-x="286" 
d="M146 700q36 0 36 -31v-659q-17 -10 -42 -10q-36 0 -36 37v655q14 8 42 8zM-7 833q0 46 46 46t46 -46q0 -45 -46 -45t-46 45zM203 833q0 46 45 46q46 0 46 -46q0 -45 -46 -45q-45 0 -45 45z" />
    <glyph glyph-name="Eth" unicode="&#xd0;" horiz-adv-x="696" 
d="M143 700h136q180 0 266.5 -87t86.5 -271q0 -182 -83.5 -262t-242.5 -80h-160q-24 0 -33 17t-9 51v239h-79q-9 18 -9 35q0 39 40 39h48v311q13 8 39 8zM312 307h-130v-237h121q126 0 188.5 63t62.5 207q0 147 -66 217t-204 70h-102v-246h164q8 -11 8 -35q0 -39 -42 -39z
" />
    <glyph glyph-name="Ntilde" unicode="&#xd1;" horiz-adv-x="734" 
d="M555 20l-377 531l4 -542q-11 -9 -44 -9q-34 0 -34 36v656q16 8 41 8q22 0 36 -19l375 -541l-2 550q13 10 37 10q41 0 41 -31v-662q-12 -7 -40 -7q-22 0 -37 20zM284 875q29 0 82.5 -15.5t77.5 -15.5q42 0 63 24q18 -9 18 -34q0 -19 -18.5 -32.5t-50.5 -13.5
q-27 0 -89 14.5t-84 14.5q-19 0 -35.5 -8.5t-18.5 -17.5q-20 7 -20 31q0 17 21.5 35t53.5 18z" />
    <glyph glyph-name="Ograve" unicode="&#xd2;" horiz-adv-x="712" 
d="M64 350q0 178 79.5 269t215.5 91q134 0 211 -91t77 -269q0 -186 -76.5 -273t-211.5 -87q-137 0 -216 88.5t-79 271.5zM140 349q0 -151 59 -221t161 -70q211 0 211 291q0 144 -57 217.5t-155 73.5q-102 0 -160.5 -74t-58.5 -217zM454 796q-6 -28 -34 -28q-15 0 -43.5 20
t-64 48t-54.5 38q2 34 39 34q24 0 87 -54t70 -58z" />
    <glyph glyph-name="Oacute" unicode="&#xd3;" horiz-adv-x="712" 
d="M64 350q0 178 79.5 269t215.5 91q134 0 211 -91t77 -269q0 -186 -76.5 -273t-211.5 -87q-137 0 -216 88.5t-79 271.5zM140 349q0 -151 59 -221t161 -70q211 0 211 291q0 144 -57 217.5t-155 73.5q-102 0 -160.5 -74t-58.5 -217zM257 797q12 7 44.5 36t64 52.5t49.5 23.5
q38 0 38 -34q-19 -10 -54 -38t-63.5 -48t-43.5 -20q-29 0 -35 28z" />
    <glyph glyph-name="Ocircumflex" unicode="&#xd4;" horiz-adv-x="712" 
d="M64 350q0 178 79.5 269t215.5 91q134 0 211 -91t77 -269q0 -186 -76.5 -273t-211.5 -87q-137 0 -216 88.5t-79 271.5zM140 349q0 -151 59 -221t161 -70q211 0 211 291q0 144 -57 217.5t-155 73.5q-102 0 -160.5 -74t-58.5 -217zM515 798q-5 -23 -24 -26q-8 -3 -19 0
q-13 4 -31.5 16t-45 32t-39.5 29q-12 -8 -39.5 -28.5t-46 -32.5t-31.5 -16q-10 -3 -18 0q-19 3 -24 26q8 4 70 58t87 54q24 0 87 -53t74 -59z" />
    <glyph glyph-name="Otilde" unicode="&#xd5;" horiz-adv-x="712" 
d="M64 350q0 178 79.5 269t215.5 91q134 0 211 -91t77 -269q0 -186 -76.5 -273t-211.5 -87q-137 0 -216 88.5t-79 271.5zM140 349q0 -151 59 -221t161 -70q211 0 211 291q0 144 -57 217.5t-155 73.5q-102 0 -160.5 -74t-58.5 -217zM273 875q29 0 82.5 -15.5t77.5 -15.5
q42 0 63 24q18 -9 18 -34q0 -19 -18.5 -32.5t-50.5 -13.5q-27 0 -89 14.5t-84 14.5q-19 0 -35.5 -8.5t-18.5 -17.5q-20 7 -20 31q0 17 21.5 35t53.5 18z" />
    <glyph glyph-name="Odieresis" unicode="&#xd6;" horiz-adv-x="712" 
d="M64 350q0 178 79.5 269t215.5 91q134 0 211 -91t77 -269q0 -186 -76.5 -273t-211.5 -87q-137 0 -216 88.5t-79 271.5zM140 349q0 -151 59 -221t161 -70q211 0 211 291q0 144 -57 217.5t-155 73.5q-102 0 -160.5 -74t-58.5 -217zM205 833q0 46 46 46t46 -46q0 -45 -46 -45
t-46 45zM415 833q0 46 45 46q46 0 46 -46q0 -45 -46 -45q-45 0 -45 45z" />
    <glyph glyph-name="multiply" unicode="&#xd7;" horiz-adv-x="471" 
d="M153 403l83 -84l115 115q11 0 27 -16q31 -31 -6 -68l-83 -83l114 -115q-8 -20 -17 -29q-28 -30 -61 2l-89 89l-115 -115q-20 8 -29 17q-15 15 -15.5 27t18.5 35l88 88l-114 115q0 12 15 27q32 32 69 -5z" />
    <glyph glyph-name="Oslash" unicode="&#xd8;" horiz-adv-x="712" 
d="M64 350q0 178 79.5 269t215.5 91q57 0 106 -18l45 115q10 5 28 5q12 0 19.5 -6t8.5 -15q0 -6 -3 -14l-45 -114q129 -82 129 -313q0 -186 -76.5 -273t-211.5 -87q-54 0 -99 13l-53 -137q-7 -3 -24 -3q-11 0 -21 6t-10 15q0 8 4 16l50 130q-142 77 -142 320zM140 349
q0 -185 98 -245l198 522q-37 14 -77 14q-102 0 -160.5 -74t-58.5 -217zM571 349q0 168 -87 236l-195 -518q32 -9 71 -9q211 0 211 291z" />
    <glyph glyph-name="Ugrave" unicode="&#xd9;" horiz-adv-x="701" 
d="M530 264v428q13 8 39 8q39 0 39 -31v-415q0 -264 -258 -264q-129 0 -190.5 64.5t-61.5 199.5l-1 438q13 8 40 8q38 0 38 -31v-404q0 -104 41 -154t134 -50q97 0 138.5 49.5t41.5 153.5zM448 796q-6 -28 -34 -28q-15 0 -43.5 20t-64 48t-54.5 38q2 34 39 34q24 0 87 -54
t70 -58z" />
    <glyph glyph-name="Uacute" unicode="&#xda;" horiz-adv-x="701" 
d="M530 264v428q13 8 39 8q39 0 39 -31v-415q0 -264 -258 -264q-129 0 -190.5 64.5t-61.5 199.5l-1 438q13 8 40 8q38 0 38 -31v-404q0 -104 41 -154t134 -50q97 0 138.5 49.5t41.5 153.5zM252 797q12 7 44.5 36t64 52.5t49.5 23.5q38 0 38 -34q-19 -10 -54 -38t-63.5 -48
t-43.5 -20q-29 0 -35 28z" />
    <glyph glyph-name="Ucircumflex" unicode="&#xdb;" horiz-adv-x="701" 
d="M530 264v428q13 8 39 8q39 0 39 -31v-415q0 -264 -258 -264q-129 0 -190.5 64.5t-61.5 199.5l-1 438q13 8 40 8q38 0 38 -31v-404q0 -104 41 -154t134 -50q97 0 138.5 49.5t41.5 153.5zM509 798q-5 -23 -24 -26q-8 -3 -19 0q-13 4 -31.5 16t-45 32t-39.5 29
q-12 -8 -39.5 -28.5t-46 -32.5t-31.5 -16q-10 -3 -18 0q-19 3 -24 26q8 4 70 58t87 54q24 0 87 -53t74 -59z" />
    <glyph glyph-name="Udieresis" unicode="&#xdc;" horiz-adv-x="701" 
d="M530 264v428q13 8 39 8q39 0 39 -31v-415q0 -264 -258 -264q-129 0 -190.5 64.5t-61.5 199.5l-1 438q13 8 40 8q38 0 38 -31v-404q0 -104 41 -154t134 -50q97 0 138.5 49.5t41.5 153.5zM200 833q0 46 46 46t46 -46q0 -45 -46 -45t-46 45zM410 833q0 46 45 46q46 0 46 -46
q0 -45 -46 -45q-45 0 -45 45z" />
    <glyph glyph-name="Yacute" unicode="&#xdd;" horiz-adv-x="591" 
d="M342 233v-224q-13 -9 -43 -9q-34 0 -34 29v201q-159 228 -229 458q19 12 44 12q29 0 38 -26q62 -202 188 -387q61 93 117.5 216.5t68.5 191.5q10 5 37 5q11 0 18.5 -8t7.5 -19q-1 -59 -74 -204.5t-139 -235.5zM197 797q12 7 44.5 36t64 52.5t49.5 23.5q38 0 38 -34
q-19 -10 -54 -38t-63.5 -48t-43.5 -20q-29 0 -35 28z" />
    <glyph glyph-name="Thorn" unicode="&#xde;" horiz-adv-x="593" 
d="M140 700q32 0 32 -24v-102h180q87 0 142 -52t55 -154q0 -61 -18.5 -105t-51.5 -67.5t-70.5 -34t-81.5 -10.5h-155v-143q-13 -8 -43 -8q-35 0 -35 36v657q14 7 46 7zM340 510h-168v-293h139q79 0 121.5 33.5t42.5 112.5q0 73 -35.5 110t-99.5 37z" />
    <glyph glyph-name="germandbls" unicode="&#xdf;" horiz-adv-x="616" 
d="M451 429q-18 2 -40 2q-49 0 -75 -18.5t-26 -51.5q0 -54 112 -80q71 -17 105.5 -51t35.5 -98q0 -65 -42.5 -103.5t-120.5 -38.5q-67 0 -116.5 27t-49.5 55q0 24 15 39q23 -19 64 -35t87 -16q47 0 71 20.5t24 49.5q0 34 -22 53.5t-76 31.5q-155 37 -155 147q0 58 37 94
t109 40q3 14 3 44q0 44 -32 66t-82 22q-136 0 -136 -165v-443q0 -9 -10 -14.5t-25 -5.5q-28 0 -42 9v468q0 113 61 168t152 55q81 0 133 -39.5t52 -118.5q0 -78 -11 -113z" />
    <glyph glyph-name="agrave" unicode="&#xe0;" horiz-adv-x="493" 
d="M85 387q-14 12 -14 32q0 33 52.5 53t112.5 20q74 0 121 -34.5t47 -110.5v-257q0 -35 25 -35h28q6 -8 6 -26q0 -29 -64 -29q-28 0 -45 19t-17 50v4q-85 -83 -173 -83q-65 0 -98.5 40.5t-33.5 108.5q0 60 34.5 95.5t101.5 39.5l169 10v43q0 95 -104 95q-43 0 -85 -10.5
t-63 -24.5zM175 56q78 0 162 78v94l-165 -16q-71 -7 -71 -74q0 -35 19 -58.5t55 -23.5zM308 578q-6 -28 -34 -28q-15 0 -43.5 20t-64 48t-54.5 38q2 34 39 34q24 0 87 -54t70 -58z" />
    <glyph glyph-name="aacute" unicode="&#xe1;" horiz-adv-x="493" 
d="M85 387q-14 12 -14 32q0 33 52.5 53t112.5 20q74 0 121 -34.5t47 -110.5v-257q0 -35 25 -35h28q6 -8 6 -26q0 -29 -64 -29q-28 0 -45 19t-17 50v4q-85 -83 -173 -83q-65 0 -98.5 40.5t-33.5 108.5q0 60 34.5 95.5t101.5 39.5l169 10v43q0 95 -104 95q-43 0 -85 -10.5
t-63 -24.5zM175 56q78 0 162 78v94l-165 -16q-71 -7 -71 -74q0 -35 19 -58.5t55 -23.5zM165 579q12 7 44.5 36t64 52.5t49.5 23.5q38 0 38 -34q-19 -10 -54 -38t-63.5 -48t-43.5 -20q-29 0 -35 28z" />
    <glyph glyph-name="acircumflex" unicode="&#xe2;" horiz-adv-x="493" 
d="M85 387q-14 12 -14 32q0 33 52.5 53t112.5 20q74 0 121 -34.5t47 -110.5v-257q0 -35 25 -35h28q6 -8 6 -26q0 -29 -64 -29q-28 0 -45 19t-17 50v4q-85 -83 -173 -83q-65 0 -98.5 40.5t-33.5 108.5q0 60 34.5 95.5t101.5 39.5l169 10v43q0 95 -104 95q-43 0 -85 -10.5
t-63 -24.5zM175 56q78 0 162 78v94l-165 -16q-71 -7 -71 -74q0 -35 19 -58.5t55 -23.5zM393 580q-5 -23 -24 -26q-8 -3 -19 0q-13 4 -31.5 16t-45 32t-39.5 29q-12 -8 -39.5 -28.5t-46 -32.5t-31.5 -16q-10 -3 -18 0q-19 3 -24 26q8 4 70 58t87 54q24 0 87 -53t74 -59z" />
    <glyph glyph-name="atilde" unicode="&#xe3;" horiz-adv-x="493" 
d="M85 387q-14 12 -14 32q0 33 52.5 53t112.5 20q74 0 121 -34.5t47 -110.5v-257q0 -35 25 -35h28q6 -8 6 -26q0 -29 -64 -29q-28 0 -45 19t-17 50v4q-85 -83 -173 -83q-65 0 -98.5 40.5t-33.5 108.5q0 60 34.5 95.5t101.5 39.5l169 10v43q0 95 -104 95q-43 0 -85 -10.5
t-63 -24.5zM175 56q78 0 162 78v94l-165 -16q-71 -7 -71 -74q0 -35 19 -58.5t55 -23.5zM155 657q29 0 82.5 -15.5t77.5 -15.5q42 0 63 24q18 -9 18 -34q0 -19 -18.5 -32.5t-50.5 -13.5q-27 0 -89 14.5t-84 14.5q-19 0 -35.5 -8.5t-18.5 -17.5q-20 7 -20 31q0 17 21.5 35
t53.5 18z" />
    <glyph glyph-name="adieresis" unicode="&#xe4;" horiz-adv-x="493" 
d="M85 387q-14 12 -14 32q0 33 52.5 53t112.5 20q74 0 121 -34.5t47 -110.5v-257q0 -35 25 -35h28q6 -8 6 -26q0 -29 -64 -29q-28 0 -45 19t-17 50v4q-85 -83 -173 -83q-65 0 -98.5 40.5t-33.5 108.5q0 60 34.5 95.5t101.5 39.5l169 10v43q0 95 -104 95q-43 0 -85 -10.5
t-63 -24.5zM175 56q78 0 162 78v94l-165 -16q-71 -7 -71 -74q0 -35 19 -58.5t55 -23.5zM85 615q0 46 46 46t46 -46q0 -45 -46 -45t-46 45zM295 615q0 46 45 46q46 0 46 -46q0 -45 -46 -45q-45 0 -45 45z" />
    <glyph glyph-name="aring" unicode="&#xe5;" horiz-adv-x="493" 
d="M85 387q-14 12 -14 32q0 33 52.5 53t112.5 20q74 0 121 -34.5t47 -110.5v-257q0 -35 25 -35h28q6 -8 6 -26q0 -29 -64 -29q-28 0 -45 19t-17 50v4q-85 -83 -173 -83q-65 0 -98.5 40.5t-33.5 108.5q0 60 34.5 95.5t101.5 39.5l169 10v43q0 95 -104 95q-43 0 -85 -10.5
t-63 -24.5zM175 56q78 0 162 78v94l-165 -16q-71 -7 -71 -74q0 -35 19 -58.5t55 -23.5zM145 633q0 88 88 88t88 -88t-88 -88t-88 88zM186 633q0 -47 47 -47t47 47q0 22 -12.5 34.5t-34.5 12.5q-47 0 -47 -47z" />
    <glyph glyph-name="ae" unicode="&#xe6;" horiz-adv-x="785" 
d="M85 387q-14 12 -14 32q0 33 52.5 53t112.5 20q130 0 152 -88q58 88 166 88q88 0 134.5 -58t46.5 -150q0 -33 -7 -51h-316q6 -147 116 -170q22 -3 47 -3q85 3 138 45q17 -11 17 -33q0 -30 -47.5 -56t-131.5 -26q-60 0 -107 27.5t-73 78.5q-44 -46 -100 -76t-107 -30
q-65 0 -98.5 40.5t-33.5 108.5q0 113 112 131q38 5 192 15q-1 83 -23 110t-80 27q-43 0 -85 -10.5t-63 -24.5zM175 56q85 0 173 91q-8 30 -10 68v13l-166 -16q-71 -7 -71 -74q0 -35 19 -58.5t55 -23.5zM553 424q-51 0 -89 -35t-50 -101h252q0 63 -28.5 99.5t-84.5 36.5z" />
    <glyph glyph-name="ccedilla" unicode="&#xe7;" horiz-adv-x="473" 
d="M429 424q0 -20 -19 -39q-38 18 -62 24.5t-70 6.5q-63 0 -103.5 -42.5t-40.5 -134.5q0 -84 41.5 -131.5t110.5 -47.5q83 0 136 39q13 -11 13 -33q0 -29 -30 -46q-52 -30 -123 -30q-101 0 -161 67.5t-60 182.5q0 129 63.5 190.5t151.5 61.5q51 0 78.5 -8.5t53.5 -25.5
q20 -11 21 -34zM317 -112q0 39 -64 41q-6 6 -6 20l1 67l49 -1l-4 -51q70 -10 70 -80q0 -37 -23.5 -58.5t-63.5 -21.5q-37 0 -57.5 13.5t-20.5 30.5q0 18 19 27q18 -26 56 -26q44 0 44 39z" />
    <glyph glyph-name="egrave" unicode="&#xe8;" horiz-adv-x="504" 
d="M447 233h-317q1 -83 41 -128t105 -45q48 0 91.5 14.5t64.5 30.5q17 -10 17 -33t-17 -35q-63 -47 -162 -47q-97 0 -155.5 68t-58.5 181q0 120 64 186.5t154 66.5q87 0 133.5 -58t46.5 -150q0 -33 -7 -51zM272 424q-51 0 -89 -35t-49 -101h252q0 63 -28.5 99.5t-85.5 36.5z
M348 578q-6 -28 -34 -28q-15 0 -43.5 20t-64 48t-54.5 38q2 34 39 34q24 0 87 -54t70 -58z" />
    <glyph glyph-name="eacute" unicode="&#xe9;" horiz-adv-x="504" 
d="M447 233h-317q1 -83 41 -128t105 -45q48 0 91.5 14.5t64.5 30.5q17 -10 17 -33t-17 -35q-63 -47 -162 -47q-97 0 -155.5 68t-58.5 181q0 120 64 186.5t154 66.5q87 0 133.5 -58t46.5 -150q0 -33 -7 -51zM272 424q-51 0 -89 -35t-49 -101h252q0 63 -28.5 99.5t-85.5 36.5z
M205 579q12 7 44.5 36t64 52.5t49.5 23.5q38 0 38 -34q-19 -10 -54 -38t-63.5 -48t-43.5 -20q-29 0 -35 28z" />
    <glyph glyph-name="ecircumflex" unicode="&#xea;" horiz-adv-x="504" 
d="M447 233h-317q1 -83 41 -128t105 -45q48 0 91.5 14.5t64.5 30.5q17 -10 17 -33t-17 -35q-63 -47 -162 -47q-97 0 -155.5 68t-58.5 181q0 120 64 186.5t154 66.5q87 0 133.5 -58t46.5 -150q0 -33 -7 -51zM272 424q-51 0 -89 -35t-49 -101h252q0 63 -28.5 99.5t-85.5 36.5z
M434 580q-5 -23 -24 -26q-8 -3 -19 0q-13 4 -31.5 16t-45 32t-39.5 29q-12 -8 -39.5 -28.5t-46 -32.5t-31.5 -16q-10 -3 -18 0q-19 3 -24 26q8 4 70 58t87 54q24 0 87 -53t74 -59z" />
    <glyph glyph-name="edieresis" unicode="&#xeb;" horiz-adv-x="504" 
d="M447 233h-317q1 -83 41 -128t105 -45q48 0 91.5 14.5t64.5 30.5q17 -10 17 -33t-17 -35q-63 -47 -162 -47q-97 0 -155.5 68t-58.5 181q0 120 64 186.5t154 66.5q87 0 133.5 -58t46.5 -150q0 -33 -7 -51zM272 424q-51 0 -89 -35t-49 -101h252q0 63 -28.5 99.5t-85.5 36.5z
M126 615q0 46 46 46t46 -46q0 -45 -46 -45t-46 45zM336 615q0 46 45 46q46 0 46 -46q0 -45 -46 -45q-45 0 -45 45z" />
    <glyph glyph-name="igrave" unicode="&#xec;" horiz-adv-x="292" 
d="M114 482q36 0 54 -17t18 -61v-316q0 -26 23 -26h30q5 -10 5 -25q0 -37 -67 -37t-67 68v315q0 28 -25 28h-29q-6 11 -6 30q0 41 64 41zM200 578q-6 -28 -34 -28q-15 0 -43.5 20t-64 48t-54.5 38q2 34 39 34q24 0 87 -54t70 -58z" />
    <glyph glyph-name="iacute" unicode="&#xed;" horiz-adv-x="292" 
d="M114 482q36 0 54 -17t18 -61v-316q0 -26 23 -26h30q5 -10 5 -25q0 -37 -67 -37t-67 68v315q0 28 -25 28h-29q-6 11 -6 30q0 41 64 41zM57 579q12 7 44.5 36t64 52.5t49.5 23.5q38 0 38 -34q-19 -10 -54 -38t-63.5 -48t-43.5 -20q-29 0 -35 28z" />
    <glyph glyph-name="icircumflex" unicode="&#xee;" horiz-adv-x="292" 
d="M114 482q36 0 54 -17t18 -61v-316q0 -26 23 -26h30q5 -10 5 -25q0 -37 -67 -37t-67 68v315q0 28 -25 28h-29q-6 11 -6 30q0 41 64 41zM285 580q-5 -23 -24 -26q-8 -3 -19 0q-13 4 -31.5 16t-45 32t-39.5 29q-12 -8 -39.5 -28.5t-46 -32.5t-31.5 -16q-10 -3 -18 0
q-19 3 -24 26q8 4 70 58t87 54q24 0 87 -53t74 -59z" />
    <glyph glyph-name="idieresis" unicode="&#xef;" horiz-adv-x="292" 
d="M114 482q36 0 54 -17t18 -61v-316q0 -26 23 -26h30q5 -10 5 -25q0 -37 -67 -37t-67 68v315q0 28 -25 28h-29q-6 11 -6 30q0 41 64 41zM-23 615q0 46 46 46t46 -46q0 -45 -46 -45t-46 45zM187 615q0 46 45 46q46 0 46 -46q0 -45 -46 -45q-45 0 -45 45z" />
    <glyph glyph-name="eth" unicode="&#xf0;" horiz-adv-x="550" 
d="M440 592l-33 -9q85 -148 85 -307q0 -151 -56.5 -215.5t-161.5 -64.5q-104 0 -163 60.5t-59 191.5q0 123 56.5 182t145.5 59q72 0 127 -35q-21 56 -54 107l-103 -29q-9 9 -13 23q-1 9 -1 16t9.5 14t28.5 13l44 12q-23 29 -55 57q8 21 23 32q35 24 55 4q32 -32 59 -71
l89 25q9 -4 14 -21q8 -33 -37 -44zM414 276q0 44 -10 94q-56 53 -139 53q-61 0 -98.5 -43.5t-37.5 -132.5q0 -181 145 -181q70 0 105 46.5t35 163.5z" />
    <glyph glyph-name="ntilde" unicode="&#xf1;" horiz-adv-x="592" 
d="M109 482q36 0 56.5 -20t20.5 -58v-15q78 103 176 103q64 0 101 -41.5t37 -123.5v-244q0 -27 19 -27h39q4 -10 4 -21q0 -35 -74 -35q-33 0 -49 16.5t-16 53.5v239q0 51 -22.5 78.5t-62.5 27.5q-84 0 -152 -99v-307q-14 -9 -43 -9q-37 0 -37 39v344q0 28 -25 28h-36
q-7 18 -7 33q0 38 71 38zM213 656q29 0 82.5 -15.5t77.5 -15.5q42 0 63 24q18 -9 18 -34q0 -19 -18.5 -32.5t-50.5 -13.5q-27 0 -89 14.5t-84 14.5q-19 0 -35.5 -8.5t-18.5 -17.5q-20 7 -20 31q0 17 21.5 35t53.5 18z" />
    <glyph glyph-name="ograve" unicode="&#xf2;" 
d="M56 240q0 124 61 188t162 64t158 -63.5t57 -188.5q0 -130 -58.5 -190t-161.5 -60q-101 0 -159.5 60.5t-58.5 189.5zM135 239q0 -179 139 -179q141 0 141 179q0 91 -35.5 136.5t-100.5 45.5q-66 0 -105 -46.5t-39 -135.5zM354 577q-6 -28 -34 -28q-15 0 -43.5 20t-64 48
t-54.5 38q2 34 39 34q24 0 87 -54t70 -58z" />
    <glyph glyph-name="oacute" unicode="&#xf3;" 
d="M56 240q0 124 61 188t162 64t158 -63.5t57 -188.5q0 -130 -58.5 -190t-161.5 -60q-101 0 -159.5 60.5t-58.5 189.5zM135 239q0 -179 139 -179q141 0 141 179q0 91 -35.5 136.5t-100.5 45.5q-66 0 -105 -46.5t-39 -135.5zM211 578q12 7 44.5 36t64 52.5t49.5 23.5
q38 0 38 -34q-19 -10 -54 -38t-63.5 -48t-43.5 -20q-29 0 -35 28z" />
    <glyph glyph-name="ocircumflex" unicode="&#xf4;" 
d="M56 240q0 124 61 188t162 64t158 -63.5t57 -188.5q0 -130 -58.5 -190t-161.5 -60q-101 0 -159.5 60.5t-58.5 189.5zM135 239q0 -179 139 -179q141 0 141 179q0 91 -35.5 136.5t-100.5 45.5q-66 0 -105 -46.5t-39 -135.5zM439 579q-5 -23 -24 -26q-8 -3 -19 0
q-13 4 -31.5 16t-45 32t-39.5 29q-12 -8 -39.5 -28.5t-46 -32.5t-31.5 -16q-10 -3 -18 0q-19 3 -24 26q8 4 70 58t87 54q24 0 87 -53t74 -59z" />
    <glyph glyph-name="otilde" unicode="&#xf5;" 
d="M56 240q0 124 61 188t162 64t158 -63.5t57 -188.5q0 -130 -58.5 -190t-161.5 -60q-101 0 -159.5 60.5t-58.5 189.5zM135 239q0 -179 139 -179q141 0 141 179q0 91 -35.5 136.5t-100.5 45.5q-66 0 -105 -46.5t-39 -135.5zM201 656q29 0 82.5 -15.5t77.5 -15.5q42 0 63 24
q18 -9 18 -34q0 -19 -18.5 -32.5t-50.5 -13.5q-27 0 -89 14.5t-84 14.5q-19 0 -35.5 -8.5t-18.5 -17.5q-20 7 -20 31q0 17 21.5 35t53.5 18z" />
    <glyph glyph-name="odieresis" unicode="&#xf6;" 
d="M56 240q0 124 61 188t162 64t158 -63.5t57 -188.5q0 -130 -58.5 -190t-161.5 -60q-101 0 -159.5 60.5t-58.5 189.5zM135 239q0 -179 139 -179q141 0 141 179q0 91 -35.5 136.5t-100.5 45.5q-66 0 -105 -46.5t-39 -135.5zM131 614q0 46 46 46t46 -46q0 -45 -46 -45t-46 45
zM341 614q0 46 45 46q46 0 46 -46q0 -45 -46 -45q-45 0 -45 45z" />
    <glyph glyph-name="divide" unicode="&#xf7;" horiz-adv-x="524" 
d="M217 61q0 47 45 47q46 0 46 -47q0 -45 -46 -45q-45 0 -45 45zM217 439q0 47 45 47q46 0 46 -47q0 -45 -46 -45q-45 0 -45 45zM434 216h-372q-8 20 -8 39q0 35 32 35h376q8 -13 8 -36q0 -38 -36 -38z" />
    <glyph glyph-name="oslash" unicode="&#xf8;" 
d="M56 240q0 124 61 188t162 64q25 0 52 -5l40 127q14 4 24 4q19 0 20 -14q0 -8 -3 -16l-36 -115q118 -50 118 -233q0 -130 -58.5 -190t-161.5 -60q-24 0 -51 5l-30 -99q-12 -6 -27 -6t-18 11q-1 5 3 21l27 85q-122 49 -122 233zM135 239q0 -123 68 -158l105 337
q-15 3 -29 3q-66 0 -105 -46.5t-39 -135.5zM415 239q0 116 -65 156l-104 -334q9 -1 28 -1q141 0 141 179z" />
    <glyph glyph-name="ugrave" unicode="&#xf9;" horiz-adv-x="592" 
d="M481 0q-68 0 -68 79v9q-75 -98 -178 -98q-134 0 -134 161v234q0 27 -23 27h-44q-4 18 -4 32q1 38 77 38q39 0 56.5 -16t17.5 -54v-244q0 -101 77 -101q93 0 155 106v300q17 9 43 9q37 0 37 -30v-359q0 -28 23 -28h37q3 -18 3 -25q0 -40 -75 -40zM359 577q-6 -28 -34 -28
q-15 0 -43.5 20t-64 48t-54.5 38q2 34 39 34q24 0 87 -54t70 -58z" />
    <glyph glyph-name="uacute" unicode="&#xfa;" horiz-adv-x="592" 
d="M481 0q-68 0 -68 79v9q-75 -98 -178 -98q-134 0 -134 161v234q0 27 -23 27h-44q-4 18 -4 32q1 38 77 38q39 0 56.5 -16t17.5 -54v-244q0 -101 77 -101q93 0 155 106v300q17 9 43 9q37 0 37 -30v-359q0 -28 23 -28h37q3 -18 3 -25q0 -40 -75 -40zM216 578q12 7 44.5 36
t64 52.5t49.5 23.5q38 0 38 -34q-19 -10 -54 -38t-63.5 -48t-43.5 -20q-29 0 -35 28z" />
    <glyph glyph-name="ucircumflex" unicode="&#xfb;" horiz-adv-x="592" 
d="M481 0q-68 0 -68 79v9q-75 -98 -178 -98q-134 0 -134 161v234q0 27 -23 27h-44q-4 18 -4 32q1 38 77 38q39 0 56.5 -16t17.5 -54v-244q0 -101 77 -101q93 0 155 106v300q17 9 43 9q37 0 37 -30v-359q0 -28 23 -28h37q3 -18 3 -25q0 -40 -75 -40zM445 579q-5 -23 -24 -26
q-8 -3 -19 0q-13 4 -31.5 16t-45 32t-39.5 29q-12 -8 -39.5 -28.5t-46 -32.5t-31.5 -16q-10 -3 -18 0q-19 3 -24 26q8 4 70 58t87 54q24 0 87 -53t74 -59z" />
    <glyph glyph-name="udieresis" unicode="&#xfc;" horiz-adv-x="592" 
d="M481 0q-68 0 -68 79v9q-75 -98 -178 -98q-134 0 -134 161v234q0 27 -23 27h-44q-4 18 -4 32q1 38 77 38q39 0 56.5 -16t17.5 -54v-244q0 -101 77 -101q93 0 155 106v300q17 9 43 9q37 0 37 -30v-359q0 -28 23 -28h37q3 -18 3 -25q0 -40 -75 -40zM137 614q0 46 46 46
t46 -46q0 -45 -46 -45t-46 45zM347 614q0 46 45 46q46 0 46 -46q0 -45 -46 -45q-45 0 -45 45z" />
    <glyph glyph-name="yacute" unicode="&#xfd;" horiz-adv-x="540" 
d="M146 429l124 -328q7 -22 23 -25q123 242 123 318q0 27 -24 27h-36q-5 10 -5 27q0 15 17.5 24.5t43.5 9.5q80 0 80 -70q0 -67 -73 -231t-133 -258q-40 -63 -83.5 -87t-101.5 -24q-69 0 -69 39q0 16 6 28h74q32 0 59 15.5t55 60.5l32 56q-32 6 -47 47l-132 343
q-7 20 -25 20h-37q-5 10 -5 27q0 34 64 34q29 0 45 -12.5t25 -40.5zM193 579q12 7 44.5 36t64 52.5t49.5 23.5q38 0 38 -34q-19 -10 -54 -38t-63.5 -48t-43.5 -20q-29 0 -35 28z" />
    <glyph glyph-name="thorn" unicode="&#xfe;" horiz-adv-x="562" 
d="M139 700q35 0 35 -27v-264q68 83 154 83q78 0 127.5 -55.5t50.5 -187.5q0 -125 -56 -192t-138 -67q-81 0 -138 59v-236q-13 -8 -40 -8q-37 0 -37 39v849q19 7 42 7zM307 413q-75 0 -133 -74v-209q53 -68 124 -68q59 0 96 45.5t37 133.5q0 172 -124 172z" />
    <glyph glyph-name="ydieresis" unicode="&#xff;" horiz-adv-x="540" 
d="M146 429l124 -328q7 -22 23 -25q123 242 123 318q0 27 -24 27h-36q-5 10 -5 27q0 15 17.5 24.5t43.5 9.5q80 0 80 -70q0 -67 -73 -231t-133 -258q-40 -63 -83.5 -87t-101.5 -24q-69 0 -69 39q0 16 6 28h74q32 0 59 15.5t55 60.5l32 56q-32 6 -47 47l-132 343
q-7 20 -25 20h-37q-5 10 -5 27q0 34 64 34q29 0 45 -12.5t25 -40.5zM113 615q0 46 46 46t46 -46q0 -45 -46 -45t-46 45zM323 615q0 46 45 46q46 0 46 -46q0 -45 -46 -45q-45 0 -45 45z" />
    <glyph glyph-name="Amacron" unicode="&#x100;" horiz-adv-x="640" 
d="M56 0q-27 0 -38 11l258 676q22 13 46 13q32 0 44 -30l256 -652q-8 -18 -38 -18q-35 0 -44 31l-56 139h-329l-55 -145q-9 -25 -44 -25zM317 593l-137 -357h278zM431 799h-266q-8 16 -8 26q0 18 8.5 26t36.5 8h274q8 -8 8 -24q0 -36 -53 -36z" />
    <glyph glyph-name="amacron" unicode="&#x101;" horiz-adv-x="493" 
d="M85 387q-14 12 -14 32q0 33 52.5 53t112.5 20q74 0 121 -34.5t47 -110.5v-257q0 -35 25 -35h28q6 -8 6 -26q0 -29 -64 -29q-28 0 -45 19t-17 50v4q-85 -83 -173 -83q-65 0 -98.5 40.5t-33.5 108.5q0 60 34.5 95.5t101.5 39.5l169 10v43q0 95 -104 95q-43 0 -85 -10.5
t-63 -24.5zM175 56q78 0 162 78v94l-165 -16q-71 -7 -71 -74q0 -35 19 -58.5t55 -23.5zM347 581h-266q-8 16 -8 26q0 18 8.5 26t36.5 8h274q8 -8 8 -24q0 -36 -53 -36z" />
    <glyph glyph-name="Abreve" unicode="&#x102;" horiz-adv-x="640" 
d="M56 0q-27 0 -38 11l258 676q22 13 46 13q32 0 44 -30l256 -652q-8 -18 -38 -18q-35 0 -44 31l-56 139h-329l-55 -145q-9 -25 -44 -25zM317 593l-137 -357h278zM232 893q2 -31 22 -50q21 -20 66 -20q43 0 63 19q20 17 24 50q9 8 29 6q13 0 19.5 -7t4.5 -17q-7 -43 -39 -73
q-35 -30 -101 -30q-64 0 -101 29q-38 30 -41 76q-2 22 23 23q16 1 31 -6z" />
    <glyph glyph-name="abreve" unicode="&#x103;" horiz-adv-x="493" 
d="M85 387q-14 12 -14 32q0 33 52.5 53t112.5 20q74 0 121 -34.5t47 -110.5v-257q0 -35 25 -35h28q6 -8 6 -26q0 -29 -64 -29q-28 0 -45 19t-17 50v4q-85 -83 -173 -83q-65 0 -98.5 40.5t-33.5 108.5q0 60 34.5 95.5t101.5 39.5l169 10v43q0 95 -104 95q-43 0 -85 -10.5
t-63 -24.5zM175 56q78 0 162 78v94l-165 -16q-71 -7 -71 -74q0 -35 19 -58.5t55 -23.5zM145 675q2 -31 22 -50q21 -20 66 -20q43 0 63 19q20 17 24 50q9 8 29 6q13 0 19.5 -7t4.5 -17q-7 -43 -39 -73q-34 -30 -101 -30q-64 0 -101 29q-38 30 -41 76q-2 22 23 23q16 1 31 -6z
" />
    <glyph glyph-name="Aogonek" unicode="&#x104;" horiz-adv-x="640" 
d="M366 670l257 -653q-59 -76 -59 -109q0 -42 56 -42q4 -9 4 -22q0 -23 -33 -23q-30 0 -53.5 18.5t-23.5 57.5q0 52 49 112q-19 6 -28 32l-51 129h-329l-55 -145q-9 -25 -44 -25q-27 0 -38 11l258 676q22 13 46 13q32 0 44 -30zM317 593l-137 -357h278z" />
    <glyph glyph-name="aogonek" unicode="&#x105;" horiz-adv-x="493" 
d="M85 387q-14 12 -14 32q0 33 52.5 53t112.5 20q82 0 125 -38t43 -129v-235q0 -35 25 -35h28q6 -8 6 -26q0 -9 -10 -19q-18 -17 -33 -46t-15 -47q0 -43 55 -43q5 -8 5 -21q0 -24 -33 -24q-30 0 -53.5 19t-23.5 57q0 45 33 95q-25 4 -35.5 22t-13.5 56q-85 -88 -175 -88
q-65 0 -98.5 40.5t-33.5 108.5q0 56 30.5 90.5t88.5 42.5q15 2 185 13q-2 84 -23.5 110.5t-79.5 26.5q-43 0 -85 -10.5t-63 -24.5zM175 56q81 0 162 83v89l-165 -16q-71 -7 -71 -74q0 -35 19 -58.5t55 -23.5z" />
    <glyph glyph-name="Cacute" unicode="&#x106;" horiz-adv-x="641" 
d="M569 147q12 1 23 -7.5t11 -24.5q0 -27 -26 -46q-79 -79 -217 -79q-137 0 -216.5 88t-79.5 272q0 178 78.5 269t212.5 91q146 0 215 -83q22 -19 22 -43q0 -26 -29 -36q-69 88 -205 88q-100 0 -158.5 -72.5t-58.5 -214.5q0 -287 222 -287q135 0 206 85zM255 797
q12 7 44.5 36t64 52.5t49.5 23.5q38 0 38 -34q-19 -10 -54 -38t-63.5 -48t-43.5 -20q-29 0 -35 28z" />
    <glyph glyph-name="cacute" unicode="&#x107;" horiz-adv-x="473" 
d="M429 424q0 -20 -19 -39q-38 18 -62 24.5t-70 6.5q-63 0 -103.5 -42.5t-40.5 -134.5q0 -84 41.5 -131.5t110.5 -47.5q83 0 136 39q13 -11 13 -33q0 -29 -30 -46q-52 -30 -123 -30q-101 0 -161 67.5t-60 182.5q0 129 63.5 190.5t151.5 61.5q51 0 78.5 -8.5t53.5 -25.5
q20 -11 21 -34zM206 579q12 7 44.5 36t64 52.5t49.5 23.5q38 0 38 -34q-19 -10 -54 -38t-63.5 -48t-43.5 -20q-29 0 -35 28z" />
    <glyph glyph-name="Ccircumflex" unicode="&#x108;" horiz-adv-x="641" 
d="M569 147q12 1 23 -7.5t11 -24.5q0 -27 -26 -46q-79 -79 -217 -79q-137 0 -216.5 88t-79.5 272q0 178 78.5 269t212.5 91q146 0 215 -83q22 -19 22 -43q0 -26 -29 -36q-69 88 -205 88q-100 0 -158.5 -72.5t-58.5 -214.5q0 -287 222 -287q135 0 206 85zM521 798
q-5 -23 -24 -26q-8 -3 -19 0q-13 4 -31.5 16t-45 32t-39.5 29q-12 -8 -39.5 -28.5t-46 -32.5t-31.5 -16q-10 -3 -18 0q-19 3 -24 26q8 4 70 58t87 54q24 0 87 -53t74 -59z" />
    <glyph glyph-name="ccircumflex" unicode="&#x109;" horiz-adv-x="473" 
d="M429 424q0 -20 -19 -39q-38 18 -62 24.5t-70 6.5q-63 0 -103.5 -42.5t-40.5 -134.5q0 -84 41.5 -131.5t110.5 -47.5q83 0 136 39q13 -11 13 -33q0 -29 -30 -46q-52 -30 -123 -30q-101 0 -161 67.5t-60 182.5q0 129 63.5 190.5t151.5 61.5q51 0 78.5 -8.5t53.5 -25.5
q20 -11 21 -34zM435 580q-5 -23 -24 -26q-8 -3 -19 0q-13 4 -31.5 16t-45 32t-39.5 29q-12 -8 -39.5 -28.5t-46 -32.5t-31.5 -16q-10 -3 -18 0q-19 3 -24 26q8 4 70 58t87 54q24 0 87 -53t74 -59z" />
    <glyph glyph-name="Cdotaccent" unicode="&#x10a;" horiz-adv-x="641" 
d="M569 147q12 1 23 -7.5t11 -24.5q0 -27 -26 -46q-79 -79 -217 -79q-137 0 -216.5 88t-79.5 272q0 178 78.5 269t212.5 91q146 0 215 -83q22 -19 22 -43q0 -26 -29 -36q-69 88 -205 88q-100 0 -158.5 -72.5t-58.5 -214.5q0 -287 222 -287q135 0 206 85zM318 830q0 47 45 47
q46 0 46 -47q0 -45 -46 -45q-45 0 -45 45z" />
    <glyph glyph-name="cdotaccent" unicode="&#x10b;" horiz-adv-x="473" 
d="M429 424q0 -20 -19 -39q-38 18 -62 24.5t-70 6.5q-63 0 -103.5 -42.5t-40.5 -134.5q0 -84 41.5 -131.5t110.5 -47.5q83 0 136 39q13 -11 13 -33q0 -29 -30 -46q-52 -30 -123 -30q-101 0 -161 67.5t-60 182.5q0 129 63.5 190.5t151.5 61.5q51 0 78.5 -8.5t53.5 -25.5
q20 -11 21 -34zM229 617q0 46 46 46t46 -46t-46 -46t-46 46z" />
    <glyph glyph-name="Ccaron" unicode="&#x10c;" horiz-adv-x="641" 
d="M569 147q12 1 23 -7.5t11 -24.5q0 -27 -26 -46q-79 -79 -217 -79q-137 0 -216.5 88t-79.5 272q0 178 78.5 269t212.5 91q146 0 215 -83q22 -19 22 -43q0 -26 -29 -36q-69 88 -205 88q-100 0 -158.5 -72.5t-58.5 -214.5q0 -287 222 -287q135 0 206 85zM355 770
q-10 0 -17 5q-20 9 -72 49.5t-72 51.5q1 14 12 24t27 10q6 0 13.5 -2.5t17 -8.5l17 -11t19.5 -15l18.5 -15.5l20 -16.5t17.5 -15q4 3 25 21t29.5 24.5l24 18t26.5 16t19 4.5q16 0 27 -10t12 -24q-21 -11 -72.5 -51.5t-71.5 -49.5q-10 -5 -20 -5z" />
    <glyph glyph-name="ccaron" unicode="&#x10d;" horiz-adv-x="473" 
d="M429 424q0 -20 -19 -39q-38 18 -62 24.5t-70 6.5q-63 0 -103.5 -42.5t-40.5 -134.5q0 -84 41.5 -131.5t110.5 -47.5q83 0 136 39q13 -11 13 -33q0 -29 -30 -46q-52 -30 -123 -30q-101 0 -161 67.5t-60 182.5q0 129 63.5 190.5t151.5 61.5q51 0 78.5 -8.5t53.5 -25.5
q20 -11 21 -34zM273 552q-10 0 -17 5q-20 9 -72 49.5t-72 51.5q1 14 12 24t27 10q6 0 13.5 -2.5t17 -8.5l17 -11t19.5 -15l18.5 -15.5l19.5 -16.5l18 -15q4 3 25 21t29.5 24.5l24 18t26.5 16t19 4.5q16 0 27 -10t12 -24q-21 -11 -72.5 -51.5t-71.5 -49.5q-10 -5 -20 -5z" />
    <glyph glyph-name="Dcaron" unicode="&#x10e;" horiz-adv-x="696" 
d="M143 700h136q180 0 266.5 -87t86.5 -271q0 -182 -83.5 -262t-242.5 -80h-163q-39 0 -39 36v656q13 8 39 8zM284 627h-102v-557h121q126 0 188.5 63t62.5 207q0 147 -66 217t-204 70zM318 770q-10 0 -17 5q-20 9 -72 49.5t-72 51.5q1 14 12 24t27 10q6 0 13.5 -2.5
t17 -8.5l17 -11t19.5 -15l18.5 -15.5l19.5 -16.5l18 -15q4 3 25 21t29.5 24.5l24 18t26.5 16t19 4.5q16 0 27 -10t12 -24q-21 -11 -72.5 -51.5t-71.5 -49.5q-10 -5 -20 -5z" />
    <glyph glyph-name="dcaron" unicode="&#x10f;" horiz-adv-x="575" 
d="M469 0q-58 0 -77 47q-64 -57 -143 -57q-83 0 -138 61.5t-55 187.5q0 125 60 189t143 64q79 0 127 -48v227q0 29 31 29q27 0 41 -10v-597q0 -34 31 -34h32q6 -12 6 -26q0 -33 -58 -33zM260 60q75 0 126 46v258q-24 27 -49.5 38.5t-68.5 11.5q-55 0 -96.5 -43t-41.5 -129
q0 -91 36 -136.5t94 -45.5zM568 608q-46 0 -46 45q0 47 46 47q25 0 37 -15.5t12 -53.5q0 -54 -15 -86t-36 -32q-22 0 -26 17q13 12 20.5 36.5t7.5 41.5z" />
    <glyph glyph-name="Dcroat" unicode="&#x110;" horiz-adv-x="696" 
d="M143 700h136q180 0 266.5 -87t86.5 -271q0 -182 -83.5 -262t-242.5 -80h-160q-24 0 -33 17t-9 51v239h-79q-9 18 -9 35q0 39 40 39h48v311q13 8 39 8zM312 307h-130v-237h121q126 0 188.5 63t62.5 207q0 147 -66 217t-204 70h-102v-246h164q8 -11 8 -35q0 -39 -42 -39z
" />
    <glyph glyph-name="dcroat" unicode="&#x111;" horiz-adv-x="563" 
d="M517 559h-59v-466q0 -34 31 -34h32q6 -12 6 -26q0 -25 -41 -31q-17 -2 -35 0q-42 7 -54 49q-59 -57 -135 -60h-32q-76 7 -125 68t-49 180q0 125 60 189t143 64q75 0 127 -50v117h-137q-7 17 -7 31q0 28 26 28h118v53q0 29 31 29q27 0 41 -10v-72h79q6 -9 6 -31
q0 -28 -26 -28zM260 60q76 0 126 52v251q-25 28 -50 39.5t-68 11.5q-55 0 -96.5 -43t-41.5 -129q0 -91 36 -136.5t94 -45.5z" />
    <glyph glyph-name="Emacron" unicode="&#x112;" horiz-adv-x="636" 
d="M494 322h-312v-248h393q9 -9 9 -32q0 -42 -32 -42h-413q-35 0 -35 37v655q13 8 37 8h434q9 -9 9 -32q0 -42 -32 -42h-370v-230h334q9 -9 9 -35q0 -39 -31 -39zM456 799h-266q-8 16 -8 26q0 18 8.5 26t36.5 8h274q8 -8 8 -24q0 -36 -53 -36z" />
    <glyph glyph-name="emacron" unicode="&#x113;" horiz-adv-x="504" 
d="M447 233h-317q1 -83 41 -128t105 -45q48 0 91.5 14.5t64.5 30.5q17 -10 17 -33t-17 -35q-63 -47 -162 -47q-97 0 -155.5 68t-58.5 181q0 120 64 186.5t154 66.5q87 0 133.5 -58t46.5 -150q0 -33 -7 -51zM272 424q-51 0 -89 -35t-49 -101h252q0 63 -28.5 99.5t-85.5 36.5z
M387 581h-266q-8 16 -8 26q0 18 8.5 26t36.5 8h274q8 -8 8 -24q0 -36 -53 -36z" />
    <glyph glyph-name="Ebreve" unicode="&#x114;" horiz-adv-x="636" 
d="M494 322h-312v-248h393q9 -9 9 -32q0 -42 -32 -42h-413q-35 0 -35 37v655q13 8 37 8h434q9 -9 9 -32q0 -42 -32 -42h-370v-230h334q9 -9 9 -35q0 -39 -31 -39zM257 893q2 -31 22 -50q21 -20 66 -20q43 0 63 19q20 17 24 50q9 8 29 6q13 0 19.5 -7t4.5 -17q-7 -43 -39 -73
q-34 -30 -101 -30q-64 0 -101 29q-38 30 -41 76q-2 22 23 23q16 1 31 -6z" />
    <glyph glyph-name="ebreve" unicode="&#x115;" horiz-adv-x="504" 
d="M447 233h-317q1 -83 41 -128t105 -45q48 0 91.5 14.5t64.5 30.5q17 -10 17 -33t-17 -35q-63 -47 -162 -47q-97 0 -155.5 68t-58.5 181q0 120 64 186.5t154 66.5q87 0 133.5 -58t46.5 -150q0 -33 -7 -51zM272 424q-51 0 -89 -35t-49 -101h252q0 63 -28.5 99.5t-85.5 36.5z
M186 675q2 -31 22 -50q21 -20 66 -20q43 0 63 19q20 17 24 50q9 8 29 6q13 0 19.5 -7t4.5 -17q-7 -43 -39 -73q-35 -30 -101 -30q-64 0 -101 29q-38 30 -41 76q-2 22 23 23q16 1 31 -6z" />
    <glyph glyph-name="Edotaccent" unicode="&#x116;" horiz-adv-x="636" 
d="M494 322h-312v-248h393q9 -9 9 -32q0 -42 -32 -42h-413q-35 0 -35 37v655q13 8 37 8h434q9 -9 9 -32q0 -42 -32 -42h-370v-230h334q9 -9 9 -35q0 -39 -31 -39zM307 830q0 47 45 47q46 0 46 -47q0 -45 -46 -45q-45 0 -45 45z" />
    <glyph glyph-name="edotaccent" unicode="&#x117;" horiz-adv-x="504" 
d="M447 233h-317q1 -83 41 -128t105 -45q48 0 91.5 14.5t64.5 30.5q17 -10 17 -33t-17 -35q-63 -47 -162 -47q-97 0 -155.5 68t-58.5 181q0 120 64 186.5t154 66.5q87 0 133.5 -58t46.5 -150q0 -33 -7 -51zM272 424q-51 0 -89 -35t-49 -101h252q0 63 -28.5 99.5t-85.5 36.5z
M228 617q0 46 46 46t46 -46t-46 -46t-46 46z" />
    <glyph glyph-name="Eogonek" unicode="&#x118;" horiz-adv-x="636" 
d="M494 322h-312v-248h395q7 -11 7 -31q0 -21 -15 -41q-49 -53 -49 -94q0 -42 56 -42q5 -12 5 -22q0 -23 -34 -23q-33 0 -58 18t-25 56q0 46 44 105h-369q-35 0 -35 37v655q13 8 37 8h434q9 -9 9 -32q0 -42 -32 -42h-370v-230h334q9 -9 9 -35q0 -39 -31 -39z" />
    <glyph glyph-name="eogonek" unicode="&#x119;" horiz-adv-x="504" 
d="M447 233h-316q3 -83 41 -128t104 -45q48 0 91.5 14.5t64.5 30.5q17 -10 17 -33q0 -18 -16 -34q-21 -17 -35 -46t-14 -49q0 -25 14 -34t41 -9q5 -9 5 -22q0 -23 -33 -23q-30 0 -53.5 19t-23.5 57q0 32 18 70q-40 -11 -82 -11q-97 0 -155.5 68t-58.5 181q0 120 64 186.5
t154 66.5q87 0 133.5 -58t46.5 -150q0 -33 -7 -51zM272 424q-51 0 -89 -35t-50 -101h253q0 63 -28.5 99.5t-85.5 36.5z" />
    <glyph glyph-name="Ecaron" unicode="&#x11a;" horiz-adv-x="636" 
d="M494 322h-312v-248h393q9 -9 9 -32q0 -42 -32 -42h-413q-35 0 -35 37v655q13 8 37 8h434q9 -9 9 -32q0 -42 -32 -42h-370v-230h334q9 -9 9 -35q0 -39 -31 -39zM343 770q-10 0 -17 5q-20 9 -72 49.5t-72 51.5q1 14 12 24t27 10q6 0 13.5 -2.5t17 -8.5l17 -11t19.5 -15
l18.5 -15.5l19.5 -16.5l18 -15q4 3 25 21t29.5 24.5l24 18t26.5 16t19 4.5q16 0 27 -10t12 -24q-21 -11 -72.5 -51.5t-71.5 -49.5q-10 -5 -20 -5z" />
    <glyph glyph-name="ecaron" unicode="&#x11b;" horiz-adv-x="504" 
d="M447 233h-317q1 -83 41 -128t105 -45q48 0 91.5 14.5t64.5 30.5q17 -10 17 -33t-17 -35q-63 -47 -162 -47q-97 0 -155.5 68t-58.5 181q0 120 64 186.5t154 66.5q87 0 133.5 -58t46.5 -150q0 -33 -7 -51zM272 424q-51 0 -89 -35t-49 -101h252q0 63 -28.5 99.5t-85.5 36.5z
M272 552q-10 0 -17 5q-20 9 -72 49.5t-72 51.5q1 14 12 24t27 10q6 0 13.5 -2.5t17 -8.5l17 -11t19.5 -15l18.5 -15.5l20 -16.5t17.5 -15q4 3 25 21t29.5 24.5l24 18t26.5 16t19 4.5q16 0 27 -10t12 -24q-21 -11 -72.5 -51.5t-71.5 -49.5q-10 -5 -20 -5z" />
    <glyph glyph-name="Gcircumflex" unicode="&#x11c;" horiz-adv-x="702" 
d="M557 295h-188q-7 16 -7 33q0 15 9.5 23.5t36.5 8.5h160q32 0 43 -13.5t11 -49.5v-289q-14 -9 -36 -9q-14 0 -21.5 6.5t-7.5 25.5v65q-82 -106 -203 -106q-124 0 -207 90t-83 270q0 176 84.5 268t219.5 92q102 0 165 -34.5t63 -65.5q0 -15 -10 -24.5t-22 -10.5
q-72 64 -195 64q-100 0 -166 -75t-66 -215q0 -148 64.5 -220t158.5 -72q60 0 112 30t85 83v125zM529 798q-5 -23 -24 -26q-8 -3 -19 0q-13 4 -31.5 16t-45 32t-39.5 29q-12 -8 -39.5 -28.5t-46 -32.5t-31.5 -16q-10 -3 -18 0q-19 3 -24 26q8 4 70 58t87 54q24 0 87 -53
t74 -59z" />
    <glyph glyph-name="gcircumflex" unicode="&#x11d;" horiz-adv-x="505" 
d="M426 422h-48q28 -45 28 -116q0 -96 -47.5 -140t-129.5 -44q-47 0 -84 15q-13 -31 -13 -54q0 -27 17 -40.5t59 -13.5h153q55 0 83 -28t28 -76q0 -81 -62.5 -129t-171.5 -48q-84 0 -140 31.5t-56 67.5q0 24 24 41q60 -74 170 -74q79 0 123.5 27.5t44.5 73.5q0 49 -60 49
h-149q-131 0 -131 96q0 50 38 106q-47 45 -47 140q0 92 49 139t129 47q64 0 105 -29q10 19 36 19h81q7 -9 7 -27q0 -33 -36 -33zM131 304q0 -121 99 -121t99 121q0 124 -95 124q-48 0 -75.5 -31.5t-27.5 -92.5zM395 579q-5 -23 -24 -26q-8 -3 -19 0q-13 4 -31.5 16t-45 32
t-39.5 29q-12 -8 -39.5 -28.5t-46 -32.5t-31.5 -16q-10 -3 -18 0q-19 3 -24 26q8 4 70 58t87 54q24 0 87 -53t74 -59z" />
    <glyph glyph-name="Gbreve" unicode="&#x11e;" horiz-adv-x="702" 
d="M557 295h-188q-7 16 -7 33q0 15 9.5 23.5t36.5 8.5h160q32 0 43 -13.5t11 -49.5v-289q-14 -9 -36 -9q-14 0 -21.5 6.5t-7.5 25.5v65q-82 -106 -203 -106q-124 0 -207 90t-83 270q0 176 84.5 268t219.5 92q102 0 165 -34.5t63 -65.5q0 -15 -10 -24.5t-22 -10.5
q-72 64 -195 64q-100 0 -166 -75t-66 -215q0 -148 64.5 -220t158.5 -72q60 0 112 30t85 83v125zM277 893q2 -31 22 -50q21 -20 66 -20q43 0 63 19q20 17 24 50q9 8 29 6q13 0 19.5 -7t4.5 -17q-7 -43 -39 -73q-34 -30 -101 -30q-64 0 -101 29q-38 30 -41 76q-2 22 23 23
q16 1 31 -6z" />
    <glyph glyph-name="gbreve" unicode="&#x11f;" horiz-adv-x="505" 
d="M426 422h-48q28 -45 28 -116q0 -96 -47.5 -140t-129.5 -44q-47 0 -84 15q-13 -31 -13 -54q0 -27 17 -40.5t59 -13.5h153q55 0 83 -28t28 -76q0 -81 -62.5 -129t-171.5 -48q-84 0 -140 31.5t-56 67.5q0 24 24 41q60 -74 170 -74q79 0 123.5 27.5t44.5 73.5q0 49 -60 49
h-149q-131 0 -131 96q0 50 38 106q-47 45 -47 140q0 92 49 139t129 47q64 0 105 -29q10 19 36 19h81q7 -9 7 -27q0 -33 -36 -33zM131 304q0 -121 99 -121t99 121q0 124 -95 124q-48 0 -75.5 -31.5t-27.5 -92.5zM147 674q2 -31 22 -50q21 -20 66 -20q43 0 63 19q20 17 24 50
q9 8 29 6q13 0 19.5 -7t4.5 -17q-7 -43 -39 -73q-35 -30 -101 -30q-64 0 -101 29q-38 30 -41 76q-2 22 23 23q16 1 31 -6z" />
    <glyph glyph-name="Gdotaccent" unicode="&#x120;" horiz-adv-x="702" 
d="M557 295h-188q-7 16 -7 33q0 15 9.5 23.5t36.5 8.5h160q32 0 43 -13.5t11 -49.5v-289q-14 -9 -36 -9q-14 0 -21.5 6.5t-7.5 25.5v65q-82 -106 -203 -106q-124 0 -207 90t-83 270q0 176 84.5 268t219.5 92q102 0 165 -34.5t63 -65.5q0 -15 -10 -24.5t-22 -10.5
q-72 64 -195 64q-100 0 -166 -75t-66 -215q0 -148 64.5 -220t158.5 -72q60 0 112 30t85 83v125zM315 830q0 47 45 47q46 0 46 -47q0 -45 -46 -45q-45 0 -45 45z" />
    <glyph glyph-name="gdotaccent" unicode="&#x121;" horiz-adv-x="505" 
d="M426 422h-48q28 -45 28 -116q0 -96 -47.5 -140t-129.5 -44q-47 0 -84 15q-13 -31 -13 -54q0 -27 17 -40.5t59 -13.5h153q55 0 83 -28t28 -76q0 -81 -62.5 -129t-171.5 -48q-84 0 -140 31.5t-56 67.5q0 24 24 41q60 -74 170 -74q79 0 123.5 27.5t44.5 73.5q0 49 -60 49
h-149q-131 0 -131 96q0 50 38 106q-47 45 -47 140q0 92 49 139t129 47q64 0 105 -29q10 19 36 19h81q7 -9 7 -27q0 -33 -36 -33zM131 304q0 -121 99 -121t99 121q0 124 -95 124q-48 0 -75.5 -31.5t-27.5 -92.5zM189 616q0 46 46 46t46 -46t-46 -46t-46 46z" />
    <glyph glyph-name="Gcommaaccent" unicode="&#x122;" horiz-adv-x="702" 
d="M364 -177q-43 0 -43 42q0 44 43 44q23 0 34.5 -14.5t11.5 -50.5q0 -51 -14 -81t-34 -30q-21 0 -25 15q27 26 27 75zM557 295h-188q-7 16 -7 33q0 15 9.5 23.5t36.5 8.5h160q32 0 43 -13.5t11 -49.5v-289q-14 -9 -36 -9q-14 0 -21.5 6.5t-7.5 25.5v65q-82 -106 -203 -106
q-124 0 -207 90t-83 270q0 176 84.5 268t219.5 92q102 0 165 -34.5t63 -65.5q0 -15 -10 -24.5t-22 -10.5q-72 64 -195 64q-100 0 -166 -75t-66 -215q0 -148 64.5 -220t158.5 -72q60 0 112 30t85 83v125z" />
    <glyph glyph-name="gcommaaccent" unicode="&#x123;" horiz-adv-x="505" 
d="M225 646q43 0 43 -43t-43 -43q-23 0 -34.5 14.5t-11.5 50.5q0 51 14 81t34 30q21 0 25 -15q-13 -12 -20 -35t-7 -40zM426 422h-48q28 -45 28 -116q0 -96 -47.5 -140t-129.5 -44q-47 0 -84 15q-13 -31 -13 -54q0 -27 17 -40.5t59 -13.5h153q55 0 83 -28t28 -76
q0 -81 -62.5 -129t-171.5 -48q-84 0 -140 31.5t-56 67.5q0 24 24 41q60 -74 170 -74q79 0 123.5 27.5t44.5 73.5q0 49 -60 49h-149q-131 0 -131 96q0 50 38 106q-47 45 -47 140q0 92 49 139t129 47q64 0 105 -29q10 19 36 19h81q7 -9 7 -27q0 -33 -36 -33zM131 304
q0 -121 99 -121t99 121q0 124 -95 124q-48 0 -75.5 -31.5t-27.5 -92.5z" />
    <glyph glyph-name="Hcircumflex" unicode="&#x124;" horiz-adv-x="733" 
d="M591 700q38 0 38 -31v-660q-13 -9 -38 -9q-41 0 -41 37v285h-368v-312q-10 -10 -43 -10q-35 0 -35 37v655q14 8 41 8q37 0 37 -31v-275h368v298q16 8 41 8zM525 798q-5 -23 -24 -26q-8 -3 -19 0q-13 4 -31.5 16t-45 32t-39.5 29q-12 -8 -39.5 -28.5t-46 -32.5t-31.5 -16
q-10 -3 -18 0q-19 3 -24 26q8 4 70 58t87 54q24 0 87 -53t74 -59z" />
    <glyph glyph-name="hcircumflex" unicode="&#x125;" horiz-adv-x="534" 
d="M104 700q35 0 35 -31v-273q73 96 174 96q135 0 135 -159v-252q0 -25 21 -25h30q5 -8 5 -22q0 -34 -70 -34q-62 0 -62 74v241q0 100 -82 100q-41 0 -82.5 -25.5t-68.5 -68.5v-313q-11 -8 -39 -8q-36 0 -36 37v654q14 9 40 9zM261 763q-5 -23 -24 -26q-8 -3 -19 0
q-13 4 -31.5 16t-45 32t-39.5 29q-12 -8 -39.5 -28.5t-46 -32.5t-31.5 -16q-10 -3 -18 0q-19 3 -24 26q8 4 70 58t87 54q24 0 87 -53t74 -59z" />
    <glyph glyph-name="Hbar" unicode="&#x126;" horiz-adv-x="733" 
d="M591 700q38 0 38 -31v-101h91q8 -11 8 -33q0 -38 -42 -38h-57v-488q-13 -9 -38 -9q-41 0 -41 37v267h-368v-294q-10 -10 -43 -10q-35 0 -35 37v460h-91q-9 18 -9 34q0 37 40 37h60v124q14 8 41 8q37 0 37 -31v-101h368v124q16 8 41 8zM182 497v-121h368v121h-368z" />
    <glyph glyph-name="hbar" unicode="&#x127;" horiz-adv-x="534" 
d="M104 700q35 0 35 -31v-51h149q6 -7 6 -31q0 -28 -26 -28h-129v-166q32 46 78 72.5t96 26.5q135 0 135 -159v-252q0 -25 21 -25h30q5 -8 5 -22q0 -34 -70 -34q-62 0 -62 74v241q0 100 -82 100q-43 0 -85 -28.5t-66 -74.5v-304q-11 -8 -39 -8q-36 0 -36 37v522h-64
q-7 17 -7 31q0 28 26 28h45v73q14 9 40 9z" />
    <glyph glyph-name="Itilde" unicode="&#x128;" horiz-adv-x="286" 
d="M146 700q36 0 36 -31v-659q-17 -10 -42 -10q-36 0 -36 37v655q14 8 42 8zM60 875q29 0 82.5 -15.5t77.5 -15.5q42 0 63 24q18 -9 18 -34q0 -19 -18.5 -32.5t-50.5 -13.5q-27 0 -89 14.5t-84 14.5q-19 0 -35.5 -8.5t-18.5 -17.5q-20 7 -20 31q0 17 21.5 35t53.5 18z" />
    <glyph glyph-name="itilde" unicode="&#x129;" horiz-adv-x="292" 
d="M114 482q36 0 54 -17t18 -61v-316q0 -26 23 -26h30q5 -10 5 -25q0 -37 -67 -37t-67 68v315q0 28 -25 28h-29q-6 11 -6 30q0 41 64 41zM47 657q29 0 82.5 -15.5t77.5 -15.5q42 0 63 24q18 -9 18 -34q0 -19 -18.5 -32.5t-50.5 -13.5q-27 0 -89 14.5t-84 14.5
q-19 0 -35.5 -8.5t-18.5 -17.5q-20 7 -20 31q0 17 21.5 35t53.5 18z" />
    <glyph glyph-name="Imacron" unicode="&#x12a;" horiz-adv-x="286" 
d="M146 700q36 0 36 -31v-659q-17 -10 -42 -10q-36 0 -36 37v655q14 8 42 8zM254 799h-266q-8 16 -8 26q0 18 8.5 26t36.5 8h274q8 -8 8 -24q0 -36 -53 -36z" />
    <glyph glyph-name="imacron" unicode="&#x12b;" horiz-adv-x="292" 
d="M114 482q36 0 54 -17t18 -61v-316q0 -26 23 -26h30q5 -10 5 -25q0 -37 -67 -37t-67 68v315q0 28 -25 28h-29q-6 11 -6 30q0 41 64 41zM239 581h-266q-8 16 -8 26q0 18 8.5 26t36.5 8h274q8 -8 8 -24q0 -36 -53 -36z" />
    <glyph glyph-name="Ibreve" unicode="&#x12c;" horiz-adv-x="286" 
d="M146 700q36 0 36 -31v-659q-17 -10 -42 -10q-36 0 -36 37v655q14 8 42 8zM56 893q2 -31 22 -50q21 -20 66 -20q43 0 63 19q20 17 24 50q9 8 29 6q13 0 19.5 -7t4.5 -17q-7 -43 -39 -73q-35 -30 -101 -30q-64 0 -101 29q-38 30 -41 76q-2 22 23 23q16 1 31 -6z" />
    <glyph glyph-name="ibreve" unicode="&#x12d;" horiz-adv-x="292" 
d="M114 482q36 0 54 -17t18 -61v-316q0 -26 23 -26h30q5 -10 5 -25q0 -37 -67 -37t-67 68v315q0 28 -25 28h-29q-6 11 -6 30q0 41 64 41zM37 675q2 -31 22 -50q21 -20 66 -20q43 0 63 19q20 17 24 50q9 8 29 6q13 0 19.5 -7t4.5 -17q-7 -43 -39 -73q-34 -30 -101 -30
q-64 0 -101 29q-38 30 -41 76q-2 22 23 23q16 1 31 -6z" />
    <glyph glyph-name="Iogonek" unicode="&#x12e;" horiz-adv-x="286" 
d="M125 10h-1q-20 7 -20 36v646q14 8 42 8q36 0 36 -31v-659q-22 -22 -39 -52.5t-17 -50.5q0 -42 55 -42q5 -9 5 -22q0 -24 -33 -24q-30 0 -53.5 19t-23.5 57q0 58 49 115z" />
    <glyph glyph-name="iogonek" unicode="&#x12f;" horiz-adv-x="291" 
d="M114 482q42 0 56.5 -30.5t14.5 -98.5v-265q0 -26 23 -26h29q6 -9 6 -25q0 -14 -20 -29q-20 -16 -33 -44t-13 -48q0 -43 56 -43q5 -7 5 -21q0 -24 -33 -24q-31 0 -54 18.5t-23 57.5q0 47 34 97q-23 2 -35 20t-14.5 39t-2.5 56v267q0 28 -25 28h-29q-6 11 -6 30q0 41 64 41
zM89 619q0 50 49 50t49 -50q0 -48 -49 -48t-49 48z" />
    <glyph glyph-name="Idotaccent" unicode="&#x130;" horiz-adv-x="286" 
d="M146 700q36 0 36 -31v-659q-17 -10 -42 -10q-36 0 -36 37v655q14 8 42 8zM98 830q0 47 45 47q46 0 46 -47q0 -45 -46 -45q-45 0 -45 45z" />
    <glyph glyph-name="dotlessi" unicode="&#x131;" horiz-adv-x="292" 
d="M114 482q36 0 54 -17t18 -61v-316q0 -26 23 -26h30q5 -10 5 -25q0 -37 -67 -37t-67 68v315q0 28 -25 28h-29q-6 11 -6 30q0 41 64 41z" />
    <glyph glyph-name="IJ" unicode="&#x132;" horiz-adv-x="672" 
d="M146 700q36 0 36 -31v-659q-17 -10 -42 -10q-36 0 -36 37v655q14 8 42 8zM533 700q35 0 35 -32v-532q0 -136 -135 -136q-127 0 -127 47q0 17 6 29h102q41 0 60.5 18t19.5 60v538q16 8 39 8z" />
    <glyph glyph-name="ij" unicode="&#x133;" horiz-adv-x="576" 
d="M114 482q36 0 53.5 -16.5t17.5 -61.5v-316q0 -26 23 -26h29q6 -9 6 -25q0 -37 -67 -37q-66 0 -66 68v315q0 28 -25 28h-29q-6 11 -6 30q0 41 64 41zM89 619q0 50 49 50t49 -50q0 -48 -49 -48t-49 48zM415 482q38 0 54.5 -17.5t16.5 -59.5v-450q0 -126 -117 -126
q-95 0 -95 42q0 16 5 30h73q62 0 62 69v413q0 28 -23 28h-39q-5 13 -5 31q0 40 68 40zM393 619q0 50 49 50t49 -50q0 -48 -49 -48t-49 48z" />
    <glyph glyph-name="Jcircumflex" unicode="&#x134;" horiz-adv-x="386" 
d="M247 700q35 0 35 -32v-532q0 -136 -135 -136q-127 0 -127 47q0 17 6 29h102q41 0 60.5 18t19.5 60v538q16 8 39 8zM400 798q-5 -23 -24 -26q-8 -3 -19 0q-13 4 -31.5 16t-45 32t-39.5 29q-12 -8 -39.5 -28.5t-46 -32.5t-31.5 -16q-10 -3 -18 0q-19 3 -24 26q8 4 70 58
t87 54q24 0 87 -53t74 -59z" />
    <glyph glyph-name="jcircumflex" unicode="&#x135;" horiz-adv-x="284" 
d="M123 482q38 0 54.5 -17.5t16.5 -59.5v-450q0 -126 -117 -126q-95 0 -95 42q0 16 5 30h73q62 0 62 69v413q0 28 -23 28h-39q-5 13 -5 31q0 40 68 40zM290 582q-5 -23 -24 -26q-8 -3 -19 0q-13 4 -31.5 16t-45 32t-39.5 29q-12 -8 -39.5 -28.5t-46 -32.5t-31.5 -16
q-10 -3 -18 0q-19 3 -24 26q8 4 70 58t87 54q24 0 87 -53t74 -59z" />
    <glyph glyph-name="Kcommaaccent" unicode="&#x136;" horiz-adv-x="614" 
d="M304 -169q-43 0 -43 43t43 43q23 0 34.5 -14.5t11.5 -50.5q0 -51 -14 -81t-34 -30q-21 0 -25 15q13 12 20 35t7 40zM145 700q36 0 36 -31v-308q84 64 155.5 157t105.5 176q12 6 33 6q11 0 19.5 -8t8.5 -19q0 -20 -15 -48q-76 -146 -190 -250q29 -28 75.5 -108.5t88 -139
t75.5 -58.5h28q7 -9 7 -26q0 -43 -60 -43q-46 0 -91 57.5t-95 149t-79 126.5q-36 -27 -66 -47v-277q-15 -9 -44 -9q-33 0 -33 36v655q18 9 41 9z" />
    <glyph glyph-name="kcommaaccent" unicode="&#x137;" horiz-adv-x="454" 
d="M102 700q41 0 41 -31v-392q68 32 111 88.5t46 108.5q13 8 33 8q37 0 37 -32q0 -49 -50.5 -110t-110.5 -84q26 -15 59.5 -62.5t66 -84t65.5 -36.5h35q6 -10 6 -28q0 -20 -15 -32.5t-42 -12.5q-37 0 -72 29t-58.5 65t-54 77t-56.5 57v-218q-13 -10 -42 -10q-35 0 -35 37
v653q13 10 36 10z" />
    <glyph glyph-name="kgreenlandic" unicode="&#x138;" horiz-adv-x="454" 
d="M102 482q41 0 41 -31v-174q68 32 111 88.5t46 108.5q13 8 33 8q37 0 37 -32q0 -49 -50.5 -110t-110.5 -84q22 -13 48.5 -45t46.5 -61.5t47.5 -53t53.5 -23.5h36q5 -8 5 -28t-15 -32.5t-42 -12.5q-37 0 -72.5 29t-59.5 65t-56 77t-58 57v-218q-13 -10 -42 -10
q-35 0 -35 37v434q13 11 36 11z" />
    <glyph glyph-name="Lacute" unicode="&#x139;" horiz-adv-x="540" 
d="M144 700q38 0 38 -31v-595h331q9 -11 9 -32q0 -42 -45 -42h-338q-35 0 -35 36v657q14 7 40 7zM118 797q12 7 44.5 36t64 52.5t49.5 23.5q38 0 38 -34q-19 -10 -54 -38t-63.5 -48t-43.5 -20q-29 0 -35 28z" />
    <glyph glyph-name="lacute" unicode="&#x13a;" horiz-adv-x="299" 
d="M147 667v-526q0 -44 14.5 -60t52.5 -16h68q3 -9 3 -23q0 -18 -24 -30t-72 -12q-61 0 -89 29t-28 94v567q14 11 37 11q38 -1 38 -34zM41 778q12 7 44.5 36t64 52.5t49.5 23.5q38 0 38 -34q-19 -10 -54 -38t-63.5 -48t-43.5 -20q-29 0 -35 28z" />
    <glyph glyph-name="Lcommaaccent" unicode="&#x13b;" horiz-adv-x="540" 
d="M312 -161q-43 0 -43 43t44 43q46 0 46 -65q0 -51 -14 -81t-34 -30q-21 0 -25 16q12 12 19 34.5t7 39.5zM144 700q38 0 38 -31v-595h331q9 -11 9 -32q0 -42 -45 -42h-338q-35 0 -35 36v657q14 7 40 7z" />
    <glyph glyph-name="lcommaaccent" unicode="&#x13c;" horiz-adv-x="299" 
d="M143 -143q-43 0 -43 43t43 43q46 0 46 -65q0 -51 -14 -81t-34 -30q-21 0 -25 16q27 26 27 74zM147 667v-526q0 -44 14.5 -60t52.5 -16h68q3 -9 3 -23q0 -18 -24 -30t-72 -12q-61 0 -89 29t-28 94v567q14 11 37 11q38 -1 38 -34z" />
    <glyph glyph-name="Lcaron" unicode="&#x13d;" horiz-adv-x="540" 
d="M144 700q38 0 38 -31v-595h331q9 -11 9 -32q0 -42 -45 -42h-338q-35 0 -35 36v657q14 7 40 7zM300 608q-46 0 -46 45q0 47 46 47q25 0 37 -15.5t12 -53.5q0 -54 -15 -86t-36 -32q-22 0 -26 17q13 12 20.5 36.5t7.5 41.5z" />
    <glyph glyph-name="lcaron" unicode="&#x13e;" horiz-adv-x="299" 
d="M231 624q-43 0 -43 43t43 43q23 0 34.5 -14.5t11.5 -50.5q0 -51 -14 -81t-34 -30q-21 0 -25 15q13 12 20 35t7 40zM147 667v-526q0 -44 14.5 -60t52.5 -16h68q3 -9 3 -23q0 -18 -24 -30t-72 -12q-61 0 -89 29t-28 94v567q14 11 37 11q38 -1 38 -34z" />
    <glyph glyph-name="Ldot" unicode="&#x13f;" horiz-adv-x="540" 
d="M144 700q38 0 38 -31v-595h331q9 -11 9 -32q0 -42 -45 -42h-338q-35 0 -35 36v657q14 7 40 7zM350 334q0 47 45 47q46 0 46 -47q0 -45 -46 -45q-45 0 -45 45z" />
    <glyph glyph-name="ldot" unicode="&#x140;" horiz-adv-x="315" 
d="M147 667v-526q0 -44 14.5 -60t52.5 -16h68q3 -9 3 -23q0 -18 -24 -30t-72 -12q-61 0 -89 29t-28 94v567q14 11 37 11q38 -1 38 -34zM225 346q0 46 46 46t46 -46t-46 -46t-46 46z" />
    <glyph glyph-name="Lslash" unicode="&#x141;" horiz-adv-x="540" 
d="M144 700q38 0 38 -31v-295l133 86q9 -3 19 -14.5t10 -25.5q0 -19 -24 -34l-138 -89v-223h331q9 -11 9 -32q0 -42 -45 -42h-338q-35 0 -35 36v211l-67 -43q-31 16 -31 38q0 20 24 34l74 48v369q14 7 40 7z" />
    <glyph glyph-name="lslash" unicode="&#x142;" horiz-adv-x="299" 
d="M147 667v-261l103 70q12 -4 21 -15t9 -24q0 -18 -15 -29l-118 -79v-188q0 -44 14.5 -60t52.5 -16h68q3 -9 3 -23q0 -18 -24 -30t-72 -12q-61 0 -89 29t-28 94v157l-57 -38q-27 16 -27 43q0 16 17 27l67 45v333q14 11 37 11q38 -1 38 -34z" />
    <glyph glyph-name="Nacute" unicode="&#x143;" horiz-adv-x="734" 
d="M555 20l-377 531l4 -542q-11 -9 -44 -9q-34 0 -34 36v656q16 8 41 8q22 0 36 -19l375 -541l-2 550q13 10 37 10q41 0 41 -31v-662q-12 -7 -40 -7q-22 0 -37 20zM269 797q12 7 44.5 36t64 52.5t49.5 23.5q38 0 38 -34q-19 -10 -54 -38t-63.5 -48t-43.5 -20q-29 0 -35 28z
" />
    <glyph glyph-name="nacute" unicode="&#x144;" horiz-adv-x="592" 
d="M109 482q36 0 56.5 -20t20.5 -58v-15q78 103 176 103q64 0 101 -41.5t37 -123.5v-244q0 -27 19 -27h39q4 -10 4 -21q0 -35 -74 -35q-33 0 -49 16.5t-16 53.5v239q0 51 -22.5 78.5t-62.5 27.5q-84 0 -152 -99v-307q-14 -9 -43 -9q-37 0 -37 39v344q0 28 -25 28h-36
q-7 18 -7 33q0 38 71 38zM222 578q12 7 44.5 36t64 52.5t49.5 23.5q38 0 38 -34q-19 -10 -54 -38t-63.5 -48t-43.5 -20q-29 0 -35 28z" />
    <glyph glyph-name="Ncommaaccent" unicode="&#x145;" horiz-adv-x="734" 
d="M375 -167q-43 0 -43 42q0 43 43 43q23 0 34.5 -14t11.5 -50q0 -51 -14 -81t-34 -30q-21 0 -25 15q27 26 27 75zM555 20l-377 531l4 -542q-11 -9 -44 -9q-34 0 -34 36v656q16 8 41 8q22 0 36 -19l375 -541l-2 550q13 10 37 10q41 0 41 -31v-662q-12 -7 -40 -7
q-22 0 -37 20z" />
    <glyph glyph-name="ncommaaccent" unicode="&#x146;" horiz-adv-x="592" 
d="M313 -143q-43 0 -43 43t43 43q23 0 34.5 -14.5t11.5 -50.5q0 -51 -14 -81t-34 -30q-21 0 -25 16q27 26 27 74zM109 482q36 0 56.5 -20t20.5 -58v-15q78 103 176 103q64 0 101 -41.5t37 -123.5v-244q0 -27 19 -27h39q4 -10 4 -21q0 -35 -74 -35q-33 0 -49 16.5t-16 53.5
v239q0 51 -22.5 78.5t-62.5 27.5q-84 0 -152 -99v-307q-14 -9 -43 -9q-37 0 -37 39v344q0 28 -25 28h-36q-7 18 -7 33q0 38 71 38z" />
    <glyph glyph-name="Ncaron" unicode="&#x147;" horiz-adv-x="734" 
d="M555 20l-377 531l4 -542q-11 -9 -44 -9q-34 0 -34 36v656q16 8 41 8q22 0 36 -19l375 -541l-2 550q13 10 37 10q41 0 41 -31v-662q-12 -7 -40 -7q-22 0 -37 20zM366 770q-10 0 -17 5q-20 9 -72 49.5t-72 51.5q1 14 12 24t27 10q6 0 13.5 -2.5t17 -8.5l17 -11t19.5 -15
l18.5 -15.5l20 -16.5t17.5 -15q4 3 25 21t29.5 24.5l24 18t26.5 16t19 4.5q16 0 27 -10t12 -24q-21 -11 -72.5 -51.5t-71.5 -49.5q-10 -5 -20 -5z" />
    <glyph glyph-name="ncaron" unicode="&#x148;" horiz-adv-x="592" 
d="M109 482q36 0 56.5 -20t20.5 -58v-15q78 103 176 103q64 0 101 -41.5t37 -123.5v-244q0 -27 19 -27h39q4 -10 4 -21q0 -35 -74 -35q-33 0 -49 16.5t-16 53.5v239q0 51 -22.5 78.5t-62.5 27.5q-84 0 -152 -99v-307q-14 -9 -43 -9q-37 0 -37 39v344q0 28 -25 28h-36
q-7 18 -7 33q0 38 71 38zM289 551q-10 0 -17 5q-20 9 -72 49.5t-72 51.5q1 14 12 24t27 10q6 0 13.5 -2.5t17 -8.5l17 -11t19.5 -15l18.5 -15.5l20 -16.5t17.5 -15q4 3 25 21t29.5 24.5l24 18t26.5 16t19 4.5q16 0 27 -10t12 -24q-21 -11 -72.5 -51.5t-71.5 -49.5
q-10 -5 -20 -5z" />
    <glyph glyph-name="napostrophe" unicode="&#x149;" horiz-adv-x="649" 
d="M22 592q-43 0 -43 42q0 44 44 44q46 0 46 -65q0 -51 -14 -81t-34 -30q-21 0 -25 15q26 26 26 75zM167 482q36 0 56.5 -20t20.5 -58v-15q78 103 176 103q64 0 101 -41.5t37 -123.5v-244q0 -27 19 -27h39q4 -10 4 -21q0 -35 -74 -35q-33 0 -49 16.5t-16 53.5v239
q0 51 -22.5 78.5t-62.5 27.5q-84 0 -152 -99v-307q-14 -9 -43 -9q-37 0 -37 39v344q0 28 -25 28h-36q-7 18 -7 33q0 38 71 38z" />
    <glyph glyph-name="Eng" unicode="&#x14a;" horiz-adv-x="734" 
d="M557 -34v52l-379 533l4 -542q-11 -9 -44 -9q-34 0 -34 36v656q16 8 41 8q22 0 36 -19l376 -540l-3 549q13 10 37 10q41 0 41 -31v-714q0 -126 -118 -126q-94 0 -94 42q0 19 5 30h69q63 0 63 65z" />
    <glyph glyph-name="eng" unicode="&#x14b;" horiz-adv-x="581" 
d="M424 -30v337q0 53 -23 80.5t-64 27.5q-84 0 -152 -100v-306q-13 -9 -42 -9q-38 0 -38 39v344q0 28 -25 28h-35q-7 18 -7 33q0 38 69 38q37 0 57.5 -20t20.5 -58v-16q77 104 176 104q65 0 101.5 -41.5t36.5 -123.5v-372q0 -126 -117 -126q-95 0 -95 42q0 19 5 30h70
q62 0 62 69z" />
    <glyph glyph-name="Omacron" unicode="&#x14c;" horiz-adv-x="712" 
d="M64 350q0 178 79.5 269t215.5 91q134 0 211 -91t77 -269q0 -186 -76.5 -273t-211.5 -87q-137 0 -216 88.5t-79 271.5zM140 349q0 -151 59 -221t161 -70q211 0 211 291q0 144 -57 217.5t-155 73.5q-102 0 -160.5 -74t-58.5 -217zM466 799h-266q-8 16 -8 26q0 18 8.5 26
t36.5 8h274q8 -8 8 -24q0 -36 -53 -36z" />
    <glyph glyph-name="omacron" unicode="&#x14d;" 
d="M56 240q0 124 61 188t162 64t158 -63.5t57 -188.5q0 -130 -58.5 -190t-161.5 -60q-101 0 -159.5 60.5t-58.5 189.5zM135 239q0 -179 139 -179q141 0 141 179q0 91 -35.5 136.5t-100.5 45.5q-66 0 -105 -46.5t-39 -135.5zM388 580h-266q-8 16 -8 26q0 18 8.5 26t36.5 8
h274q8 -8 8 -24q0 -36 -53 -36z" />
    <glyph glyph-name="Obreve" unicode="&#x14e;" horiz-adv-x="712" 
d="M64 350q0 178 79.5 269t215.5 91q134 0 211 -91t77 -269q0 -186 -76.5 -273t-211.5 -87q-137 0 -216 88.5t-79 271.5zM140 349q0 -151 59 -221t161 -70q211 0 211 291q0 144 -57 217.5t-155 73.5q-102 0 -160.5 -74t-58.5 -217zM274 893q2 -31 22 -50q21 -20 66 -20
q43 0 63 19q20 17 24 50q9 8 29 6q13 0 19.5 -7t4.5 -17q-7 -43 -39 -73q-35 -30 -101 -30q-64 0 -101 29q-38 30 -41 76q-2 22 23 23q16 1 31 -6z" />
    <glyph glyph-name="obreve" unicode="&#x14f;" 
d="M56 240q0 124 61 188t162 64t158 -63.5t57 -188.5q0 -130 -58.5 -190t-161.5 -60q-101 0 -159.5 60.5t-58.5 189.5zM135 239q0 -179 139 -179q141 0 141 179q0 91 -35.5 136.5t-100.5 45.5q-66 0 -105 -46.5t-39 -135.5zM191 674q2 -31 22 -50q21 -20 66 -20q43 0 63 19
q20 17 24 50q9 8 29 6q13 0 19.5 -7t4.5 -17q-7 -43 -39 -73q-34 -30 -101 -30q-64 0 -101 29q-38 30 -41 76q-2 22 23 23q16 1 31 -6z" />
    <glyph glyph-name="Ohungarumlaut" unicode="&#x150;" horiz-adv-x="712" 
d="M64 350q0 178 79.5 269t215.5 91q134 0 211 -91t77 -269q0 -186 -76.5 -273t-211.5 -87q-137 0 -216 88.5t-79 271.5zM140 349q0 -151 59 -221t161 -70q211 0 211 291q0 144 -57 217.5t-155 73.5q-102 0 -160.5 -74t-58.5 -217zM178 797q12 9 41 43.5t57.5 61.5t47.5 27
q34 0 39 -28q-19 -13 -51 -46.5t-58.5 -57t-42.5 -23.5q-25 0 -33 23zM353 802q7 4 70.5 58t87.5 54q37 0 39 -34q-20 -10 -55 -38t-63.5 -48t-43.5 -20q-29 0 -35 28z" />
    <glyph glyph-name="ohungarumlaut" unicode="&#x151;" 
d="M56 240q0 124 61 188t162 64t158 -63.5t57 -188.5q0 -130 -58.5 -190t-161.5 -60q-101 0 -159.5 60.5t-58.5 189.5zM135 239q0 -179 139 -179q141 0 141 179q0 91 -35.5 136.5t-100.5 45.5q-66 0 -105 -46.5t-39 -135.5zM137 578q12 9 41 43.5t57.5 61.5t47.5 27
q34 0 39 -28q-19 -13 -51 -46.5t-58.5 -57t-42.5 -23.5q-25 0 -33 23zM312 583q7 4 70.5 58t87.5 54q37 0 39 -34q-20 -10 -55 -38t-63.5 -48t-43.5 -20q-29 0 -35 28z" />
    <glyph glyph-name="OE" unicode="&#x152;" horiz-adv-x="1030" 
d="M946 0h-411q-16 0 -22 4q-66 -14 -145 -14q-143 0 -223.5 88t-80.5 272q0 175 79.5 267.5t224.5 92.5q69 0 137 -15q10 5 33 5h432q8 -10 8 -32q0 -42 -32 -42h-370v-230h334q9 -9 9 -35q0 -39 -31 -39h-312v-248h394q8 -10 8 -32q0 -42 -32 -42zM140 349
q0 -291 228 -291q70 0 130 16v545q-56 21 -130 21q-108 0 -168 -73.5t-60 -217.5z" />
    <glyph glyph-name="oe" unicode="&#x153;" horiz-adv-x="864" 
d="M56 240q0 124 61 188t162 64q131 0 181 -110q28 54 75.5 82t103.5 28q87 0 133.5 -58t46.5 -150q0 -33 -7 -51h-316q3 -83 41 -128t104 -45q48 0 91.5 14.5t64.5 30.5q17 -10 17 -33q0 -30 -47.5 -56t-131.5 -26q-59 0 -104.5 27.5t-71.5 77.5q-49 -105 -185 -105
q-101 0 -159.5 60.5t-58.5 189.5zM135 239q0 -179 139 -179q137 0 141 172q0 189 -136 189q-66 0 -105 -46.5t-39 -135.5zM639 423q-51 0 -90.5 -34.5t-50.5 -100.5h253q0 63 -27.5 99t-84.5 36z" />
    <glyph glyph-name="Racute" unicode="&#x154;" horiz-adv-x="670" 
d="M143 700h219q90 0 145.5 -46.5t55.5 -146.5q0 -79 -46.5 -130t-116.5 -66q22 -29 57.5 -96t65 -106.5t60.5 -39.5h28q7 -9 7 -26q0 -43 -60 -43q-36 0 -68.5 34.5t-54 78.5t-52.5 102t-57 90h-144v-296q-10 -9 -39 -9q-39 0 -39 36v657q11 7 39 7zM347 638h-165v-271h152
q67 0 111 35.5t44 103.5q0 132 -142 132zM236 797q12 7 44.5 36t64 52.5t49.5 23.5q38 0 38 -34q-19 -10 -54 -38t-63.5 -48t-43.5 -20q-29 0 -35 28z" />
    <glyph glyph-name="racute" unicode="&#x155;" horiz-adv-x="426" 
d="M99 482q38 0 57.5 -19t19.5 -64v-5q33 43 74.5 70.5t81.5 27.5q86 0 86 -84q0 -55 -44 -55q-17 0 -29 12q0 44 -44 44q-66 0 -125 -87v-313q-10 -9 -42 -9q-36 0 -36 36v344q0 31 -25 31h-37q-6 16 -6 33q0 16 19 27t50 11zM159 578q12 7 44.5 36t64 52.5t49.5 23.5
q38 0 38 -34q-19 -10 -54 -38t-63.5 -48t-43.5 -20q-29 0 -35 28z" />
    <glyph glyph-name="Rcommaaccent" unicode="&#x156;" horiz-adv-x="670" 
d="M338 -177q-42 0 -42 42q0 44 43 44q46 0 46 -65q0 -51 -14 -81t-34 -30q-21 0 -25 15q26 25 26 75zM143 700h219q90 0 145.5 -46.5t55.5 -146.5q0 -79 -46.5 -130t-116.5 -66q22 -29 57.5 -96t65 -106.5t60.5 -39.5h28q7 -9 7 -26q0 -43 -60 -43q-36 0 -68.5 34.5
t-54 78.5t-52.5 102t-57 90h-144v-296q-10 -9 -39 -9q-39 0 -39 36v657q11 7 39 7zM347 638h-165v-271h152q67 0 111 35.5t44 103.5q0 132 -142 132z" />
    <glyph glyph-name="rcommaaccent" unicode="&#x157;" horiz-adv-x="426" 
d="M142 -143q-43 0 -43 43t43 43q47 0 47 -65q0 -50 -14 -80.5t-34 -30.5q-21 0 -25 16q12 12 19 35t7 39zM99 482q38 0 57.5 -19t19.5 -64v-5q33 43 74.5 70.5t81.5 27.5q86 0 86 -84q0 -55 -44 -55q-17 0 -29 12q0 44 -44 44q-66 0 -125 -87v-313q-10 -9 -42 -9
q-36 0 -36 36v344q0 31 -25 31h-37q-6 16 -6 33q0 16 19 27t50 11z" />
    <glyph glyph-name="Rcaron" unicode="&#x158;" horiz-adv-x="670" 
d="M143 700h219q90 0 145.5 -46.5t55.5 -146.5q0 -79 -46.5 -130t-116.5 -66q22 -29 57.5 -96t65 -106.5t60.5 -39.5h28q7 -9 7 -26q0 -43 -60 -43q-36 0 -68.5 34.5t-54 78.5t-52.5 102t-57 90h-144v-296q-10 -9 -39 -9q-39 0 -39 36v657q11 7 39 7zM347 638h-165v-271h152
q67 0 111 35.5t44 103.5q0 132 -142 132zM304 770q-10 0 -17 5q-20 9 -72 49.5t-72 51.5q1 14 12 24t27 10q6 0 13.5 -2.5t17 -8.5l17 -11t19.5 -15l18.5 -15.5l20 -16.5t17.5 -15q4 3 25 21t29.5 24.5l24 18t26.5 16t19 4.5q16 0 27 -10t12 -24q-21 -11 -72.5 -51.5
t-71.5 -49.5q-10 -5 -20 -5z" />
    <glyph glyph-name="rcaron" unicode="&#x159;" horiz-adv-x="426" 
d="M99 482q38 0 57.5 -19t19.5 -64v-5q33 43 74.5 70.5t81.5 27.5q86 0 86 -84q0 -55 -44 -55q-17 0 -29 12q0 44 -44 44q-66 0 -125 -87v-313q-10 -9 -42 -9q-36 0 -36 36v344q0 31 -25 31h-37q-6 16 -6 33q0 16 19 27t50 11zM226 551q-10 0 -17 5q-20 9 -72 49.5t-72 51.5
q1 14 12 24t27 10q6 0 13.5 -2.5t17 -8.5l17 -11t19.5 -15l18.5 -15.5l19.5 -16.5l18 -15q4 3 25 21t29.5 24.5l24 18t26.5 16t19 4.5q16 0 27 -10t12 -24q-21 -11 -72.5 -51.5t-71.5 -49.5q-10 -5 -20 -5z" />
    <glyph glyph-name="Sacute" unicode="&#x15a;" horiz-adv-x="608" 
d="M299 710q144 0 207 -61q16 -16 16 -39q0 -21 -22 -37q-66 55 -201 55q-75 0 -111.5 -28.5t-36.5 -75.5t38.5 -76.5t139.5 -58.5q118 -31 169 -76t52 -130q1 -90 -61 -141.5t-184 -51.5q-126 0 -202 47q-45 29 -45 59q0 24 14 40q37 -32 99.5 -50.5t130.5 -18.5
q89 0 130.5 31t41.5 82q0 49 -36.5 79.5t-133.5 57.5q-128 35 -178.5 79.5t-50.5 128.5q0 83 56.5 134t167.5 51zM211 797q12 7 44.5 36t64 52.5t49.5 23.5q38 0 38 -34q-19 -10 -54 -38t-63.5 -48t-43.5 -20q-29 0 -35 28z" />
    <glyph glyph-name="sacute" unicode="&#x15b;" horiz-adv-x="456" 
d="M227 492q76 0 120.5 -24t44.5 -52q0 -30 -18 -40q-18 16 -59 27.5t-90 11.5t-72.5 -17.5t-23.5 -45.5q0 -31 26.5 -47t88.5 -28q88 -15 126.5 -49t38.5 -98q0 -67 -45 -103.5t-133 -36.5q-77 0 -129.5 24t-52.5 53q0 27 16 42q24 -18 71.5 -34t89.5 -16q113 0 113 70
q0 33 -25.5 51t-87.5 29q-92 16 -129 48.5t-37 98.5q0 60 43.5 98t123.5 38zM157 578q12 7 44.5 36t64 52.5t49.5 23.5q38 0 38 -34q-19 -10 -54 -38t-63.5 -48t-43.5 -20q-29 0 -35 28z" />
    <glyph glyph-name="Scircumflex" unicode="&#x15c;" horiz-adv-x="608" 
d="M299 710q144 0 207 -61q16 -16 16 -39q0 -21 -22 -37q-66 55 -201 55q-75 0 -111.5 -28.5t-36.5 -75.5t38.5 -76.5t139.5 -58.5q118 -31 169 -76t52 -130q1 -90 -61 -141.5t-184 -51.5q-126 0 -202 47q-45 29 -45 59q0 24 14 40q37 -32 99.5 -50.5t130.5 -18.5
q89 0 130.5 31t41.5 82q0 49 -36.5 79.5t-133.5 57.5q-128 35 -178.5 79.5t-50.5 128.5q0 83 56.5 134t167.5 51zM463 798q-5 -23 -24 -26q-8 -3 -19 0q-13 4 -31.5 16t-45 32t-39.5 29q-12 -8 -39.5 -28.5t-46 -32.5t-31.5 -16q-10 -3 -18 0q-19 3 -24 26q8 4 70 58t87 54
q24 0 87 -53t74 -59z" />
    <glyph glyph-name="scircumflex" unicode="&#x15d;" horiz-adv-x="456" 
d="M227 492q76 0 120.5 -24t44.5 -52q0 -30 -18 -40q-18 16 -59 27.5t-90 11.5t-72.5 -17.5t-23.5 -45.5q0 -31 26.5 -47t88.5 -28q88 -15 126.5 -49t38.5 -98q0 -67 -45 -103.5t-133 -36.5q-77 0 -129.5 24t-52.5 53q0 27 16 42q24 -18 71.5 -34t89.5 -16q113 0 113 70
q0 33 -25.5 51t-87.5 29q-92 16 -129 48.5t-37 98.5q0 60 43.5 98t123.5 38zM386 579q-5 -23 -24 -26q-8 -3 -19 0q-13 4 -31.5 16t-45 32t-39.5 29q-12 -8 -39.5 -28.5t-46 -32.5t-31.5 -16q-10 -3 -18 0q-19 3 -24 26q8 4 70 58t87 54q24 0 87 -53t74 -59z" />
    <glyph glyph-name="Scedilla" unicode="&#x15e;" horiz-adv-x="608" 
d="M299 710q144 0 207 -61q16 -16 16 -39q0 -21 -22 -37q-66 55 -201 55q-75 0 -111.5 -28.5t-36.5 -75.5t38.5 -76.5t139.5 -58.5q118 -31 169 -76t52 -130q1 -90 -61 -141.5t-184 -51.5q-126 0 -202 47q-45 29 -45 59q0 24 14 40q37 -32 99.5 -50.5t130.5 -18.5
q89 0 130.5 31t41.5 82q0 49 -36.5 79.5t-133.5 57.5q-128 35 -178.5 79.5t-50.5 128.5q0 83 56.5 134t167.5 51zM344 -115q0 39 -64 41q-6 6 -6 20l1 67l49 -1l-4 -51q70 -10 70 -80q0 -37 -23.5 -58.5t-63.5 -21.5q-37 0 -57.5 13.5t-20.5 30.5t19 27q18 -26 56 -26
q44 0 44 39z" />
    <glyph glyph-name="scedilla" unicode="&#x15f;" horiz-adv-x="456" 
d="M227 492q76 0 120.5 -24t44.5 -52q0 -30 -18 -40q-18 16 -59 27.5t-90 11.5t-72.5 -17.5t-23.5 -45.5q0 -31 26.5 -47t88.5 -28q88 -15 126.5 -49t38.5 -98q0 -67 -45 -103.5t-133 -36.5q-77 0 -129.5 24t-52.5 53q0 27 16 42q24 -18 71.5 -34t89.5 -16q113 0 113 70
q0 33 -25.5 51t-87.5 29q-92 16 -129 48.5t-37 98.5q0 60 43.5 98t123.5 38zM271 -112q0 39 -64 41q-6 6 -6 20l1 67l49 -1l-4 -51q70 -10 70 -80q0 -37 -23.5 -58.5t-63.5 -21.5q-37 0 -57.5 13.5t-20.5 30.5q0 18 19 27q18 -26 56 -26q44 0 44 39z" />
    <glyph glyph-name="Scaron" unicode="&#x160;" horiz-adv-x="608" 
d="M299 710q144 0 207 -61q16 -16 16 -39q0 -21 -22 -37q-66 55 -201 55q-75 0 -111.5 -28.5t-36.5 -75.5t38.5 -76.5t139.5 -58.5q118 -31 169 -76t52 -130q1 -90 -61 -141.5t-184 -51.5q-126 0 -202 47q-45 29 -45 59q0 24 14 40q37 -32 99.5 -50.5t130.5 -18.5
q89 0 130.5 31t41.5 82q0 49 -36.5 79.5t-133.5 57.5q-128 35 -178.5 79.5t-50.5 128.5q0 83 56.5 134t167.5 51zM303 770q-10 0 -17 5q-20 9 -72 49.5t-72 51.5q1 14 12 24t27 10q6 0 13.5 -2.5t17 -8.5l17 -11t19.5 -15l18.5 -15.5l19.5 -16.5l18 -15q4 3 25 21t29.5 24.5
l24 18t26.5 16t19 4.5q16 0 27 -10t12 -24q-21 -11 -72.5 -51.5t-71.5 -49.5q-10 -5 -20 -5z" />
    <glyph glyph-name="scaron" unicode="&#x161;" horiz-adv-x="456" 
d="M227 492q76 0 120.5 -24t44.5 -52q0 -30 -18 -40q-18 16 -59 27.5t-90 11.5t-72.5 -17.5t-23.5 -45.5q0 -31 26.5 -47t88.5 -28q88 -15 126.5 -49t38.5 -98q0 -67 -45 -103.5t-133 -36.5q-77 0 -129.5 24t-52.5 53q0 27 16 42q24 -18 71.5 -34t89.5 -16q113 0 113 70
q0 33 -25.5 51t-87.5 29q-92 16 -129 48.5t-37 98.5q0 60 43.5 98t123.5 38zM224 551q-10 0 -17 5q-20 9 -72 49.5t-72 51.5q1 14 12 24t27 10q6 0 13.5 -2.5t17 -8.5l17 -11t19.5 -15l18.5 -15.5l20 -16.5t17.5 -15q4 3 25 21t29.5 24.5l24 18t26.5 16t19 4.5q16 0 27 -10
t12 -24q-21 -11 -72.5 -51.5t-71.5 -49.5q-10 -5 -20 -5z" />
    <glyph glyph-name="Tcommaaccent" unicode="&#x162;" horiz-adv-x="598" 
d="M299 -177q-43 0 -43 43t44 43q46 0 46 -65q0 -50 -14 -80.5t-34 -30.5q-21 0 -25 16q12 12 19 35t7 39zM549 626h-212v-618q-11 -8 -43 -8q-33 0 -33 36v590h-236q-9 18 -9 38q0 36 41 36h516q9 -11 9 -32q0 -42 -33 -42z" />
    <glyph glyph-name="tcommaaccent" unicode="&#x163;" horiz-adv-x="367" 
d="M176 -144q-43 0 -43 43t44 43q46 0 46 -65q0 -51 -14 -81t-34 -30q-21 0 -25 16q12 12 19 34.5t7 39.5zM300 417h-122v-275q0 -43 14.5 -59t46.5 -16h96q5 -12 5 -22q0 -45 -121 -45q-54 0 -84 28t-30 96v293h-59q-8 11 -8 28q0 37 33 37h34v131q14 8 39 8q34 0 34 -33
v-106h153q7 -7 7 -26q0 -39 -38 -39z" />
    <glyph glyph-name="Tcaron" unicode="&#x164;" horiz-adv-x="598" 
d="M549 626h-212v-618q-11 -8 -43 -8q-33 0 -33 36v590h-236q-9 18 -9 38q0 36 41 36h516q9 -11 9 -32q0 -42 -33 -42zM297 770q-10 0 -17 5q-20 9 -72 49.5t-72 51.5q1 14 12 24t27 10q6 0 13.5 -2.5t17 -8.5l17 -11t19.5 -15l18.5 -15.5l19.5 -16.5l18 -15q4 3 25 21
t29.5 24.5l24 18t26.5 16t19 4.5q16 0 27 -10t12 -24q-21 -11 -72.5 -51.5t-71.5 -49.5q-10 -5 -20 -5z" />
    <glyph glyph-name="tcaron" unicode="&#x165;" horiz-adv-x="367" 
d="M296 648q-43 0 -43 43t43 43q23 0 34.5 -14.5t11.5 -50.5q0 -51 -13.5 -81t-33.5 -30q-22 0 -26 15q27 26 27 75zM300 417h-122v-275q0 -43 14.5 -59t46.5 -16h96q5 -12 5 -22q0 -45 -121 -45q-54 0 -84 28t-30 96v293h-59q-8 11 -8 28q0 37 33 37h34v131q14 8 39 8
q34 0 34 -33v-106h153q7 -7 7 -26q0 -39 -38 -39z" />
    <glyph glyph-name="Tbar" unicode="&#x166;" horiz-adv-x="598" 
d="M549 626h-212v-253h150q7 -13 7 -36q0 -38 -36 -38h-121v-291q-11 -8 -43 -8q-33 0 -33 36v263h-150q-8 20 -8 38q0 36 32 36h126v253h-236q-9 18 -9 38q0 36 41 36h516q9 -11 9 -32q0 -42 -33 -42z" />
    <glyph glyph-name="tbar" unicode="&#x167;" horiz-adv-x="367" 
d="M300 417h-122v-118h148q8 -10 8 -32q0 -37 -39 -37h-117v-88q0 -43 14.5 -59t46.5 -16h96q5 -12 5 -22q0 -45 -121 -45q-54 0 -84 28t-30 96v106h-59q-8 16 -8 33q0 36 33 36h34v118h-59q-8 11 -8 28q0 37 33 37h34v131q14 8 39 8q34 0 34 -33v-106h153q7 -7 7 -26
q0 -39 -38 -39z" />
    <glyph glyph-name="Utilde" unicode="&#x168;" horiz-adv-x="701" 
d="M530 264v428q13 8 39 8q39 0 39 -31v-415q0 -264 -258 -264q-129 0 -190.5 64.5t-61.5 199.5l-1 438q13 8 40 8q38 0 38 -31v-404q0 -104 41 -154t134 -50q97 0 138.5 49.5t41.5 153.5zM268 875q29 0 82.5 -15.5t77.5 -15.5q42 0 63 24q18 -9 18 -34q0 -19 -18.5 -32.5
t-50.5 -13.5q-27 0 -89 14.5t-84 14.5q-19 0 -35.5 -8.5t-18.5 -17.5q-20 7 -20 31q0 17 21.5 35t53.5 18z" />
    <glyph glyph-name="utilde" unicode="&#x169;" horiz-adv-x="592" 
d="M481 0q-68 0 -68 79v9q-75 -98 -178 -98q-134 0 -134 161v234q0 27 -23 27h-44q-4 18 -4 32q1 38 77 38q39 0 56.5 -16t17.5 -54v-244q0 -101 77 -101q93 0 155 106v300q17 9 43 9q37 0 37 -30v-359q0 -28 23 -28h37q3 -18 3 -25q0 -40 -75 -40zM207 656q29 0 82.5 -15.5
t77.5 -15.5q42 0 63 24q18 -9 18 -34q0 -19 -18.5 -32.5t-50.5 -13.5q-27 0 -89 14.5t-84 14.5q-19 0 -35.5 -8.5t-18.5 -17.5q-20 7 -20 31q0 17 21.5 35t53.5 18z" />
    <glyph glyph-name="Umacron" unicode="&#x16a;" horiz-adv-x="701" 
d="M530 264v428q13 8 39 8q39 0 39 -31v-415q0 -264 -258 -264q-129 0 -190.5 64.5t-61.5 199.5l-1 438q13 8 40 8q38 0 38 -31v-404q0 -104 41 -154t134 -50q97 0 138.5 49.5t41.5 153.5zM461 799h-266q-8 16 -8 26q0 18 8.5 26t36.5 8h274q8 -8 8 -24q0 -36 -53 -36z" />
    <glyph glyph-name="umacron" unicode="&#x16b;" horiz-adv-x="592" 
d="M481 0q-68 0 -68 79v9q-75 -98 -178 -98q-134 0 -134 161v234q0 27 -23 27h-44q-4 18 -4 32q1 38 77 38q39 0 56.5 -16t17.5 -54v-244q0 -101 77 -101q93 0 155 106v300q17 9 43 9q37 0 37 -30v-359q0 -28 23 -28h37q3 -18 3 -25q0 -40 -75 -40zM398 580h-266
q-8 16 -8 26q0 18 8.5 26t36.5 8h274q8 -8 8 -24q0 -36 -53 -36z" />
    <glyph glyph-name="Ubreve" unicode="&#x16c;" horiz-adv-x="701" 
d="M530 264v428q13 8 39 8q39 0 39 -31v-415q0 -264 -258 -264q-129 0 -190.5 64.5t-61.5 199.5l-1 438q13 8 40 8q38 0 38 -31v-404q0 -104 41 -154t134 -50q97 0 138.5 49.5t41.5 153.5zM263 893q2 -31 22 -50q21 -20 66 -20q43 0 63 19q20 17 24 50q9 8 29 6
q13 0 19.5 -7t4.5 -17q-7 -43 -39 -73q-34 -30 -101 -30q-64 0 -101 29q-38 30 -41 76q-2 22 23 23q16 1 31 -6z" />
    <glyph glyph-name="ubreve" unicode="&#x16d;" horiz-adv-x="592" 
d="M481 0q-68 0 -68 79v9q-75 -98 -178 -98q-134 0 -134 161v234q0 27 -23 27h-44q-4 18 -4 32q1 38 77 38q39 0 56.5 -16t17.5 -54v-244q0 -101 77 -101q93 0 155 106v300q17 9 43 9q37 0 37 -30v-359q0 -28 23 -28h37q3 -18 3 -25q0 -40 -75 -40zM197 674q2 -31 22 -50
q21 -20 66 -20q43 0 63 19q20 17 24 50q9 8 29 6q13 0 19.5 -7t4.5 -17q-7 -43 -39 -73q-34 -30 -101 -30q-64 0 -101 29q-38 30 -41 76q-2 22 23 23q16 1 31 -6z" />
    <glyph glyph-name="Uring" unicode="&#x16e;" horiz-adv-x="701" 
d="M530 264v428q13 8 39 8q39 0 39 -31v-415q0 -264 -258 -264q-129 0 -190.5 64.5t-61.5 199.5l-1 438q13 8 40 8q38 0 38 -31v-404q0 -104 41 -154t134 -50q97 0 138.5 49.5t41.5 153.5zM262 851q0 88 88 88t88 -88t-88 -88t-88 88zM303 851q0 -47 47 -47t47 47
q0 22 -12.5 34.5t-34.5 12.5q-47 0 -47 -47z" />
    <glyph glyph-name="uring" unicode="&#x16f;" horiz-adv-x="592" 
d="M481 0q-68 0 -68 79v9q-75 -98 -178 -98q-134 0 -134 161v234q0 27 -23 27h-44q-4 18 -4 32q1 38 77 38q39 0 56.5 -16t17.5 -54v-244q0 -101 77 -101q93 0 155 106v300q17 9 43 9q37 0 37 -30v-359q0 -28 23 -28h37q3 -18 3 -25q0 -40 -75 -40zM196 632q0 88 88 88
t88 -88t-88 -88t-88 88zM237 632q0 -47 47 -47t47 47q0 22 -12.5 34.5t-34.5 12.5q-47 0 -47 -47z" />
    <glyph glyph-name="Uhungarumlaut" unicode="&#x170;" horiz-adv-x="701" 
d="M530 264v428q13 8 39 8q39 0 39 -31v-415q0 -264 -258 -264q-129 0 -190.5 64.5t-61.5 199.5l-1 438q13 8 40 8q38 0 38 -31v-404q0 -104 41 -154t134 -50q97 0 138.5 49.5t41.5 153.5zM184 797q12 9 41 43.5t57.5 61.5t47.5 27q34 0 39 -28q-19 -13 -51 -46.5t-58.5 -57
t-42.5 -23.5q-25 0 -33 23zM359 802q7 4 70.5 58t87.5 54q37 0 39 -34q-20 -10 -55 -38t-63.5 -48t-43.5 -20q-29 0 -35 28z" />
    <glyph glyph-name="uhungarumlaut" unicode="&#x171;" horiz-adv-x="592" 
d="M481 0q-68 0 -68 79v9q-75 -98 -178 -98q-134 0 -134 161v234q0 27 -23 27h-44q-4 18 -4 32q1 38 77 38q39 0 56.5 -16t17.5 -54v-244q0 -101 77 -101q93 0 155 106v300q17 9 43 9q37 0 37 -30v-359q0 -28 23 -28h37q3 -18 3 -25q0 -40 -75 -40zM143 578q12 9 41 43.5
t57.5 61.5t47.5 27q34 0 39 -28q-19 -13 -51 -46.5t-58.5 -57t-42.5 -23.5q-25 0 -33 23zM318 583q7 4 70.5 58t87.5 54q37 0 39 -34q-20 -10 -55 -38t-63.5 -48t-43.5 -20q-29 0 -35 28z" />
    <glyph glyph-name="Uogonek" unicode="&#x172;" horiz-adv-x="701" 
d="M409 -6q-21 -4 -59 -4q-129 0 -190.5 64.5t-61.5 199.5l-1 438q13 8 40 8q38 0 38 -31v-404q0 -104 41 -154t134 -50q97 0 138.5 49.5t41.5 153.5v428q13 8 39 8q39 0 39 -31v-415q0 -176 -111 -233q-36 -18 -58 -54t-22 -59q0 -42 56 -42q5 -12 5 -22q0 -23 -34 -23
q-30 0 -53.5 18.5t-23.5 57.5q0 55 42 97z" />
    <glyph glyph-name="uogonek" unicode="&#x173;" horiz-adv-x="592" 
d="M258 67q93 0 155 109v297q17 9 43 9q37 0 37 -30v-359q0 -28 23 -28h37q3 -18 3 -25q0 -14 -15 -27q-19 -18 -34 -46.5t-15 -46.5q0 -43 55 -43q5 -7 5 -21q0 -24 -33 -24q-30 0 -53.5 19t-23.5 57q0 45 32 92q-28 1 -39.5 23.5t-17.5 72.5q-77 -106 -182 -106
q-134 0 -134 161v234q0 27 -23 27h-44q-4 18 -4 32q1 38 77 38q44 0 59 -20.5t15 -71.5v-222q0 -101 77 -101z" />
    <glyph glyph-name="Wcircumflex" unicode="&#x174;" horiz-adv-x="1000" 
d="M453 700q30 0 40 -27l224 -567q61 101 121.5 287.5t74.5 297.5q18 9 41 9q12 0 20 -5.5t8 -14.5q0 -15 -6 -52q-19 -105 -87 -295.5t-148 -326.5q-17 -6 -34 -6q-27 0 -39 32l-142 360q-94 -229 -185 -385q-17 -6 -34 -6q-26 0 -39 31l-250 660q16 8 45 8q30 0 41 -27
l214 -566q37 62 85 170.5t85 210.5l-80 204q14 8 45 8zM653 798q-5 -23 -24 -26q-8 -3 -19 0q-13 4 -31.5 16t-45 32t-39.5 29q-12 -8 -39.5 -28.5t-46 -32.5t-31.5 -16q-10 -3 -18 0q-19 3 -24 26q8 4 70 58t87 54q24 0 87 -53t74 -59z" />
    <glyph glyph-name="wcircumflex" unicode="&#x175;" horiz-adv-x="781" 
d="M513 7l-109 314q-37 -147 -115 -275q-16 -26 -28 -36t-28 -10q-19 0 -29 8l-129 395q-5 18 -22 18h-36q-5 13 -5 27q0 34 67 34q48 0 63 -41l106 -333q45 68 80 157t35 133q0 23 -18 23h-29q-5 12 -5 26q0 16 19.5 25.5t50.5 9.5q39 0 51 -37l114 -339q48 65 80 149.5
t32 138.5q0 27 -24 27h-34q-5 12 -5 27t18.5 24.5t48.5 9.5q70 0 70 -75q0 -67 -41 -174.5t-93 -184.5q-17 -26 -29 -37t-29 -11t-27 7zM533 580q-5 -23 -24 -26q-8 -3 -19 0q-13 4 -31.5 16t-45 32t-39.5 29q-12 -8 -39.5 -28.5t-46 -32.5t-31.5 -16q-10 -3 -18 0
q-19 3 -24 26q8 4 70 58t87 54q24 0 87 -53t74 -59z" />
    <glyph glyph-name="Ycircumflex" unicode="&#x176;" horiz-adv-x="591" 
d="M342 233v-224q-13 -9 -43 -9q-34 0 -34 29v201q-159 228 -229 458q19 12 44 12q29 0 38 -26q62 -202 188 -387q61 93 117.5 216.5t68.5 191.5q10 5 37 5q11 0 18.5 -8t7.5 -19q-1 -59 -74 -204.5t-139 -235.5zM454 798q-5 -23 -24 -26q-8 -3 -19 0q-13 4 -31.5 16t-45 32
t-39.5 29q-12 -8 -39.5 -28.5t-46 -32.5t-31.5 -16q-10 -3 -18 0q-19 3 -24 26q8 4 70 58t87 54q24 0 87 -53t74 -59z" />
    <glyph glyph-name="ycircumflex" unicode="&#x177;" horiz-adv-x="540" 
d="M146 429l124 -328q7 -22 23 -25q123 242 123 318q0 27 -24 27h-36q-5 10 -5 27q0 15 17.5 24.5t43.5 9.5q80 0 80 -70q0 -67 -73 -231t-133 -258q-40 -63 -83.5 -87t-101.5 -24q-69 0 -69 39q0 16 6 28h74q32 0 59 15.5t55 60.5l32 56q-32 6 -47 47l-132 343
q-7 20 -25 20h-37q-5 10 -5 27q0 34 64 34q29 0 45 -12.5t25 -40.5zM421 580q-5 -23 -24 -26q-8 -3 -19 0q-13 4 -31.5 16t-45 32t-39.5 29q-12 -8 -39.5 -28.5t-46 -32.5t-31.5 -16q-10 -3 -18 0q-19 3 -24 26q8 4 70 58t87 54q24 0 87 -53t74 -59z" />
    <glyph glyph-name="Ydieresis" unicode="&#x178;" horiz-adv-x="591" 
d="M342 233v-224q-13 -9 -43 -9q-34 0 -34 29v201q-159 228 -229 458q19 12 44 12q29 0 38 -26q62 -202 188 -387q61 93 117.5 216.5t68.5 191.5q10 5 37 5q11 0 18.5 -8t7.5 -19q-1 -59 -74 -204.5t-139 -235.5zM145 833q0 46 46 46t46 -46q0 -45 -46 -45t-46 45zM355 833
q0 46 45 46q46 0 46 -46q0 -45 -46 -45q-45 0 -45 45z" />
    <glyph glyph-name="Zacute" unicode="&#x179;" horiz-adv-x="639" 
d="M559 632l-418 -563h459q7 -16 7 -33q0 -36 -38 -36h-531q-6 14 -6 28q0 23 14 40l418 560h-397q-9 16 -9 34q0 38 35 38h475q6 -6 6 -27q0 -22 -15 -41zM221 797q12 7 44.5 36t64 52.5t49.5 23.5q38 0 38 -34q-19 -10 -54 -38t-63.5 -48t-43.5 -20q-29 0 -35 28z" />
    <glyph glyph-name="zacute" unicode="&#x17a;" horiz-adv-x="499" 
d="M42 29q0 20 11 33l286 355h-274q-8 11 -8 28q0 12 2 19t9.5 12.5t21.5 5.5h343q5 -15 5 -26q0 -18 -13 -35l-283 -354h309q6 -10 6 -32q0 -35 -39 -35h-368q-8 14 -8 29zM151 579q12 7 44.5 36t64 52.5t49.5 23.5q38 0 38 -34q-19 -10 -54 -38t-63.5 -48t-43.5 -20
q-29 0 -35 28z" />
    <glyph glyph-name="Zdotaccent" unicode="&#x17b;" horiz-adv-x="639" 
d="M559 632l-418 -563h459q7 -16 7 -33q0 -36 -38 -36h-531q-6 14 -6 28q0 23 14 40l418 560h-397q-9 16 -9 34q0 38 35 38h475q6 -6 6 -27q0 -22 -15 -41zM269 830q0 47 45 47q46 0 46 -47q0 -45 -46 -45q-45 0 -45 45z" />
    <glyph glyph-name="zdotaccent" unicode="&#x17c;" horiz-adv-x="499" 
d="M42 29q0 20 11 33l286 355h-274q-8 11 -8 28q0 12 2 19t9.5 12.5t21.5 5.5h343q5 -15 5 -26q0 -18 -13 -35l-283 -354h309q6 -10 6 -32q0 -35 -39 -35h-368q-8 14 -8 29zM203 617q0 46 46 46t46 -46t-46 -46t-46 46z" />
    <glyph glyph-name="Zcaron" unicode="&#x17d;" horiz-adv-x="639" 
d="M559 632l-418 -563h459q7 -16 7 -33q0 -36 -38 -36h-531q-6 14 -6 28q0 23 14 40l418 560h-397q-9 16 -9 34q0 38 35 38h475q6 -6 6 -27q0 -22 -15 -41zM318 770q-10 0 -17 5q-20 9 -72 49.5t-72 51.5q1 14 12 24t27 10q6 0 13.5 -2.5t17 -8.5l17 -11t19.5 -15
l18.5 -15.5l19.5 -16.5l18 -15q4 3 25 21t29.5 24.5l24 18t26.5 16t19 4.5q16 0 27 -10t12 -24q-21 -11 -72.5 -51.5t-71.5 -49.5q-10 -5 -20 -5z" />
    <glyph glyph-name="zcaron" unicode="&#x17e;" horiz-adv-x="499" 
d="M42 29q0 20 11 33l286 355h-274q-8 11 -8 28q0 12 2 19t9.5 12.5t21.5 5.5h343q5 -15 5 -26q0 -18 -13 -35l-283 -354h309q6 -10 6 -32q0 -35 -39 -35h-368q-8 14 -8 29zM248 552q-10 0 -17 5q-20 9 -72 49.5t-72 51.5q1 14 12 24t27 10q6 0 13.5 -2.5t17 -8.5l17 -11
t19.5 -15l18.5 -15.5l19.5 -16.5l18 -15q4 3 25 21t29.5 24.5l24 18t26.5 16t19 4.5q16 0 27 -10t12 -24q-21 -11 -72.5 -51.5t-71.5 -49.5q-10 -5 -20 -5z" />
    <glyph glyph-name="florin" unicode="&#x192;" horiz-adv-x="502" 
d="M387 332h-118l-54 -385q-10 -73 -48 -104t-109 -31q-81 0 -81 39q0 16 7 32h81q32 0 50.5 16.5t24.5 60.5l52 372h-114q-8 20 -8 36q0 36 42 36h90l23 165q10 70 48.5 100.5t110.5 30.5q87 0 87 -37q0 -18 -5 -35h-85q-36 0 -55.5 -16.5t-25.5 -56.5l-21 -151h148
q8 -10 8 -33q0 -39 -48 -39z" />
    <glyph glyph-name="aringacute" unicode="&#x1fb;" horiz-adv-x="528" 
d="M85 387q-14 12 -14 32q0 33 52.5 53t112.5 20q74 0 121 -34.5t47 -110.5v-257q0 -35 25 -35h28q6 -8 6 -26q0 -29 -64 -29q-28 0 -45 19t-17 50v4q-85 -83 -173 -83q-65 0 -98.5 40.5t-33.5 108.5q0 60 34.5 95.5t101.5 39.5l169 10v43q0 95 -104 95q-43 0 -85 -10.5
t-63 -24.5zM175 56q78 0 162 78v94l-165 -16q-71 -7 -71 -74q0 -35 19 -58.5t55 -23.5zM176 625q0 88 88 88t88 -88t-88 -88t-88 88zM217 625q0 -47 47 -47t47 47q0 22 -12.5 34.5t-34.5 12.5q-47 0 -47 -47zM175 768q12 7 44.5 36t64 52.5t49.5 23.5q38 0 38 -34
q-19 -10 -54 -38t-63.5 -48t-43.5 -20q-29 0 -35 28z" />
    <glyph glyph-name="AEacute" unicode="&#x1fc;" horiz-adv-x="978" 
d="M894 0h-413q-35 0 -35 37v133h-285l-58 -145q-9 -25 -44 -25q-30 0 -41 11l272 676q20 13 81 13h546q9 -9 9 -32q0 -42 -32 -42h-370v-230h334q9 -11 9 -35q0 -39 -31 -39h-312v-248h393q9 -9 9 -32q0 -42 -32 -42zM343 626l-156 -389h259v389h-103zM457 797
q12 7 44.5 36t64 52.5t49.5 23.5q38 0 38 -34q-19 -10 -54 -38t-63.5 -48t-43.5 -20q-29 0 -35 28z" />
    <glyph glyph-name="aeacute" unicode="&#x1fd;" horiz-adv-x="785" 
d="M85 387q-14 12 -14 32q0 33 52.5 53t112.5 20q130 0 152 -88q58 88 166 88q88 0 134.5 -58t46.5 -150q0 -33 -7 -51h-316q6 -147 116 -170q22 -3 47 -3q85 3 138 45q17 -11 17 -33q0 -30 -47.5 -56t-131.5 -26q-60 0 -107 27.5t-73 78.5q-44 -46 -100 -76t-107 -30
q-65 0 -98.5 40.5t-33.5 108.5q0 113 112 131q38 5 192 15q-1 83 -23 110t-80 27q-43 0 -85 -10.5t-63 -24.5zM175 56q85 0 173 91q-8 30 -10 68v13l-166 -16q-71 -7 -71 -74q0 -35 19 -58.5t55 -23.5zM553 424q-51 0 -89 -35t-50 -101h252q0 63 -28.5 99.5t-84.5 36.5z
M330 581q12 7 44.5 36t64 52.5t49.5 23.5q38 0 38 -34q-19 -10 -54 -38t-63.5 -48t-43.5 -20q-29 0 -35 28z" />
    <glyph glyph-name="Oslashacute" unicode="&#x1fe;" horiz-adv-x="712" 
d="M64 350q0 178 79.5 269t215.5 91q57 0 106 -18l45 115q10 5 28 5q12 0 19.5 -6t8.5 -15q0 -6 -3 -14l-45 -114q129 -82 129 -313q0 -186 -76.5 -273t-211.5 -87q-54 0 -99 13l-53 -137q-7 -3 -24 -3q-11 0 -21 6t-10 15q0 8 4 16l50 130q-142 77 -142 320zM140 349
q0 -185 98 -245l198 522q-37 14 -77 14q-102 0 -160.5 -74t-58.5 -217zM571 349q0 168 -87 236l-195 -518q32 -9 71 -9q211 0 211 291zM257 797q12 7 44.5 36t64 52.5t49.5 23.5q38 0 38 -34q-19 -10 -54 -38t-63.5 -48t-43.5 -20q-29 0 -35 28z" />
    <glyph glyph-name="oslashacute" unicode="&#x1ff;" 
d="M56 240q0 124 61 188t162 64q25 0 52 -5l40 127q14 4 24 4q19 0 20 -14q0 -8 -3 -16l-36 -115q118 -50 118 -233q0 -130 -58.5 -190t-161.5 -60q-24 0 -51 5l-30 -99q-12 -6 -27 -6t-18 11q-1 5 3 21l27 85q-122 49 -122 233zM135 239q0 -123 68 -158l105 337
q-15 3 -29 3q-66 0 -105 -46.5t-39 -135.5zM415 239q0 116 -65 156l-104 -334q9 -1 28 -1q141 0 141 179zM177 579q12 7 44.5 36t64 52.5t49.5 23.5q38 0 38 -34q-19 -10 -54 -38t-63.5 -48t-43.5 -20q-29 0 -35 28z" />
    <glyph glyph-name="Scommaaccent" unicode="&#x218;" horiz-adv-x="608" 
d="M302 -165q-43 0 -43 43t43 43q46 0 46 -65q0 -51 -14 -81t-34 -30q-21 0 -25 16q27 26 27 74zM299 710q144 0 207 -61q16 -16 16 -39q0 -21 -22 -37q-66 55 -201 55q-75 0 -111.5 -28.5t-36.5 -75.5t38.5 -76.5t139.5 -58.5q118 -31 169 -76t52 -130q1 -90 -61 -141.5
t-184 -51.5q-126 0 -202 47q-45 29 -45 59q0 24 14 40q37 -32 99.5 -50.5t130.5 -18.5q89 0 130.5 31t41.5 82q0 49 -36.5 79.5t-133.5 57.5q-128 35 -178.5 79.5t-50.5 128.5q0 83 56.5 134t167.5 51z" />
    <glyph glyph-name="scommaaccent" unicode="&#x219;" horiz-adv-x="456" 
d="M222 -144q-43 0 -43 43t43 43q23 0 34.5 -14.5t11.5 -50.5q0 -51 -14 -81t-34 -30q-21 0 -25 16q13 11 20 34t7 40zM227 492q76 0 120.5 -24t44.5 -52q0 -30 -18 -40q-18 16 -59 27.5t-90 11.5t-72.5 -17.5t-23.5 -45.5q0 -31 26.5 -47t88.5 -28q88 -15 126.5 -49
t38.5 -98q0 -67 -45 -103.5t-133 -36.5q-77 0 -129.5 24t-52.5 53q0 27 16 42q24 -18 71.5 -34t89.5 -16q113 0 113 70q0 33 -25.5 51t-87.5 29q-92 16 -129 48.5t-37 98.5q0 60 43.5 98t123.5 38z" />
    <glyph glyph-name="uni021A" unicode="&#x21a;" horiz-adv-x="598" 
d="M297 -167q-43 0 -43 42q0 44 44 44q46 0 46 -65q0 -51 -14 -81t-34 -30q-21 0 -25 15q26 25 26 75zM549 626h-212v-618q-11 -8 -43 -8q-33 0 -33 36v590h-236q-9 18 -9 38q0 36 41 36h516q9 -11 9 -32q0 -42 -33 -42z" />
    <glyph glyph-name="uni021B" unicode="&#x21b;" horiz-adv-x="367" 
d="M176 -144q-43 0 -43 43t44 43q46 0 46 -65q0 -51 -14 -81t-34 -30q-21 0 -25 16q12 12 19 34.5t7 39.5zM300 417h-122v-275q0 -43 14.5 -59t46.5 -16h96q5 -12 5 -22q0 -45 -121 -45q-54 0 -84 28t-30 96v293h-59q-8 11 -8 28q0 37 33 37h34v131q14 8 39 8q34 0 34 -33
v-106h153q7 -7 7 -26q0 -39 -38 -39z" />
    <glyph glyph-name="dotlessj" unicode="&#x237;" horiz-adv-x="284" 
d="M123 482q38 0 54.5 -17.5t16.5 -59.5v-450q0 -126 -117 -126q-95 0 -95 42q0 16 5 30h73q62 0 62 69v413q0 28 -23 28h-39q-5 13 -5 31q0 40 68 40z" />
    <glyph glyph-name="hsuperior" unicode="&#x2b0;" horiz-adv-x="295" 
d="M61 700q24 0 24 -19v-127q40 45 89 45q74 0 74 -82v-120q0 -13 10 -13h16q3 -4 3 -13q0 -21 -44 -21q-36 0 -36 41v114q0 45 -41 45q-40 0 -71 -37v-158q-8 -5 -26 -5q-24 0 -24 23v322q15 5 26 5z" />
    <glyph glyph-name="circumflex" unicode="&#x2c6;" horiz-adv-x="483" 
d="M391 580q-5 -23 -24 -26q-8 -3 -19 0q-13 4 -31.5 16t-45 32t-39.5 29q-12 -8 -39.5 -28.5t-46 -32.5t-31.5 -16q-10 -3 -18 0q-19 3 -24 26q8 4 70 58t87 54q24 0 87 -53t74 -59z" />
    <glyph glyph-name="caron" unicode="&#x2c7;" horiz-adv-x="526" 
d="M256 552q-10 0 -17 5q-20 9 -72 49.5t-72 51.5q1 14 12 24t27 10q6 0 13.5 -2.5t17 -8.5l17 -11t19.5 -15l18.5 -15.5l19.5 -16.5l18 -15q4 3 25 21t29.5 24.5l24 18t26.5 16t19 4.5q16 0 27 -10t12 -24q-21 -11 -72.5 -51.5t-71.5 -49.5q-10 -5 -20 -5z" />
    <glyph glyph-name="breve" unicode="&#x2d8;" horiz-adv-x="446" 
d="M127 675q2 -31 22 -50q21 -20 66 -20q43 0 63 19q20 17 24 50q9 8 29 6q13 0 19.5 -7t4.5 -17q-7 -43 -39 -73q-34 -30 -101 -30q-64 0 -101 29q-38 30 -41 76q-2 22 23 23q16 1 31 -6z" />
    <glyph glyph-name="dotaccent" unicode="&#x2d9;" horiz-adv-x="462" 
d="M186 617q0 46 46 46t46 -46t-46 -46t-46 46z" />
    <glyph glyph-name="ring" unicode="&#x2da;" horiz-adv-x="464" 
d="M144 633q0 88 88 88t88 -88t-88 -88t-88 88zM185 633q0 -47 47 -47t47 47q0 22 -12.5 34.5t-34.5 12.5q-47 0 -47 -47z" />
    <glyph glyph-name="ogonek" unicode="&#x2db;" horiz-adv-x="525" 
d="M395 29l40 -22q-53 -62 -53 -99q0 -42 56 -42q5 -12 5 -22q0 -23 -34 -23q-30 0 -53.5 18.5t-23.5 57.5q0 60 63 132z" />
    <glyph glyph-name="tilde" unicode="&#x2dc;" horiz-adv-x="515" 
d="M133 657q29 0 82.5 -15.5t77.5 -15.5q42 0 63 24q18 -9 18 -34q0 -19 -18.5 -32.5t-50.5 -13.5q-27 0 -89 14.5t-84 14.5q-19 0 -35.5 -8.5t-18.5 -17.5q-20 7 -20 31q0 17 21.5 35t53.5 18z" />
    <glyph glyph-name="hungarumlaut" unicode="&#x2dd;" horiz-adv-x="498" 
d="M66 579q12 9 41 43.5t57.5 61.5t47.5 27q34 0 39 -28q-19 -13 -51 -46.5t-58.5 -57t-42.5 -23.5q-25 0 -33 23zM241 584q7 4 70.5 58t87.5 54q37 0 39 -34q-20 -10 -55 -38t-63.5 -48t-43.5 -20q-29 0 -35 28z" />
    <glyph glyph-name="uni0394" unicode="&#x394;" horiz-adv-x="642" 
d="M68 0q-30 0 -41 11l253 647q15 42 54 42q37 0 68 -83l229 -599q-8 -18 -36 -18h-527zM334 593l-207 -525h410z" />
    <glyph glyph-name="uni03A9" unicode="&#x3a9;" horiz-adv-x="712" 
d="M227 62l1 3q-69 26 -116.5 98.5t-47.5 193.5q0 173 80 263t215 90q133 0 210.5 -89.5t77.5 -263.5q0 -114 -44.5 -189t-112.5 -103v-3l166 3q8 -10 8 -27q0 -38 -32 -38h-241q-10 18 -10 46q0 39 19 40q78 3 124.5 71t46.5 199q0 139 -57 211.5t-155 72.5
q-102 0 -160.5 -72.5t-58.5 -210.5q0 -131 55 -199.5t130 -72.5q9 -18 9 -42q0 -18 -8.5 -30.5t-23.5 -12.5h-245q-10 18 -10 30q0 18 10.5 26.5t36.5 8.5z" />
    <glyph glyph-name="uni03BC" unicode="&#x3bc;" horiz-adv-x="603" 
d="M471 31q-31 31 -38 65q-76 -101 -179 -105q-55 -2 -81 23v-194q-11 -8 -39 -8q-35 0 -35 64v509q0 27 -25 27h-46q-4 18 -4 32q1 38 78 38q21 0 36 -7t22.5 -16.5t11.5 -27.5t5 -32.5t1 -38.5v-163q0 -64 19 -97t64 -33q52 0 96.5 28t71.5 77v301q17 9 43 9q36 0 36 -30
q0 -60 0.5 -179.5t0.5 -179.5q0 -28 23 -28h39q3 -9 3 -25q0 -24 -41 -32t-62 23z" />
    <glyph glyph-name="pi" unicode="&#x3c0;" horiz-adv-x="601" 
d="M113 102v306h-91q-9 22 -9 33q0 21 9.5 31t37.5 10h519q9 -11 9 -33q0 -41 -33 -41h-67v-399q-13 -9 -38 -9q-41 0 -41 37v371h-218v-310q0 -102 -99 -102q-40 0 -40 42q61 7 61 64z" />
    <glyph glyph-name="Wgrave" unicode="&#x1e80;" horiz-adv-x="1000" 
d="M453 700q30 0 40 -27l224 -567q61 101 121.5 287.5t74.5 297.5q18 9 41 9q12 0 20 -5.5t8 -14.5q0 -15 -6 -52q-19 -105 -87 -295.5t-148 -326.5q-17 -6 -34 -6q-27 0 -39 32l-142 360q-94 -229 -185 -385q-17 -6 -34 -6q-26 0 -39 31l-250 660q16 8 45 8q30 0 41 -27
l214 -566q37 62 85 170.5t85 210.5l-80 204q14 8 45 8zM598 796q-6 -28 -34 -28q-15 0 -43.5 20t-64 48t-54.5 38q2 34 39 34q24 0 87 -54t70 -58z" />
    <glyph glyph-name="wgrave" unicode="&#x1e81;" horiz-adv-x="781" 
d="M513 7l-109 314q-37 -147 -115 -275q-16 -26 -28 -36t-28 -10q-19 0 -29 8l-129 395q-5 18 -22 18h-36q-5 13 -5 27q0 34 67 34q48 0 63 -41l106 -333q45 68 80 157t35 133q0 23 -18 23h-29q-5 12 -5 26q0 16 19.5 25.5t50.5 9.5q39 0 51 -37l114 -339q48 65 80 149.5
t32 138.5q0 27 -24 27h-34q-5 12 -5 27t18.5 24.5t48.5 9.5q70 0 70 -75q0 -67 -41 -174.5t-93 -184.5q-17 -26 -29 -37t-29 -11t-27 7zM448 578q-6 -28 -34 -28q-15 0 -43.5 20t-64 48t-54.5 38q2 34 39 34q24 0 87 -54t70 -58z" />
    <glyph glyph-name="Wacute" unicode="&#x1e82;" horiz-adv-x="1000" 
d="M453 700q30 0 40 -27l224 -567q61 101 121.5 287.5t74.5 297.5q18 9 41 9q12 0 20 -5.5t8 -14.5q0 -15 -6 -52q-19 -105 -87 -295.5t-148 -326.5q-17 -6 -34 -6q-27 0 -39 32l-142 360q-94 -229 -185 -385q-17 -6 -34 -6q-26 0 -39 31l-250 660q16 8 45 8q30 0 41 -27
l214 -566q37 62 85 170.5t85 210.5l-80 204q14 8 45 8zM402 797q12 7 44.5 36t64 52.5t49.5 23.5q38 0 38 -34q-19 -10 -54 -38t-63.5 -48t-43.5 -20q-29 0 -35 28z" />
    <glyph glyph-name="wacute" unicode="&#x1e83;" horiz-adv-x="781" 
d="M513 7l-109 314q-37 -147 -115 -275q-16 -26 -28 -36t-28 -10q-19 0 -29 8l-129 395q-5 18 -22 18h-36q-5 13 -5 27q0 34 67 34q48 0 63 -41l106 -333q45 68 80 157t35 133q0 23 -18 23h-29q-5 12 -5 26q0 16 19.5 25.5t50.5 9.5q39 0 51 -37l114 -339q48 65 80 149.5
t32 138.5q0 27 -24 27h-34q-5 12 -5 27t18.5 24.5t48.5 9.5q70 0 70 -75q0 -67 -41 -174.5t-93 -184.5q-17 -26 -29 -37t-29 -11t-27 7zM305 579q12 7 44.5 36t64 52.5t49.5 23.5q38 0 38 -34q-19 -10 -54 -38t-63.5 -48t-43.5 -20q-29 0 -35 28z" />
    <glyph glyph-name="Wdieresis" unicode="&#x1e84;" horiz-adv-x="1000" 
d="M453 700q30 0 40 -27l224 -567q61 101 121.5 287.5t74.5 297.5q18 9 41 9q12 0 20 -5.5t8 -14.5q0 -15 -6 -52q-19 -105 -87 -295.5t-148 -326.5q-17 -6 -34 -6q-27 0 -39 32l-142 360q-94 -229 -185 -385q-17 -6 -34 -6q-26 0 -39 31l-250 660q16 8 45 8q30 0 41 -27
l214 -566q37 62 85 170.5t85 210.5l-80 204q14 8 45 8zM349 833q0 46 46 46t46 -46q0 -45 -46 -45t-46 45zM559 833q0 46 45 46q46 0 46 -46q0 -45 -46 -45q-45 0 -45 45z" />
    <glyph glyph-name="wdieresis" unicode="&#x1e85;" horiz-adv-x="781" 
d="M513 7l-109 314q-37 -147 -115 -275q-16 -26 -28 -36t-28 -10q-19 0 -29 8l-129 395q-5 18 -22 18h-36q-5 13 -5 27q0 34 67 34q48 0 63 -41l106 -333q45 68 80 157t35 133q0 23 -18 23h-29q-5 12 -5 26q0 16 19.5 25.5t50.5 9.5q39 0 51 -37l114 -339q48 65 80 149.5
t32 138.5q0 27 -24 27h-34q-5 12 -5 27t18.5 24.5t48.5 9.5q70 0 70 -75q0 -67 -41 -174.5t-93 -184.5q-17 -26 -29 -37t-29 -11t-27 7zM225 615q0 46 46 46t46 -46q0 -45 -46 -45t-46 45zM435 615q0 46 45 46q46 0 46 -46q0 -45 -46 -45q-45 0 -45 45z" />
    <glyph glyph-name="uni1E8A" unicode="&#x1e8a;" horiz-adv-x="669" 
d="M105 700q38 0 65 -39l167 -236l170 246q19 29 55 29q31 0 42 -16l-223 -321l246 -347q-19 -16 -52 -16q-39 0 -62 32l-187 266l-191 -272q-16 -26 -54 -26q-26 0 -39 18l239 343l-223 319q12 20 47 20zM288 830q0 47 45 47q46 0 46 -47q0 -45 -46 -45q-45 0 -45 45z" />
    <glyph glyph-name="uni1E8B" unicode="&#x1e8b;" horiz-adv-x="546" 
d="M110 482q48 0 75 -44l84 -133l105 146q19 31 47 31q25 0 37 -12.5t11 -29.5l-164 -191l100 -156q19 -32 45 -32h37q4 -7 4 -25q0 -36 -67 -36q-51 0 -76 40l-94 146l-118 -158q-22 -28 -50 -28q-18 0 -30 13t-14 30l176 200l-104 163q-10 15 -28 15h-42q-4 14 -4 22
q0 18 20 28.5t50 10.5zM227 612q0 47 45 47q46 0 46 -47q0 -45 -46 -45q-45 0 -45 45z" />
    <glyph glyph-name="Ygrave" unicode="&#x1ef2;" horiz-adv-x="591" 
d="M342 233v-224q-13 -9 -43 -9q-34 0 -34 29v201q-159 228 -229 458q19 12 44 12q29 0 38 -26q62 -202 188 -387q61 93 117.5 216.5t68.5 191.5q10 5 37 5q11 0 18.5 -8t7.5 -19q-1 -59 -74 -204.5t-139 -235.5zM393 796q-6 -28 -34 -28q-15 0 -43.5 20t-64 48t-54.5 38
q2 34 39 34q24 0 87 -54t70 -58z" />
    <glyph glyph-name="ygrave" unicode="&#x1ef3;" horiz-adv-x="540" 
d="M146 429l124 -328q7 -22 23 -25q123 242 123 318q0 27 -24 27h-36q-5 10 -5 27q0 15 17.5 24.5t43.5 9.5q80 0 80 -70q0 -67 -73 -231t-133 -258q-40 -63 -83.5 -87t-101.5 -24q-69 0 -69 39q0 16 6 28h74q32 0 59 15.5t55 60.5l32 56q-32 6 -47 47l-132 343
q-7 20 -25 20h-37q-5 10 -5 27q0 34 64 34q29 0 45 -12.5t25 -40.5zM336 578q-6 -28 -34 -28q-15 0 -43.5 20t-64 48t-54.5 38q2 34 39 34q24 0 87 -54t70 -58z" />
    <glyph glyph-name="endash" unicode="&#x2013;" horiz-adv-x="524" 
d="M434 229h-372q-8 20 -8 39q0 35 32 35h376q8 -13 8 -36q0 -38 -36 -38z" />
    <glyph glyph-name="emdash" unicode="&#x2014;" horiz-adv-x="676" 
d="M592 229h-530q-8 20 -8 37q0 37 36 37h525q7 -9 7 -34q0 -40 -30 -40z" />
    <glyph glyph-name="quoteleft" unicode="&#x2018;" horiz-adv-x="175" 
d="M89 605q46 0 46 -45q0 -47 -46 -47q-25 0 -37 15.5t-12 53.5q0 54 15 86t36 32q22 0 26 -17q-13 -12 -20.5 -36.5t-7.5 -41.5z" />
    <glyph glyph-name="quoteright" unicode="&#x2019;" horiz-adv-x="175" 
d="M86 608q-46 0 -46 45q0 47 46 47q25 0 37 -15.5t12 -53.5q0 -54 -15 -86t-36 -32q-22 0 -26 17q13 12 20.5 36.5t7.5 41.5z" />
    <glyph glyph-name="quotesinglbase" unicode="&#x201a;" horiz-adv-x="175" 
d="M86 0q-46 0 -46 45q0 47 46 47q25 0 37 -15.5t12 -53.5q0 -54 -15 -86t-36 -32q-22 0 -26 17q13 12 20.5 36.5t7.5 41.5z" />
    <glyph glyph-name="quotedblleft" unicode="&#x201c;" horiz-adv-x="298" 
d="M89 606q46 0 46 -45q0 -47 -46 -47q-25 0 -37 15.5t-12 53.5q0 54 15 86t36 32q22 0 26 -17q-13 -12 -20.5 -36.5t-7.5 -41.5zM212 606q46 0 46 -45q0 -47 -46 -47q-25 0 -37 15.5t-12 53.5q0 54 15 86t36 32q22 0 26 -17q-13 -12 -20.5 -36.5t-7.5 -41.5z" />
    <glyph glyph-name="quotedblright" unicode="&#x201d;" horiz-adv-x="298" 
d="M86 609q-46 0 -46 45q0 47 46 47q25 0 37 -15.5t12 -53.5q0 -54 -15 -86t-36 -32q-22 0 -26 17q13 12 20.5 36.5t7.5 41.5zM209 609q-46 0 -46 45q0 47 46 47q25 0 37 -15.5t12 -53.5q0 -54 -15 -86t-36 -32q-22 0 -26 17q13 12 20.5 36.5t7.5 41.5z" />
    <glyph glyph-name="quotedblbase" unicode="&#x201e;" horiz-adv-x="298" 
d="M86 0q-46 0 -46 45q0 47 46 47q25 0 37 -15.5t12 -53.5q0 -54 -15 -86t-36 -32q-22 0 -26 17q13 12 20.5 36.5t7.5 41.5zM209 0q-46 0 -46 45q0 47 46 47q25 0 37 -15.5t12 -53.5q0 -54 -15 -86t-36 -32q-22 0 -26 17q13 12 20.5 36.5t7.5 41.5z" />
    <glyph glyph-name="dagger" unicode="&#x2020;" horiz-adv-x="480" 
d="M243 712q36 0 36 -27v-789q-16 -8 -45 -8q-33 0 -33 34v782q13 8 42 8zM412 435h-372q-8 20 -8 39q0 35 32 35h376q8 -13 8 -36q0 -38 -36 -38z" />
    <glyph glyph-name="daggerdbl" unicode="&#x2021;" horiz-adv-x="480" 
d="M243 712q36 0 36 -27v-789q-16 -8 -45 -8q-33 0 -33 34v782q13 8 42 8zM412 435h-372q-8 20 -8 39q0 35 32 35h376q8 -13 8 -36q0 -38 -36 -38zM412 82h-372q-8 20 -8 39q0 35 32 35h376q8 -13 8 -36q0 -38 -36 -38z" />
    <glyph glyph-name="bullet" unicode="&#x2022;" horiz-adv-x="261" 
d="M56 266q0 83 80 83q81 0 81 -83q0 -79 -81 -79q-80 0 -80 79z" />
    <glyph glyph-name="ellipsis" unicode="&#x2026;" horiz-adv-x="514" 
d="M40 45q0 47 45 47q46 0 46 -47q0 -45 -46 -45q-45 0 -45 45zM211 45q0 47 46 47t46 -47q0 -45 -46 -45t-46 45zM383 45q0 47 45 47q46 0 46 -47q0 -45 -46 -45q-45 0 -45 45z" />
    <glyph glyph-name="perthousand" unicode="&#x2030;" horiz-adv-x="1206" 
d="M553 700q18 0 25.5 -8t2.5 -23l-251 -665q-14 -6 -31 -6q-38 0 -22 41l245 656q11 5 31 5zM503 205q0 104 43.5 157t114.5 53q72 0 114 -52.5t42 -157.5q0 -108 -42.5 -158t-114.5 -50t-114.5 50.5t-42.5 157.5zM561 203q0 -82 27 -119.5t72 -37.5q98 0 98 157
q0 81 -26 121t-71 40q-44 0 -72 -41t-28 -120zM863 205q0 104 43.5 157t114.5 53q72 0 114 -52.5t42 -157.5q0 -108 -42.5 -158t-114.5 -50t-114.5 50.5t-42.5 157.5zM921 203q0 -82 27 -119.5t72 -37.5q98 0 98 157q0 81 -26 121t-71 40q-44 0 -72 -41t-28 -120zM35 491
q0 104 43.5 157t114.5 53q72 0 114 -52.5t42 -157.5q0 -108 -42.5 -158t-114.5 -50t-114.5 50.5t-42.5 157.5zM93 489q0 -82 27 -119.5t72 -37.5q98 0 98 157q0 81 -26 121t-71 40q-44 0 -72 -41t-28 -120z" />
    <glyph glyph-name="guilsinglleft" unicode="&#x2039;" horiz-adv-x="294" 
d="M52 280l152 170q8 4 18 4q13 0 22.5 -10.5t9.5 -22.5q0 -14 -11 -27l-133 -151l140 -162q3 -12 3 -17q0 -12 -11 -20.5t-22 -8.5q-17 0 -29 15l-143 161q-8 14 -8 34t12 35z" />
    <glyph glyph-name="guilsinglright" unicode="&#x203a;" horiz-adv-x="294" 
d="M242 209l-152 -170q-8 -4 -18 -4q-13 0 -22.5 10.5t-9.5 22.5q0 14 11 27l133 151l-140 162q-3 12 -3 17q0 12 11 20.5t22 8.5q17 0 29 -15l143 -161q8 -14 8 -34t-12 -35z" />
    <glyph glyph-name="fraction" unicode="&#x2044;" horiz-adv-x="164" 
d="M203 700q18 0 25.5 -8t2.5 -23l-251 -665q-14 -6 -31 -6q-38 0 -22 41l245 656q11 5 31 5z" />
    <glyph glyph-name="uni2070" unicode="&#x2070;" horiz-adv-x="384" 
d="M35 490q0 104 43.5 157t114.5 53q72 0 114 -52.5t42 -157.5q0 -108 -42.5 -158t-114.5 -50t-114.5 50.5t-42.5 157.5zM93 488q0 -82 27 -119.5t72 -37.5q98 0 98 157q0 81 -26 121t-71 40q-44 0 -72 -41t-28 -120z" />
    <glyph glyph-name="uni2074" unicode="&#x2074;" horiz-adv-x="372" 
d="M258 577q26 0 26 -21v-140h60q6 -6 6 -24q0 -23 -19 -23h-47l1 -79q-10 -5 -31 -5q-24 0 -24 21l-1 63h-202q-5 6 -5 19q0 12 5 25l92 281q12 5 32 5q12 0 17 -6.5t2 -16.5l-84 -260h143v153q14 8 29 8z" />
    <glyph glyph-name="uni2075" unicode="&#x2075;" horiz-adv-x="345" 
d="M285 644h-183l-6 -121q39 13 79 13q66 0 105.5 -30.5t39.5 -95.5q0 -57 -40 -94t-115 -37q-72 0 -105.5 27t-33.5 57q0 23 25 31q9 -26 36.5 -46.5t75.5 -20.5q50 0 75.5 22.5t25.5 62.5q0 78 -107 78q-23 0 -53.5 -5.5t-42.5 -5.5q-19 0 -19 25l8 186q10 6 35 6h215
q7 -5 7 -22q0 -30 -22 -30z" />
    <glyph glyph-name="uni2076" unicode="&#x2076;" horiz-adv-x="360" 
d="M35 488q0 101 42.5 157t123.5 56q50 0 82 -15t32 -36q0 -23 -16 -30q-48 29 -97 29q-104 0 -110 -141q48 23 102 23q140 0 140 -121q0 -56 -34.5 -93.5t-106.5 -37.5q-158 0 -158 209zM188 487q-54 0 -96 -23q3 -72 26.5 -104t72.5 -32q44 0 66 22t22 59q0 78 -91 78z
" />
    <glyph glyph-name="uni2077" unicode="&#x2077;" horiz-adv-x="313" 
d="M129 285q-29 0 -22 23l124 337h-220q-7 9 -7 27q0 11 6 19t16 8h268q4 -10 4 -19q0 -12 -7 -31l-133 -359q-8 -5 -29 -5z" />
    <glyph glyph-name="uni2078" unicode="&#x2078;" horiz-adv-x="353" 
d="M29 401q0 72 68 102q-51 31 -51 92q0 50 33 77.5t95 27.5q133 0 133 -106q0 -60 -57 -93q74 -28 74 -102q0 -52 -36.5 -86t-110.5 -34t-111 33t-37 89zM168 478l-14 3q-69 -16 -69 -80q0 -32 23.5 -53t67.5 -21q93 0 93 71q0 33 -26.5 51t-74.5 29zM97 595
q0 -27 16.5 -44t34 -22.5t48.5 -12.5q61 20 61 77q0 30 -21.5 46.5t-57.5 16.5t-58.5 -16.5t-22.5 -44.5z" />
    <glyph glyph-name="uni2079" unicode="&#x2079;" horiz-adv-x="357" 
d="M321 485q0 -206 -158 -206q-57 0 -94 18t-37 39q0 16 14 28q55 -33 107 -33q58 0 84 32t28 106q-45 -27 -108 -27q-56 0 -94.5 29t-38.5 88q0 64 35.5 103t108.5 39q77 0 115 -48.5t38 -167.5zM162 487q64 0 102 27q-3 74 -24.5 105.5t-67.5 31.5t-69.5 -23.5
t-23.5 -64.5q0 -37 23.5 -56.5t59.5 -19.5z" />
    <glyph glyph-name="nsuperior" unicode="&#x207f;" horiz-adv-x="324" 
d="M65 594q20 0 33 -11t14 -30q39 46 89 46q33 0 52.5 -20.5t19.5 -60.5v-121q0 -13 10 -13h20q3 -4 3 -12q0 -22 -46 -22q-38 0 -38 39v116q0 44 -39 44q-38 0 -71 -38v-155q-7 -6 -29 -6q-24 0 -24 25v160q0 15 -14 15h-18q-4 8 -4 20q0 24 42 24z" />
    <glyph glyph-name="uni2080" unicode="&#x2080;" horiz-adv-x="384" 
d="M35 75q0 104 43.5 157t114.5 53q72 0 114 -52.5t42 -157.5q0 -108 -42.5 -158t-114.5 -50t-114.5 50.5t-42.5 157.5zM93 73q0 -82 27 -119.5t72 -37.5q98 0 98 157q0 81 -26 121t-71 40q-44 0 -72 -41t-28 -120z" />
    <glyph glyph-name="uni2081" unicode="&#x2081;" horiz-adv-x="318" 
d="M278 -130h-228q-7 12 -7 24q0 14 6.5 21t26.5 7h72v286q-41 -34 -90 -34q-24 0 -24 27q0 14 6 22q37 3 67.5 19t40.5 39q10 5 29 5q28 0 28 -22v-342h89q7 -7 7 -22q0 -30 -23 -30z" />
    <glyph glyph-name="uni2082" unicode="&#x2082;" horiz-adv-x="343" 
d="M25 215q0 23 36.5 46t95.5 23q71 0 108.5 -32t37.5 -87q0 -37 -20.5 -75.5t-54.5 -70.5t-65 -54.5t-63 -41.5v-4l217 3q5 -10 5 -27q0 -25 -21 -25h-274q-5 12 -5 30q0 24 17 37q110 77 150 118q55 57 55 102q0 35 -24 53.5t-65 18.5q-34 0 -65.5 -14t-43.5 -33
q-21 10 -21 33z" />
    <glyph glyph-name="uni2083" unicode="&#x2083;" horiz-adv-x="338" 
d="M236 164q0 29 -22 46t-63 17q-74 0 -102 -42q-20 10 -20 31q0 24 33.5 46t92.5 22q68 0 103.5 -31t35.5 -80q0 -33 -19 -59.5t-49 -33.5v-1q33 -5 56 -30t23 -66q0 -50 -37 -83.5t-112 -33.5q-70 0 -102.5 25t-32.5 54q0 25 23 33q26 -60 109 -60q47 0 71 19.5t24 50.5
t-21 47.5t-59 16.5h-21q-15 0 -15 23q0 11 4 23q47 0 73.5 18t26.5 48z" />
    <glyph glyph-name="uni2084" unicode="&#x2084;" horiz-adv-x="372" 
d="M258 162q26 0 26 -21v-140h60q6 -6 6 -24q0 -23 -19 -23h-47l1 -79q-10 -5 -31 -5q-24 0 -24 21l-1 63h-202q-5 6 -5 19q0 12 5 25l92 281q12 5 32 5q12 0 17 -6.5t2 -16.5l-84 -260h143v153q14 8 29 8z" />
    <glyph glyph-name="uni2085" unicode="&#x2085;" horiz-adv-x="345" 
d="M285 229h-183l-6 -121q39 13 79 13q66 0 105.5 -30.5t39.5 -95.5q0 -57 -40 -94t-115 -37q-72 0 -105.5 27t-33.5 57q0 23 25 31q9 -26 36.5 -46.5t75.5 -20.5q50 0 75.5 22.5t25.5 62.5q0 78 -107 78q-23 0 -53.5 -5.5t-42.5 -5.5q-19 0 -19 25l8 186q10 6 35 6h215
q7 -5 7 -22q0 -30 -22 -30z" />
    <glyph glyph-name="uni2086" unicode="&#x2086;" horiz-adv-x="360" 
d="M35 73q0 101 42.5 157t123.5 56q50 0 82 -15t32 -36q0 -23 -16 -30q-48 29 -97 29q-104 0 -110 -141q48 23 102 23q140 0 140 -121q0 -56 -34.5 -93.5t-106.5 -37.5q-158 0 -158 209zM188 72q-54 0 -96 -23q3 -72 26.5 -104t72.5 -32q44 0 66 22t22 59q0 78 -91 78z" />
    <glyph glyph-name="uni2087" unicode="&#x2087;" horiz-adv-x="313" 
d="M129 -130q-29 0 -22 23l124 337h-220q-7 9 -7 27q0 11 6 19t16 8h268q4 -10 4 -19q0 -12 -7 -31l-133 -359q-8 -5 -29 -5z" />
    <glyph glyph-name="uni2088" unicode="&#x2088;" horiz-adv-x="353" 
d="M29 -14q0 72 68 102q-51 31 -51 92q0 50 33 77.5t95 27.5q133 0 133 -106q0 -60 -57 -93q74 -28 74 -102q0 -52 -36.5 -86t-110.5 -34t-111 33t-37 89zM168 63l-14 3q-69 -16 -69 -80q0 -32 23.5 -53t67.5 -21q93 0 93 71q0 33 -26.5 51t-74.5 29zM97 180q0 -27 16.5 -44
t34 -22.5t48.5 -12.5q61 20 61 77q0 30 -21.5 46.5t-57.5 16.5t-58.5 -16.5t-22.5 -44.5z" />
    <glyph glyph-name="uni2089" unicode="&#x2089;" horiz-adv-x="357" 
d="M321 70q0 -206 -158 -206q-57 0 -94 18t-37 39q0 16 14 28q55 -33 107 -33q58 0 84 32t28 106q-45 -27 -108 -27q-56 0 -94.5 29t-38.5 88q0 64 35.5 103t108.5 39q77 0 115 -48.5t38 -167.5zM162 72q64 0 102 27q-3 74 -24.5 105.5t-67.5 31.5t-69.5 -23.5t-23.5 -64.5
q0 -37 23.5 -56.5t59.5 -19.5z" />
    <glyph glyph-name="Euro" unicode="&#x20ac;" horiz-adv-x="682" 
d="M401 249h-204q32 -180 208 -180q63 0 115 24.5t71 58.5q13 4 29 -2q11 -3 16 -10q15 -17 -1 -44q-23 -38 -82 -69t-148 -31q-248 0 -287 253h-87q-6 12 -6 22q-1 9 0 19q5 22 43 22h42v37q0 26 1 39h-80q-7 14 -7 27q0 19 8 27.5t36 8.5h50q21 128 96 192t191 64
q76 0 132 -17.5t76 -46.5q17 -23 5 -40q-12 -21 -32 -24q-61 54 -181 54q-82 0 -135.5 -46t-71.5 -136h281q7 -7 7 -26q0 -37 -51 -37h-248q-1 -14 -1 -41q0 -24 1 -35h259q7 -6 7 -25q0 -38 -52 -38z" />
    <glyph glyph-name="trademark" unicode="&#x2122;" horiz-adv-x="727" 
d="M522 361q-26 0 -36 30l-87 210l-16 -237q-1 -20 -28 -20q-20 0 -28 4l23 291q4 63 41 63q17 0 27 -5l105 -260l74 211q17 54 47 54q19 0 34 -7l44 -344q-10 -7 -30 -7q-27 0 -29 20l-24 238l-79 -211q-5 -19 -14 -24.5t-24 -5.5zM284 650h-103v-302q-8 -4 -32 -4
q-23 0 -23 42v264h-118q-5 10 -5 21q-1 7 0 14q2 17 41 17h254q6 -12 6 -23q0 -29 -20 -29z" />
    <glyph glyph-name="Omega" unicode="&#x2126;" horiz-adv-x="712" 
d="M227 62l1 3q-69 26 -116.5 98.5t-47.5 193.5q0 173 80 263t215 90q133 0 210.5 -89.5t77.5 -263.5q0 -114 -44.5 -189t-112.5 -103v-3l166 3q8 -10 8 -27q0 -38 -32 -38h-241q-10 18 -10 46q0 39 19 40q78 3 124.5 71t46.5 199q0 139 -57 211.5t-155 72.5
q-102 0 -160.5 -72.5t-58.5 -210.5q0 -131 55 -199.5t130 -72.5q9 -18 9 -42q0 -18 -8.5 -30.5t-23.5 -12.5h-245q-10 18 -10 30q0 18 10.5 26.5t36.5 8.5z" />
    <glyph glyph-name="onethird" unicode="&#x2153;" horiz-adv-x="877" 
d="M555 700q18 0 25.5 -8t2.5 -23l-251 -665q-14 -6 -31 -6q-38 0 -22 41l245 656q11 5 31 5zM278 285h-228q-7 12 -7 24q0 14 6.5 21t26.5 7h72v286q-41 -34 -90 -34q-24 0 -24 27q0 14 6 22q37 3 67.5 19t40.5 39q10 5 29 5q28 0 28 -22v-342h89q7 -7 7 -22q0 -30 -23 -30
zM775 294q0 29 -22 46t-63 17q-74 0 -102 -42q-20 10 -20 31q0 24 33.5 46t92.5 22q68 0 103.5 -31t35.5 -80q0 -33 -19 -59.5t-49 -33.5v-1q33 -5 56 -30t23 -66q0 -50 -37 -83.5t-112 -33.5q-70 0 -102.5 25t-32.5 54q0 25 23 33q26 -60 109 -60q47 0 71 19.5t24 50.5
t-21 47.5t-59 16.5h-21q-15 0 -15 23q0 11 4 23q47 0 73.5 18t26.5 48z" />
    <glyph glyph-name="twothirds" unicode="&#x2154;" horiz-adv-x="904" 
d="M582 700q18 0 25.5 -8t2.5 -23l-251 -665q-14 -6 -31 -6q-38 0 -22 41l245 656q11 5 31 5zM25 630q0 23 36.5 46t95.5 23q71 0 108.5 -32t37.5 -87q0 -37 -20.5 -75.5t-54.5 -70.5t-65 -54.5t-63 -41.5v-4l217 3q5 -10 5 -27q0 -25 -21 -25h-274q-5 12 -5 30q0 24 17 37
q110 77 150 118q55 57 55 102q0 35 -24 53.5t-65 18.5q-34 0 -65.5 -14t-43.5 -33q-21 11 -21 33zM802 294q0 29 -22 46t-63 17q-74 0 -102 -42q-20 10 -20 31q0 24 33.5 46t92.5 22q68 0 103.5 -31t35.5 -80q0 -33 -19 -59.5t-49 -33.5v-1q33 -5 56 -30t23 -66
q0 -50 -37 -83.5t-112 -33.5q-70 0 -102.5 25t-32.5 54q0 25 23 33q26 -60 109 -60q47 0 71 19.5t24 50.5t-21 47.5t-59 16.5h-21q-15 0 -15 23q0 11 4 23q47 0 73.5 18t26.5 48z" />
    <glyph glyph-name="oneeighth" unicode="&#x215b;" horiz-adv-x="884" 
d="M555 700q18 0 25.5 -8t2.5 -23l-251 -665q-14 -6 -31 -6q-38 0 -22 41l245 656q11 5 31 5zM278 285h-228q-7 12 -7 24q0 14 6.5 21t26.5 7h72v286q-41 -34 -90 -34q-24 0 -24 27q0 14 6 22q37 3 67.5 19t40.5 39q10 5 29 5q28 0 28 -22v-342h89q7 -7 7 -22q0 -30 -23 -30
zM560 116q0 72 68 102q-51 31 -51 92q0 50 33 77.5t95 27.5q133 0 133 -106q0 -60 -57 -93q74 -28 74 -102q0 -52 -36.5 -86t-110.5 -34t-111 33t-37 89zM699 193l-14 3q-69 -16 -69 -80q0 -32 23.5 -53t67.5 -21q93 0 93 71q0 33 -26.5 51t-74.5 29zM628 310
q0 -27 16.5 -44t34 -22.5t48.5 -12.5q61 20 61 77q0 30 -21.5 46.5t-57.5 16.5t-58.5 -16.5t-22.5 -44.5z" />
    <glyph glyph-name="threeeighths" unicode="&#x215c;" horiz-adv-x="911" 
d="M578 700q18 0 25.5 -8t2.5 -23l-251 -665q-14 -6 -31 -6q-38 0 -22 41l245 656q11 5 31 5zM236 579q0 29 -22 46t-63 17q-74 0 -102 -42q-20 10 -20 31q0 24 33.5 46t92.5 22q68 0 103.5 -31t35.5 -80q0 -33 -19 -59.5t-49 -33.5v-1q33 -5 56 -30t23 -66q0 -50 -37 -83.5
t-112 -33.5q-70 0 -102.5 25t-32.5 54q0 25 23 33q26 -60 109 -60q47 0 71 19.5t24 50.5t-21 47.5t-59 16.5h-21q-15 0 -15 23q0 11 4 23q47 0 73.5 18t26.5 48zM583 116q0 72 68 102q-51 31 -51 92q0 50 33 77.5t95 27.5q133 0 133 -106q0 -60 -57 -93q74 -28 74 -102
q0 -52 -36.5 -86t-110.5 -34t-111 33t-37 89zM722 193l-14 3q-69 -16 -69 -80q0 -32 23.5 -53t67.5 -21q93 0 93 71q0 33 -26.5 51t-74.5 29zM651 310q0 -27 16.5 -44t34 -22.5t48.5 -12.5q61 20 61 77q0 30 -21.5 46.5t-57.5 16.5t-58.5 -16.5t-22.5 -44.5z" />
    <glyph glyph-name="fiveeighths" unicode="&#x215d;" horiz-adv-x="908" 
d="M579 700q18 0 25.5 -8t2.5 -23l-251 -665q-14 -6 -31 -6q-38 0 -22 41l245 656q11 5 31 5zM285 644h-183l-6 -121q39 13 79 13q66 0 105.5 -30.5t39.5 -95.5q0 -57 -40 -94t-115 -37q-72 0 -105.5 27t-33.5 57q0 23 25 31q9 -26 36.5 -46.5t75.5 -20.5q50 0 75.5 22.5
t25.5 62.5q0 78 -107 78q-23 0 -53.5 -5.5t-42.5 -5.5q-19 0 -19 25l8 186q10 6 35 6h215q7 -5 7 -22q0 -30 -22 -30zM584 116q0 72 68 102q-51 31 -51 92q0 50 33 77.5t95 27.5q133 0 133 -106q0 -60 -57 -93q74 -28 74 -102q0 -52 -36.5 -86t-110.5 -34t-111 33t-37 89z
M723 193l-14 3q-69 -16 -69 -80q0 -32 23.5 -53t67.5 -21q93 0 93 71q0 33 -26.5 51t-74.5 29zM652 310q0 -27 16.5 -44t34 -22.5t48.5 -12.5q61 20 61 77q0 30 -21.5 46.5t-57.5 16.5t-58.5 -16.5t-22.5 -44.5z" />
    <glyph glyph-name="seveneighths" unicode="&#x215e;" horiz-adv-x="840" 
d="M511 700q18 0 25.5 -8t2.5 -23l-251 -665q-14 -6 -31 -6q-38 0 -22 41l245 656q11 5 31 5zM129 285q-29 0 -22 23l124 337h-220q-7 9 -7 27q0 11 6 19t16 8h268q4 -10 4 -19q0 -12 -7 -31l-133 -359q-8 -5 -29 -5zM516 116q0 72 68 102q-51 31 -51 92q0 50 33 77.5
t95 27.5q133 0 133 -106q0 -60 -57 -93q74 -28 74 -102q0 -52 -36.5 -86t-110.5 -34t-111 33t-37 89zM655 193l-14 3q-69 -16 -69 -80q0 -32 23.5 -53t67.5 -21q93 0 93 71q0 33 -26.5 51t-74.5 29zM584 310q0 -27 16.5 -44t34 -22.5t48.5 -12.5q61 20 61 77
q0 30 -21.5 46.5t-57.5 16.5t-58.5 -16.5t-22.5 -44.5z" />
    <glyph glyph-name="partialdiff" unicode="&#x2202;" horiz-adv-x="573" 
d="M514 421q0 -197 -73.5 -314t-186.5 -117q-90 0 -143 54.5t-53 167.5q0 138 67 209t176 71q84 0 136 -45q-7 286 -163 286q-95 0 -152 -32q-13 15 -13 29q0 23 15 32q62 34 157 34q64 0 111 -31.5t72.5 -86.5t37.5 -118.5t12 -138.5zM296 421q-73 0 -116 -52t-43 -153
q0 -156 120 -156q70 0 120.5 85t58.5 223q-47 53 -140 53z" />
    <glyph glyph-name="Delta" unicode="&#x2206;" horiz-adv-x="642" 
d="M73 0q-30 0 -41 11l253 647q15 42 54 42q37 0 68 -83l229 -599q-8 -18 -36 -18h-527zM339 593l-207 -525h410z" />
    <glyph glyph-name="product" unicode="&#x220f;" horiz-adv-x="766" 
d="M708 626h-90v-829q-13 -9 -38 -9q-41 0 -41 38v800h-312v-828q-10 -10 -44 -10t-34 38v800h-114q-9 18 -9 33q0 21 9 31t37 10h659q9 -9 9 -32q0 -42 -32 -42z" />
    <glyph glyph-name="summation" unicode="&#x2211;" horiz-adv-x="695" 
d="M610 -197h-563q-10 17 -10 36q0 16 7 23l300 395l-285 371q-6 18 -6 32q0 20 9 30t36 10h525q6 -6 6 -27q0 -45 -50 -45h-420l276 -355q0 -14 -12 -31l-272 -370h503q8 -8 8 -30q0 -39 -52 -39z" />
    <glyph glyph-name="minus" unicode="&#x2212;" horiz-adv-x="524" 
d="M434 229h-372q-8 20 -8 39q0 35 32 35h376q8 -13 8 -36q0 -38 -36 -38z" />
    <glyph glyph-name="radical" unicode="&#x221a;" horiz-adv-x="602" 
d="M34 358h178l101 -287l184 605q7 24 40 24q23 0 43 -12l-215 -679q-22 -9 -59 -9q-42 0 -54 38l-97 254h-105q-11 0 -17.5 9t-6.5 24q0 11 8 33z" />
    <glyph glyph-name="infinity" unicode="&#x221e;" horiz-adv-x="689" 
d="M502 87q-100 0 -155 121q-28 -53 -68 -87t-88 -34q-66 0 -107.5 49.5t-41.5 131.5q0 86 40.5 137t107.5 51q50 0 89.5 -32.5t65.5 -85.5q54 118 157 118q63 0 104 -48t41 -138q0 -87 -40 -135t-105 -48zM194 158q42 0 73.5 33.5t50.5 82.5q-20 51 -52.5 81t-71.5 30
t-63 -31t-24 -82q0 -49 24 -81.5t63 -32.5zM497 385q-77 0 -122 -113q47 -114 123 -114q39 0 62 31t23 81q0 55 -23 85t-63 30z" />
    <glyph glyph-name="integral" unicode="&#x222b;" horiz-adv-x="371" 
d="M190 721q0 -123 29 -370.5t29 -360.5q0 -101 -39.5 -139.5t-109.5 -38.5q-89 0 -89 38q0 14 7 30h81q35 0 54.5 20.5t20.5 80.5q2 124 -28 377t-30 370q0 156 150 156q96 0 96 -37q0 -17 -6 -33h-85q-39 0 -59.5 -19.5t-20.5 -73.5z" />
    <glyph glyph-name="approxequal" unicode="&#x2248;" horiz-adv-x="515" 
d="M159 221q37 0 106 -18t99 -18q53 0 81 28q8 -3 15.5 -14.5t7.5 -24.5q0 -22 -23.5 -38t-64.5 -16q-35 0 -114.5 17t-107.5 17q-24 0 -45.5 -10t-24.5 -20q-26 8 -26 36q0 20 27.5 40.5t69.5 20.5zM158 409q37 0 106 -18t99 -18q53 0 81 28q8 -3 15.5 -14.5t7.5 -24.5
q0 -22 -23.5 -38t-64.5 -16q-35 0 -114.5 17t-107.5 17q-24 0 -45.5 -10t-24.5 -20q-26 8 -26 36q0 20 27.5 40.5t69.5 20.5z" />
    <glyph glyph-name="notequal" unicode="&#x2260;" horiz-adv-x="524" 
d="M362 545q16 0 24.5 -7t4.5 -20l-207 -546q-10 -5 -35 -5q-32 0 -19 35l202 539q9 4 30 4zM434 123h-372q-8 20 -8 39q0 35 32 35h376q8 -13 8 -36q0 -38 -36 -38zM434 313h-372q-8 20 -8 39q0 35 32 35h376q8 -13 8 -36q0 -38 -36 -38z" />
    <glyph glyph-name="lessequal" unicode="&#x2264;" horiz-adv-x="338" 
d="M55 327l197 171q9 3 18 3q10 0 17.5 -8t7.5 -18t-12 -24l-183 -159l186 -161q6 -8 6 -18q0 -11 -9.5 -19t-18.5 -8q-14 0 -27 13l-191 164q-11 18 -11 29q0 19 20 35zM272 -3h-234q-8 18 -8 31q0 33 35 33h237q7 -11 7 -30q0 -34 -37 -34z" />
    <glyph glyph-name="greaterequal" unicode="&#x2265;" horiz-adv-x="338" 
d="M276 260l-197 -171q-8 -3 -17 -3q-10 0 -18 8.5t-8 17.5q0 11 13 24l182 159l-186 161q-5 7 -5 18t9 19t18 8q13 0 28 -12l190 -165q11 -18 11 -29q0 -18 -20 -35zM272 -3h-234q-8 18 -8 31q0 33 35 33h237q7 -11 7 -30q0 -34 -37 -34z" />
    <glyph glyph-name="lozenge" unicode="&#x25ca;" horiz-adv-x="403" 
d="M377 347l-136 -310q-17 -37 -53 -37q-18 0 -28 6l-134 352l137 305q17 37 53 37q18 0 28 -6zM100 359l101 -260l103 242l-101 260z" />
    <glyph glyph-name="asuperior" unicode="&#xf6e9;" horiz-adv-x="282" 
d="M50 539q-7 9 -7 20q0 20 28.5 30t63.5 10q43 0 70 -19.5t27 -58.5v-121q0 -16 13 -16h15q4 -4 4 -16q0 -18 -39 -18q-17 0 -27 9.5t-10 24.5q-46 -39 -97 -39q-34 0 -52.5 20.5t-18.5 55.5q0 32 20.5 51t58.5 20l89 4v11q0 47 -56 47q-52 0 -82 -15zM100 387q45 0 88 32
v43l-87 -8q-36 -3 -36 -32q0 -15 9 -25t26 -10z" />
    <glyph glyph-name="bsuperior" unicode="&#xf6ea;" horiz-adv-x="289" 
d="M84 681v-112q33 30 73 30q46 0 73.5 -30.5t27.5 -88.5q0 -67 -33 -101t-87 -34q-51 0 -88 24q-13 9 -13 21v304q12 6 24 6q23 0 23 -19zM145 550q-34 0 -61 -24v-120q22 -16 56 -16q33 0 51.5 21.5t18.5 62.5q0 37 -17.5 56.5t-47.5 19.5z" />
    <glyph glyph-name="dsuperior" unicode="&#xf6eb;" horiz-adv-x="309" 
d="M252 350q-30 0 -42 23q-33 -28 -76 -28q-44 0 -73.5 31t-29.5 94t32 96t76 33q40 0 65 -22v105q0 18 20 18q17 0 27 -6v-291q0 -17 16 -17h17q4 -8 4 -15q0 -21 -36 -21zM143 390q35 0 61 18v121q-21 20 -58 20q-26 0 -46 -19.5t-20 -57.5q0 -40 17.5 -61t45.5 -21z" />
    <glyph glyph-name="esuperior" unicode="&#xf6ec;" horiz-adv-x="277" 
d="M247 462h-168q2 -36 22 -54.5t53 -18.5q54 0 84 21q11 -9 11 -20q0 -15 -13 -22q-31 -23 -87 -23q-54 0 -86 35t-32 92q0 60 35 93.5t85 33.5q49 0 74.5 -29.5t25.5 -77.5q0 -18 -4 -30zM151 555q-24 0 -44 -15t-26 -44h126q0 59 -56 59z" />
    <glyph glyph-name="isuperior" unicode="&#xf6ed;" horiz-adv-x="164" 
d="M66 594q20 0 31 -9.5t11 -35.5v-148q0 -13 12 -13h16q3 -6 3 -15q0 -23 -40 -23q-41 0 -41 41v144q0 15 -13 15h-15q-3 6 -3 18q0 26 39 26zM48 661q0 30 30 30t30 -30q0 -29 -30 -29t-30 29z" />
    <glyph glyph-name="lsuperior" unicode="&#xf6ee;" horiz-adv-x="171" 
d="M88 679v-254q0 -20 7.5 -27t25.5 -7h36q2 -10 2 -14q0 -27 -59 -27q-61 0 -61 63v280q10 8 24 7q25 0 25 -21z" />
    <glyph glyph-name="msuperior" unicode="&#xf6ef;" horiz-adv-x="476" 
d="M67 594q19 0 31.5 -11.5t13.5 -32.5q38 49 86 49q51 0 63 -50q43 50 92 50q33 0 52.5 -20.5t19.5 -60.5v-121q0 -13 11 -13h19q3 -4 3 -12q0 -22 -45 -22q-39 0 -39 39v116q0 43 -37 43q-40 0 -72 -37v-114q0 -13 10 -13h18q2 -6 2 -13q0 -21 -45 -21q-37 0 -37 39v117
q0 42 -36 42q-35 0 -65 -35v-157q-7 -6 -29 -6q-24 0 -24 25v160q0 15 -14 15h-18q-4 8 -4 20q0 24 44 24z" />
    <glyph glyph-name="osuperior" unicode="&#xf6f0;" horiz-adv-x="301" 
d="M31 471q0 63 33.5 95.5t87.5 32.5q55 0 86.5 -32t31.5 -96q0 -65 -32.5 -95.5t-87.5 -30.5t-87 31t-32 95zM83 471q0 -82 67 -82t67 82q0 83 -65 83q-31 0 -50 -21t-19 -62z" />
    <glyph glyph-name="rsuperior" unicode="&#xf6f1;" horiz-adv-x="238" 
d="M60 594q41 0 45 -38q39 43 78 43q46 0 46 -46q0 -37 -30 -37q-12 0 -19 7q0 22 -20 22q-31 0 -54 -31v-158q-6 -6 -28 -6q-24 0 -24 23v161q0 16 -12 16h-20q-4 14 -4 20q0 10 11.5 17t30.5 7z" />
    <glyph glyph-name="ssuperior" unicode="&#xf6f2;" horiz-adv-x="256" 
d="M127 599q44 0 68 -13t24 -28q0 -19 -10 -26q-22 18 -83 18q-49 0 -49 -26q0 -21 59 -30q49 -8 70.5 -25.5t21.5 -50.5q0 -73 -99 -73q-45 0 -73.5 12.5t-28.5 28.5q0 17 10 26q36 -23 89 -23q56 0 56 29q0 14 -13 21t-45 11q-50 8 -70.5 25t-20.5 51q0 33 24.5 53
t69.5 20z" />
    <glyph glyph-name="tsuperior" unicode="&#xf6f3;" horiz-adv-x="206" 
d="M163 553h-57v-127q0 -19 7 -26.5t22 -7.5h49q4 -10 4 -14q0 -28 -68 -28q-62 0 -62 65v138h-31q-4 7 -4 18q0 23 19 23h16v61q10 6 26 6q22 0 22 -21v-46h75q5 -4 5 -16q0 -25 -23 -25z" />
    <glyph glyph-name="exclam.sc" unicode="&#xf721;" horiz-adv-x="172" 
d="M84 558q39 0 39 -28v-396q-9 -9 -37 -9q-37 0 -37 39v386q11 8 35 8zM45 41q0 41 42 41t42 -41t-42 -41t-42 41z" />
    <glyph glyph-name="dollar.osf" unicode="&#xf724;" horiz-adv-x="599" 
d="M312 815q28 0 27 -27v-80q106 -6 163 -59q16 -16 16 -39q0 -21 -22 -37q-56 48 -158 54l-1 -240q111 -33 159.5 -78t49.5 -126q0 -84 -53 -134.5t-159 -57.5l-1 -100q-8 -7 -29 -7q-30 0 -29 34v73q-107 3 -177 46q-44 29 -44 59q0 24 14 40q70 -64 208 -69l1 256
q-115 34 -160.5 77.5t-45.5 124.5q0 78 52 128t157 56l1 97q13 9 31 9zM470 180q0 45 -30 73.5t-104 53.5l-1 -238q69 6 102 35.5t33 75.5zM147 524q0 -42 29 -68t102 -52l1 222q-132 -7 -132 -102z" />
    <glyph glyph-name="ampersand.sc" unicode="&#xf726;" horiz-adv-x="704" 
d="M599 289h-67q-17 -115 -80 -196q51 -19 103 -19h80q8 -13 8 -33q0 -22 -17.5 -31.5t-63.5 -9.5q-84 0 -162 42q-66 -50 -151 -50q-93 0 -144.5 49t-51.5 129q0 129 131 170q-3 23 -3 46q0 87 45 128t135 41q113 0 113 -43q0 -22 -7 -33h-97q-62 0 -88 -22.5t-26 -77.5
q0 -79 38 -147t102 -110q66 69 81 167h-108q-8 18 -8 31q0 36 39 36h220q8 -10 8 -31q0 -36 -29 -36zM341 80q-109 83 -145 207q-76 -33 -76 -115q0 -52 35.5 -83.5t98.5 -31.5q47 0 87 23z" />
    <glyph glyph-name="question.sc" unicode="&#xf73f;" horiz-adv-x="434" 
d="M319 374q0 52 -32 77t-87 25q-47 0 -84 -17.5t-52 -42.5q-28 12 -28 42q0 33 44.5 62t124.5 29q87 0 137 -43t50 -116q0 -71 -46 -113.5t-123 -50.5l5 -99q-10 -10 -35 -10q-28 0 -30 28l-4 98q0 20 8 29q60 1 106 26.5t46 75.5zM158 41q0 41 42 41t42 -41t-42 -41
t-42 41z" />
    <glyph glyph-name="a.sc" unicode="&#xf761;" horiz-adv-x="561" 
d="M60 0q-27 0 -37 10l216 535q17 12 44 12q29 0 41 -26l214 -514q-8 -17 -37 -17q-34 0 -43 29l-43 100h-271l-43 -105q-8 -24 -41 -24zM277 456l-108 -265h220z" />
    <glyph glyph-name="b.sc" unicode="&#xf762;" horiz-adv-x="579" 
d="M131 557h184q169 0 169 -150q0 -72 -55 -112q90 -40 90 -139q0 -79 -55.5 -117.5t-134.5 -38.5h-198q-37 0 -37 33v518q11 6 37 6zM302 256h-135v-195h140q138 0 138 98q0 97 -143 97zM301 497h-134v-182h133q114 4 114 94q0 48 -29 68t-84 20z" />
    <glyph glyph-name="c.sc" unicode="&#xf763;" horiz-adv-x="555" 
d="M485 123q12 0 22 -7.5t10 -22.5q0 -25 -25 -43q-65 -58 -181 -58t-183.5 70.5t-67.5 216.5q0 143 66.5 214.5t180.5 71.5q120 0 180 -60q20 -17 20 -40q0 -26 -26 -35q-59 65 -171 65q-82 0 -129.5 -54t-47.5 -164q0 -218 182 -218q108 0 170 64z" />
    <glyph glyph-name="d.sc" unicode="&#xf764;" horiz-adv-x="603" 
d="M131 557h116q149 0 222.5 -69t73.5 -217q0 -144 -71 -207.5t-205 -63.5h-136q-37 0 -37 33v517q12 7 37 7zM250 489h-82v-424h97q102 0 153 48t51 157q0 112 -54 165.5t-165 53.5z" />
    <glyph glyph-name="e.sc" unicode="&#xf765;" 
d="M424 251h-256v-181h324q8 -10 8 -31q0 -39 -29 -39h-345q-32 0 -32 34v516q10 7 34 7h364q8 -10 8 -30q0 -39 -29 -39h-303v-168h275q8 -10 8 -34q0 -35 -27 -35z" />
    <glyph glyph-name="f.sc" unicode="&#xf766;" horiz-adv-x="540" 
d="M424 241h-256v-234q-10 -7 -42 -7t-32 34v516q10 7 34 7h359q8 -10 8 -30q0 -39 -29 -39h-298v-178h276q9 -11 9 -30q0 -39 -29 -39z" />
    <glyph glyph-name="g.sc" unicode="&#xf767;" horiz-adv-x="606" 
d="M472 232h-155q-8 13 -8 30q0 29 43 29h132q29 0 39 -12.5t10 -44.5v-227q-13 -8 -33 -8q-14 0 -21 6t-7 24v45q-66 -82 -168 -82q-105 0 -174.5 72t-69.5 215q0 142 71.5 214t187.5 72q86 0 138.5 -28t52.5 -55q0 -14 -9.5 -22.5t-20.5 -10.5q-59 50 -160 50
q-83 0 -137 -57t-54 -165q0 -113 53 -168t130 -55q101 0 160 88v90z" />
    <glyph glyph-name="h.sc" unicode="&#xf768;" horiz-adv-x="634" 
d="M505 557q35 0 35 -28v-522q-10 -7 -35 -7q-39 0 -39 34v218h-298v-243q-11 -9 -42 -9q-32 0 -32 34v516q14 7 39 7q35 0 35 -28v-210h298v231q12 7 39 7z" />
    <glyph glyph-name="i.sc" unicode="&#xf769;" horiz-adv-x="262" 
d="M134 557q34 0 34 -28v-520q-15 -9 -40 -9q-34 0 -34 34v516q14 7 40 7z" />
    <glyph glyph-name="j.sc" unicode="&#xf76a;" horiz-adv-x="347" 
d="M220 557q33 0 33 -29v-416q0 -112 -117 -112q-111 0 -111 43q0 16 6 27h87q65 0 65 58v422q13 7 37 7z" />
    <glyph glyph-name="k.sc" unicode="&#xf76b;" horiz-adv-x="537" 
d="M132 557q34 0 34 -27v-236q69 48 128.5 121.5t85.5 136.5q13 5 32 5q11 0 19 -7.5t8 -18.5q0 -15 -12 -39q-62 -112 -158 -193q25 -22 62.5 -83.5t71.5 -106t62 -44.5h24q6 -7 6 -25q0 -40 -54 -40q-32 0 -63.5 30t-54 67.5l-53 87.5t-51.5 76q-26 -18 -53 -34v-219
q-13 -8 -41 -8q-31 0 -31 33v516q13 8 38 8z" />
    <glyph glyph-name="l.sc" unicode="&#xf76c;" horiz-adv-x="473" 
d="M131 557q37 0 37 -27v-460h274q8 -13 8 -31q0 -39 -42 -39h-282q-32 0 -32 33v517q10 7 37 7z" />
    <glyph glyph-name="m.sc" unicode="&#xf76d;" horiz-adv-x="773" 
d="M384 29q-35 0 -49 39l-155 358l-27 -399q-3 -27 -38 -27q-25 0 -36 6l38 501q3 50 51 50q22 0 37 -6l178 -423l151 390q11 39 49 39q27 0 45 -9l67 -538q-13 -10 -40 -10q-35 0 -39 27l-38 399l-144 -358q-7 -25 -18.5 -32t-31.5 -7z" />
    <glyph glyph-name="n.sc" unicode="&#xf76e;" horiz-adv-x="636" 
d="M470 19l-306 403l4 -414q-10 -8 -42 -8t-32 33v517q16 7 39 7q21 0 34 -18l304 -410l-2 419q13 10 36 10q39 0 39 -28v-523q-10 -7 -38 -7q-22 0 -36 19z" />
    <glyph glyph-name="o.sc" unicode="&#xf76f;" horiz-adv-x="615" 
d="M60 279q0 142 68 214t182 72t179.5 -71.5t65.5 -214.5q0 -148 -65.5 -217.5t-179.5 -69.5q-115 0 -182.5 70.5t-67.5 216.5zM132 277q0 -115 48 -168.5t131 -53.5q171 0 171 222q0 111 -46 167t-126 56q-82 0 -130 -56.5t-48 -166.5z" />
    <glyph glyph-name="p.sc" unicode="&#xf770;" horiz-adv-x="543" 
d="M131 557h184q74 0 121.5 -41t47.5 -124q0 -50 -16 -86t-44.5 -54.5t-60 -26.5t-68.5 -8h-127v-210q-14 -7 -41 -7q-33 0 -33 33v518q13 6 37 6zM304 497h-136v-219h113q133 0 133 109q0 55 -29.5 82.5t-80.5 27.5z" />
    <glyph glyph-name="r.sc" unicode="&#xf772;" horiz-adv-x="584" 
d="M131 557h184q76 0 124 -37.5t48 -117.5q0 -62 -38 -102.5t-95 -54.5q17 -22 46 -72.5t53 -79t49 -28.5h25q6 -10 6 -25q0 -40 -55 -40q-40 0 -71.5 39t-65.5 105t-59 95h-114v-231q-11 -8 -37 -8q-37 0 -37 33v518q12 6 37 6zM301 499h-133v-202h122q55 0 90.5 26.5
t35.5 76.5q0 99 -115 99z" />
    <glyph glyph-name="s.sc" unicode="&#xf773;" horiz-adv-x="529" 
d="M261 565q122 0 172 -48q15 -14 15 -35q0 -17 -18 -35q-60 41 -169 41q-60 0 -90 -21t-30 -55q0 -33 31.5 -55t112.5 -43q100 -24 143.5 -60t44.5 -105q1 -72 -52 -114.5t-156 -42.5q-111 0 -173 38q-37 22 -37 49q0 24 13 37q70 -52 194 -52q72 0 104.5 23t32.5 59
t-29.5 58t-108.5 41q-107 26 -150 62.5t-43 106.5q0 68 49 109.5t144 41.5z" />
    <glyph glyph-name="t.sc" unicode="&#xf774;" horiz-adv-x="519" 
d="M469 488h-173v-481q-11 -7 -41 -7q-32 0 -32 33v455h-193q-9 16 -9 35q0 34 38 34h431q8 -12 8 -30q0 -39 -29 -39z" />
    <glyph glyph-name="u.sc" unicode="&#xf775;" horiz-adv-x="606" 
d="M448 212v338q14 7 38 7q37 0 37 -28v-326q0 -211 -220 -211q-110 0 -162.5 51.5t-52.5 159.5l-1 347q10 7 38 7q37 0 37 -27v-318q0 -78 33 -115.5t108 -37.5q79 0 112 37t33 116z" />
    <glyph glyph-name="v.sc" unicode="&#xf776;" horiz-adv-x="564" 
d="M71 557q28 0 38 -25l183 -432q54 87 110.5 229.5t67.5 219.5q15 8 39 8q27 0 27 -19q0 -18 -6 -47q-14 -68 -79 -218t-137 -268q-18 -5 -33 -5q-26 0 -36 29l-217 520q14 8 43 8z" />
    <glyph glyph-name="w.sc" unicode="&#xf777;" horiz-adv-x="860" 
d="M394 557q29 0 39 -25l180 -432q51 81 98 222t59 227q15 8 39 8q27 0 27 -19q0 -12 -6 -47q-15 -79 -70.5 -226t-124.5 -260q-17 -5 -32 -5q-25 0 -37 29l-115 275q-79 -183 -151 -298q-17 -5 -31 -5q-25 0 -37 29l-209 519q16 8 44 8t38 -25l174 -431q66 106 136 291
l-65 157q16 8 44 8z" />
    <glyph glyph-name="x.sc" unicode="&#xf778;" horiz-adv-x="583" 
d="M98 557q36 0 62 -36l132 -176l138 185q17 27 53 27q31 0 40 -14l-187 -256l206 -273q-17 -14 -49 -14q-38 0 -60 31l-149 198l-154 -206q-15 -23 -51 -23q-27 0 -38 16l199 272l-188 251q14 18 46 18z" />
    <glyph glyph-name="y.sc" unicode="&#xf779;" horiz-adv-x="517" 
d="M302 187v-178q-11 -9 -40 -9q-34 0 -34 26v159q-137 190 -191 362q15 10 41 10q28 0 36 -23q47 -149 153 -297q51 72 96.5 167.5t56.5 148.5q11 4 35 4q11 0 18.5 -7t7.5 -18q-1 -46 -62 -158.5t-117 -186.5z" />
    <glyph glyph-name="z.sc" unicode="&#xf77a;" horiz-adv-x="554" 
d="M480 493l-340 -429h374q6 -12 6 -31q0 -33 -34 -33h-446q-6 12 -6 26q0 20 12 37l340 426h-322q-8 18 -8 33q0 35 31 35h402q6 -7 6 -24q0 -19 -15 -40z" />
    <glyph glyph-name="exclamdown.sc" unicode="&#xf7a1;" horiz-adv-x="172" 
d="M89 0q-39 0 -39 28v396q9 9 37 9q37 0 37 -39v-386q-11 -8 -35 -8zM128 517q0 -41 -42 -41t-42 41t42 41t42 -41z" />
    <glyph glyph-name="cent.osf" unicode="&#xf7a2;" horiz-adv-x="503" 
d="M449 424q2 -18 -19 -39q-57 27 -110 29l-2 -353q83 6 124 38q14 -12 14 -33q0 -29 -31 -46q-44 -25 -108 -28l-1 -76q-10 -8 -31 -8q-26 0 -26 27l1 57q-93 11 -146.5 76.5t-53.5 171.5q0 120 59 181.5t146 69.5l1 79q12 7 27 7q30 -2 30 -27l-1 -61q56 -3 106 -31
q20 -11 21 -34zM128 239q0 -74 35.5 -120t97.5 -55l2 350q-60 -6 -97.5 -48.5t-37.5 -126.5z" />
    <glyph glyph-name="questiondown.sc" unicode="&#xf7bf;" horiz-adv-x="434" 
d="M115 175q0 -52 32 -77t87 -25q47 0 84 17.5t52 42.5q28 -12 28 -42q0 -33 -44.5 -62t-124.5 -29q-87 0 -137 43t-50 116q0 71 46 113.5t123 50.5l-5 99q10 10 35 10q28 0 30 -28l4 -98q0 -20 -8 -29q-60 -1 -106 -26.5t-46 -75.5zM276 508q0 -41 -42 -41t-42 41t42 41
t42 -41z" />
    <glyph glyph-name="Euro.lf" horiz-adv-x="682" 
d="M401 249h-204q32 -180 208 -180q63 0 115 24.5t71 58.5q13 4 29 -2q11 -3 16 -10q15 -17 -1 -44q-23 -38 -82 -69t-148 -31q-248 0 -287 253h-87q-6 12 -6 22q-1 9 0 19q5 22 43 22h42v37q0 26 1 39h-80q-7 14 -7 27q0 19 8 27.5t36 8.5h50q21 128 96 192t191 64
q76 0 132 -17.5t76 -46.5q17 -23 5 -40q-12 -21 -32 -24q-61 54 -181 54q-82 0 -135.5 -46t-71.5 -136h281q7 -7 7 -26q0 -37 -51 -37h-248q-1 -14 -1 -41q0 -24 1 -35h259q7 -6 7 -25q0 -38 -52 -38z" />
    <glyph glyph-name="Euro.sc" horiz-adv-x="603" 
d="M346 193h-161q27 -127 167 -127q51 0 94.5 19t59.5 47q17 2 29 -3q11 -4 15 -10q14 -15 -1 -40q-20 -33 -71 -57.5t-126 -24.5q-208 0 -244 196h-73q-6 8 -6 21q-1 10 0 18q5 18 39 18h33q-1 10 -1 26q0 5 0.5 14.5t0.5 14.5h-66q-8 13 -8 25q0 18 8 25.5t33 7.5h40
q18 100 82 150t161 50q145 0 180 -56q13 -19 3 -35q-11 -20 -30 -23q-54 44 -153 44q-135 0 -166 -130h231q7 -6 7 -23q0 -35 -47 -35h-201q-1 -10 -1 -30q0 -16 1 -25h211q7 -7 7 -22q0 -35 -47 -35z" />
    <glyph glyph-name="Euro.tf" horiz-adv-x="632" 
d="M371 249h-204q32 -180 208 -180q63 0 115 24.5t71 58.5q13 4 29 -2q11 -3 16 -10q15 -17 -1 -44q-23 -38 -82 -69t-148 -31q-248 0 -287 253h-87q-6 12 -6 22q-1 9 0 19q5 22 43 22h42v37q0 26 1 39h-80q-7 14 -7 27q0 19 8 27.5t36 8.5h50q21 128 96 192t191 64
q76 0 132 -17.5t76 -46.5q17 -23 5 -40q-12 -21 -32 -24q-61 54 -181 54q-82 0 -135.5 -46t-71.5 -136h281q7 -7 7 -26q0 -37 -51 -37h-248q-1 -14 -1 -41q0 -24 1 -35h259q7 -6 7 -25q0 -38 -52 -38z" />
    <glyph glyph-name="Euro.tosf" horiz-adv-x="632" 
d="M371 249h-204q32 -180 208 -180q63 0 115 24.5t71 58.5q13 4 29 -2q11 -3 16 -10q15 -17 -1 -44q-23 -38 -82 -69t-148 -31q-248 0 -287 253h-87q-6 12 -6 22q-1 9 0 19q5 22 43 22h42v37q0 26 1 39h-80q-7 14 -7 27q0 19 8 27.5t36 8.5h50q21 128 96 192t191 64
q76 0 132 -17.5t76 -46.5q17 -23 5 -40q-12 -21 -32 -24q-61 54 -181 54q-82 0 -135.5 -46t-71.5 -136h281q7 -7 7 -26q0 -37 -51 -37h-248q-1 -14 -1 -41q0 -24 1 -35h259q7 -6 7 -25q0 -38 -52 -38z" />
    <glyph glyph-name="Idotaccent.sc" horiz-adv-x="262" 
d="M134 557q34 0 34 -28v-520q-15 -9 -40 -9q-34 0 -34 34v516q14 7 40 7zM85 677q0 46 46 46t46 -46t-46 -46t-46 46z" />
    <glyph glyph-name="Ldot.latn_CAT" horiz-adv-x="540" 
d="M144 700q38 0 38 -31v-595h331q9 -11 9 -32q0 -42 -45 -42h-338q-35 0 -35 36v657q14 7 40 7zM350 334q0 47 45 47q46 0 46 -47q0 -45 -46 -45q-45 0 -45 45z" />
    <glyph glyph-name="S_S" horiz-adv-x="1217" 
d="M299 710q144 0 207 -61q16 -16 16 -39q0 -21 -22 -37q-66 55 -201 55q-75 0 -111.5 -28.5t-36.5 -75.5t38.5 -76.5t139.5 -58.5q118 -31 169 -76t52 -130q1 -90 -61 -141.5t-184 -51.5q-126 0 -202 47q-45 29 -45 59q0 24 14 40q37 -32 99.5 -50.5t130.5 -18.5
q89 0 130.5 31t41.5 82q0 49 -36.5 79.5t-133.5 57.5q-128 35 -178.5 79.5t-50.5 128.5q0 83 56.5 134t167.5 51zM907 710q144 0 207 -61q16 -16 16 -39q0 -21 -22 -37q-66 55 -201 55q-75 0 -111.5 -28.5t-36.5 -75.5t38.5 -76.5t139.5 -58.5q118 -31 169 -76t52 -130
q1 -90 -61 -141.5t-184 -51.5q-126 0 -202 47q-45 29 -45 59q0 24 14 40q37 -32 99.5 -50.5t130.5 -18.5q89 0 130.5 31t41.5 82q0 49 -36.5 79.5t-133.5 57.5q-128 35 -178.5 79.5t-50.5 128.5q0 83 56.5 134t167.5 51z" />
    <glyph glyph-name="T_h" horiz-adv-x="1061" 
d="M576 37v589h-239v-618q-11 -8 -43 -8q-33 0 -33 36v590h-236q-9 18 -9 38q0 36 41 36h584q10 -10 10 -35v-277q33 47 81.5 75.5t100.5 28.5q68 0 104 -40t36 -119v-252q0 -25 22 -25h31q5 -6 5 -22q0 -34 -70 -34q-64 0 -64 74v241q0 100 -86 100q-47 0 -90 -28t-70 -77
v-302q-11 -8 -39 -8q-36 0 -36 37z" />
    <glyph glyph-name="Tbar_h" horiz-adv-x="1061" 
d="M455 299h-118v-291q-11 -8 -43 -8q-33 0 -33 36v263h-148q-9 18 -9 35q0 39 38 39h119v253h-236q-9 18 -9 38q0 36 41 36h584q10 -10 10 -35v-277q33 47 81.5 75.5t100.5 28.5q68 0 104 -40t36 -119v-252q0 -25 22 -25h31q5 -6 5 -22q0 -34 -70 -34q-64 0 -64 74v241
q0 100 -86 100q-47 0 -90 -28t-70 -77v-302q-11 -8 -39 -8q-36 0 -36 37v589h-239v-253h148q8 -11 8 -35q0 -39 -38 -39z" />
    <glyph glyph-name="Tcaron_h" horiz-adv-x="1061" 
d="M576 37v589h-239v-618q-11 -8 -43 -8q-33 0 -33 36v590h-236q-9 18 -9 38q0 36 41 36h584q10 -10 10 -35v-277q33 47 81.5 75.5t100.5 28.5q68 0 104 -40t36 -119v-252q0 -25 22 -25h31q5 -6 5 -22q0 -34 -70 -34q-64 0 -64 74v241q0 100 -86 100q-47 0 -90 -28t-70 -77
v-302q-11 -8 -39 -8q-36 0 -36 37zM297 770q-10 0 -17 5q-20 9 -72 49.5t-72 51.5q1 14 12 24t27 10q6 0 13.5 -2.5t17 -8.5l17 -11t19.5 -15l18.5 -15.5l19.5 -16.5l18 -15q4 3 25 21t29.5 24.5l24 18t26.5 16t19 4.5q16 0 27 -10t12 -24q-21 -11 -72.5 -51.5t-71.5 -49.5
q-10 -5 -20 -5z" />
    <glyph glyph-name="Tcommaaccent_h" horiz-adv-x="1061" 
d="M576 37v589h-239v-618q-11 -8 -43 -8q-33 0 -33 36v590h-236q-9 18 -9 38q0 36 41 36h584q10 -10 10 -35v-277q33 47 81.5 75.5t100.5 28.5q68 0 104 -40t36 -119v-252q0 -25 22 -25h31q5 -6 5 -22q0 -34 -70 -34q-64 0 -64 74v241q0 100 -86 100q-47 0 -90 -28t-70 -77
v-302q-11 -8 -39 -8q-36 0 -36 37zM302 -156q-46 0 -46 45q0 47 46 47q25 0 37 -15.5t12 -53.5q0 -54 -15 -86t-36 -32q-22 0 -26 17q13 12 20.5 36.5t7.5 41.5z" />
    <glyph glyph-name="aacute.sc" horiz-adv-x="561" 
d="M60 0q-27 0 -37 10l216 535q17 12 44 12q29 0 41 -26l214 -514q-8 -17 -37 -17q-34 0 -43 29l-43 100h-271l-43 -105q-8 -24 -41 -24zM277 456l-108 -265h220zM182 655q12 7 44.5 36t64 52.5t49.5 23.5q38 0 38 -34q-19 -10 -54 -38t-63.5 -48t-43.5 -20q-29 0 -35 28z
" />
    <glyph glyph-name="abreve.sc" horiz-adv-x="561" 
d="M60 0q-27 0 -37 10l216 535q17 12 44 12q29 0 41 -26l214 -514q-8 -17 -37 -17q-34 0 -43 29l-43 100h-271l-43 -105q-8 -24 -41 -24zM277 456l-108 -265h220zM193 751q2 -31 22 -50q21 -20 66 -20q43 0 63 19q20 17 24 50q9 8 29 6q13 0 19.5 -7t4.5 -17q-7 -43 -39 -73
q-35 -30 -101 -30q-64 0 -101 29q-38 30 -41 76q-2 22 23 23q16 1 31 -6z" />
    <glyph glyph-name="acircumflex.sc" horiz-adv-x="561" 
d="M60 0q-27 0 -37 10l216 535q17 12 44 12q29 0 41 -26l214 -514q-8 -17 -37 -17q-34 0 -43 29l-43 100h-271l-43 -105q-8 -24 -41 -24zM277 456l-108 -265h220zM439 656q-5 -23 -24 -26q-8 -3 -19 0q-13 4 -31.5 16t-45 32t-39.5 29q-12 -8 -39.5 -28.5t-46 -32.5
t-31.5 -16q-10 -3 -18 0q-19 3 -24 26q8 4 70 58t87 54q24 0 87 -53t74 -59z" />
    <glyph glyph-name="adieresis.sc" horiz-adv-x="561" 
d="M60 0q-27 0 -37 10l216 535q17 12 44 12q29 0 41 -26l214 -514q-8 -17 -37 -17q-34 0 -43 29l-43 100h-271l-43 -105q-8 -24 -41 -24zM277 456l-108 -265h220zM128 691q0 46 46 46t46 -46q0 -45 -46 -45t-46 45zM338 691q0 46 45 46q46 0 46 -46q0 -45 -46 -45
q-45 0 -45 45z" />
    <glyph glyph-name="ae.sc" horiz-adv-x="840" 
d="M760 0h-344q-33 0 -33 34v95h-234l-45 -105q-8 -24 -41 -24q-30 0 -40 10l228 535q16 12 50 12h480q8 -10 8 -30q0 -39 -29 -39h-303v-168h275q8 -8 8 -34q0 -35 -27 -35h-256v-181h324q8 -10 8 -31q0 -39 -29 -39zM302 488l-127 -295h208v295h-81z" />
    <glyph glyph-name="aeacute.sc" horiz-adv-x="840" 
d="M760 0h-344q-33 0 -33 34v95h-234l-45 -105q-8 -24 -41 -24q-30 0 -40 10l228 535q16 12 50 12h480q8 -10 8 -30q0 -39 -29 -39h-303v-168h275q8 -8 8 -34q0 -35 -27 -35h-256v-181h324q8 -10 8 -31q0 -39 -29 -39zM302 488l-127 -295h208v295h-81zM399 655q12 7 44.5 36
t64 52.5t49.5 23.5q38 0 38 -34q-19 -10 -54 -38t-63.5 -48t-43.5 -20q-29 0 -35 28z" />
    <glyph glyph-name="agrave.sc" horiz-adv-x="561" 
d="M60 0q-27 0 -37 10l216 535q17 12 44 12q29 0 41 -26l214 -514q-8 -17 -37 -17q-34 0 -43 29l-43 100h-271l-43 -105q-8 -24 -41 -24zM277 456l-108 -265h220zM377 654q-6 -28 -34 -28q-15 0 -43.5 20t-64 48t-54.5 38q2 34 39 34q24 0 87 -54t70 -58z" />
    <glyph glyph-name="amacron.sc" horiz-adv-x="561" 
d="M60 0q-27 0 -37 10l216 535q17 12 44 12q29 0 41 -26l214 -514q-8 -17 -37 -17q-34 0 -43 29l-43 100h-271l-43 -105q-8 -24 -41 -24zM277 456l-108 -265h220zM391 657h-266q-8 16 -8 26q0 18 8.5 26t36.5 8h274q8 -8 8 -24q0 -36 -53 -36z" />
    <glyph glyph-name="aogonek.sc" horiz-adv-x="561" 
d="M476 11q-13 4 -22 26l-39 92h-271l-43 -105q-8 -24 -41 -24q-27 0 -37 10l216 535q17 12 44 12q29 0 41 -26l215 -520q-26 -19 -45 -48.5t-19 -54.5q0 -42 56 -42q5 -12 5 -22q0 -23 -34 -23q-30 0 -53.5 18.5t-23.5 57.5q0 52 51 114zM277 456l-108 -265h220z" />
    <glyph glyph-name="aring.sc" horiz-adv-x="561" 
d="M60 0q-27 0 -37 10l216 535q17 12 44 12q29 0 41 -26l214 -514q-8 -17 -37 -17q-34 0 -43 29l-43 100h-271l-43 -105q-8 -24 -41 -24zM277 456l-108 -265h220zM190 709q0 88 88 88t88 -88t-88 -88t-88 88zM231 709q0 -47 47 -47t47 47q0 22 -12.5 34.5t-34.5 12.5
q-47 0 -47 -47z" />
    <glyph glyph-name="at.case" horiz-adv-x="865" 
d="M651 -21q19 -10 19 -27q0 -22 -24 -35q-86 -42 -213 -42q-175 0 -287 107.5t-112 287.5q0 177 110.5 286.5t288.5 109.5t287.5 -106t109.5 -272q0 -113 -55.5 -179.5t-138.5 -66.5q-93 0 -93 73v11q-94 -83 -177 -83q-58 0 -89.5 36.5t-31.5 98.5q0 51 33.5 81t97.5 34
l167 11v36q0 83 -101 83q-43 0 -84.5 -8.5t-59.5 -17.5q-13 8 -13 32q0 29 51.5 45.5t109.5 16.5q157 -2 157 -131v-228q0 -22 9.5 -29.5t31.5 -7.5q51 0 86.5 52.5t35.5 143.5q0 135 -92 221.5t-241 86.5q-148 0 -240.5 -91.5t-92.5 -238.5q0 -152 93.5 -240.5t240.5 -88.5
q120 0 217 39zM382 104q68 0 161 72v78l-164 -14q-70 -7 -70 -64q0 -32 19 -52t54 -20z" />
    <glyph glyph-name="atilde.sc" horiz-adv-x="561" 
d="M60 0q-27 0 -37 10l216 535q17 12 44 12q29 0 41 -26l214 -514q-8 -17 -37 -17q-34 0 -43 29l-43 100h-271l-43 -105q-8 -24 -41 -24zM277 456l-108 -265h220zM197 733q29 0 82.5 -15.5t77.5 -15.5q42 0 63 24q18 -9 18 -34q0 -19 -18.5 -32.5t-50.5 -13.5
q-27 0 -89 14.5t-84 14.5q-19 0 -35.5 -8.5t-18.5 -17.5q-20 7 -20 31q0 17 21.5 35t53.5 18z" />
    <glyph glyph-name="braceleft.case" horiz-adv-x="320" 
d="M204 765q85 0 85 -44q0 -16 -7 -27h-69q-50 0 -50 -58v-203q0 -41 -14.5 -59.5t-30.5 -20.5v-4q15 -1 30 -22t15 -62v-201q0 -54 49 -54h71q6 -9 6 -25q0 -44 -96 -44q-41 0 -70 25.5t-29 77.5v218q0 46 -39 52q-22 5 -22 38q0 22 7 31q22 -1 38 14.5t16 39.5v214
q0 61 31.5 87.5t78.5 26.5z" />
    <glyph glyph-name="braceright.case" horiz-adv-x="320" 
d="M118 -63q-85 0 -85 44q0 16 7 27h69q50 0 50 58v203q0 41 14.5 59.5t30.5 20.5v4q-15 1 -30 22t-15 62v201q0 54 -49 54h-71q-6 9 -6 25q0 44 96 44q41 0 70 -25.5t29 -77.5v-218q0 -46 39 -52q22 -5 22 -38q0 -22 -7 -31q-22 1 -38 -14.5t-16 -39.5v-214
q0 -61 -31.5 -87.5t-78.5 -26.5z" />
    <glyph glyph-name="bracketleft.case" horiz-adv-x="307" 
d="M58 -16v773q20 12 53 12h158q9 -11 9 -33q0 -42 -28 -42h-117v-673h136q9 -13 9 -33q0 -42 -30 -42h-180q-10 15 -10 38z" />
    <glyph glyph-name="bracketright.case" horiz-adv-x="307" 
d="M278 730v-773q-20 -12 -53 -12h-158q-9 11 -9 33q0 42 28 42h117v673h-136q-9 13 -9 33q0 42 30 42h180q10 -15 10 -38z" />
    <glyph glyph-name="cacute.sc" horiz-adv-x="555" 
d="M485 123q12 0 22 -7.5t10 -22.5q0 -25 -25 -43q-65 -58 -181 -58t-183.5 70.5t-67.5 216.5q0 143 66.5 214.5t180.5 71.5q120 0 180 -60q20 -17 20 -40q0 -26 -26 -35q-59 65 -171 65q-82 0 -129.5 -54t-47.5 -164q0 -218 182 -218q108 0 170 64zM211 655q12 7 44.5 36
t64 52.5t49.5 23.5q38 0 38 -34q-19 -10 -54 -38t-63.5 -48t-43.5 -20q-29 0 -35 28z" />
    <glyph glyph-name="ccaron.sc" horiz-adv-x="555" 
d="M485 123q12 0 22 -7.5t10 -22.5q0 -25 -25 -43q-65 -58 -181 -58t-183.5 70.5t-67.5 216.5q0 143 66.5 214.5t180.5 71.5q120 0 180 -60q20 -17 20 -40q0 -26 -26 -35q-59 65 -171 65q-82 0 -129.5 -54t-47.5 -164q0 -218 182 -218q108 0 170 64zM305 628q-10 0 -17 5
q-20 9 -72 49.5t-72 51.5q1 14 12 24t27 10q6 0 13.5 -2.5t17 -8.5l17 -11t19.5 -15l18.5 -15.5l20 -16.5t17.5 -15q4 3 25 21t29.5 24.5l24 18t26.5 16t19 4.5q16 0 27 -10t12 -24q-21 -11 -72.5 -51.5t-71.5 -49.5q-10 -5 -20 -5z" />
    <glyph glyph-name="ccedilla.sc" horiz-adv-x="555" 
d="M485 123q12 0 22 -7.5t10 -22.5q0 -25 -25 -43q-65 -58 -181 -58t-183.5 70.5t-67.5 216.5q0 143 66.5 214.5t180.5 71.5q120 0 180 -60q20 -17 20 -40q0 -26 -26 -35q-59 65 -171 65q-82 0 -129.5 -54t-47.5 -164q0 -218 182 -218q108 0 170 64zM358 -112q0 39 -64 41
q-6 6 -6 20l1 67l49 -1l-4 -51q70 -10 70 -80q0 -37 -23.5 -58.5t-63.5 -21.5q-37 0 -57.5 13.5t-20.5 30.5q0 18 19 27q18 -26 56 -26q44 0 44 39z" />
    <glyph glyph-name="ccircumflex.sc" horiz-adv-x="555" 
d="M485 123q12 0 22 -7.5t10 -22.5q0 -25 -25 -43q-65 -58 -181 -58t-183.5 70.5t-67.5 216.5q0 143 66.5 214.5t180.5 71.5q120 0 180 -60q20 -17 20 -40q0 -26 -26 -35q-59 65 -171 65q-82 0 -129.5 -54t-47.5 -164q0 -218 182 -218q108 0 170 64zM467 656q-5 -23 -24 -26
q-8 -3 -19 0q-13 4 -31.5 16t-45 32t-39.5 29q-12 -8 -39.5 -28.5t-46 -32.5t-31.5 -16q-10 -3 -18 0q-19 3 -24 26q8 4 70 58t87 54q24 0 87 -53t74 -59z" />
    <glyph glyph-name="cdotaccent.sc" horiz-adv-x="555" 
d="M485 123q12 0 22 -7.5t10 -22.5q0 -25 -25 -43q-65 -58 -181 -58t-183.5 70.5t-67.5 216.5q0 143 66.5 214.5t180.5 71.5q120 0 180 -60q20 -17 20 -40q0 -26 -26 -35q-59 65 -171 65q-82 0 -129.5 -54t-47.5 -164q0 -218 182 -218q108 0 170 64zM266 681q0 47 45 47
q46 0 46 -47q0 -45 -46 -45q-45 0 -45 45z" />
    <glyph glyph-name="cent.lf" horiz-adv-x="503" 
d="M449 424q2 -18 -19 -39q-57 27 -110 29l-2 -353q83 6 124 38q14 -12 14 -33q0 -29 -31 -46q-44 -25 -108 -28l-1 -70q-8 -8 -31 -8q-26 0 -26 27l1 51q-93 11 -146.5 76.5t-53.5 171.5q0 120 59 181.5t146 69.5l1 75q10 7 27 7q14 -1 22 -7.5t7 -19.5v-57q56 -3 106 -31
q20 -11 21 -34zM128 239q0 -74 35.5 -120t97.5 -55l2 350q-60 -6 -97.5 -48.5t-37.5 -126.5z" />
    <glyph glyph-name="cent.tf" horiz-adv-x="632" 
d="M507 424q2 -18 -19 -39q-57 27 -110 29l-2 -353q83 6 124 38q14 -12 14 -33q0 -29 -31 -46q-44 -25 -108 -28l-1 -76q-10 -8 -31 -8q-26 0 -26 27l1 57q-93 11 -146.5 76.5t-53.5 171.5q0 120 59 181.5t146 69.5l1 79q12 7 27 7q30 -2 30 -27l-1 -61q56 -3 106 -31
q20 -11 21 -34zM186 239q0 -74 35.5 -120t97.5 -55l2 350q-60 -6 -97.5 -48.5t-37.5 -126.5z" />
    <glyph glyph-name="cent.tosf" horiz-adv-x="632" 
d="M507 424q2 -18 -19 -39q-57 27 -110 29l-2 -353q83 6 124 38q14 -12 14 -33q0 -29 -31 -46q-44 -25 -108 -28l-1 -76q-10 -8 -31 -8q-26 0 -26 27l1 57q-93 11 -146.5 76.5t-53.5 171.5q0 120 59 181.5t146 69.5l1 79q12 7 27 7q30 -2 30 -27l-1 -61q56 -3 106 -31
q20 -11 21 -34zM186 239q0 -74 35.5 -120t97.5 -55l2 350q-60 -6 -97.5 -48.5t-37.5 -126.5z" />
    <glyph glyph-name="dcaron.sc" horiz-adv-x="603" 
d="M131 557h116q149 0 222.5 -69t73.5 -217q0 -144 -71 -207.5t-205 -63.5h-136q-37 0 -37 33v517q12 7 37 7zM250 489h-82v-424h97q102 0 153 48t51 157q0 112 -54 165.5t-165 53.5zM268 628q-10 0 -17 5q-20 9 -72 49.5t-72 51.5q1 14 12 24t27 10q6 0 13.5 -2.5t17 -8.5
l17 -11t19.5 -15l18.5 -15.5l19.5 -16.5l18 -15q4 3 25 21t29.5 24.5l24 18t26.5 16t19 4.5q16 0 27 -10t12 -24q-21 -11 -72.5 -51.5t-71.5 -49.5q-10 -5 -20 -5z" />
    <glyph glyph-name="dcroat.sc" horiz-adv-x="603" 
d="M131 557h116q149 0 222.5 -69t73.5 -217q0 -144 -71 -207.5t-205 -63.5h-136q-37 0 -37 33v208h-72q-8 18 -8 31q0 34 37 34h43v244q12 7 37 7zM265 241h-97v-176h97q102 0 153 48t51 157q0 112 -54 165.5t-165 53.5h-82v-183h129q8 -12 8 -31q0 -34 -40 -34z" />
    <glyph glyph-name="dollar.lf" horiz-adv-x="599" 
d="M312 783q27 0 27 -26v-49q106 -6 163 -59q16 -16 16 -39q0 -21 -22 -37q-56 48 -158 54l-1 -240q111 -33 159.5 -78t49.5 -126q0 -84 -53 -134.5t-159 -57.5l-1 -64q-8 -7 -29 -7q-15 0 -22.5 7t-6.5 26v38q-107 3 -177 46q-44 29 -44 59q0 24 14 40q70 -64 208 -69
l1 256q-115 34 -160.5 77.5t-45.5 124.5q0 78 52 128t157 56v66q13 8 32 8zM470 180q0 45 -30 73.5t-104 53.5l-1 -238q69 6 102 35.5t33 75.5zM147 524q0 -42 29 -68t102 -52l1 222q-132 -7 -132 -102z" />
    <glyph glyph-name="dollar.sc" horiz-adv-x="520" 
d="M271 644q25 0 25 -22l-1 -59q87 -5 135 -46q15 -15 15 -35q0 -19 -20 -35q-47 35 -130 40l-2 -176q93 -24 133.5 -59.5t41.5 -102.5t-44 -108t-134 -48v-69q-9 -6 -27 -6q-28 0 -28 32v43q-92 3 -147 37q-37 22 -37 49q0 24 13 37q59 -45 172 -50l1 184q-95 25 -134 61
t-39 102q0 64 44 104.5t132 46.5l1 74q11 6 30 6zM395 146q0 31 -23 51.5t-80 38.5l-1 -169q104 10 104 79zM138 413q0 -30 22.5 -49t77.5 -37l1 158q-101 -5 -101 -72z" />
    <glyph glyph-name="dollar.tf" horiz-adv-x="632" 
d="M328 815q28 0 27 -27v-80q106 -6 163 -59q16 -16 16 -39q0 -21 -22 -37q-56 48 -158 54l-1 -240q111 -33 159.5 -78t49.5 -126q0 -84 -53 -134.5t-159 -57.5l-1 -100q-8 -7 -29 -7q-30 0 -29 34v73q-107 3 -177 46q-44 29 -44 59q0 24 14 40q70 -64 208 -69l1 256
q-115 34 -160.5 77.5t-45.5 124.5q0 78 52 128t157 56l1 97q13 9 31 9zM486 180q0 45 -30 73.5t-104 53.5l-1 -238q69 6 102 35.5t33 75.5zM163 524q0 -42 29 -68t102 -52l1 222q-132 -7 -132 -102z" />
    <glyph glyph-name="dollar.tosf" horiz-adv-x="632" 
d="M328 815q28 0 27 -27v-80q106 -6 163 -59q16 -16 16 -39q0 -21 -22 -37q-56 48 -158 54l-1 -240q111 -33 159.5 -78t49.5 -126q0 -84 -53 -134.5t-159 -57.5l-1 -100q-8 -7 -29 -7q-30 0 -29 34v73q-107 3 -177 46q-44 29 -44 59q0 24 14 40q70 -64 208 -69l1 256
q-115 34 -160.5 77.5t-45.5 124.5q0 78 52 128t157 56l1 97q13 9 31 9zM486 180q0 45 -30 73.5t-104 53.5l-1 -238q69 6 102 35.5t33 75.5zM163 524q0 -42 29 -68t102 -52l1 222q-132 -7 -132 -102z" />
    <glyph glyph-name="dotlessi.sc" horiz-adv-x="262" 
d="M134 557q34 0 34 -28v-520q-15 -9 -40 -9q-34 0 -34 34v516q14 7 40 7z" />
    <glyph glyph-name="dotlessj.sc" horiz-adv-x="347" 
d="M220 557q33 0 33 -29v-416q0 -112 -117 -112q-111 0 -111 43q0 16 6 27h87q65 0 65 58v422q13 7 37 7z" />
    <glyph glyph-name="eacute.sc" 
d="M424 251h-256v-181h324q8 -10 8 -31q0 -39 -29 -39h-345q-32 0 -32 34v516q10 7 34 7h364q8 -10 8 -30q0 -39 -29 -39h-303v-168h275q8 -10 8 -34q0 -35 -27 -35zM195 655q12 7 44.5 36t64 52.5t49.5 23.5q38 0 38 -34q-19 -10 -54 -38t-63.5 -48t-43.5 -20q-29 0 -35 28
z" />
    <glyph glyph-name="ebreve.sc" 
d="M424 251h-256v-181h324q8 -10 8 -31q0 -39 -29 -39h-345q-32 0 -32 34v516q10 7 34 7h364q8 -10 8 -30q0 -39 -29 -39h-303v-168h275q8 -10 8 -34q0 -35 -27 -35zM210 751q2 -31 22 -50q21 -20 66 -20q43 0 63 19q20 17 24 50q9 8 29 6q13 0 19.5 -7t4.5 -17
q-7 -43 -39 -73q-35 -30 -101 -30q-64 0 -101 29q-38 30 -41 76q-2 22 23 23q16 1 31 -6z" />
    <glyph glyph-name="ecaron.sc" 
d="M424 251h-256v-181h324q8 -10 8 -31q0 -39 -29 -39h-345q-32 0 -32 34v516q10 7 34 7h364q8 -10 8 -30q0 -39 -29 -39h-303v-168h275q8 -10 8 -34q0 -35 -27 -35zM298 628q-10 0 -17 5q-20 9 -72 49.5t-72 51.5q1 14 12 24t27 10q6 0 13.5 -2.5t17 -8.5l17 -11t19.5 -15
l18.5 -15.5l19.5 -16.5l18 -15q4 3 25 21t29.5 24.5l24 18t26.5 16t19 4.5q16 0 27 -10t12 -24q-21 -11 -72.5 -51.5t-71.5 -49.5q-10 -5 -20 -5z" />
    <glyph glyph-name="ecircumflex.sc" 
d="M424 251h-256v-181h324q8 -10 8 -31q0 -39 -29 -39h-345q-32 0 -32 34v516q10 7 34 7h364q8 -10 8 -30q0 -39 -29 -39h-303v-168h275q8 -10 8 -34q0 -35 -27 -35zM455 656q-5 -23 -24 -26q-8 -3 -19 0q-13 4 -31.5 16t-45 32t-39.5 29q-12 -8 -39.5 -28.5t-46 -32.5
t-31.5 -16q-10 -3 -18 0q-19 3 -24 26q8 4 70 58t87 54q24 0 87 -53t74 -59z" />
    <glyph glyph-name="edieresis.sc" 
d="M424 251h-256v-181h324q8 -10 8 -31q0 -39 -29 -39h-345q-32 0 -32 34v516q10 7 34 7h364q8 -10 8 -30q0 -39 -29 -39h-303v-168h275q8 -10 8 -34q0 -35 -27 -35zM140 691q0 46 46 46t46 -46q0 -45 -46 -45t-46 45zM350 691q0 46 45 46q46 0 46 -46q0 -45 -46 -45
q-45 0 -45 45z" />
    <glyph glyph-name="edotaccent.sc" 
d="M424 251h-256v-181h324q8 -10 8 -31q0 -39 -29 -39h-345q-32 0 -32 34v516q10 7 34 7h364q8 -10 8 -30q0 -39 -29 -39h-303v-168h275q8 -10 8 -34q0 -35 -27 -35zM255 689q0 47 45 47q46 0 46 -47q0 -45 -46 -45q-45 0 -45 45z" />
    <glyph glyph-name="egrave.sc" 
d="M424 251h-256v-181h324q8 -10 8 -31q0 -39 -29 -39h-345q-32 0 -32 34v516q10 7 34 7h364q8 -10 8 -30q0 -39 -29 -39h-303v-168h275q8 -10 8 -34q0 -35 -27 -35zM390 654q-6 -28 -34 -28q-15 0 -43.5 20t-64 48t-54.5 38q2 34 39 34q24 0 87 -54t70 -58z" />
    <glyph glyph-name="egravesuperior" horiz-adv-x="277" 
d="M247 462h-168q2 -36 22 -54.5t53 -18.5q54 0 84 21q11 -9 11 -20q0 -15 -13 -22q-31 -23 -87 -23q-54 0 -86 35t-32 92q0 60 35 93.5t85 33.5q49 0 74.5 -29.5t25.5 -77.5q0 -18 -4 -30zM151 555q-24 0 -44 -15t-26 -44h126q0 59 -56 59zM210 655q-5 -21 -25 -21
q-11 0 -32 14.5t-46 35t-39 27.5q0 25 28 25q17 0 62.5 -39t51.5 -42z" />
    <glyph glyph-name="eight.dnom" horiz-adv-x="353" 
d="M29 116q0 72 68 102q-51 31 -51 92q0 50 33 77.5t95 27.5q133 0 133 -106q0 -60 -57 -93q74 -28 74 -102q0 -52 -36.5 -86t-110.5 -34t-111 33t-37 89zM168 193l-14 3q-69 -16 -69 -80q0 -32 23.5 -53t67.5 -21q93 0 93 71q0 33 -26.5 51t-74.5 29zM97 310
q0 -27 16.5 -44t34 -22.5t48.5 -12.5q61 20 61 77q0 30 -21.5 46.5t-57.5 16.5t-58.5 -16.5t-22.5 -44.5z" />
    <glyph glyph-name="eight.lf" horiz-adv-x="544" 
d="M41 190q0 124 114 174q-88 49 -88 156q0 81 52.5 126t148.5 45q102 0 155.5 -44.5t53.5 -129.5q0 -53 -26.5 -94.5t-70.5 -65.5q122 -47 122 -170q0 -87 -57 -142t-174 -55q-115 0 -172.5 54.5t-57.5 145.5zM266 325l-31 7q-53 -11 -87 -47t-34 -96q0 -58 40 -94.5
t116 -36.5q82 0 121 35t39 93t-44 90t-120 49zM136 520q0 -36 13.5 -61.5t40 -41t51.5 -23.5t63 -16q47 14 76 50.5t29 88.5q0 53 -36 83t-100 30q-62 0 -99.5 -30.5t-37.5 -79.5z" />
    <glyph glyph-name="eight.numr" horiz-adv-x="353" 
d="M29 401q0 72 68 102q-51 31 -51 92q0 50 33 77.5t95 27.5q133 0 133 -106q0 -60 -57 -93q74 -28 74 -102q0 -52 -36.5 -86t-110.5 -34t-111 33t-37 89zM168 478l-14 3q-69 -16 -69 -80q0 -32 23.5 -53t67.5 -21q93 0 93 71q0 33 -26.5 51t-74.5 29zM97 595
q0 -27 16.5 -44t34 -22.5t48.5 -12.5q61 20 61 77q0 30 -21.5 46.5t-57.5 16.5t-58.5 -16.5t-22.5 -44.5z" />
    <glyph glyph-name="eight.sc" horiz-adv-x="479" 
d="M42 153q0 95 91 136q-69 42 -69 123q0 66 44.5 102t127.5 36q87 0 132.5 -35.5t45.5 -104.5q0 -81 -76 -123q98 -39 98 -136q0 -69 -49 -114t-147 -45q-99 0 -148.5 44t-49.5 117zM230 255q-8 1 -22 5q-42 -9 -68.5 -36t-26.5 -70t32.5 -70.5t93.5 -27.5q65 0 95.5 25.5
t30.5 69.5q0 43 -35.5 66.5t-99.5 37.5zM130 412q0 -50 35.5 -72t99.5 -34q37 11 60 37.5t23 65.5t-28.5 61t-79.5 22q-49 0 -79.5 -22t-30.5 -58z" />
    <glyph glyph-name="eight.tf" horiz-adv-x="582" 
d="M60 190q0 124 114 174q-88 49 -88 156q0 81 52.5 126t148.5 45q102 0 155.5 -44.5t53.5 -129.5q0 -53 -26.5 -94.5t-70.5 -65.5q122 -47 122 -170q0 -87 -57 -142t-174 -55q-115 0 -172.5 54.5t-57.5 145.5zM285 325l-31 7q-53 -11 -87 -47t-34 -96q0 -58 40 -94.5
t116 -36.5q82 0 121 35t39 93t-44 90t-120 49zM155 520q0 -36 13.5 -61.5t40 -41t51.5 -23.5t63 -16q47 14 76 50.5t29 88.5q0 53 -36 83t-100 30q-62 0 -99.5 -30.5t-37.5 -79.5z" />
    <glyph glyph-name="eight.tosf" horiz-adv-x="582" 
d="M60 190q0 124 114 174q-88 49 -88 156q0 81 52.5 126t148.5 45q102 0 155.5 -44.5t53.5 -129.5q0 -53 -26.5 -94.5t-70.5 -65.5q122 -47 122 -170q0 -87 -57 -142t-174 -55q-115 0 -172.5 54.5t-57.5 145.5zM285 325l-31 7q-53 -11 -87 -47t-34 -96q0 -58 40 -94.5
t116 -36.5q82 0 121 35t39 93t-44 90t-120 49zM155 520q0 -36 13.5 -61.5t40 -41t51.5 -23.5t63 -16q47 14 76 50.5t29 88.5q0 53 -36 83t-100 30q-62 0 -99.5 -30.5t-37.5 -79.5z" />
    <glyph glyph-name="emacron.sc" 
d="M424 251h-256v-181h324q8 -10 8 -31q0 -39 -29 -39h-345q-32 0 -32 34v516q10 7 34 7h364q8 -10 8 -30q0 -39 -29 -39h-303v-168h275q8 -10 8 -34q0 -35 -27 -35zM408 657h-266q-8 16 -8 26q0 18 8.5 26t36.5 8h274q8 -8 8 -24q0 -36 -53 -36z" />
    <glyph glyph-name="emdash.case" horiz-adv-x="676" 
d="M569 307h-506q-9 23 -9 33q0 21 9 31t37 10h514q8 -8 8 -29q0 -45 -53 -45z" />
    <glyph glyph-name="endash.case" horiz-adv-x="524" 
d="M417 311h-354q-9 22 -9 33q0 21 9 31t37 10h362q8 -10 8 -29q0 -45 -53 -45z" />
    <glyph glyph-name="eng.sc" horiz-adv-x="636" 
d="M473 -21v38l-309 405l4 -414q-10 -8 -42 -8t-32 33v517q16 7 39 7q21 0 34 -18l304 -410l-2 419q13 10 36 10q39 0 39 -28v-561q0 -106 -102 -106q-84 0 -84 37q0 15 5 28h58q52 0 52 51z" />
    <glyph glyph-name="eogonek.sc" 
d="M424 251h-256v-181h324q8 -10 8 -30q0 -24 -12 -38q-50 -53 -50 -94q0 -42 56 -42q5 -9 5 -22q0 -23 -34 -23q-30 0 -53 18.5t-23 57.5q0 52 41 103h-304q-32 0 -32 34v516q10 7 34 7h364q8 -10 8 -30q0 -39 -29 -39h-303v-168h275q8 -10 8 -34q0 -35 -27 -35z" />
    <glyph glyph-name="eth.sc" horiz-adv-x="603" 
d="M131 557h116q149 0 222.5 -69t73.5 -217q0 -144 -71 -207.5t-205 -63.5h-136q-37 0 -37 33v208h-72q-8 18 -8 31q0 34 37 34h43v244q12 7 37 7zM265 241h-97v-176h97q102 0 153 48t51 157q0 112 -54 165.5t-165 53.5h-82v-183h129q8 -12 8 -31q0 -34 -40 -34z" />
    <glyph glyph-name="exclamdown.case" horiz-adv-x="173" 
d="M7 0q-41 0 -41 31v511q11 11 39 11q39 0 39 -42v-503q-13 -8 -37 -8zM50 655q0 -47 -46 -47t-46 47q0 45 46 45t46 -45z" />
    <glyph glyph-name="five.dnom" horiz-adv-x="345" 
d="M285 359h-183l-6 -121q39 13 79 13q66 0 105.5 -30.5t39.5 -95.5q0 -57 -40 -94t-115 -37q-72 0 -105.5 27t-33.5 57q0 23 25 31q9 -26 36.5 -46.5t75.5 -20.5q50 0 75.5 22.5t25.5 62.5q0 78 -107 78q-23 0 -53.5 -5.5t-42.5 -5.5q-19 0 -19 25l8 186q10 6 35 6h215
q7 -5 7 -22q0 -30 -22 -30z" />
    <glyph glyph-name="five.lf" horiz-adv-x="531" 
d="M444 613h-299l-10 -222q65 25 133 25q106 0 168.5 -50.5t62.5 -158.5q0 -95 -62 -156t-182 -61q-60 0 -105 15t-68 38t-34 46t-11 44q0 37 36 46q10 -48 54 -85t125 -37q87 0 129.5 41t42.5 112q0 72 -47 106.5t-130 34.5q-40 0 -90.5 -11t-65.5 -11q-13 0 -20.5 9.5
t-6.5 25.5l11 313q16 10 46 10h347q9 -13 9 -32q0 -42 -33 -42z" />
    <glyph glyph-name="five.numr" horiz-adv-x="345" 
d="M285 644h-183l-6 -121q39 13 79 13q66 0 105.5 -30.5t39.5 -95.5q0 -57 -40 -94t-115 -37q-72 0 -105.5 27t-33.5 57q0 23 25 31q9 -26 36.5 -46.5t75.5 -20.5q50 0 75.5 22.5t25.5 62.5q0 78 -107 78q-23 0 -53.5 -5.5t-42.5 -5.5q-19 0 -19 25l8 186q10 6 35 6h215
q7 -5 7 -22q0 -30 -22 -30z" />
    <glyph glyph-name="five.sc" horiz-adv-x="467" 
d="M384 477h-247l-8 -161q50 18 107 18q89 0 142 -40.5t53 -127.5q0 -76 -53 -125t-154 -49q-96 0 -141 35.5t-45 75.5q0 31 33 43q10 -35 47.5 -63t103.5 -28q69 0 103 30t34 84q0 104 -145 104q-32 0 -73.5 -7.5t-55.5 -7.5q-26 0 -24 32l9 247q14 9 45 9h290q8 -13 8 -30
q0 -39 -29 -39z" />
    <glyph glyph-name="five.tf" horiz-adv-x="582" 
d="M467 613h-299l-10 -222q65 25 133 25q106 0 168.5 -50.5t62.5 -158.5q0 -95 -62 -156t-182 -61q-60 0 -105 15t-68 38t-34 46t-11 44q0 37 36 46q10 -48 54 -85t125 -37q87 0 129.5 41t42.5 112q0 72 -47 106.5t-130 34.5q-40 0 -90.5 -11t-65.5 -11q-13 0 -20.5 9.5
t-6.5 25.5l11 313q16 10 46 10h347q9 -13 9 -32q0 -42 -33 -42z" />
    <glyph glyph-name="five.tosf" horiz-adv-x="582" 
d="M467 484h-299l-10 -222q65 25 133 25q106 0 168.5 -50.5t62.5 -158.5q0 -95 -62 -156t-182 -61q-60 0 -105 15t-68 38t-34 46t-11 44q0 37 36 46q10 -48 54 -85t125 -37q87 0 129.5 41t42.5 112q0 72 -47 106.5t-130 34.5q-40 0 -90.5 -11t-65.5 -11q-13 0 -20.5 9.5
t-6.5 25.5l11 313q16 10 46 10h347q9 -14 9 -32q0 -42 -33 -42z" />
    <glyph glyph-name="florin.lf" horiz-adv-x="502" 
d="M387 332h-118l-54 -385q-10 -73 -48 -104t-109 -31q-81 0 -81 39q0 16 7 32h81q32 0 50.5 16.5t24.5 60.5l52 372h-114q-8 20 -8 36q0 36 42 36h90l23 165q10 70 48.5 100.5t110.5 30.5q87 0 87 -37q0 -18 -5 -35h-85q-36 0 -55.5 -16.5t-25.5 -56.5l-21 -151h148
q8 -10 8 -33q0 -39 -48 -39z" />
    <glyph glyph-name="florin.tf" horiz-adv-x="502" 
d="M387 332h-118l-54 -385q-10 -73 -48 -104t-109 -31q-81 0 -81 39q0 16 7 32h81q32 0 50.5 16.5t24.5 60.5l52 372h-114q-8 20 -8 36q0 36 42 36h90l23 165q10 70 48.5 100.5t110.5 30.5q87 0 87 -37q0 -18 -5 -35h-85q-36 0 -55.5 -16.5t-25.5 -56.5l-21 -151h148
q8 -10 8 -33q0 -39 -48 -39z" />
    <glyph glyph-name="florin.tosf" horiz-adv-x="502" 
d="M387 332h-118l-54 -385q-10 -73 -48 -104t-109 -31q-81 0 -81 39q0 16 7 32h81q32 0 50.5 16.5t24.5 60.5l52 372h-114q-8 20 -8 36q0 36 42 36h90l23 165q10 70 48.5 100.5t110.5 30.5q87 0 87 -37q0 -18 -5 -35h-85q-36 0 -55.5 -16.5t-25.5 -56.5l-21 -151h148
q8 -10 8 -33q0 -39 -48 -39z" />
    <glyph glyph-name="four.dnom" horiz-adv-x="371" 
d="M258 292q26 0 26 -21v-140h60q6 -6 6 -24q0 -23 -19 -23h-47l1 -79q-10 -5 -31 -5q-24 0 -24 21l-1 63h-202q-5 6 -5 19q0 12 5 25l92 281q12 5 32 5q12 0 17 -6.5t2 -16.5l-84 -260h143v153q14 8 29 8z" />
    <glyph glyph-name="four.lf" horiz-adv-x="573" 
d="M405 482q35 0 35 -29v-243h95q7 -9 7 -34q0 -33 -26 -33h-76v-136q-10 -7 -41 -7q-32 0 -32 30l-1 113h-329q-6 11 -6 27q0 15 7 36l150 477q14 7 42 7q17 0 23.5 -9.5t1.5 -23.5l-140 -447h251v261q16 11 39 11z" />
    <glyph glyph-name="four.numr" horiz-adv-x="372" 
d="M258 577q26 0 26 -21v-140h60q6 -6 6 -24q0 -23 -19 -23h-47l1 -79q-10 -5 -31 -5q-24 0 -24 21l-1 63h-202q-5 6 -5 19q0 12 5 25l92 281q12 5 32 5q12 0 17 -6.5t2 -16.5l-84 -260h143v153q14 8 29 8z" />
    <glyph glyph-name="four.sc" horiz-adv-x="503" 
d="M350 387q33 0 33 -27v-186h80q7 -9 7 -32q0 -30 -24 -30h-63l1 -106q-12 -6 -40 -6q-31 0 -31 27l-1 85h-273q-6 9 -6 24q0 9 6 35l125 371q12 7 41 7q15 0 21.5 -8.5t1.5 -21.5l-113 -345h197v203q18 10 38 10z" />
    <glyph glyph-name="four.tf" horiz-adv-x="582" 
d="M409 482q35 0 35 -29v-243h95q7 -9 7 -34q0 -33 -26 -33h-76v-136q-10 -7 -41 -7q-32 0 -32 30l-1 113h-329q-6 11 -6 27q0 15 7 36l150 477q14 7 42 7q17 0 23.5 -9.5t1.5 -23.5l-140 -447h251v261q17 11 39 11z" />
    <glyph glyph-name="four.tosf" horiz-adv-x="582" 
d="M409 339q35 0 35 -29v-243h95q7 -9 7 -34q0 -33 -26 -33h-76v-136q-10 -7 -41 -7q-32 0 -32 30l-1 113h-329q-6 10 -6 27q0 15 7 36l150 477q14 7 42 7q17 0 23.5 -9.5t1.5 -23.5l-140 -447h251v261q17 11 39 11z" />
    <glyph glyph-name="gbreve.sc" horiz-adv-x="606" 
d="M472 232h-155q-8 13 -8 30q0 29 43 29h132q29 0 39 -12.5t10 -44.5v-227q-13 -8 -33 -8q-14 0 -21 6t-7 24v45q-66 -82 -168 -82q-105 0 -174.5 72t-69.5 215q0 142 71.5 214t187.5 72q86 0 138.5 -28t52.5 -55q0 -14 -9.5 -22.5t-20.5 -10.5q-59 50 -160 50
q-83 0 -137 -57t-54 -165q0 -113 53 -168t130 -55q101 0 160 88v90zM222 751q2 -31 22 -50q21 -20 66 -20q43 0 63 19q20 17 24 50q9 8 29 6q13 0 19.5 -7t4.5 -17q-7 -43 -39 -73q-35 -30 -101 -30q-64 0 -101 29q-38 30 -41 76q-2 22 23 23q16 1 31 -6z" />
    <glyph glyph-name="gcircumflex.sc" horiz-adv-x="606" 
d="M472 232h-155q-8 13 -8 30q0 29 43 29h132q29 0 39 -12.5t10 -44.5v-227q-13 -8 -33 -8q-14 0 -21 6t-7 24v45q-66 -82 -168 -82q-105 0 -174.5 72t-69.5 215q0 142 71.5 214t187.5 72q86 0 138.5 -28t52.5 -55q0 -14 -9.5 -22.5t-20.5 -10.5q-59 50 -160 50
q-83 0 -137 -57t-54 -165q0 -113 53 -168t130 -55q101 0 160 88v90zM474 656q-5 -23 -24 -26q-8 -3 -19 0q-13 4 -31.5 16t-45 32t-39.5 29q-12 -8 -39.5 -28.5t-46 -32.5t-31.5 -16q-10 -3 -18 0q-19 3 -24 26q8 4 70 58t87 54q24 0 87 -53t74 -59z" />
    <glyph glyph-name="gcommaaccent.sc" horiz-adv-x="606" 
d="M472 232h-155q-8 13 -8 30q0 29 43 29h132q29 0 39 -12.5t10 -44.5v-227q-13 -8 -33 -8q-14 0 -21 6t-7 24v45q-66 -82 -168 -82q-105 0 -174.5 72t-69.5 215q0 142 71.5 214t187.5 72q86 0 138.5 -28t52.5 -55q0 -14 -9.5 -22.5t-20.5 -10.5q-59 50 -160 50
q-83 0 -137 -57t-54 -165q0 -113 53 -168t130 -55q101 0 160 88v90zM314 -156q-46 0 -46 45q0 47 46 47q25 0 37 -15.5t12 -53.5q0 -54 -15 -86t-36 -32q-22 0 -26 17q13 12 20.5 36.5t7.5 41.5z" />
    <glyph glyph-name="gdotaccent.sc" horiz-adv-x="606" 
d="M472 232h-155q-8 13 -8 30q0 29 43 29h132q29 0 39 -12.5t10 -44.5v-227q-13 -8 -33 -8q-14 0 -21 6t-7 24v45q-66 -82 -168 -82q-105 0 -174.5 72t-69.5 215q0 142 71.5 214t187.5 72q86 0 138.5 -28t52.5 -55q0 -14 -9.5 -22.5t-20.5 -10.5q-59 50 -160 50
q-83 0 -137 -57t-54 -165q0 -113 53 -168t130 -55q101 0 160 88v90zM257 688q0 47 45 47q46 0 46 -47q0 -45 -46 -45q-45 0 -45 45z" />
    <glyph glyph-name="germandbls.sc" horiz-adv-x="1058" 
d="M261 565q122 0 172 -48q15 -14 15 -35q0 -17 -18 -35q-60 41 -169 41q-60 0 -90 -21t-30 -55q0 -33 31.5 -55t112.5 -43q100 -24 143.5 -60t44.5 -105q1 -72 -52 -114.5t-156 -42.5q-111 0 -173 38q-37 22 -37 49q0 24 13 37q70 -52 194 -52q72 0 104.5 23t32.5 59
t-29.5 58t-108.5 41q-107 26 -150 62.5t-43 106.5q0 68 49 109.5t144 41.5zM790 565q122 0 172 -48q15 -14 15 -35q0 -17 -18 -35q-60 41 -169 41q-60 0 -90 -21t-30 -55q0 -33 31.5 -55t112.5 -43q100 -24 143.5 -60t44.5 -105q1 -72 -52 -114.5t-156 -42.5q-111 0 -173 38
q-37 22 -37 49q0 24 13 37q70 -52 194 -52q72 0 104.5 23t32.5 59t-29.5 58t-108.5 41q-107 26 -150 62.5t-43 106.5q0 68 49 109.5t144 41.5z" />
    <glyph glyph-name="guillemotleft.case" horiz-adv-x="495" 
d="M49 386l152 170q8 4 18 4q13 0 22.5 -10.5t9.5 -21.5q0 -15 -11 -28l-133 -151l140 -161q3 -15 3 -18q0 -12 -10.5 -20t-22.5 -8q-17 0 -29 15l-143 160q-8 14 -8 34q0 21 12 35zM249 386l152 170q8 4 18 4q13 0 22.5 -10.5t9.5 -21.5q0 -15 -11 -28l-133 -151l140 -161
q3 -15 3 -18q0 -12 -10.5 -20t-22.5 -8q-17 0 -29 15l-143 160q-8 14 -8 34q0 21 12 35z" />
    <glyph glyph-name="guillemotright.case" horiz-adv-x="495" 
d="M245 314l-152 -170q-8 -4 -18 -4q-13 0 -22.5 10.5t-9.5 21.5q0 15 11 28l133 151l-140 161q-3 15 -3 18q0 12 10.5 20t22.5 8q17 0 29 -15l143 -160q8 -14 8 -34q0 -21 -12 -35zM446 314l-152 -170q-8 -4 -18 -4q-13 0 -22.5 10.5t-9.5 21.5q0 15 11 28l133 151
l-140 161q-3 15 -3 18q0 12 10.5 20t22.5 8q17 0 29 -15l143 -160q8 -14 8 -34q0 -21 -12 -35z" />
    <glyph glyph-name="guilsinglleft.case" horiz-adv-x="294" 
d="M49 386l152 170q8 4 18 4q13 0 22.5 -10.5t9.5 -21.5q0 -15 -11 -28l-133 -151l140 -161q3 -15 3 -18q0 -12 -10.5 -20t-22.5 -8q-17 0 -29 15l-143 160q-8 14 -8 34q0 21 12 35z" />
    <glyph glyph-name="guilsinglright.case" horiz-adv-x="294" 
d="M245 314l-152 -170q-8 -4 -18 -4q-13 0 -22.5 10.5t-9.5 21.5q0 15 11 28l133 151l-140 161q-3 15 -3 18q0 12 10.5 20t22.5 8q17 0 29 -15l143 -160q8 -14 8 -34q0 -21 -12 -35z" />
    <glyph glyph-name="hbar.sc" horiz-adv-x="634" 
d="M593 397h-53v-390q-10 -7 -35 -7q-39 0 -39 34v199h-298v-224q-11 -9 -42 -9q-32 0 -32 34v363h-76q-8 20 -8 33q0 31 32 31h52v89q14 7 39 7q35 0 35 -28v-68h298v89q12 7 39 7q35 0 35 -28v-68h76q8 -14 8 -31q0 -33 -31 -33zM168 397v-100h298v100h-298z" />
    <glyph glyph-name="hcircumflex.sc" horiz-adv-x="634" 
d="M505 557q35 0 35 -28v-522q-10 -7 -35 -7q-39 0 -39 34v218h-298v-243q-11 -9 -42 -9q-32 0 -32 34v516q14 7 39 7q35 0 35 -28v-210h298v231q12 7 39 7zM476 656q-5 -23 -24 -26q-8 -3 -19 0q-13 4 -31.5 16t-45 32t-39.5 29q-12 -8 -39.5 -28.5t-46 -32.5t-31.5 -16
q-10 -3 -18 0q-19 3 -24 26q8 4 70 58t87 54q24 0 87 -53t74 -59z" />
    <glyph glyph-name="hyphen.case" horiz-adv-x="427" 
d="M320 311h-256q-9 22 -9 33q0 21 9 31t37 10h264q8 -8 8 -29q0 -45 -53 -45z" />
    <glyph glyph-name="i.latn_TRK" horiz-adv-x="291" 
d="M114 482q36 0 53.5 -16.5t17.5 -61.5v-316q0 -26 23 -26h29q6 -9 6 -25q0 -37 -67 -37q-66 0 -66 68v315q0 28 -25 28h-29q-6 11 -6 30q0 41 64 41zM89 619q0 50 49 50t49 -50q0 -48 -49 -48t-49 48z" />
    <glyph glyph-name="i.latn_TRK.sc" horiz-adv-x="262" 
d="M134 557q34 0 34 -28v-520q-15 -9 -40 -9q-34 0 -34 34v516q14 7 40 7zM85 689q0 47 45 47q46 0 46 -47q0 -45 -46 -45q-45 0 -45 45z" />
    <glyph glyph-name="iacute.sc" horiz-adv-x="262" 
d="M134 557q34 0 34 -28v-520q-15 -9 -40 -9q-34 0 -34 34v516q14 7 40 7zM33 655q12 7 44.5 36t64 52.5t49.5 23.5q38 0 38 -34q-19 -10 -54 -38t-63.5 -48t-43.5 -20q-29 0 -35 28z" />
    <glyph glyph-name="ibreve.sc" horiz-adv-x="262" 
d="M134 557q34 0 34 -28v-520q-15 -9 -40 -9q-34 0 -34 34v516q14 7 40 7zM44 751q2 -31 22 -50q21 -20 66 -20q43 0 63 19q20 17 24 50q9 8 29 6q13 0 19.5 -7t4.5 -17q-7 -43 -39 -73q-34 -30 -101 -30q-64 0 -101 29q-38 30 -41 76q-2 22 23 23q16 1 31 -6z" />
    <glyph glyph-name="icircumflex.sc" horiz-adv-x="262" 
d="M134 557q34 0 34 -28v-520q-15 -9 -40 -9q-34 0 -34 34v516q14 7 40 7zM291 656q-5 -23 -24 -26q-8 -3 -19 0q-13 4 -31.5 16t-45 32t-39.5 29q-12 -8 -39.5 -28.5t-46 -32.5t-31.5 -16q-10 -3 -18 0q-19 3 -24 26q8 4 70 58t87 54q24 0 87 -53t74 -59z" />
    <glyph glyph-name="idieresis.sc" horiz-adv-x="262" 
d="M134 557q34 0 34 -28v-520q-15 -9 -40 -9q-34 0 -34 34v516q14 7 40 7zM-19 691q0 46 46 46t46 -46q0 -45 -46 -45t-46 45zM191 691q0 46 45 46q46 0 46 -46q0 -45 -46 -45q-45 0 -45 45z" />
    <glyph glyph-name="idotaccent" horiz-adv-x="291" 
d="M114 482q36 0 53.5 -16.5t17.5 -61.5v-316q0 -26 23 -26h29q6 -9 6 -25q0 -37 -67 -37q-66 0 -66 68v315q0 28 -25 28h-29q-6 11 -6 30q0 41 64 41zM89 619q0 50 49 50t49 -50q0 -48 -49 -48t-49 48z" />
    <glyph glyph-name="idotaccent.sc" horiz-adv-x="262" 
d="M134 557q34 0 34 -28v-520q-15 -9 -40 -9q-34 0 -34 34v516q14 7 40 7zM85 689q0 47 45 47q46 0 46 -47q0 -45 -46 -45q-45 0 -45 45z" />
    <glyph glyph-name="igrave.sc" horiz-adv-x="262" 
d="M134 557q34 0 34 -28v-520q-15 -9 -40 -9q-34 0 -34 34v516q14 7 40 7zM229 654q-6 -28 -34 -28q-15 0 -43.5 20t-64 48t-54.5 38q2 34 39 34q24 0 87 -54t70 -58z" />
    <glyph glyph-name="ij.sc" horiz-adv-x="609" 
d="M134 557q34 0 34 -28v-520q-15 -9 -40 -9q-34 0 -34 34v516q14 7 40 7zM482 557q33 0 33 -29v-416q0 -112 -117 -112q-111 0 -111 43q0 16 6 27h87q65 0 65 58v422q13 7 37 7z" />
    <glyph glyph-name="imacron.sc" horiz-adv-x="262" 
d="M134 557q34 0 34 -28v-520q-15 -9 -40 -9q-34 0 -34 34v516q14 7 40 7zM242 657h-266q-8 16 -8 26q0 18 8.5 26t36.5 8h274q8 -8 8 -24q0 -36 -53 -36z" />
    <glyph glyph-name="iogonek.sc" horiz-adv-x="262" 
d="M110 7q-16 11 -16 43v500q14 7 40 7q34 0 34 -28v-521q-57 -53 -57 -100q0 -42 56 -42q5 -12 5 -22q0 -23 -34 -23q-30 0 -53.5 18.5t-23.5 57.5q0 51 49 110z" />
    <glyph glyph-name="itilde.sc" horiz-adv-x="262" 
d="M134 557q34 0 34 -28v-520q-15 -9 -40 -9q-34 0 -34 34v516q14 7 40 7zM49 733q29 0 82.5 -15.5t77.5 -15.5q42 0 63 24q18 -9 18 -34q0 -19 -18.5 -32.5t-50.5 -13.5q-27 0 -89 14.5t-84 14.5q-19 0 -35.5 -8.5t-18.5 -17.5q-20 7 -20 31q0 17 21.5 35t53.5 18z" />
    <glyph glyph-name="jcircumflex.sc" horiz-adv-x="347" 
d="M220 557q33 0 33 -29v-416q0 -112 -117 -112q-111 0 -111 43q0 16 6 27h87q65 0 65 58v422q13 7 37 7zM376 656q-5 -23 -24 -26q-8 -3 -19 0q-13 4 -31.5 16t-45 32t-39.5 29q-12 -8 -39.5 -28.5t-46 -32.5t-31.5 -16q-10 -3 -18 0q-19 3 -24 26q8 4 70 58t87 54
q24 0 87 -53t74 -59z" />
    <glyph glyph-name="kcommaaccent.sc" horiz-adv-x="537" 
d="M132 557q34 0 34 -27v-236q69 48 128.5 121.5t85.5 136.5q13 5 32 5q11 0 19 -7.5t8 -18.5q0 -15 -12 -39q-62 -112 -158 -193q25 -22 62.5 -83.5t71.5 -106t62 -44.5h24q6 -7 6 -25q0 -40 -54 -40q-32 0 -63.5 30t-54 67.5l-53 87.5t-51.5 76q-26 -18 -53 -34v-219
q-13 -8 -41 -8q-31 0 -31 33v516q13 8 38 8zM271 -156q-46 0 -46 45q0 47 46 47q25 0 37 -15.5t12 -53.5q0 -54 -15 -86t-36 -32q-22 0 -26 17q13 12 20.5 36.5t7.5 41.5z" />
    <glyph glyph-name="kgreenlandic.sc" horiz-adv-x="537" 
d="M132 557q34 0 34 -27v-236q69 48 128.5 121.5t85.5 136.5q13 5 32 5q11 0 19 -7.5t8 -18.5q0 -15 -12 -39q-62 -112 -158 -193q25 -22 62.5 -83.5t71.5 -106t62 -44.5h24q6 -7 6 -25q0 -40 -54 -40q-32 0 -63.5 30t-54 67.5l-53 87.5t-51.5 76q-26 -18 -53 -34v-219
q-13 -8 -41 -8q-31 0 -31 33v516q13 8 38 8z" />
    <glyph glyph-name="lacute.sc" horiz-adv-x="473" 
d="M131 557q37 0 37 -27v-460h274q8 -13 8 -31q0 -39 -42 -39h-282q-32 0 -32 33v517q10 7 37 7zM102 655q12 7 44.5 36t64 52.5t49.5 23.5q38 0 38 -34q-19 -10 -54 -38t-63.5 -48t-43.5 -20q-29 0 -35 28z" />
    <glyph glyph-name="lcaron.sc" horiz-adv-x="473" 
d="M131 557q37 0 37 -27v-460h274q8 -13 8 -31q0 -39 -42 -39h-282q-32 0 -32 33v517q10 7 37 7zM300 466q-46 0 -46 45q0 47 46 47q25 0 37 -15.5t12 -53.5q0 -54 -15 -86t-36 -32q-22 0 -26 17q13 12 20.5 36.5t7.5 41.5z" />
    </font>
</defs>
</svg>
